<svg width="250" height="72" viewBox="0 0 250 72" fill="none" xmlns="http://www.w3.org/2000/svg">
<g id="cuxie">
<path id="Vector" fill-rule="evenodd" clip-rule="evenodd" d="M211.103 67.443C215.006 69.5343 219.747 70.5799 225.323 70.5799C227.833 70.5799 230.482 70.1617 233.27 69.3252C236.128 68.4887 238.777 67.3733 241.217 65.9792C241.217 65.9792 243.053 64.7792 244.758 63.0744L236.802 53.4137C236.169 54.0538 235.732 54.4377 234.734 55.1047C233.735 55.7716 231.771 56.7428 230.238 57.3005C228.774 57.8581 227.24 58.137 225.637 58.137C223.406 58.137 221.385 57.649 219.572 56.6731C218.407 56.0454 217.399 55.2303 216.551 54.2278L250 43.6028C248.745 36.4228 245.992 30.9507 241.739 27.1865C237.557 23.3525 232.189 21.4355 225.637 21.4355C220.757 21.4355 216.331 22.5509 212.357 24.7815C208.384 26.9425 205.212 29.8703 202.842 33.5648C200.472 37.2593 199.287 41.407 199.287 46.0077C199.287 50.8176 200.298 55.0698 202.319 58.7643C204.341 62.4589 207.269 65.3518 211.103 67.443ZM233.799 39.3263L213.736 46.0957C213.723 45.793 213.717 45.4848 213.717 45.1712C213.717 42.6617 214.135 40.5008 214.971 38.6884C215.878 36.8062 217.132 35.3772 218.736 34.4013C220.409 33.3557 222.326 32.8329 224.487 32.8329C227.345 32.8329 229.471 33.5299 230.865 34.9241C232.247 36.1742 233.225 37.6416 233.799 39.3263Z" fill="#00509B"/>
<path id="Vector_2" d="M173.128 23.6311H187.767V69.3249H173.128V23.6311ZM172.814 7.42394C172.814 5.26298 173.651 3.48542 175.324 2.09125C177.067 0.697085 178.914 0 180.866 0C182.818 0 184.595 0.697085 186.198 2.09125C187.871 3.48542 188.708 5.26298 188.708 7.42394C188.708 9.58489 187.871 11.3625 186.198 12.7566C184.595 14.0811 182.818 14.7433 180.866 14.7433C178.914 14.7433 177.067 14.0811 175.324 12.7566C173.651 11.3625 172.814 9.58489 172.814 7.42394Z" fill="#00509B"/>
<path id="Vector_3" d="M138.793 38.165L147.471 23.6309H162.006L143.916 48.7258L138.793 38.165ZM164.515 69.3247H146.844L111.606 23.6309H129.591L164.515 69.3247ZM136.911 54.6859L126.663 69.3247H112.129L130.219 44.857L136.911 54.6859Z" fill="#00509B"/>
<path id="Vector_4" d="M70.9271 71.5694C66.7249 71.5694 63.1993 70.2873 60.3504 67.7233C57.5014 65.088 56.0057 61.7049 55.8633 57.5739V22.6387H70.8203V52.0184C70.9627 54.0839 71.4969 55.7577 72.4228 57.0397C73.3487 58.2505 74.9156 58.8559 77.1236 58.8559C79.3315 58.8559 81.2189 58.1081 82.7858 56.6124C84.424 55.1167 85.6704 53.0868 86.5251 50.5227C87.451 47.8875 87.9139 44.9317 87.9139 41.6554V22.6387H102.871V69.3258H89.3028L88.1276 60.779L88.3413 61.7405C87.2729 63.6635 85.9197 65.3729 84.2815 66.8686C82.6434 68.3643 80.6847 69.5039 78.4056 70.2873C76.1977 71.142 73.7048 71.5694 70.9271 71.5694Z" fill="#00509B"/>
<path id="Vector_5" d="M44.189 65.0705C42.0796 66.7435 39.4246 68.0892 36.2241 69.1075C33.0963 70.1259 30.0049 70.635 26.9498 70.635C21.4944 70.635 16.73 69.653 12.6566 67.6891C8.65595 65.6524 5.52817 62.7792 3.27326 59.0695C1.09109 55.2871 0 50.7409 0 45.4309C0 40.121 1.20019 35.6112 3.60058 31.9015C6.00098 28.119 9.12876 25.2458 12.9839 23.2819C16.9118 21.3179 21.0216 20.3359 25.3132 20.3359C29.6048 20.3359 33.3145 20.9179 36.4423 22.0817C39.6428 23.2455 42.3705 24.773 44.6254 26.6642L37.2061 36.484C36.1877 35.6839 34.7693 34.8838 32.9508 34.0836C31.2051 33.2108 29.132 32.7743 26.7316 32.7743C24.6222 32.7743 22.6946 33.3199 20.9489 34.411C19.2031 35.502 17.8211 36.9932 16.8027 38.8844C15.7844 40.7756 15.2752 42.9578 15.2752 45.4309C15.2752 47.7586 15.8208 49.9044 16.9118 51.8683C18.0029 53.8323 19.4941 55.3962 21.3853 56.56C23.3493 57.6511 25.6405 58.1966 28.2591 58.1966C29.9321 58.1966 31.4597 57.9784 32.8417 57.542C34.2965 57.0328 35.5331 56.3418 36.5514 55.4689L44.189 65.0705Z" fill="#00509B"/>
</g>
</svg>
