<svg width="251" height="72" viewBox="0 0 251 72" fill="none" xmlns="http://www.w3.org/2000/svg">
<path fill-rule="evenodd" clip-rule="evenodd" d="M211.353 67.443C215.256 69.5343 219.997 70.5799 225.573 70.5799C228.083 70.5799 230.732 70.1617 233.52 69.3252C236.378 68.4887 239.027 67.3733 241.467 65.9792C241.467 65.9792 243.303 64.7792 245.008 63.0744L237.052 53.4137C236.419 54.0538 235.982 54.4377 234.984 55.1047C233.985 55.7716 232.021 56.7428 230.488 57.3005C229.024 57.8581 227.49 58.137 225.887 58.137C223.656 58.137 221.635 57.649 219.822 56.6731C218.657 56.0454 217.649 55.2303 216.801 54.2278L250.25 43.6028C248.995 36.4228 246.242 30.9507 241.989 27.1865C237.807 23.3525 232.439 21.4355 225.887 21.4355C221.007 21.4355 216.581 22.5509 212.607 24.7815C208.634 26.9425 205.462 29.8703 203.092 33.5648C200.722 37.2593 199.537 41.407 199.537 46.0077C199.537 50.8176 200.548 55.0698 202.569 58.7643C204.591 62.4589 207.519 65.3518 211.353 67.443ZM234.049 39.3263L213.986 46.0957C213.973 45.793 213.967 45.4848 213.967 45.1712C213.967 42.6617 214.385 40.5008 215.221 38.6884C216.128 36.8062 217.382 35.3772 218.986 34.4013C220.659 33.3557 222.576 32.8329 224.737 32.8329C227.595 32.8329 229.721 33.5299 231.115 34.9241C232.497 36.1742 233.475 37.6416 234.049 39.3263Z" fill="white"/>
<path d="M173.378 23.6311H188.017V69.3249H173.378V23.6311ZM173.064 7.42394C173.064 5.26298 173.901 3.48542 175.574 2.09125C177.317 0.697085 179.164 0 181.116 0C183.068 0 184.845 0.697085 186.448 2.09125C188.121 3.48542 188.958 5.26298 188.958 7.42394C188.958 9.58489 188.121 11.3625 186.448 12.7566C184.845 14.0811 183.068 14.7433 181.116 14.7433C179.164 14.7433 177.317 14.0811 175.574 12.7566C173.901 11.3625 173.064 9.58489 173.064 7.42394Z" fill="white"/>
<path d="M139.043 38.165L147.721 23.6309H162.256L144.166 48.7258L139.043 38.165ZM164.765 69.3247H147.094L111.856 23.6309H129.841L164.765 69.3247ZM137.161 54.6859L126.913 69.3247H112.379L130.469 44.857L137.161 54.6859Z" fill="white"/>
<path d="M71.1771 71.5684C66.9749 71.5684 63.4493 70.2864 60.6004 67.7223C57.7514 65.087 56.2557 61.7039 56.1133 57.5729V22.6377H71.0703V52.0175C71.2127 54.083 71.7469 55.7567 72.6728 57.0387C73.5987 58.2495 75.1656 58.8549 77.3736 58.8549C79.5815 58.8549 81.4689 58.1071 83.0358 56.6114C84.674 55.1157 85.9204 53.0858 86.7751 50.5218C87.701 47.8865 88.1639 44.9307 88.1639 41.6544V22.6377H103.121V69.3248H89.5528L88.3776 60.778L88.5913 61.7395C87.5229 63.6625 86.1697 65.3719 84.5315 66.8676C82.8934 68.3633 80.9347 69.5029 78.6556 70.2864C76.4477 71.141 73.9548 71.5684 71.1771 71.5684Z" fill="white"/>
<path d="M44.439 65.0695C42.3296 66.7425 39.6746 68.0882 36.4741 69.1065C33.3463 70.1249 30.2549 70.6341 27.1998 70.6341C21.7444 70.6341 16.98 69.6521 12.9066 67.6881C8.90595 65.6514 5.77817 62.7782 3.52326 59.0685C1.34109 55.2861 0.25 50.7399 0.25 45.43C0.25 40.12 1.45019 35.6102 3.85058 31.9005C6.25098 28.118 9.37876 25.2449 13.2339 23.2809C17.1618 21.3169 21.2716 20.335 25.5632 20.335C29.8548 20.335 33.5645 20.9169 36.6923 22.0807C39.8928 23.2445 42.6205 24.772 44.8754 26.6633L37.4561 36.483C36.4377 35.6829 35.0193 34.8828 33.2008 34.0827C31.4551 33.2098 29.382 32.7734 26.9816 32.7734C24.8722 32.7734 22.9446 33.3189 21.1989 34.41C19.4531 35.5011 18.0711 36.9922 17.0527 38.8834C16.0344 40.7747 15.5252 42.9568 15.5252 45.43C15.5252 47.7576 16.0708 49.9034 17.1618 51.8674C18.2529 53.8313 19.7441 55.3952 21.6353 56.559C23.5993 57.6501 25.8905 58.1957 28.5091 58.1957C30.1821 58.1957 31.7097 57.9774 33.0917 57.541C34.5465 57.0318 35.7831 56.3408 36.8014 55.4679L44.439 65.0695Z" fill="white"/>
</svg>
