<svg width="350" height="350" viewBox="0 0 350 350" fill="none" xmlns="http://www.w3.org/2000/svg">
<path d="M254.618 192.5V192.458C248.906 190.561 240.142 191.205 238.84 191.982C237.455 192.909 236.266 194.098 235.34 195.482C232.263 199.847 230.057 204.764 228.844 209.965L166.719 215.74C164.43 210.798 160.979 206.367 157.514 203.693C156.524 202.864 155.383 202.234 154.154 201.838C153.613 201.773 153.065 201.792 152.53 201.894C150.276 195.363 147.084 189.063 143.094 188.664C134.694 187.824 120.036 190.638 116.039 198.786C112.042 206.934 110.789 227.276 110.789 227.276L107.989 230.076C105.946 226.097 103.106 222.583 99.6446 219.751C98.6578 218.917 97.5159 218.287 96.2846 217.896C95.5846 217.7 92.7846 218.134 89.8516 219.093C89.7326 218.981 89.6206 218.869 89.4946 218.764C86.6946 216.419 80.9546 215.138 77.7486 221.116C74.5426 227.094 78.3926 238.413 80.3106 240.975C81.2421 242.284 82.4102 243.407 83.7546 244.286C86.0156 249.886 90.0546 257.026 96.2706 257.355C98.3997 257.469 100.529 257.125 102.513 256.345C104.497 255.565 106.291 254.367 107.772 252.833C111.804 248.633 112.238 242.732 110.719 236.957L111.37 236.005C111.37 236.005 112.819 238.07 118.37 237.237C119.979 237.071 121.504 236.439 122.759 235.417C125.363 242.06 129.57 248.717 136.255 249.711C139.124 250.15 142.054 249.966 144.845 249.171C147.637 248.376 150.224 246.989 152.432 245.105C153.715 243.997 154.834 242.712 155.757 241.29C159.5 241.083 163.026 239.468 165.627 236.768C167.954 234.286 169.284 231.034 169.365 227.633L177.632 226.667C182.821 228.982 188.483 230.042 194.159 229.761C199.593 229.412 204.738 227.185 208.712 223.461L227.549 221.851C227.864 229.152 230.489 235.851 236.649 239.54C239.007 240.947 241.643 241.827 244.374 242.118C247.105 242.41 249.866 242.105 252.469 241.227C261.156 238.315 263.214 225.407 263.774 217.56C264.642 204.96 260.624 194.285 254.618 192.5Z" fill="#263238" stroke="#263238" stroke-width="0.75" stroke-linecap="round" stroke-linejoin="round"/>
<path d="M139.608 245.657C138.886 246.581 137.965 247.33 136.913 247.848" stroke="white" stroke-width="0.5" stroke-linecap="round" stroke-linejoin="round"/>
<path d="M143.003 229.067C143.003 229.067 143.836 238.167 140.735 243.942" stroke="white" stroke-width="0.5" stroke-linecap="round" stroke-linejoin="round"/>
<path d="M145.46 239.12C144.669 242.62 143.094 246.015 140.042 247.52" stroke="white" stroke-width="0.5" stroke-linecap="round" stroke-linejoin="round"/>
<path d="M149.261 228.375C149.261 228.375 150.661 243.502 143.178 247.156" stroke="white" stroke-width="0.5" stroke-linecap="round" stroke-linejoin="round"/>
<path d="M152.397 228.024C152.397 228.024 153.797 243.158 146.307 246.805" stroke="white" stroke-width="0.5" stroke-linecap="round" stroke-linejoin="round"/>
<path d="M246.835 238.63C246.03 239.646 245.03 240.491 243.895 241.115" stroke="white" stroke-width="0.5" stroke-linecap="round" stroke-linejoin="round"/>
<path d="M252.462 219.736C252.462 219.736 252.014 230.089 248.171 236.676" stroke="white" stroke-width="0.5" stroke-linecap="round" stroke-linejoin="round"/>
<path d="M253.463 231.203C252.203 235.186 250.187 239.05 247.002 240.73" stroke="white" stroke-width="0.5" stroke-linecap="round" stroke-linejoin="round"/>
<path d="M258.678 218.967C258.678 218.967 257.929 236.215 250.11 240.345" stroke="white" stroke-width="0.5" stroke-linecap="round" stroke-linejoin="round"/>
<path d="M261.8 218.589C261.8 218.589 261.051 235.83 253.232 239.967" stroke="white" stroke-width="0.5" stroke-linecap="round" stroke-linejoin="round"/>
<path d="M98.2454 255.017C97.6497 255.929 96.8642 256.703 95.9424 257.285" stroke="white" stroke-width="0.5" stroke-linecap="round" stroke-linejoin="round"/>
<path d="M99.3506 240.296C99.3506 240.296 101.325 247.996 99.0986 253.379" stroke="white" stroke-width="0.5" stroke-linecap="round" stroke-linejoin="round"/>
<path d="M103.012 248.562C102.697 251.677 101.612 254.814 98.9033 256.536" stroke="white" stroke-width="0.5" stroke-linecap="round" stroke-linejoin="round"/>
<path d="M105.259 238.798C105.259 238.798 108.549 251.573 101.857 255.78" stroke="white" stroke-width="0.5" stroke-linecap="round" stroke-linejoin="round"/>
<path d="M108.213 238.042C108.213 238.042 111.51 250.817 104.811 255.031" stroke="white" stroke-width="0.5" stroke-linecap="round" stroke-linejoin="round"/>
<path d="M132.342 223.881C134.008 233.408 132.965 241.556 130.025 242.081C127.085 242.606 123.34 235.284 121.674 225.757C120.008 216.23 121.051 208.082 123.998 207.557C126.945 207.032 130.676 214.347 132.342 223.881Z" fill="#A8C8FF" stroke="#263238" stroke-linecap="round" stroke-linejoin="round"/>
<path d="M130.858 224.083C131.32 227.737 130.893 230.796 129.892 230.922C128.891 231.048 127.715 228.192 127.253 224.538C126.791 220.884 127.253 217.818 128.219 217.692C129.185 217.566 130.396 220.429 130.858 224.083Z" fill="#A8C8FF" stroke="#263238" stroke-linecap="round" stroke-linejoin="round"/>
<path d="M123.837 215.348C123.936 214.121 124.13 212.904 124.418 211.708" stroke="#263238" stroke-width="0.75" stroke-linecap="round" stroke-linejoin="round"/>
<path d="M128.478 238.643C126.541 234.765 125.155 230.634 124.362 226.372C123.834 223.357 123.621 220.296 123.725 217.237" stroke="#263238" stroke-width="0.75" stroke-linecap="round" stroke-linejoin="round"/>
<path d="M91.146 252.194C93.2622 251.608 93.4384 245.578 91.5396 238.727C89.6409 231.876 86.3862 226.797 84.2701 227.383C82.1539 227.97 81.9777 233.999 83.8765 240.851C85.7752 247.702 89.0299 252.781 91.146 252.194Z" fill="#A8C8FF" stroke="#263238" stroke-linecap="round" stroke-linejoin="round"/>
<path d="M90.8459 239C91.5109 241.604 91.4759 243.858 90.7619 244.04C90.0479 244.222 88.9419 242.255 88.2769 239.658C87.6119 237.061 87.6469 234.793 88.3609 234.618C89.0749 234.443 90.1809 236.396 90.8459 239Z" stroke="#263238" stroke-width="0.75" stroke-linecap="round" stroke-linejoin="round"/>
<path d="M84.9803 233.31C84.9413 232.413 84.9717 231.514 85.0713 230.622" stroke="#263238" stroke-width="0.75" stroke-linecap="round" stroke-linejoin="round"/>
<path d="M90.4335 249.752C88.6831 247.119 87.3094 244.254 86.3525 241.24C85.6983 239.107 85.2667 236.911 85.0645 234.688" stroke="#263238" stroke-width="0.75" stroke-linecap="round" stroke-linejoin="round"/>
<path d="M241.199 121.8C233.821 106.575 230.636 105.252 225.729 105C220.822 104.748 209.237 103.306 196.329 105.371C196.329 105.371 160.321 104.741 132.461 121.618C103.376 139.237 89.2223 154.714 87.2413 162.736C85.2603 170.758 78.4983 191.66 75.2923 203.644C72.0863 215.628 69.9023 226.184 73.9903 235.886C76.4613 241.752 79.0933 243.516 82.4743 243.488C81.957 242.559 81.501 241.598 81.1093 240.611C77.7493 232.288 78.1553 220.381 81.9913 219.611C85.8273 218.841 88.1163 226.814 90.4333 235.508C90.8932 237.424 91.5162 239.298 92.2953 241.108C98.0283 238.945 107.212 234.108 119.42 229.082C118.261 221.446 118.235 213.681 119.343 206.038C121.149 194.089 128.786 191.45 132.111 198.723C134.862 204.715 135.884 218.127 136.157 222.649C141.057 220.962 145.159 219.849 147.686 219.695C147.686 219.695 189.462 210.259 220.255 209.503C251.048 208.747 266.455 208.012 266.455 208.012C266.455 208.012 248.577 136.997 241.199 121.8Z" fill="white"/>
<mask id="mask0_1273_49266" style="mask-type:luminance" maskUnits="userSpaceOnUse" x="71" y="104" width="196" height="140">
<path d="M241.199 121.8C233.821 106.575 230.636 105.252 225.729 105C220.822 104.748 209.237 103.306 196.329 105.371C196.329 105.371 160.321 104.741 132.461 121.618C103.376 139.237 89.2223 154.714 87.2413 162.736C85.2603 170.758 78.4983 191.66 75.2923 203.644C72.0863 215.628 69.9023 226.184 73.9903 235.886C76.4613 241.752 79.0933 243.516 82.4743 243.488C81.957 242.559 81.501 241.598 81.1093 240.611C77.7493 232.288 78.1553 220.381 81.9913 219.611C85.8273 218.841 88.1163 226.814 90.4333 235.508C90.8932 237.424 91.5162 239.298 92.2953 241.108C98.0283 238.945 107.212 234.108 119.42 229.082C118.261 221.446 118.235 213.681 119.343 206.038C121.149 194.089 128.786 191.45 132.111 198.723C134.862 204.715 135.884 218.127 136.157 222.649C141.057 220.962 145.159 219.849 147.686 219.695C147.686 219.695 189.462 210.259 220.255 209.503C251.048 208.747 266.455 208.012 266.455 208.012C266.455 208.012 248.577 136.997 241.199 121.8Z" fill="white"/>
</mask>
<g mask="url(#mask0_1273_49266)">
<path d="M142.752 195.258C142.752 195.258 138.517 201.054 133.365 202.293C135.185 208.971 135.934 218.855 136.165 222.593C140.54 221.088 144.257 220.031 146.805 219.723C147.176 217.539 147.4 216.146 147.4 216.146L142.752 195.258Z" fill="#A8C8FF"/>
<path opacity="0.2" d="M90.6159 236.138C92.5619 236.334 93.8569 237.174 97.8119 236.187C104.812 234.444 99.7789 220.934 111.392 215.418C113.646 214.282 116.099 213.592 118.616 213.388C118.72 210.916 118.954 208.451 119.316 206.003C119.624 203.599 120.334 201.263 121.416 199.094C118.245 198.121 117.671 197.19 112.267 199.759C100.647 205.275 102.39 219.506 95.4249 221.249C89.8669 222.649 89.5589 220.416 85.3379 221.452C87.3119 224.252 88.8379 229.705 90.3779 235.452C90.4969 235.711 90.5529 235.9 90.6159 236.138Z" fill="#A8C8FF"/>
<g style="mix-blend-mode:multiply">
<path opacity="0.2" d="M79.1848 224.175C75.9298 226.415 73.9908 229.775 72.8848 232.61C73.1848 233.728 73.5542 234.827 73.9908 235.9C76.4618 241.766 79.0938 243.53 82.4748 243.502C81.9575 242.574 81.5015 241.613 81.1098 240.625C78.9748 235.326 78.4008 228.585 79.1848 224.175Z" fill="#A8C8FF"/>
</g>
<g style="mix-blend-mode:multiply" opacity="0.2">
<path d="M225.73 105L224.463 104.923C173.412 117.985 152.643 179.515 145.496 209.167C145.881 212.114 146.301 215.005 146.756 217.819C147.624 217.651 147.022 219.695 147.687 219.66C147.687 219.66 189.463 210.224 220.256 209.468C251.049 208.712 266.456 207.977 266.456 207.977C266.456 207.977 248.578 136.997 241.2 121.8C233.822 106.603 230.637 105.224 225.73 105Z" fill="#A8C8FF"/>
</g>
</g>
<path d="M241.199 121.8C233.821 106.575 230.636 105.252 225.729 105C220.822 104.748 209.237 103.306 196.329 105.371C196.329 105.371 160.321 104.741 132.461 121.618C103.376 139.237 89.2223 154.714 87.2413 162.736C85.2603 170.758 78.4983 191.66 75.2923 203.644C72.0863 215.628 69.9023 226.184 73.9903 235.886C76.4613 241.752 79.0933 243.516 82.4743 243.488C81.957 242.559 81.501 241.598 81.1093 240.611C77.7493 232.288 78.1553 220.381 81.9913 219.611C85.8273 218.841 88.1163 226.814 90.4333 235.508C90.8932 237.424 91.5162 239.298 92.2953 241.108C98.0283 238.945 107.212 234.108 119.42 229.082C118.261 221.446 118.235 213.681 119.343 206.038C121.149 194.089 128.786 191.45 132.111 198.723C134.862 204.715 135.884 218.127 136.157 222.649C141.057 220.962 145.159 219.849 147.686 219.695C147.686 219.695 189.462 210.259 220.255 209.503C251.048 208.747 266.455 208.012 266.455 208.012C266.455 208.012 248.577 136.997 241.199 121.8Z" stroke="#263238" stroke-linecap="round" stroke-linejoin="round"/>
<path opacity="0.2" d="M88.3887 198.632C88.8692 199.032 89.4541 199.286 90.0742 199.364C90.6944 199.442 91.324 199.341 91.8887 199.073C94.0937 198.191 94.3177 194.873 94.3177 194.873L97.6217 194.656L98.2867 184.289L91.0067 187.152C91.0067 187.152 89.0537 197.309 88.3887 198.632Z" fill="#A8C8FF"/>
<path d="M78.8414 228.948C76.7512 230.059 74.7748 231.372 72.9404 232.868C73.2307 233.894 73.5813 234.901 73.9904 235.885C76.4614 241.751 79.0934 243.515 82.4744 243.487C81.9572 242.559 81.5012 241.598 81.1094 240.61C79.6744 236.886 78.9067 232.939 78.8414 228.948Z" fill="#263238" stroke="#263238" stroke-width="0.75" stroke-linecap="round" stroke-linejoin="round"/>
<path d="M89.9925 223.167C89.803 223.166 89.6173 223.114 89.4548 223.017C89.2922 222.919 89.1588 222.78 89.0685 222.614C88.9411 222.372 88.9137 222.09 88.9922 221.828C89.0708 221.566 89.249 221.345 89.4885 221.214C89.6565 221.123 103.278 212.681 114.562 206.682C114.684 206.617 114.818 206.577 114.955 206.563C115.092 206.55 115.231 206.564 115.363 206.604C115.495 206.645 115.618 206.711 115.724 206.798C115.831 206.886 115.919 206.994 115.983 207.116C116.048 207.238 116.088 207.371 116.102 207.508C116.115 207.646 116.101 207.784 116.061 207.916C116.02 208.048 115.955 208.171 115.867 208.277C115.779 208.384 115.671 208.472 115.549 208.537C104.272 214.529 90.6575 222.964 90.4895 223.055C90.3363 223.134 90.165 223.173 89.9925 223.167Z" fill="#263238" stroke="#263238" stroke-miterlimit="10"/>
<path d="M229.934 162.334C236.218 162.18 241.189 157.047 241.037 150.871C240.885 144.696 235.668 139.814 229.383 139.969C223.099 140.124 218.128 145.256 218.28 151.432C218.432 157.608 223.65 162.489 229.934 162.334Z" fill="#263238" stroke="#263238" stroke-width="0.75" stroke-linecap="round" stroke-linejoin="round"/>
<path d="M228.431 156.492H228.396C228.175 156.493 227.958 156.441 227.76 156.341C227.563 156.241 227.393 156.096 227.262 155.918L222.789 149.744C222.571 149.443 222.481 149.068 222.54 148.701C222.598 148.334 222.8 148.006 223.101 147.787C223.402 147.569 223.777 147.48 224.144 147.538C224.511 147.596 224.839 147.798 225.057 148.099L228.396 152.705L236.376 141.68C236.594 141.379 236.923 141.177 237.29 141.119C237.657 141.061 238.032 141.15 238.333 141.368C238.634 141.587 238.835 141.915 238.894 142.282C238.952 142.649 238.862 143.024 238.644 143.325L229.544 155.925C229.415 156.099 229.248 156.241 229.055 156.339C228.861 156.438 228.648 156.49 228.431 156.492Z" fill="white" stroke="#263238" stroke-linecap="round" stroke-linejoin="round"/>
<path d="M186.151 186.662C186.151 186.662 209.951 182.098 226.261 182.42L227.241 186.34C227.241 186.34 192.997 187.964 186.473 191.24L186.151 186.662Z" fill="#263238" stroke="#263238" stroke-width="0.75" stroke-linecap="round" stroke-linejoin="round"/>
<path d="M186.473 191.226L187.173 195.146C187.245 195.582 187.486 195.973 187.843 196.235C188.2 196.497 188.645 196.608 189.084 196.546C195.055 195.692 216.013 192.815 226.884 193.081C227.151 193.089 227.417 193.034 227.66 192.92C227.902 192.806 228.114 192.636 228.279 192.424C228.443 192.213 228.555 191.965 228.606 191.702C228.657 191.439 228.645 191.168 228.571 190.911L227.269 186.354" stroke="#263238" stroke-linecap="round" stroke-linejoin="round"/>
<path d="M99.6237 184.302L99.4907 168.132L100.296 151.507C100.302 151.348 100.26 151.191 100.175 151.057C100.09 150.922 99.9668 150.816 99.8209 150.752C99.675 150.689 99.5133 150.671 99.357 150.701C99.2006 150.73 99.0569 150.807 98.9447 150.919C95.9347 153.999 90.7827 158.661 89.2567 162.483C87.2757 167.432 84.9307 191.792 84.9307 191.792L99.6237 184.302Z" fill="#263238" stroke="#263238" stroke-width="0.75" stroke-linecap="round" stroke-linejoin="round"/>
<path d="M80.9826 181.055H78.6376C77.443 181.055 76.4746 182.023 76.4746 183.218V195.3C76.4746 196.494 77.443 197.463 78.6376 197.463H80.9826C82.1772 197.463 83.1456 196.494 83.1456 195.3V183.218C83.1456 182.023 82.1772 181.055 80.9826 181.055Z" fill="#263238" stroke="#263238" stroke-width="0.75" stroke-linecap="round" stroke-linejoin="round"/>
<path d="M82.46 169.771C83.57 169.984 84.6542 170.315 85.694 170.758C86.5561 171.182 87.3397 171.751 88.011 172.438L91.511 167.811C91.511 167.811 86.38 165.662 85.407 164.353L84.441 163.037L82.46 169.771Z" fill="white"/>
<mask id="mask1_1273_49266" style="mask-type:luminance" maskUnits="userSpaceOnUse" x="82" y="163" width="10" height="10">
<path d="M82.46 169.771C83.57 169.984 84.6542 170.315 85.694 170.758C86.5561 171.182 87.3397 171.751 88.011 172.438L91.511 167.811C91.511 167.811 86.38 165.662 85.407 164.353L84.441 163.037L82.46 169.771Z" fill="white"/>
</mask>
<g mask="url(#mask1_1273_49266)">
<g style="mix-blend-mode:multiply" opacity="0.5">
<path d="M85.4 164.354L84.497 163.101L84.392 163.171L82.46 169.751C82.46 169.751 82.831 169.821 83.356 169.947L88.361 166.321C87.2671 165.842 86.2651 165.176 85.4 164.354Z" fill="#A8C8FF"/>
</g>
</g>
<path d="M82.46 169.771C83.57 169.984 84.6542 170.315 85.694 170.758C86.5561 171.182 87.3397 171.751 88.011 172.438L91.511 167.811C91.511 167.811 86.38 165.662 85.407 164.353L84.441 163.037L82.46 169.771Z" stroke="#263238" stroke-width="0.75" stroke-linecap="round" stroke-linejoin="round"/>
<path d="M89.8522 165.844L85.5752 171.297L86.1562 173.152L92.6732 166.383L89.8522 165.844Z" fill="#A8C8FF" stroke="#263238" stroke-linecap="round" stroke-linejoin="round"/>
<path d="M83.0058 150.437C80.1148 148.197 72.5828 149.625 71.1058 154.931C70.1958 158.2 70.6998 163.1 70.6998 163.1L79.2818 161.28L79.9818 162.337C81.3818 164.437 84.4128 163.037 85.1968 162.337C85.6238 161.966 85.5958 160.874 85.4838 159.971L85.8268 159.894C85.8268 159.894 85.8898 152.684 83.0058 150.437Z" fill="#263238" stroke="#263238" stroke-width="0.75" stroke-linecap="round" stroke-linejoin="round"/>
<path d="M79.8 160.636C76.0333 160.217 72.2204 160.579 68.6 161.7C63 163.576 62.139 165.2 66.15 165.102C70.161 165.004 79.8 160.636 79.8 160.636Z" fill="#263238" stroke="#263238" stroke-width="0.75" stroke-linecap="round" stroke-linejoin="round"/>
<path d="M72.8842 158.598C73.5375 158.598 74.0672 157.874 74.0672 156.981C74.0672 156.088 73.5375 155.364 72.8842 155.364C72.2308 155.364 71.7012 156.088 71.7012 156.981C71.7012 157.874 72.2308 158.598 72.8842 158.598Z" fill="#A8C8FF"/>
<path d="M99.4906 168.133C99.4906 168.133 91.8256 166.187 89.4666 167.979C87.1076 169.771 86.5056 172.732 87.2616 176.323C88.0176 179.914 89.8586 189.357 89.8586 189.357L99.6236 184.303L99.4906 168.133Z" fill="#263238" stroke="#263238" stroke-width="0.75" stroke-linecap="round" stroke-linejoin="round"/>
<path d="M87.325 187.851C87.325 187.851 86.912 191.477 86.429 191.988C85.946 192.499 73.206 181.796 72.429 180.788C71.652 179.78 72.184 176.182 72.429 175.055C72.674 173.928 72.261 173.312 71.029 174.089C69.797 174.866 70.126 178.1 70.126 178.1C70.126 178.1 66.367 177.197 65.618 177.092C64.869 176.987 64.218 177.918 64.33 178.66C64.442 179.402 65.429 179.465 65.429 179.465C65.1765 180.54 65.2471 181.665 65.632 182.699C66.29 184.057 67.032 184.911 68.432 185.247C69.8764 185.473 71.3389 185.562 72.8 185.513C72.8 185.513 79.31 191.715 81.2 194.032C83.09 196.349 87.073 199.499 89.054 198.932C91.035 198.365 92.925 188.474 92.925 188.474L87.325 187.851Z" fill="white"/>
<mask id="mask2_1273_49266" style="mask-type:luminance" maskUnits="userSpaceOnUse" x="64" y="173" width="29" height="26">
<path d="M87.325 187.851C87.325 187.851 86.912 191.477 86.429 191.988C85.946 192.499 73.206 181.796 72.429 180.788C71.652 179.78 72.184 176.182 72.429 175.055C72.674 173.928 72.261 173.312 71.029 174.089C69.797 174.866 70.126 178.1 70.126 178.1C70.126 178.1 66.367 177.197 65.618 177.092C64.869 176.987 64.218 177.918 64.33 178.66C64.442 179.402 65.429 179.465 65.429 179.465C65.1765 180.54 65.2471 181.665 65.632 182.699C66.29 184.057 67.032 184.911 68.432 185.247C69.8764 185.473 71.3389 185.562 72.8 185.513C72.8 185.513 79.31 191.715 81.2 194.032C83.09 196.349 87.073 199.499 89.054 198.932C91.035 198.365 92.925 188.474 92.925 188.474L87.325 187.851Z" fill="white"/>
</mask>
<g mask="url(#mask2_1273_49266)">
<g style="mix-blend-mode:multiply" opacity="0.5">
<path d="M86.4289 191.989L90.1529 193.228C90.271 194.009 90.1059 194.807 89.6874 195.477C89.2689 196.147 88.6246 196.645 87.8709 196.882C86.2259 197.428 83.2719 195.559 81.1719 193.984L81.2349 194.061C83.1599 196.385 87.1079 199.528 89.0889 198.961C91.0699 198.394 92.9599 188.503 92.9599 188.503L87.3249 187.803C87.3249 187.803 86.9119 191.478 86.4289 191.989Z" fill="#A8C8FF"/>
</g>
</g>
<path d="M87.325 187.851C87.325 187.851 86.912 191.477 86.429 191.988C85.946 192.499 73.206 181.796 72.429 180.788C71.652 179.78 72.184 176.182 72.429 175.055C72.674 173.928 72.261 173.312 71.029 174.089C69.797 174.866 70.126 178.1 70.126 178.1C70.126 178.1 66.367 177.197 65.618 177.092C64.869 176.987 64.218 177.918 64.33 178.66C64.442 179.402 65.429 179.465 65.429 179.465C65.1765 180.54 65.2471 181.665 65.632 182.699C66.29 184.057 67.032 184.911 68.432 185.247C69.8764 185.473 71.3389 185.562 72.8 185.513C72.8 185.513 79.31 191.715 81.2 194.032C83.09 196.349 87.073 199.499 89.054 198.932C91.035 198.365 92.925 188.474 92.925 188.474L87.325 187.851Z" stroke="#263238" stroke-width="0.75" stroke-linecap="round" stroke-linejoin="round"/>
<path d="M74.5918 182.756L72.7998 185.542L73.7168 186.165L75.5508 183.54L74.5918 182.756Z" fill="#263238" stroke="#263238" stroke-miterlimit="10"/>
<path d="M73.9764 185.38C74.363 185.38 74.6764 185.067 74.6764 184.68C74.6764 184.294 74.363 183.98 73.9764 183.98C73.5898 183.98 73.2764 184.294 73.2764 184.68C73.2764 185.067 73.5898 185.38 73.9764 185.38Z" fill="white" stroke="#263238" stroke-width="0.75" stroke-linecap="round" stroke-linejoin="round"/>
<path d="M72.2607 163.995C72.2607 163.995 72.6877 165.052 73.4017 166.907C74.1157 168.762 77.9517 172.675 79.8277 172.899C81.7037 173.123 83.9507 166.305 84.3077 164.898C84.4267 164.436 84.5457 163.694 84.5457 163.694C84.5457 163.694 86.9047 162.581 86.3587 161.237C85.8127 159.893 84.7067 159.277 84.1817 159.69C83.6567 160.103 83.5657 161.846 82.7817 161.86C81.9977 161.874 81.5707 161.629 80.8777 160.705C80.1847 159.781 73.0027 161.699 72.2607 163.995Z" fill="white"/>
<mask id="mask3_1273_49266" style="mask-type:luminance" maskUnits="userSpaceOnUse" x="72" y="159" width="15" height="14">
<path d="M72.2607 163.995C72.2607 163.995 72.6877 165.052 73.4017 166.907C74.1157 168.762 77.9517 172.675 79.8277 172.899C81.7037 173.123 83.9507 166.305 84.3077 164.898C84.4267 164.436 84.5457 163.694 84.5457 163.694C84.5457 163.694 86.9047 162.581 86.3587 161.237C85.8127 159.893 84.7067 159.277 84.1817 159.69C83.6567 160.103 83.5657 161.846 82.7817 161.86C81.9977 161.874 81.5707 161.629 80.8777 160.705C80.1847 159.781 73.0027 161.699 72.2607 163.995Z" fill="white"/>
</mask>
<g mask="url(#mask3_1273_49266)">
<path opacity="0.5" d="M80.8637 160.705C80.1637 159.788 73.0027 161.706 72.2607 163.995L72.6667 165.031C75.4041 163.38 78.3788 162.159 81.4867 161.412C81.2545 161.199 81.0457 160.962 80.8637 160.705Z" fill="#A8C8FF"/>
<g style="mix-blend-mode:multiply">
<path opacity="0.5" d="M86.2678 161.048C85.6938 159.844 84.6788 159.298 84.1678 159.69C83.8475 160.108 83.6099 160.583 83.4678 161.09C84.3976 160.986 85.3353 160.972 86.2678 161.048Z" fill="#A8C8FF"/>
</g>
</g>
<path d="M72.2607 163.995C72.2607 163.995 72.6877 165.052 73.4017 166.907C74.1157 168.762 77.9517 172.675 79.8277 172.899C81.7037 173.123 83.9507 166.305 84.3077 164.898C84.4267 164.436 84.5457 163.694 84.5457 163.694C84.5457 163.694 86.9047 162.581 86.3587 161.237C85.8127 159.893 84.7067 159.277 84.1817 159.69C83.6567 160.103 83.5657 161.846 82.7817 161.86C81.9977 161.874 81.5707 161.629 80.8777 160.705C80.1847 159.781 73.0027 161.699 72.2607 163.995Z" stroke="#263238" stroke-width="0.75" stroke-linecap="round" stroke-linejoin="round"/>
<path d="M74.8017 164.5C74.9277 164.927 74.8857 165.319 74.7177 165.368C74.5497 165.417 74.3047 165.109 74.1787 164.668C74.0527 164.227 74.0947 163.849 74.2627 163.8C74.4307 163.751 74.6757 164.087 74.8017 164.5Z" fill="#263238" stroke="#263238" stroke-miterlimit="10"/>
<path d="M73.5 163.31C74.48 163.03 74.9 163.765 75.019 164.444L75.201 165.249L75.81 168.364L76.734 167.972" stroke="#263238" stroke-width="0.5" stroke-linecap="round" stroke-linejoin="round"/>
<path d="M77.4902 163.547C77.7031 163.314 77.9681 163.134 78.2637 163.022C78.5592 162.91 78.877 162.869 79.1912 162.903" stroke="#263238" stroke-width="0.5" stroke-linecap="round" stroke-linejoin="round"/>
<path d="M78.3017 161.608C77.9035 161.692 77.538 161.889 77.2497 162.176C76.9614 162.463 76.7627 162.828 76.6777 163.225" stroke="#263238" stroke-width="0.5" stroke-linecap="round" stroke-linejoin="round"/>
<path d="M77.5674 168.98C77.5674 168.98 79.5974 168.574 79.7584 167.118" stroke="#263238" stroke-width="0.5" stroke-linecap="round" stroke-linejoin="round"/>
<path d="M94.8007 193.101L84.5527 190.245C84.5527 190.245 85.4557 172.745 87.0377 169.784C89.5017 165.185 95.1507 167.257 96.2147 173.039C97.2087 178.499 94.8007 193.101 94.8007 193.101Z" fill="#A8C8FF" stroke="#263238" stroke-linecap="round" stroke-linejoin="round"/>
<path d="M84.7979 188.3C84.7979 188.3 90.3978 189.588 93.8068 190.708" stroke="#263238" stroke-width="0.5" stroke-linecap="round" stroke-linejoin="round"/>
<path d="M93.667 166.726C93.667 166.726 96.999 166.985 99.176 168.777" stroke="#A8C8FF" stroke-width="0.5" stroke-linecap="round" stroke-linejoin="round"/>
<path d="M152.383 211.491C152.383 211.491 137.459 216.755 136.094 218.19C134.729 219.625 134.869 225.225 138.089 227.948C141.309 230.671 164.262 224.497 180.67 222.698C197.078 220.899 233.1 218.253 247.8 217.539C262.5 216.825 269.185 218.764 270.473 214.179C271.761 209.594 271.6 204.694 268.8 203.7C266 202.706 214.984 194.537 152.383 211.491Z" fill="#263238" stroke="#263238" stroke-width="0.75" stroke-linecap="round" stroke-linejoin="round"/>
<path d="M135.03 221.249C135.03 221.249 135.73 227.318 139.461 228.249C143.192 229.18 187.53 220.78 213.661 219.849C239.792 218.918 262.661 218.218 262.661 218.218" stroke="white" stroke-width="0.5" stroke-linecap="round" stroke-linejoin="round"/>
<path d="M156.688 224.329C174.02 220.129 209.671 214.193 269.661 215.88" stroke="white" stroke-width="0.5" stroke-linecap="round" stroke-linejoin="round"/>
<path d="M142.479 228.024C142.479 228.024 146.462 227.058 152.517 225.406" stroke="white" stroke-width="0.5" stroke-linecap="round" stroke-linejoin="round"/>
<path d="M146.132 228.718C146.32 231.32 146.25 233.934 145.922 236.523" stroke="white" stroke-width="0.5" stroke-linecap="round" stroke-linejoin="round"/>
<path d="M145.495 116.78C145.495 116.78 142.156 120.693 141.897 124.2" stroke="#263238" stroke-width="0.75" stroke-linecap="round" stroke-linejoin="round"/>
<path d="M141.547 127.028C141.547 127.028 139.034 167.005 145.684 209.551" stroke="#263238" stroke-width="0.75" stroke-linecap="round" stroke-linejoin="round"/>
<path d="M142.338 173.222C142.338 173.222 136.913 175.112 136.843 177.562C136.661 184.149 137.354 198.205 138.789 199.57C140.224 200.935 144.683 197.323 144.683 197.323C144.683 197.323 150.983 197.869 151.683 196.455C152.383 195.041 149.758 175.14 149.366 173.404C148.974 171.668 142.338 173.222 142.338 173.222Z" fill="#A8C8FF" stroke="#263238" stroke-linecap="round" stroke-linejoin="round"/>
<path d="M255.654 182.7C257.066 183.39 258.6 183.794 260.169 183.89C258.433 177.366 256.466 170.1 254.436 162.848C252.602 162.722 250.236 162.722 250.285 163.548C250.32 164.962 253.883 181.678 255.654 182.7Z" fill="#A8C8FF" stroke="#263238" stroke-linecap="round" stroke-linejoin="round"/>
<path d="M141.561 175.279C141.561 175.279 141.799 187.879 142.73 192.779" stroke="#263238" stroke-width="0.75" stroke-linecap="round" stroke-linejoin="round"/>
<path d="M206.997 178.192C206.997 178.192 238.231 173.159 274.624 179.592" stroke="#263238" stroke-linecap="round" stroke-linejoin="round"/>
<path d="M302.085 197.925C304.234 198.569 306.348 199.248 308.385 199.976" stroke="#263238" stroke-linecap="round" stroke-linejoin="round"/>
<path d="M246.008 188.419C246.008 188.419 270.774 189.924 294.49 195.853" stroke="#263238" stroke-linecap="round" stroke-linejoin="round"/>
<path d="M170.632 246.091C191.024 242.975 211.742 242.605 232.232 244.992" stroke="#263238" stroke-linecap="round" stroke-linejoin="round"/>
<path d="M168.07 242.795C168.07 242.795 182.728 240.961 187.495 240.597" stroke="#263238" stroke-linecap="round" stroke-linejoin="round"/>
<path d="M266.238 106.841C268.338 107.142 270.438 107.541 272.342 107.996" stroke="#263238" stroke-linecap="round" stroke-linejoin="round"/>
<path d="M236.062 106.147C244.686 105.538 253.346 105.597 261.962 106.322" stroke="#263238" stroke-linecap="round" stroke-linejoin="round"/>
<path d="M123.123 190.946C123.123 190.946 144.039 181.041 174.3 178.29" stroke="#263238" stroke-linecap="round" stroke-linejoin="round"/>
<path d="M158.347 172.781C158.347 172.781 171.01 169.484 190.274 168.378" stroke="#263238" stroke-linecap="round" stroke-linejoin="round"/>
<path d="M122.78 242.718C125.322 247.271 129.424 250.751 134.33 252.518" stroke="#263238" stroke-linecap="round" stroke-linejoin="round"/>
<path d="M122.08 245.867C122.08 245.867 125.23 250.767 129.43 252.867" stroke="#263238" stroke-linecap="round" stroke-linejoin="round"/>
<path d="M225.33 228.368C225.33 228.368 227.43 238.168 235.83 242.368" stroke="#263238" stroke-linecap="round" stroke-linejoin="round"/>
<path d="M226.38 237.117C228.045 239.555 230.344 241.492 233.03 242.717" stroke="#263238" stroke-linecap="round" stroke-linejoin="round"/>
<path d="M87.8916 255.989C87.8916 255.989 89.9916 259.489 97.3416 259.489" stroke="#263238" stroke-linecap="round" stroke-linejoin="round"/>
<path d="M86.4922 258.09C89.1699 260.317 92.4706 261.661 95.9422 261.94" stroke="#263238" stroke-linecap="round" stroke-linejoin="round"/>
<path d="M181.118 249.451C162.527 250.463 144.073 253.223 126 257.697L126.434 258.348C126.434 258.348 141.834 255.079 170.296 262.079C198.758 269.079 200.634 274.679 231.896 274.679C263.158 274.679 293.496 267.217 293.496 267.217L289.702 265.117C261.632 253.238 223.16 247.099 181.118 249.451Z" fill="#A8C8FF"/>
<path opacity="0.5" d="M181.118 249.451C162.527 250.463 144.073 253.223 126 257.697L126.434 258.348C126.434 258.348 141.834 255.079 170.296 262.079C198.758 269.079 200.634 274.679 231.896 274.679C263.158 274.679 293.496 267.217 293.496 267.217L289.702 265.117C261.632 253.238 223.16 247.099 181.118 249.451Z" fill="white"/>
<path d="M112.631 265.468C112.631 265.468 149.381 259.868 181.231 281.218" stroke="#263238" stroke-linecap="round" stroke-linejoin="round"/>
<path d="M151.131 273.518C151.131 273.518 166.181 278.068 175.281 287.868" stroke="#263238" stroke-linecap="round" stroke-linejoin="round"/>
<path d="M240.03 255.668C240.03 255.668 261.38 257.768 280.63 269.318" stroke="#263238" stroke-linecap="round" stroke-linejoin="round"/>
<path d="M306.601 273.756C310.445 276.109 314.105 278.75 317.549 281.659" stroke="#263238" stroke-linecap="round" stroke-linejoin="round"/>
<path d="M56.1475 290.269C81.6625 268.569 127.764 252.469 181.118 249.452C229.817 246.687 273.742 255.409 302.218 271.152" stroke="#263238" stroke-linecap="round" stroke-linejoin="round"/>
<path d="M211.681 255.317C211.681 255.317 233.731 256.367 248.431 261.267" stroke="#263238" stroke-linecap="round" stroke-linejoin="round"/>
<path d="M111.706 89.1386C111.706 89.1386 111.006 79.4576 96.8313 79.1076C82.6563 78.7576 86.4503 88.7956 82.6493 91.2176C78.8483 93.6396 77.8053 89.8176 73.9973 92.2536C70.1893 94.6896 71.8973 99.5196 68.8103 100.213C65.7233 100.906 61.5443 97.0976 57.7433 99.5126C53.9423 101.928 53.9353 104.007 52.2063 104.007C50.4773 104.007 47.0193 102.607 44.9473 104.007C42.8753 105.407 40.4463 107.101 40.4463 107.101H127.946C127.946 107.101 128.982 103.986 125.146 101.914C121.31 99.8416 119.609 101.564 118.23 99.8136C116.851 98.0636 122.08 93.6396 111.706 89.1386Z" fill="#A8C8FF"/>
<path d="M163.695 52.0872C163.695 52.0872 163.275 46.2632 154.749 46.0532C146.223 45.8432 148.505 51.8842 146.216 53.3402C143.927 54.7962 143.304 52.5072 141.015 53.9632C138.726 55.4192 139.769 58.3312 137.893 58.7442C136.017 59.1572 133.525 56.8752 131.236 58.3312C128.947 59.7872 128.947 61.0332 127.904 61.0332C126.861 61.0332 124.782 60.2072 123.536 61.0332C122.29 61.8592 120.834 62.9092 120.834 62.9092H173.474C173.474 62.9092 174.097 61.0332 171.808 59.7872C169.519 58.5412 168.483 59.5772 167.65 58.5412C166.817 57.5052 169.939 54.7962 163.695 52.0872Z" fill="#A8C8FF"/>
<path opacity="0.7" d="M111.706 89.1386C111.706 89.1386 111.006 79.4576 96.8313 79.1076C82.6563 78.7576 86.4503 88.7956 82.6493 91.2176C78.8483 93.6396 77.8053 89.8176 73.9973 92.2536C70.1893 94.6896 71.8973 99.5196 68.8103 100.213C65.7233 100.906 61.5443 97.0976 57.7433 99.5126C53.9423 101.928 53.9353 104.007 52.2063 104.007C50.4773 104.007 47.0193 102.607 44.9473 104.007C42.8753 105.407 40.4463 107.101 40.4463 107.101H127.946C127.946 107.101 128.982 103.986 125.146 101.914C121.31 99.8416 119.609 101.564 118.23 99.8136C116.851 98.0636 122.08 93.6396 111.706 89.1386Z" fill="white"/>
<path opacity="0.8" d="M163.695 52.0872C163.695 52.0872 163.275 46.2632 154.749 46.0532C146.223 45.8432 148.505 51.8842 146.216 53.3402C143.927 54.7962 143.304 52.5072 141.015 53.9632C138.726 55.4192 139.769 58.3312 137.893 58.7442C136.017 59.1572 133.525 56.8752 131.236 58.3312C128.947 59.7872 128.947 61.0332 127.904 61.0332C126.861 61.0332 124.782 60.2072 123.536 61.0332C122.29 61.8592 120.834 62.9092 120.834 62.9092H173.474C173.474 62.9092 174.097 61.0332 171.808 59.7872C169.519 58.5412 168.483 59.5772 167.65 58.5412C166.817 57.5052 169.939 54.7962 163.695 52.0872Z" fill="white"/>
</svg>
