<svg width="161" height="161" viewBox="0 0 161 161" fill="none" xmlns="http://www.w3.org/2000/svg">
<g id="Frame">
<path id="Vector" d="M31.0833 148.167C28.0833 148.167 25.4444 147.028 23.1667 144.751C20.8889 142.473 19.75 139.834 19.75 136.834V34.1673C19.75 31.0562 20.8889 28.3895 23.1667 26.1673C25.4444 23.9451 28.0833 22.834 31.0833 22.834H41.5833V18.5007C41.5833 16.9451 42.1389 15.6118 43.25 14.5007C44.3611 13.3895 45.6944 12.834 47.25 12.834C48.9167 12.834 50.3056 13.3895 51.4167 14.5007C52.5278 15.6118 53.0833 16.9451 53.0833 18.5007V22.834H108.417V18.5007C108.417 16.9451 108.972 15.6118 110.083 14.5007C111.194 13.3895 112.528 12.834 114.083 12.834C115.75 12.834 117.139 13.3895 118.25 14.5007C119.361 15.6118 119.917 16.9451 119.917 18.5007V22.834H130.417C133.528 22.834 136.194 23.9451 138.417 26.1673C140.639 28.3895 141.75 31.0562 141.75 34.1673V84.6673H130.417V65.5007H31.0833V136.834H83.9167V148.167H31.0833ZM31.0833 55.5007H130.417V34.1673H31.0833V55.5007ZM150.083 112.167L137.25 99.334L142.083 94.5007C143.194 93.5007 144.556 93.0007 146.167 93.0007C147.778 93.0007 149.083 93.5007 150.083 94.5007L154.917 99.334C155.917 100.445 156.417 101.806 156.417 103.417C156.417 105.028 155.917 106.334 154.917 107.334L150.083 112.167ZM93.9167 152.667V145.001C93.9167 144.334 94.0556 143.667 94.3333 143.001C94.6111 142.334 95.0278 141.667 95.5833 141.001L130.083 106.501L142.917 119.334L108.417 153.834C107.75 154.501 107.083 154.945 106.417 155.167C105.75 155.39 105.083 155.501 104.417 155.501H96.75C95.9722 155.501 95.3056 155.223 94.75 154.667C94.1945 154.112 93.9167 153.445 93.9167 152.667ZM31.0833 55.5007V34.1673V55.5007Z" fill="#ABABAF"/>
</g>
</svg>
