<svg width="161" height="161" viewBox="0 0 161 161" fill="none" xmlns="http://www.w3.org/2000/svg">
<g id="Frame">
<path id="Vector" d="M80.5002 147.834C72.1668 147.834 64.3057 146.251 56.9168 143.084C49.5279 139.917 43.0835 135.584 37.5835 130.084C32.0835 124.584 27.7224 118.14 24.5002 110.751C21.2779 103.362 19.6668 95.4451 19.6668 87.0007C19.6668 78.5562 21.2779 70.6673 24.5002 63.334C27.7224 56.0007 32.0835 49.5562 37.5835 44.0007C43.0835 38.4451 49.5279 34.084 56.9168 30.9173C64.3057 27.7507 72.1668 26.1673 80.5002 26.1673C88.8335 26.1673 96.6946 27.7507 104.084 30.9173C111.472 34.084 117.945 38.4451 123.5 44.0007C129.056 49.5562 133.417 56.0007 136.584 63.334C139.75 70.6673 141.334 78.5562 141.334 87.0007C141.334 95.4451 139.75 103.362 136.584 110.751C133.417 118.14 129.056 124.584 123.5 130.084C117.945 135.584 111.472 139.917 104.084 143.084C96.6946 146.251 88.8335 147.834 80.5002 147.834ZM75.8335 59.0007V87.5007C75.8335 88.1673 75.9446 88.834 76.1668 89.5007C76.3891 90.1673 76.8335 90.834 77.5002 91.5007L97.0002 110.834C97.8891 111.834 99.0279 112.334 100.417 112.334C101.806 112.334 103.056 111.778 104.167 110.667C105.167 109.667 105.667 108.473 105.667 107.084C105.667 105.695 105.167 104.445 104.167 103.334L86.1668 85.5007V58.834C86.1668 57.5007 85.6668 56.334 84.6668 55.334C83.6668 54.334 82.4446 53.834 81.0002 53.834C79.4446 53.834 78.1946 54.334 77.2502 55.334C76.3057 56.334 75.8335 57.5562 75.8335 59.0007ZM18.6668 45.6673C17.6668 46.6673 16.4724 47.1673 15.0835 47.1673C13.6946 47.1673 12.4446 46.6118 11.3335 45.5007C10.3335 44.5007 9.8335 43.2784 9.8335 41.834C9.8335 40.3895 10.3335 39.1673 11.3335 38.1673L32.1668 18.334C33.2779 17.334 34.5279 16.834 35.9168 16.834C37.3057 16.834 38.5002 17.334 39.5002 18.334C40.6113 19.4451 41.1668 20.7229 41.1668 22.1673C41.1668 23.6118 40.6668 24.7784 39.6668 25.6673L18.6668 45.6673ZM142.333 45.5007L121.5 25.5007C120.5 24.6118 119.972 23.4729 119.917 22.084C119.861 20.6951 120.389 19.4451 121.5 18.334C122.389 17.4451 123.556 17.0007 125 17.0007C126.445 17.0007 127.722 17.4451 128.834 18.334L149.5 38.334C150.5 39.334 151.028 40.5284 151.083 41.9173C151.139 43.3062 150.667 44.5007 149.667 45.5007C148.667 46.5007 147.445 47.0007 146 47.0007C144.556 47.0007 143.333 46.5007 142.333 45.5007ZM80.5002 136.501C94.2779 136.501 105.972 131.695 115.584 122.084C125.195 112.473 130 100.778 130 87.0007C130 73.2229 125.195 61.5284 115.584 51.9173C105.972 42.3062 94.2779 37.5007 80.5002 37.5007C66.7224 37.5007 55.0279 42.3062 45.4168 51.9173C35.8057 61.5284 31.0002 73.2229 31.0002 87.0007C31.0002 100.778 35.8057 112.473 45.4168 122.084C55.0279 131.695 66.7224 136.501 80.5002 136.501Z" fill="#ABABAF"/>
</g>
</svg>
