<svg width="17" height="16" viewBox="0 0 17 16" fill="none" xmlns="http://www.w3.org/2000/svg">
<g id="Group">
<path id="Vector" d="M3.91667 0C2.94421 0 2.01158 0.386309 1.32394 1.07394C0.636309 1.76158 0.25 2.69421 0.25 3.66667V4.81867C0.25 5.08388 0.355357 5.33824 0.542893 5.52577C0.730429 5.71331 0.984784 5.81867 1.25 5.81867C1.51522 5.81867 1.76957 5.71331 1.95711 5.52577C2.14464 5.33824 2.25 5.08388 2.25 4.81867V3.66667C2.25 2.74667 2.99667 2 3.91667 2H5.06867C5.33388 2 5.58824 1.89464 5.77577 1.70711C5.96331 1.51957 6.06867 1.26522 6.06867 1C6.06867 0.734784 5.96331 0.480429 5.77577 0.292893C5.58824 0.105357 5.33388 5.58902e-09 5.06867 0H3.91667ZM11.4313 0C11.3 -2.7674e-09 11.17 0.0258657 11.0487 0.0761204C10.9273 0.126375 10.8171 0.200035 10.7242 0.292893C10.6314 0.385752 10.5577 0.495991 10.5075 0.617317C10.4572 0.738642 10.4313 0.868678 10.4313 1C10.4313 1.13132 10.4572 1.26136 10.5075 1.38268C10.5577 1.50401 10.6314 1.61425 10.7242 1.70711C10.8171 1.79997 10.9273 1.87362 11.0487 1.92388C11.17 1.97413 11.3 2 11.4313 2H12.5833C13.5033 2 14.25 2.74667 14.25 3.66667V4.81867C14.25 5.08388 14.3554 5.33824 14.5429 5.52577C14.7304 5.71331 14.9848 5.81867 15.25 5.81867C15.5152 5.81867 15.7696 5.71331 15.9571 5.52577C16.1446 5.33824 16.25 5.08388 16.25 4.81867V3.66667C16.25 2.69421 15.8637 1.76158 15.1761 1.07394C14.4884 0.386309 13.5558 0 12.5833 0H11.4313ZM2.25 11.1813C2.25 11.05 2.22413 10.92 2.17388 10.7987C2.12362 10.6773 2.04997 10.5671 1.95711 10.4742C1.86425 10.3814 1.75401 10.3077 1.63268 10.2575C1.51136 10.2072 1.38132 10.1813 1.25 10.1813C1.11868 10.1813 0.988642 10.2072 0.867317 10.2575C0.745991 10.3077 0.635752 10.3814 0.542893 10.4742C0.450035 10.5671 0.376375 10.6773 0.32612 10.7987C0.275866 10.92 0.25 11.05 0.25 11.1813V12.3333C0.25 13.3058 0.636309 14.2384 1.32394 14.9261C2.01158 15.6137 2.94421 16 3.91667 16H5.06867C5.33388 16 5.58824 15.8946 5.77577 15.7071C5.96331 15.5196 6.06867 15.2652 6.06867 15C6.06867 14.7348 5.96331 14.4804 5.77577 14.2929C5.58824 14.1054 5.33388 14 5.06867 14H3.91667C2.99667 14 2.25 13.2533 2.25 12.3333V11.1813ZM16.25 11.1813C16.25 10.9161 16.1446 10.6618 15.9571 10.4742C15.7696 10.2867 15.5152 10.1813 15.25 10.1813C14.9848 10.1813 14.7304 10.2867 14.5429 10.4742C14.3554 10.6618 14.25 10.9161 14.25 11.1813V12.3333C14.25 13.2533 13.5033 14 12.5833 14H11.4313C11.1661 14 10.9118 14.1054 10.7242 14.2929C10.5367 14.4804 10.4313 14.7348 10.4313 15C10.4313 15.2652 10.5367 15.5196 10.7242 15.7071C10.9118 15.8946 11.1661 16 11.4313 16H12.5833C13.5558 16 14.4884 15.6137 15.1761 14.9261C15.8637 14.2384 16.25 13.3058 16.25 12.3333V11.1813ZM4.58333 7C4.31812 7 4.06376 7.10536 3.87623 7.29289C3.68869 7.48043 3.58333 7.73478 3.58333 8C3.58333 8.26522 3.68869 8.51957 3.87623 8.70711C4.06376 8.89464 4.31812 9 4.58333 9H11.9167C12.1819 9 12.4362 8.89464 12.6238 8.70711C12.8113 8.51957 12.9167 8.26522 12.9167 8C12.9167 7.73478 12.8113 7.48043 12.6238 7.29289C12.4362 7.10536 12.1819 7 11.9167 7H4.58333Z" fill="#00509B"/>
</g>
</svg>
