<svg width="328" height="327" viewBox="0 0 328 327" fill="none" xmlns="http://www.w3.org/2000/svg">
<path d="M164.001 320.004C235.176 320.004 292.875 287.226 292.875 246.793C292.875 206.36 235.176 173.582 164.001 173.582C92.8251 173.582 35.126 206.36 35.126 246.793C35.126 287.226 92.8251 320.004 164.001 320.004Z" fill="#F5F5F5"/>
<path d="M217.63 292.957L121.43 237.412C120.584 236.924 119.881 236.222 119.393 235.376C118.904 234.531 118.646 233.571 118.646 232.595C118.646 231.618 118.904 230.659 119.393 229.813C119.881 228.967 120.584 228.265 121.43 227.778L130.92 221.794C132.558 220.85 134.416 220.354 136.306 220.354C138.196 220.354 140.054 220.85 141.692 221.794L237.905 277.346C238.751 277.834 239.454 278.536 239.943 279.381C240.431 280.227 240.689 281.186 240.689 282.163C240.689 283.14 240.431 284.099 239.943 284.945C239.454 285.79 238.751 286.492 237.905 286.98L228.415 292.957C226.776 293.906 224.916 294.405 223.022 294.405C221.129 294.405 219.269 293.906 217.63 292.957Z" fill="#E0E0E0"/>
<path d="M71.3582 242.316C82.8879 242.316 92.2345 236.949 92.2345 230.328C92.2345 223.707 82.8879 218.34 71.3582 218.34C59.8286 218.34 50.4819 223.707 50.4819 230.328C50.4819 236.949 59.8286 242.316 71.3582 242.316Z" fill="#E6E6E6"/>
<path d="M251.744 245.062L260.9 250.326C260.9 250.326 256.224 235.631 258.715 220.817C259.657 215.219 261.678 212.439 262.384 210.941C263.091 209.444 268.565 200.189 263.693 195.951C258.82 191.713 247.486 200.235 248.101 223.041C248.38 230.505 249.604 237.905 251.744 245.062Z" fill="#A8C8FF"/>
<path opacity="0.5" d="M251.744 245.062L260.9 250.326C260.9 250.326 256.224 235.631 258.715 220.817C259.657 215.219 261.678 212.439 262.384 210.941C263.091 209.444 268.565 200.189 263.693 195.951C258.82 191.713 247.486 200.235 248.101 223.041C248.38 230.505 249.604 237.905 251.744 245.062Z" fill="#101114"/>
<path d="M256.001 247.836C255.934 247.837 255.869 247.818 255.814 247.78C255.759 247.743 255.717 247.689 255.694 247.626C255.661 247.528 252.162 237.966 252.273 222.597C252.384 207.228 260.461 198.882 260.54 198.804C260.57 198.773 260.606 198.749 260.646 198.732C260.686 198.716 260.729 198.707 260.772 198.707C260.815 198.707 260.858 198.716 260.898 198.732C260.938 198.749 260.974 198.773 261.004 198.804C261.035 198.834 261.059 198.87 261.076 198.91C261.092 198.95 261.101 198.993 261.101 199.036C261.101 199.079 261.092 199.122 261.076 199.162C261.059 199.202 261.035 199.238 261.004 199.268C260.926 199.347 253.038 207.443 252.927 222.604C252.816 237.764 256.269 247.312 256.308 247.404C256.338 247.485 256.334 247.575 256.297 247.654C256.26 247.732 256.194 247.793 256.112 247.823C256.076 247.834 256.039 247.838 256.001 247.836Z" fill="white"/>
<path d="M255.563 247.312L268.081 254.506C269.385 255.277 270.932 255.528 272.414 255.209C273.895 254.89 275.202 254.025 276.073 252.786C276.902 251.497 277.251 249.957 277.061 248.437C276.459 241.936 273.634 240.438 277.094 237.541C280.553 234.643 281.456 234.441 281.26 231.654C281.063 228.868 279.16 227.652 278.258 226.553C277.355 225.454 274.857 223.152 276.557 219.751C278.258 216.35 280.579 213.061 277.061 211.556C274.961 210.654 271.462 211.857 269.16 214.356C266.858 216.854 264.961 218.653 262.757 219.254C260.553 219.856 255.962 219.954 256.158 223.754C256.355 227.554 257.362 228.855 256.459 230.549C254.759 233.715 247.362 235.513 255.563 247.312Z" fill="#A8C8FF"/>
<path d="M261.75 251.181C261.668 251.178 261.59 251.147 261.53 251.091C261.47 251.036 261.432 250.961 261.423 250.88C261.423 250.658 259.5 228.212 274.935 213.274C274.998 213.221 275.08 213.195 275.162 213.2C275.244 213.205 275.322 213.24 275.379 213.3C275.436 213.36 275.469 213.439 275.47 213.521C275.471 213.604 275.441 213.684 275.386 213.745C260.174 228.467 262.057 250.599 262.077 250.821C262.084 250.907 262.057 250.992 262.002 251.058C261.947 251.124 261.868 251.166 261.782 251.174L261.75 251.181Z" fill="white"/>
<path d="M264.229 231.864C264.147 231.864 264.067 231.833 264.007 231.777C263.946 231.721 263.909 231.645 263.902 231.563C263.765 229.823 263.275 228.13 262.462 226.586C261.649 225.042 260.53 223.68 259.174 222.583C259.138 222.558 259.108 222.527 259.085 222.49C259.062 222.454 259.046 222.413 259.039 222.37C259.032 222.328 259.033 222.284 259.042 222.242C259.052 222.2 259.07 222.16 259.095 222.125C259.119 222.09 259.15 222.06 259.186 222.037C259.222 222.014 259.262 221.998 259.304 221.991C259.346 221.984 259.389 221.985 259.431 221.994C259.472 222.004 259.512 222.022 259.546 222.047C260.992 223.193 262.184 224.628 263.046 226.259C263.909 227.89 264.423 229.683 264.556 231.523C264.563 231.611 264.536 231.698 264.48 231.765C264.423 231.832 264.343 231.875 264.255 231.883L264.229 231.864Z" fill="white"/>
<path d="M263.163 235.715C263.084 235.716 263.008 235.688 262.948 235.637C262.883 235.579 262.843 235.498 262.837 235.411C262.831 235.325 262.859 235.239 262.915 235.173C263.072 234.989 266.937 230.725 275.995 231.857C276.081 231.868 276.159 231.913 276.212 231.982C276.264 232.05 276.288 232.137 276.276 232.223C276.265 232.309 276.22 232.388 276.152 232.441C276.083 232.495 275.997 232.52 275.91 232.511C267.212 231.419 263.438 235.565 263.399 235.604C263.369 235.638 263.333 235.665 263.292 235.684C263.252 235.703 263.208 235.714 263.163 235.715Z" fill="white"/>
<path d="M214.699 286.318L130.095 237.469C124.124 234.023 119.284 224.775 119.284 216.815V35.6518C119.284 27.6924 124.124 24.0364 130.095 27.4831L214.699 76.3318C220.67 79.7785 225.51 89.0264 225.51 96.9858V278.149C225.51 286.102 220.67 289.765 214.699 286.318Z" fill="#455A64"/>
<path d="M224.444 70.6355L139.833 21.7868C137.283 20.3152 134.941 20.1452 133.09 21.0477C132.864 21.1612 132.645 21.2901 132.436 21.4336L122.953 26.947C124.863 25.8025 127.361 25.8875 130.102 27.4702L214.706 76.3189C220.677 79.7656 225.516 89.0135 225.516 96.9729V278.136C225.516 282.348 224.163 285.331 222.004 286.743L231.363 281.295C233.751 280.026 235.288 276.92 235.288 272.466V91.3025C235.288 83.33 230.415 74.0822 224.444 70.6355Z" fill="#37474F"/>
<path d="M225.51 96.9731V278.137C225.51 282.348 224.156 285.331 221.998 286.743L231.364 281.295C233.751 280.027 235.288 276.92 235.288 272.466V91.3027L225.543 96.96L225.51 96.9731Z" fill="#263238"/>
<path d="M235.255 105.357L225.51 110.982V115.377L235.255 109.746V105.357Z" fill="#37474F"/>
<path d="M230.984 134.584C230.114 135.088 229.408 134.552 229.408 133.394V123.944C229.417 123.353 229.564 122.772 229.837 122.249C230.111 121.725 230.504 121.273 230.984 120.929C231.854 120.425 232.56 120.929 232.56 122.119V131.569C232.551 132.16 232.404 132.741 232.13 133.264C231.857 133.788 231.464 134.24 230.984 134.584Z" fill="#37474F"/>
<path d="M229.401 133.419V123.943C229.41 123.352 229.557 122.771 229.831 122.248C230.105 121.724 230.497 121.272 230.977 120.928C231.121 120.827 231.288 120.766 231.462 120.75C231.637 120.734 231.812 120.764 231.971 120.836L230.788 120.228C230.626 120.15 230.446 120.116 230.267 120.13C230.088 120.144 229.916 120.205 229.767 120.306C229.287 120.651 228.894 121.103 228.619 121.626C228.344 122.15 228.195 122.73 228.185 123.321V132.765C228.16 133.004 228.196 133.245 228.29 133.466C228.384 133.686 228.532 133.88 228.721 134.028L229.957 134.682C229.76 134.54 229.605 134.348 229.507 134.126C229.41 133.904 229.373 133.66 229.401 133.419Z" fill="#455A64"/>
<path d="M230.984 157.457C230.114 157.961 229.408 157.457 229.408 156.267V146.817C229.417 146.226 229.564 145.646 229.838 145.122C230.112 144.599 230.504 144.146 230.984 143.801C231.854 143.298 232.56 143.801 232.56 144.998V154.442C232.552 155.033 232.406 155.614 232.132 156.138C231.858 156.662 231.465 157.114 230.984 157.457Z" fill="#37474F"/>
<path d="M229.402 156.266V146.816C229.411 146.225 229.558 145.645 229.832 145.121C230.106 144.598 230.498 144.146 230.978 143.801C231.122 143.702 231.289 143.642 231.463 143.626C231.637 143.61 231.812 143.639 231.972 143.709L230.788 143.094C230.627 143.013 230.447 142.977 230.267 142.991C230.087 143.005 229.914 143.068 229.768 143.173C229.286 143.516 228.892 143.968 228.617 144.492C228.342 145.015 228.194 145.596 228.185 146.188V155.658C228.16 155.897 228.196 156.138 228.29 156.359C228.384 156.58 228.532 156.773 228.721 156.92L229.957 157.574C229.753 157.429 229.592 157.23 229.494 156.999C229.396 156.768 229.364 156.514 229.402 156.266Z" fill="#455A64"/>
<path d="M211.743 81.4157L128.604 33.3976C128.257 33.198 127.864 33.0925 127.463 33.0918C127.063 33.0911 126.669 33.195 126.322 33.3933C125.974 33.5916 125.684 33.8775 125.481 34.2224C125.278 34.5673 125.168 34.9593 125.164 35.3596V216.817C125.164 222.874 129.46 230.31 134.706 233.338L215.804 280.185C216.189 280.407 216.625 280.523 217.068 280.523C217.512 280.522 217.948 280.405 218.332 280.183C218.717 279.961 219.036 279.642 219.258 279.258C219.48 278.874 219.597 278.438 219.597 277.994V95.0389C219.63 90.0422 216.085 83.914 211.743 81.4157Z" fill="#A8C8FF"/>
<path opacity="0.9" d="M211.743 81.4157L128.604 33.3976C128.257 33.198 127.864 33.0925 127.463 33.0918C127.063 33.0911 126.669 33.195 126.322 33.3933C125.974 33.5916 125.684 33.8775 125.481 34.2224C125.278 34.5673 125.168 34.9593 125.164 35.3596V216.817C125.164 222.874 129.46 230.31 134.706 233.338L215.804 280.185C216.189 280.407 216.625 280.523 217.068 280.523C217.512 280.522 217.948 280.405 218.332 280.183C218.717 279.961 219.036 279.642 219.258 279.258C219.48 278.874 219.597 278.438 219.597 277.994V95.0389C219.63 90.0422 216.085 83.914 211.743 81.4157Z" fill="white"/>
<path d="M153.47 45.9316L154.758 51.3535L182.319 67.2461L187.08 64.7085L153.47 45.9316Z" fill="#455A64"/>
<path d="M161.573 51.1719C161.573 52.0745 160.919 52.4342 160.161 51.9894C159.753 51.719 159.415 51.3569 159.173 50.9321C158.931 50.5073 158.792 50.0317 158.768 49.5434C158.768 48.6474 159.422 48.2812 160.18 48.7324C160.587 49.0014 160.926 49.3624 161.168 49.7861C161.41 50.2099 161.549 50.6846 161.573 51.1719Z" fill="#263238"/>
<path d="M180.141 62.6486C179.99 62.6474 179.842 62.6092 179.709 62.5374L165.635 54.6892C165.436 54.5725 165.291 54.3827 165.23 54.1604C165.169 53.9381 165.198 53.7008 165.31 53.4993C165.422 53.2978 165.608 53.1481 165.828 53.082C166.049 53.0159 166.287 53.0388 166.491 53.1457L180.572 60.9939C180.744 61.0891 180.878 61.2384 180.955 61.4185C181.032 61.5985 181.047 61.7991 180.998 61.9885C180.948 62.178 180.837 62.3457 180.682 62.4652C180.527 62.5847 180.337 62.6492 180.141 62.6486Z" fill="#263238"/>
<path d="M142.6 71.1583C141.743 70.6613 141.122 71.0929 141.122 72.1851C141.122 72.7313 141.257 73.2691 141.515 73.7505C141.772 74.232 142.145 74.6424 142.6 74.9451C142.843 75.0929 143.123 75.1711 143.408 75.1711C143.692 75.1711 143.972 75.0929 144.215 74.9451L145.582 77.4173C145.101 77.6826 144.556 77.8091 144.008 77.7825C143.459 77.7559 142.929 77.5774 142.476 77.2669C141.365 76.5875 140.439 75.6448 139.78 74.5223C139.12 73.3998 138.748 72.1321 138.695 70.8313C138.695 68.4049 140.324 67.5612 142.567 68.8693C143.834 69.685 144.872 70.8106 145.582 72.1394L144.215 73.225C143.878 72.4 143.319 71.6846 142.6 71.1583Z" fill="#A8C8FF"/>
<path d="M153.45 79.353C153.45 81.799 151.796 82.6231 149.526 81.315C148.384 80.6324 147.428 79.6783 146.744 78.5373C146.059 77.3963 145.667 76.1039 145.602 74.7748C145.602 72.3288 147.257 71.5047 149.526 72.8128C150.671 73.4922 151.629 74.4457 152.314 75.5873C152.999 76.729 153.39 78.023 153.45 79.353ZM148.028 76.2333C148.04 76.7948 148.185 77.3456 148.451 77.8403C148.717 78.3349 149.097 78.7592 149.559 79.0783C150.37 79.5492 151.024 79.0783 151.024 77.9664C151.022 77.4176 150.887 76.8773 150.632 76.3912C150.377 75.9051 150.009 75.4876 149.559 75.1738C148.735 74.6963 148.028 75.1018 148.028 76.2333Z" fill="#A8C8FF"/>
<path d="M156.086 76.7571L158.911 82.6433V78.4053L161.05 79.6414V87.8885L159.088 86.7506L156.276 80.9167V85.1286L154.124 83.8859V75.6191L156.086 76.7571Z" fill="#A8C8FF"/>
<path d="M168.042 83.6575V85.8158L166.001 84.6385V90.734L163.64 89.3671V83.2716L161.613 82.1009V79.9492L168.042 83.6575Z" fill="#A8C8FF"/>
<path d="M172.646 93.4026L169.964 91.8526L169.598 92.8075L167.178 91.4079L170.193 84.9004L172.62 86.3L175.524 96.228L173.006 94.7761L172.646 93.4026ZM172.064 91.1136L171.331 88.2948L170.579 90.2568L172.064 91.1136Z" fill="#A8C8FF"/>
<path d="M179.271 92.3302C178.414 91.8397 177.793 92.2648 177.793 93.3636C177.794 93.9095 177.929 94.4468 178.187 94.9281C178.445 95.4094 178.817 95.82 179.271 96.1235C179.516 96.2698 179.796 96.3471 180.082 96.3471C180.367 96.3471 180.647 96.2698 180.893 96.1235L182.26 98.5957C181.777 98.858 181.231 98.9827 180.682 98.9562C180.133 98.9296 179.602 98.7529 179.146 98.4453C178.035 97.7653 177.109 96.8216 176.449 95.6978C175.79 94.5741 175.418 93.3051 175.366 92.0032C175.366 89.5768 177.001 88.7331 179.238 90.0411C180.503 90.8609 181.542 91.9853 182.26 93.3112L180.893 94.3904C180.548 93.5697 179.988 92.8577 179.271 92.3302Z" fill="#A8C8FF"/>
<path d="M188.708 95.5937V97.7454L186.668 96.5681V102.683L184.307 101.316V95.2209L182.279 94.0502V91.8984L188.708 95.5937Z" fill="#A8C8FF"/>
<path d="M195.687 105.718C196.269 106.051 196.713 105.79 196.713 104.972V100.218L199.081 101.578V106.333C199.081 108.524 197.773 109.178 195.68 107.981C194.672 107.421 193.824 106.611 193.218 105.63C192.613 104.649 192.269 103.528 192.22 102.376V97.6211L194.588 98.988V103.743C194.597 104.136 194.702 104.522 194.893 104.866C195.085 105.21 195.357 105.503 195.687 105.718Z" fill="#A8C8FF"/>
<path d="M202.894 105.743C202.626 105.593 202.455 105.586 202.455 105.835C202.455 106.868 206.151 108.359 206.151 111.348C206.151 113.179 204.758 113.186 203.149 112.257C201.735 111.391 200.516 110.239 199.571 108.876L200.448 107.332C201.167 108.446 202.09 109.413 203.168 110.184C203.515 110.387 203.737 110.387 203.737 110.092C203.737 109.02 200.036 107.594 200.036 104.697C200.036 103.048 201.239 102.735 203.096 103.781C204.293 104.505 205.346 105.442 206.203 106.547L205.346 108.13C204.639 107.229 203.814 106.426 202.894 105.743Z" fill="#A8C8FF"/>
<path d="M130.704 111.799C133.357 108.54 134.693 104.404 134.447 100.209C134.202 96.0128 132.393 92.0615 129.377 89.1342C126.361 86.2069 122.357 84.5161 118.156 84.3956C113.955 84.275 109.861 85.7334 106.683 88.483C103.504 91.2325 101.471 95.0736 100.985 99.2483C100.499 103.423 101.596 107.628 104.058 111.034C106.521 114.44 110.17 116.8 114.287 117.647C118.403 118.495 122.688 117.768 126.295 115.612L134.484 119.17L130.704 111.799Z" fill="#A8C8FF"/>
<path opacity="0.4" d="M130.704 111.799C133.357 108.54 134.693 104.404 134.447 100.209C134.202 96.0128 132.393 92.0615 129.377 89.1342C126.361 86.2069 122.357 84.5161 118.156 84.3956C113.955 84.275 109.861 85.7334 106.683 88.483C103.504 91.2325 101.471 95.0736 100.985 99.2483C100.499 103.423 101.596 107.628 104.058 111.034C106.521 114.44 110.17 116.8 114.287 117.647C118.403 118.495 122.688 117.768 126.295 115.612L134.484 119.17L130.704 111.799Z" fill="#101114"/>
<path d="M111.449 100.287C111.449 100.032 111.266 99.8881 110.932 99.8881C110.159 99.9895 109.436 100.33 108.866 100.863L107.937 99.0575C108.915 98.3219 110.095 97.9062 111.318 97.8672C112.888 97.8672 114.078 98.6913 114.078 99.9208C114.078 100.797 113.424 101.641 112.587 102.485L111.416 103.642H114.183V105.565H108.238V103.989L110.887 101.248C111.172 100.996 111.369 100.659 111.449 100.287Z" fill="white"/>
<path d="M119.023 97.9805L117.218 102.31H117.957V100.852H120.233V102.31H121.096V104.096H120.233V105.567H117.957V104.096H114.719V102.474L116.681 97.9805H119.023Z" fill="white"/>
<path d="M128.12 101.791V105.565H125.687V102.491C125.701 102.391 125.694 102.289 125.665 102.192C125.636 102.095 125.587 102.006 125.521 101.93C125.454 101.853 125.373 101.792 125.281 101.75C125.189 101.708 125.089 101.687 124.988 101.687C124.51 101.687 124.209 102.06 124.209 102.635V105.565H121.776V97.5469H124.209V100.497C124.4 100.196 124.665 99.9495 124.979 99.7821C125.293 99.6147 125.645 99.5318 126.001 99.5416C126.293 99.5341 126.583 99.5882 126.852 99.7004C127.121 99.8126 127.364 99.9804 127.564 100.193C127.764 100.405 127.917 100.657 128.013 100.933C128.109 101.208 128.145 101.501 128.12 101.791Z" fill="white"/>
<path d="M207.453 162.562V243.824C207.454 244.743 207.213 245.646 206.755 246.443C206.296 247.239 205.636 247.901 204.84 248.361C204.044 248.821 203.142 249.063 202.223 249.064C201.304 249.064 200.401 248.822 199.605 248.363L155.838 223.091L148.081 218.618C145.41 217.074 143.191 214.855 141.646 212.184C140.102 209.514 139.285 206.484 139.278 203.399V122.131C139.276 121.211 139.517 120.308 139.976 119.512C140.435 118.715 141.095 118.054 141.891 117.594C142.686 117.133 143.589 116.891 144.508 116.891C145.427 116.89 146.33 117.132 147.126 117.592L198.663 147.343C201.335 148.885 203.554 151.103 205.097 153.775C206.64 156.446 207.452 159.477 207.453 162.562Z" fill="#A8C8FF"/>
<path opacity="0.5" d="M207.453 162.562V243.824C207.454 244.743 207.213 245.646 206.755 246.443C206.296 247.239 205.636 247.901 204.84 248.361C204.044 248.821 203.142 249.063 202.223 249.064C201.304 249.064 200.401 248.822 199.605 248.363L155.838 223.091L148.081 218.618C145.41 217.074 143.191 214.855 141.646 212.184C140.102 209.514 139.285 206.484 139.278 203.399V122.131C139.276 121.211 139.517 120.308 139.976 119.512C140.435 118.715 141.095 118.054 141.891 117.594C142.686 117.133 143.589 116.891 144.508 116.891C145.427 116.89 146.33 117.132 147.126 117.592L198.663 147.343C201.335 148.885 203.554 151.103 205.097 153.775C206.64 156.446 207.452 159.477 207.453 162.562Z" fill="white"/>
<path d="M182.241 210.646C182.241 210.646 190.436 224.237 184.517 239.561L155.818 223.092L182.241 210.646Z" fill="#263238"/>
<path d="M195.309 149.583C195.929 144.546 192.349 139.96 187.312 139.34C182.275 138.72 177.689 142.3 177.069 147.337C176.449 152.374 180.029 156.96 185.066 157.58C190.103 158.2 194.689 154.62 195.309 149.583Z" fill="#263238"/>
<path d="M186.237 122.686C186.237 122.686 189.056 118.108 189.919 118.441C190.782 118.775 189.356 123.137 189.356 123.137C189.356 123.137 193.621 124.027 192.829 125.099C192.038 126.172 186.825 125.917 186.825 125.917L186.237 122.686Z" fill="#263238"/>
<path d="M188.199 134.485C186.237 149.227 173.81 149.227 173.81 149.227L147.78 137.769C147.78 137.769 145.818 136.049 145.217 132.098C144.986 130.48 144.986 128.837 145.217 127.219C145.217 127.219 145.217 127.187 145.217 127.174C146.047 120.973 150.684 114.309 160.782 112.262C162.995 111.815 165.248 111.596 167.506 111.608C168.598 111.604 169.689 111.659 170.776 111.771C178.624 112.543 184.124 116.206 186.747 121.902C187.337 123.188 187.776 124.538 188.055 125.924C188.587 128.749 188.636 131.644 188.199 134.485Z" fill="#263238"/>
<path d="M125.707 163.001C125.707 163.001 116.466 162.681 112.908 171.687C112.908 171.687 116.832 174.336 121.979 171.687C127.127 169.038 125.707 163.001 125.707 163.001Z" fill="#A8C8FF"/>
<path opacity="0.5" d="M125.707 163.001C125.707 163.001 116.466 162.681 112.908 171.687C112.908 171.687 116.832 174.336 121.979 171.687C127.127 169.038 125.707 163.001 125.707 163.001Z" fill="#101114"/>
<path d="M125.445 167.339C125.445 167.339 122.829 155.972 121.449 155.835C120.069 155.698 119.801 159.301 119.912 161.335L116.642 154.298C116.539 154.079 116.391 153.884 116.209 153.725C116.027 153.565 115.814 153.445 115.584 153.37C115.354 153.296 115.11 153.27 114.87 153.293C114.629 153.317 114.395 153.389 114.183 153.507C110.913 155.305 105.177 160.773 117.27 174.291L125.445 167.339Z" fill="#945959"/>
<path d="M158.931 159.478L156.969 159.222C154.992 158.96 152.98 159.229 151.141 160.002C149.302 160.774 147.702 162.022 146.505 163.618L134.83 179.157L125.674 163.003C125.674 163.003 124.575 173.99 112.875 171.688L125.439 192.833C126.234 194.171 127.341 195.298 128.665 196.117C129.989 196.936 131.491 197.423 133.044 197.537C134.597 197.65 136.154 197.387 137.583 196.77C139.012 196.152 140.271 195.199 141.253 193.99L152.005 180.772L158.931 159.478Z" fill="#A8C8FF"/>
<path d="M183.85 195.74C181.234 202.372 180.946 203.667 182.542 206.983C183.653 209.432 184.529 211.981 185.158 214.595C185.158 214.595 173.032 228.186 155.773 223.098L148.016 218.624C146.403 217.694 144.95 216.51 143.713 215.119L146.074 197.512C146.193 196.586 146.099 195.644 145.799 194.759L143.32 187.493C142.111 183.944 141.931 180.125 142.801 176.478C143.672 172.831 145.557 169.505 148.239 166.885L156.571 158.742L178.454 161.541L181.724 162.477C183.865 163.096 185.711 164.467 186.922 166.337C188.133 168.208 188.628 170.453 188.317 172.66C187.244 180.377 185.492 191.574 183.85 195.74Z" fill="#A8C8FF"/>
<path opacity="0.5" d="M183.85 195.74C181.234 202.372 180.946 203.667 182.542 206.983C183.653 209.432 184.529 211.981 185.158 214.595C185.158 214.595 173.032 228.186 155.773 223.098L148.016 218.624C146.403 217.694 144.95 216.51 143.713 215.119L146.074 197.512C146.193 196.586 146.099 195.644 145.799 194.759L143.32 187.493C142.111 183.944 141.931 180.125 142.801 176.478C143.672 172.831 145.557 169.505 148.239 166.885L156.571 158.742L178.454 161.541L181.724 162.477C183.865 163.096 185.711 164.467 186.922 166.337C188.133 168.208 188.628 170.453 188.317 172.66C187.244 180.377 185.492 191.574 183.85 195.74Z" fill="#101114"/>
<path d="M170.651 175.931L166.269 172.197C165.805 171.8 165.245 171.53 164.646 171.416C164.046 171.301 163.426 171.345 162.849 171.543L157.551 173.367L156.838 170.398C156.727 169.936 156.523 169.501 156.239 169.12C155.956 168.739 155.598 168.42 155.187 168.181C154.776 167.942 154.321 167.788 153.85 167.73C153.378 167.672 152.9 167.709 152.443 167.841L150.147 168.495L154.032 161.052C155.301 158.628 157.255 156.631 159.65 155.31L161.174 154.473L173.764 155.127C173.764 155.127 178.453 157.089 178.453 161.503L170.651 175.892" fill="#A8C8FF"/>
<path d="M173.817 160.705L161.194 170.542V139.221H173.817V160.705Z" fill="#945959"/>
<path d="M161.39 158.121L157.551 173.392L173.764 160.704L161.39 158.121Z" fill="#945959"/>
<path d="M161.194 155.852C164.001 154.81 166.567 153.208 168.735 151.144C170.904 149.08 172.631 146.597 173.81 143.845V139.221H161.188L161.194 155.852Z" fill="#703838"/>
<path d="M163.915 116.01C159.127 116.01 148.951 118.678 147.774 131.209C146.596 143.74 147.734 153.446 154.196 154.388C160.658 155.329 175.674 150.64 177.688 134.42C179.703 118.201 168.578 116.01 163.915 116.01Z" fill="#945959"/>
<path d="M156.38 136.514V143.898L152.051 142.57L156.38 136.514Z" fill="#703838"/>
<path d="M161.194 139.292C162.025 139.292 162.698 138.618 162.698 137.787C162.698 136.957 162.025 136.283 161.194 136.283C160.363 136.283 159.69 136.957 159.69 137.787C159.69 138.618 160.363 139.292 161.194 139.292Z" fill="#263238"/>
<path d="M152.797 136.743C152.795 137.04 152.706 137.331 152.54 137.577C152.374 137.824 152.138 138.015 151.863 138.128C151.588 138.241 151.286 138.27 150.995 138.211C150.703 138.152 150.436 138.009 150.226 137.798C150.017 137.587 149.874 137.319 149.817 137.028C149.759 136.736 149.789 136.434 149.903 136.16C150.017 135.885 150.21 135.65 150.457 135.485C150.705 135.32 150.995 135.232 151.292 135.232C151.49 135.232 151.687 135.272 151.869 135.348C152.052 135.424 152.219 135.535 152.358 135.675C152.498 135.816 152.609 135.982 152.684 136.166C152.759 136.349 152.797 136.545 152.797 136.743Z" fill="#263238"/>
<path d="M149.454 133.602L152.398 131.856C152.398 131.856 151.273 130.685 150.148 131.385C149.023 132.085 149.454 133.602 149.454 133.602Z" fill="#263238"/>
<path d="M154.346 146.892C155.779 146.997 157.206 146.614 158.395 145.807C158.395 145.807 158.676 147.945 156.884 148.351C155.092 148.756 154.346 146.892 154.346 146.892Z" fill="#703838"/>
<path d="M151.776 120.273C151.776 120.273 153.575 137.572 177.1 138.115C177.1 138.115 184.209 120.921 170.161 115.335C156.113 109.75 151.776 120.273 151.776 120.273Z" fill="#263238"/>
<path d="M184.026 135.526L181.135 133.851C180.036 133.197 178.519 133.289 176.838 134.257C173.503 136.18 170.795 140.869 170.795 144.721C170.795 146.651 171.449 147.991 172.574 148.645L175.412 150.28L175.576 150.372L175.674 150.431C176.746 150.954 178.179 150.83 179.755 149.921C183.09 147.959 185.798 143.309 185.798 139.456C185.778 137.507 185.105 136.16 184.026 135.526Z" fill="#A8C8FF"/>
<path d="M184.003 145.376C186.362 141.291 186.362 136.875 184.003 135.513C181.644 134.151 177.82 136.359 175.462 140.445C173.103 144.53 173.103 148.946 175.462 150.307C177.82 151.669 181.644 149.461 184.003 145.376Z" fill="#A8C8FF"/>
<path opacity="0.5" d="M184.003 145.376C186.362 141.291 186.362 136.875 184.003 135.513C181.644 134.151 177.82 136.359 175.462 140.445C173.103 144.53 173.103 148.946 175.462 150.307C177.82 151.669 181.644 149.461 184.003 145.376Z" fill="#101114"/>
<path d="M185.183 139.154L183.221 138.009C182.476 137.565 181.436 137.623 180.285 138.284C179.082 139.07 178.082 140.127 177.364 141.372C176.646 142.616 176.23 144.011 176.151 145.445C176.151 146.754 176.616 147.689 177.368 148.12L179.33 149.239C179.365 149.264 179.402 149.286 179.441 149.304L179.506 149.343C179.966 149.518 180.462 149.577 180.95 149.515C181.438 149.454 181.904 149.273 182.306 148.99C183.507 148.205 184.507 147.148 185.225 145.906C185.943 144.663 186.359 143.268 186.439 141.835C186.387 140.508 185.929 139.585 185.183 139.154Z" fill="#A8C8FF"/>
<path d="M186.387 141.823C186.307 143.256 185.891 144.651 185.173 145.893C184.455 147.136 183.455 148.193 182.254 148.978C179.965 150.286 178.114 149.227 178.114 146.591C178.191 145.157 178.607 143.761 179.326 142.517C180.046 141.274 181.049 140.218 182.254 139.436C184.536 138.115 186.387 139.181 186.387 141.823Z" fill="#A8C8FF"/>
<path opacity="0.3" d="M186.387 141.823C186.307 143.256 185.891 144.651 185.173 145.893C184.455 147.136 183.455 148.193 182.254 148.978C179.965 150.286 178.114 149.227 178.114 146.591C178.191 145.157 178.607 143.761 179.326 142.517C180.046 141.274 181.049 140.218 182.254 139.436C184.536 138.115 186.387 139.181 186.387 141.823Z" fill="#101114"/>
<path d="M175.046 112.635C173.171 111.187 170.875 110.39 168.506 110.365H167.924C165.525 110.339 163.13 110.559 160.775 111.019C161.207 111.019 161.639 111.019 162.083 111.019H160.775V112.236H161.992C166.184 112.378 170.157 114.146 173.07 117.164C175.984 120.182 177.609 124.215 177.603 128.41V133.557C177.603 133.76 177.646 133.962 177.728 134.148C177.811 134.333 177.932 134.5 178.083 134.636C178.234 134.773 178.412 134.876 178.605 134.939C178.799 135.002 179.003 135.023 179.206 135.002H179.356L180.664 134.597C180.577 134.624 180.487 134.642 180.396 134.649C180.786 134.596 181.143 134.402 181.398 134.102C181.654 133.803 181.791 133.421 181.782 133.027V128.253C181.769 119.613 178.035 114.97 175.046 112.635Z" fill="#A8C8FF"/>
<path d="M166.812 154.028C166.273 154.028 165.74 153.912 165.249 153.688L161.161 151.798C161.097 151.775 161.039 151.739 160.99 151.693C160.94 151.646 160.901 151.59 160.875 151.527C160.848 151.465 160.835 151.397 160.836 151.329C160.837 151.261 160.852 151.194 160.88 151.133C160.908 151.071 160.949 151.016 161 150.97C161.05 150.925 161.11 150.891 161.174 150.87C161.239 150.849 161.307 150.841 161.375 150.848C161.442 150.855 161.508 150.875 161.567 150.909L165.654 152.799C166.176 153.041 166.76 153.115 167.325 153.009C167.89 152.904 168.408 152.624 168.807 152.21L172.731 148.155C172.823 148.063 172.948 148.012 173.078 148.012C173.208 148.012 173.332 148.063 173.424 148.155C173.515 148.248 173.565 148.372 173.565 148.502C173.565 148.631 173.515 148.756 173.424 148.848L169.5 152.903C169.151 153.262 168.733 153.547 168.271 153.74C167.809 153.933 167.313 154.031 166.812 154.028Z" fill="#A8C8FF"/>
<path opacity="0.5" d="M166.812 154.028C166.273 154.028 165.74 153.912 165.249 153.688L161.161 151.798C161.097 151.775 161.039 151.739 160.99 151.693C160.94 151.646 160.901 151.59 160.875 151.527C160.848 151.465 160.835 151.397 160.836 151.329C160.837 151.261 160.852 151.194 160.88 151.133C160.908 151.071 160.949 151.016 161 150.97C161.05 150.925 161.11 150.891 161.174 150.87C161.239 150.849 161.307 150.841 161.375 150.848C161.442 150.855 161.508 150.875 161.567 150.909L165.654 152.799C166.176 153.041 166.76 153.115 167.325 153.009C167.89 152.904 168.408 152.624 168.807 152.21L172.731 148.155C172.823 148.063 172.948 148.012 173.078 148.012C173.208 148.012 173.332 148.063 173.424 148.155C173.515 148.248 173.565 148.372 173.565 148.502C173.565 148.631 173.515 148.756 173.424 148.848L169.5 152.903C169.151 153.262 168.733 153.547 168.271 153.74C167.809 153.933 167.313 154.031 166.812 154.028Z" fill="#101114"/>
<path d="M162.235 150.423C162.235 150.801 162.123 151.17 161.913 151.484C161.703 151.798 161.405 152.043 161.056 152.188C160.707 152.332 160.323 152.37 159.952 152.296C159.582 152.223 159.241 152.041 158.974 151.774C158.707 151.507 158.525 151.166 158.452 150.796C158.378 150.426 158.416 150.042 158.56 149.693C158.705 149.344 158.95 149.045 159.264 148.836C159.578 148.626 159.947 148.514 160.325 148.514C160.831 148.514 161.317 148.715 161.675 149.073C162.033 149.431 162.235 149.917 162.235 150.423Z" fill="#A8C8FF"/>
<path opacity="0.5" d="M162.235 150.423C162.235 150.801 162.123 151.17 161.913 151.484C161.703 151.798 161.405 152.043 161.056 152.188C160.707 152.332 160.323 152.37 159.952 152.296C159.582 152.223 159.241 152.041 158.974 151.774C158.707 151.507 158.525 151.166 158.452 150.796C158.378 150.426 158.416 150.042 158.56 149.693C158.705 149.344 158.95 149.045 159.264 148.836C159.578 148.626 159.947 148.514 160.325 148.514C160.831 148.514 161.317 148.715 161.675 149.073C162.033 149.431 162.235 149.917 162.235 150.423Z" fill="#101114"/>
<path d="M181.769 128.252V133.026C181.778 133.42 181.641 133.803 181.385 134.102C181.13 134.401 180.773 134.595 180.383 134.648C180.167 134.671 179.949 134.649 179.743 134.582C179.537 134.515 179.347 134.406 179.186 134.261C179.025 134.116 178.897 133.938 178.809 133.74C178.721 133.542 178.675 133.328 178.676 133.111V128.252C178.679 125.933 178.214 123.637 177.307 121.502C176.4 119.368 175.071 117.439 173.4 115.831C171.728 114.224 169.748 112.971 167.58 112.148C165.411 111.326 163.099 110.95 160.782 111.045C163.136 110.584 165.531 110.365 167.93 110.391H168.499C170.868 110.415 173.164 111.212 175.039 112.66C178.035 114.969 181.769 119.612 181.769 128.252Z" fill="#A8C8FF"/>
<path opacity="0.5" d="M181.769 128.252V133.026C181.778 133.42 181.641 133.803 181.385 134.102C181.13 134.401 180.773 134.595 180.383 134.648C180.167 134.671 179.949 134.649 179.743 134.582C179.537 134.515 179.347 134.406 179.186 134.261C179.025 134.116 178.897 133.938 178.809 133.74C178.721 133.542 178.675 133.328 178.676 133.111V128.252C178.679 125.933 178.214 123.637 177.307 121.502C176.4 119.368 175.071 117.439 173.4 115.831C171.728 114.224 169.748 112.971 167.58 112.148C165.411 111.326 163.099 110.95 160.782 111.045C163.136 110.584 165.531 110.365 167.93 110.391H168.499C170.868 110.415 173.164 111.212 175.039 112.66C178.035 114.969 181.769 119.612 181.769 128.252Z" fill="#101114"/>
<path d="M174.418 218.227C174.418 218.227 171.253 226.945 182.567 230.869C182.567 230.869 186.263 225.441 182.567 221C178.872 216.559 174.418 218.227 174.418 218.227Z" fill="#A8C8FF"/>
<path opacity="0.7" d="M174.418 218.227C174.418 218.227 171.253 226.945 182.567 230.869C182.567 230.869 186.263 225.441 182.567 221C178.872 216.559 174.418 218.227 174.418 218.227Z" fill="#101114"/>
<path d="M178.389 218.625C178.389 218.625 167.336 222.673 167.394 224.243C167.453 225.813 172.09 224.74 172.09 224.74L170.396 225.852C168.613 227.016 167.231 228.701 166.44 230.679C166.267 231.115 166.261 231.599 166.423 232.039C166.584 232.479 166.902 232.845 167.316 233.066L171.515 235.289C171.752 235.415 172.012 235.492 172.279 235.516C172.547 235.539 172.816 235.509 173.071 235.427C173.327 235.344 173.563 235.212 173.767 235.037C173.97 234.861 174.136 234.647 174.255 234.406C174.489 233.944 174.813 233.533 175.207 233.196C175.601 232.859 176.057 232.604 176.551 232.444C178.833 231.686 183.091 229.501 184.798 223.524L178.389 218.625Z" fill="#945959"/>
<path d="M181.704 162.465C181.704 162.465 175.818 165.735 178.944 175.663C182.07 185.591 187.937 200.993 187.937 200.993L174.418 218.227C175.863 218.401 177.254 218.878 178.502 219.626C179.749 220.374 180.825 221.377 181.658 222.569C182.457 223.782 182.956 225.166 183.114 226.609C183.272 228.052 183.085 229.512 182.568 230.869L199.35 209.286C200.902 207.292 201.932 204.942 202.348 202.449C202.763 199.956 202.551 197.399 201.73 195.009L194.536 174.002C193.657 171.436 192.195 169.108 190.266 167.201C188.338 165.293 185.994 163.858 183.418 163.008L181.704 162.465Z" fill="#A8C8FF"/>
<path d="M82.3454 103.817L56.335 88.775C56.0357 88.5675 55.6894 88.438 55.3274 88.398C54.9654 88.358 54.5992 88.4089 54.2618 88.5461C54.1907 88.5789 54.1228 88.6183 54.059 88.6638L48.4018 91.9797H48.441C47.7281 92.3852 47.2769 93.327 47.2769 94.6743V123.608C47.2769 126.054 48.7615 128.899 50.5993 129.959L76.6096 145.001C76.9397 145.24 77.3325 145.376 77.7394 145.394C78.1464 145.411 78.5495 145.309 78.8987 145.099C78.881 145.106 78.8653 145.117 78.8529 145.132L84.4709 141.862C85.2034 141.469 85.6678 140.514 85.6678 139.148V110.168C85.6678 107.722 84.2093 104.877 82.3454 103.817Z" fill="#A8C8FF"/>
<path d="M84.7392 106.558C84.213 105.439 83.3837 104.489 82.3455 103.817L56.3351 88.775C56.0358 88.5675 55.6895 88.438 55.3275 88.398C54.9655 88.358 54.5992 88.4089 54.2619 88.5461C54.1908 88.5789 54.1229 88.6183 54.0591 88.6638L48.4019 91.9797C48.7479 91.8028 49.136 91.7245 49.5235 91.7533C49.9111 91.7822 50.2833 91.917 50.5994 92.1432L76.6097 107.186C77.6833 107.888 78.5342 108.881 79.0623 110.05L84.7392 106.558Z" fill="#A8C8FF"/>
<path d="M79.9322 142.458C79.9322 143.766 79.5136 144.675 78.853 145.074L84.4711 141.804C85.2036 141.411 85.6679 140.456 85.6679 139.09V110.169C85.6403 108.91 85.3224 107.674 84.7392 106.559L79.0623 110.051C79.6074 111.134 79.9045 112.325 79.9322 113.537V142.458Z" fill="#A8C8FF"/>
<path opacity="0.3" d="M84.7392 106.558C84.213 105.439 83.3837 104.489 82.3455 103.817L56.3351 88.775C56.0358 88.5675 55.6895 88.438 55.3275 88.398C54.9655 88.358 54.5992 88.4089 54.2619 88.5461C54.1908 88.5789 54.1229 88.6183 54.0591 88.6638L48.4019 91.9797C48.7479 91.8028 49.136 91.7245 49.5235 91.7533C49.9111 91.7822 50.2833 91.917 50.5994 92.1432L76.6097 107.186C77.6833 107.888 78.5342 108.881 79.0623 110.05L84.7392 106.558Z" fill="#101114"/>
<path opacity="0.6" d="M79.9322 142.458C79.9322 143.766 79.5136 144.675 78.853 145.074L84.4711 141.804C85.2036 141.411 85.6679 140.456 85.6679 139.09V110.169C85.6403 108.91 85.3224 107.674 84.7392 106.559L79.0623 110.051C79.6074 111.134 79.9045 112.325 79.9322 113.537V142.458Z" fill="#101114"/>
<path d="M72.3061 121.824C72.3061 125.572 70.8215 126.847 68.5978 125.559C67.9844 125.21 67.448 124.74 67.0209 124.178C66.5938 123.616 66.2848 122.973 66.1126 122.289C65.4585 123.093 64.4448 123.145 63.019 122.321C60.6777 120.968 58.8333 117.743 58.8333 114.611C58.8333 111.478 60.658 110.399 63.019 111.759C64.2171 112.465 65.1849 113.503 65.8052 114.748V113.512L68.2708 114.938V121.713C68.2341 122.07 68.2958 122.43 68.4491 122.754C68.6025 123.078 68.8416 123.353 69.1407 123.551C69.9713 124.035 70.4814 123.217 70.4814 120.791C70.4814 116.546 67.7607 112.047 63.7385 109.725C59.7162 107.403 57.0021 109.019 57.0021 113.387C57.0548 115.706 57.6936 117.973 58.8589 119.978C60.0242 121.982 61.6782 123.659 63.6665 124.852C64.7461 125.517 65.9721 125.908 67.2375 125.99L67.8196 128.247C66.3462 128.128 64.9225 127.659 63.6665 126.88C58.4344 123.852 54.9746 117.756 54.9746 112.236C54.9746 106.716 58.4671 104.715 63.7385 107.763C68.8333 110.699 72.3061 116.579 72.3061 121.824ZM65.8444 118.679C65.8571 117.849 65.6548 117.031 65.257 116.303C64.8593 115.575 64.2798 114.963 63.575 114.525C62.2669 113.76 61.3317 114.297 61.3317 116.076C61.3149 116.906 61.5125 117.727 61.9054 118.459C62.2983 119.191 62.8734 119.81 63.575 120.255C64.883 120.994 65.8444 120.516 65.8444 118.679Z" fill="#A8C8FF"/>
<g opacity="0.9">
<path d="M72.3061 121.824C72.3061 125.572 70.8215 126.847 68.5978 125.559C67.9844 125.21 67.448 124.74 67.0209 124.178C66.5938 123.616 66.2848 122.973 66.1126 122.289C65.4585 123.093 64.4448 123.145 63.019 122.321C60.6777 120.968 58.8333 117.743 58.8333 114.611C58.8333 111.478 60.658 110.399 63.019 111.759C64.2171 112.465 65.1849 113.503 65.8052 114.748V113.512L68.2708 114.938V121.713C68.2341 122.07 68.2958 122.43 68.4491 122.754C68.6025 123.078 68.8416 123.353 69.1407 123.551C69.9713 124.035 70.4814 123.217 70.4814 120.791C70.4814 116.546 67.7607 112.047 63.7385 109.725C59.7162 107.403 57.0021 109.019 57.0021 113.387C57.0548 115.706 57.6936 117.973 58.8589 119.978C60.0242 121.982 61.6782 123.659 63.6665 124.852C64.7461 125.517 65.9721 125.908 67.2375 125.99L67.8196 128.247C66.3462 128.128 64.9225 127.659 63.6665 126.88C58.4344 123.852 54.9746 117.756 54.9746 112.236C54.9746 106.716 58.4671 104.715 63.7385 107.763C68.8333 110.699 72.3061 116.579 72.3061 121.824ZM65.8444 118.679C65.8571 117.849 65.6548 117.031 65.257 116.303C64.8593 115.575 64.2798 114.963 63.575 114.525C62.2669 113.76 61.3317 114.297 61.3317 116.076C61.3149 116.906 61.5125 117.727 61.9054 118.459C62.2983 119.191 62.8734 119.81 63.575 120.255C64.883 120.994 65.8444 120.516 65.8444 118.679Z" fill="white"/>
</g>
<path d="M82.3454 155.342L56.335 140.3C56.0361 140.091 55.6894 139.961 55.3269 139.923C54.9645 139.884 54.5981 139.937 54.2618 140.077C54.1907 140.11 54.1228 140.15 54.059 140.195L48.4018 143.511H48.441C47.7281 143.916 47.2769 144.858 47.2769 146.199V175.12C47.2769 177.572 48.7615 180.411 50.5993 181.47L76.6096 196.513C76.939 196.753 77.332 196.891 77.7393 196.908C78.1466 196.925 78.55 196.822 78.8987 196.611L78.8529 196.65L84.4709 193.347C85.2034 192.961 85.6678 192.039 85.6678 190.633V161.686C85.6678 159.24 84.2093 156.402 82.3454 155.342Z" fill="#A8C8FF"/>
<path d="M84.7392 158.083C84.2147 156.962 83.3851 156.012 82.3455 155.342L56.3351 140.3C56.0362 140.091 55.6895 139.961 55.327 139.923C54.9646 139.884 54.5982 139.937 54.2619 140.077C54.1908 140.11 54.1229 140.15 54.0591 140.195L48.4019 143.511C48.7471 143.332 49.135 143.253 49.5227 143.28C49.9104 143.308 50.283 143.442 50.5994 143.668L76.6097 158.71C77.685 159.413 78.5361 160.41 79.0623 161.582L84.7392 158.083Z" fill="#A8C8FF"/>
<path d="M79.9322 193.977C79.9322 195.285 79.5136 196.194 78.853 196.625L84.4711 193.323C85.2036 192.937 85.6679 192.015 85.6679 190.608V161.688C85.6402 160.431 85.3224 159.198 84.7392 158.084L79.0623 161.576C79.6073 162.657 79.9044 163.846 79.9322 165.056V193.977Z" fill="#A8C8FF"/>
<path opacity="0.3" d="M84.7392 158.083C84.2147 156.962 83.3851 156.012 82.3455 155.342L56.3351 140.3C56.0362 140.091 55.6895 139.961 55.327 139.923C54.9646 139.884 54.5982 139.937 54.2619 140.077C54.1908 140.11 54.1229 140.15 54.0591 140.195L48.4019 143.511C48.7471 143.332 49.135 143.253 49.5227 143.28C49.9104 143.308 50.283 143.442 50.5994 143.668L76.6097 158.71C77.685 159.413 78.5361 160.41 79.0623 161.582L84.7392 158.083Z" fill="#101114"/>
<path opacity="0.6" d="M79.9322 193.977C79.9322 195.285 79.5136 196.194 78.853 196.625L84.4711 193.323C85.2036 192.937 85.6679 192.015 85.6679 190.608V161.688C85.6402 160.431 85.3224 159.198 84.7392 158.084L79.0623 161.576C79.6073 162.657 79.9044 163.846 79.9322 165.056V193.977Z" fill="#101114"/>
<path d="M60.6973 168.274L54.4253 158.084V171.89L60.6973 168.274Z" fill="#A8C8FF"/>
<path d="M66.5244 171.209L72.7834 182.047V168.26L66.5244 171.209Z" fill="#A8C8FF"/>
<path d="M55.3735 157.617L61.8156 168.082C61.8429 168.104 61.8671 168.131 61.8876 168.16C61.8932 168.186 61.8932 168.213 61.8876 168.238L63.8038 171.352L65.4258 170.586C65.4511 170.559 65.4796 170.535 65.5108 170.514C65.5748 170.477 65.6463 170.455 65.7201 170.449L72.2603 167.382L55.3735 157.617Z" fill="#A8C8FF"/>
<path d="M65.5765 171.654L63.8238 172.478C63.7562 172.509 63.6824 172.525 63.6079 172.524C63.5177 172.525 63.4287 172.502 63.3496 172.459C63.2705 172.415 63.2041 172.352 63.1567 172.275L61.2404 169.162L54.9487 172.798L71.8813 182.57L65.5765 171.654Z" fill="#A8C8FF"/>
<g opacity="0.9">
<path d="M60.6988 168.272L54.4268 158.082V171.888L60.6988 168.272Z" fill="white"/>
<path d="M66.5259 171.205L72.7848 182.043V168.256L66.5259 171.205Z" fill="white"/>
<path d="M55.3755 157.617L61.8176 168.082C61.8449 168.104 61.869 168.131 61.8895 168.16C61.8952 168.186 61.8952 168.213 61.8895 168.238L63.8058 171.352L65.4278 170.586C65.453 170.559 65.4816 170.535 65.5128 170.514C65.5767 170.477 65.6483 170.455 65.7221 170.449L72.2623 167.382L55.3755 157.617Z" fill="white"/>
<path d="M65.578 171.652L63.8252 172.476C63.7577 172.507 63.6839 172.523 63.6094 172.522C63.5191 172.523 63.4301 172.5 63.3511 172.457C63.272 172.413 63.2055 172.35 63.1581 172.273L61.2419 169.16L54.9502 172.797L71.8828 182.568L65.578 171.652Z" fill="white"/>
</g>
<path d="M82.3454 52.3207L56.335 37.2783C56.0361 37.0696 55.6894 36.9399 55.3269 36.901C54.9645 36.8621 54.5981 36.9154 54.2618 37.0559C54.1907 37.0887 54.1228 37.1281 54.059 37.1736L48.4018 40.4895H48.441C47.7281 40.8884 47.2769 41.8368 47.2769 43.1775V72.0983C47.2769 74.5443 48.7615 77.3893 50.5993 78.4488L76.6096 93.4912C76.939 93.7315 77.332 93.8691 77.7393 93.8865C78.1466 93.904 78.55 93.8006 78.8987 93.5893L78.8529 93.622L84.4709 90.3519C85.2034 89.9661 85.6678 89.0439 85.6678 87.6378V58.6451C85.6678 56.199 84.2093 53.3541 82.3454 52.3207Z" fill="#A8C8FF"/>
<path d="M84.7392 55.0414C84.2149 53.9193 83.3853 52.9674 82.3455 52.2945L56.3351 37.2783C56.0362 37.0696 55.6895 36.9399 55.327 36.901C54.9646 36.8621 54.5982 36.9154 54.2619 37.0559C54.1908 37.0887 54.1229 37.1281 54.0591 37.1736L48.4019 40.4895C48.7471 40.311 49.135 40.2311 49.5227 40.2588C49.9104 40.2865 50.283 40.4207 50.5994 40.6465L76.6097 55.6889C77.685 56.3917 78.5361 57.3882 79.0623 58.5601L84.7392 55.0414Z" fill="#A8C8FF"/>
<path d="M79.9322 90.9074C79.9322 92.2155 79.5136 93.1246 78.853 93.5235L84.4711 90.2534C85.2036 89.8676 85.6679 88.9454 85.6679 87.5392V58.6447C85.6402 57.3879 85.3224 56.1546 84.7392 55.041L79.0623 58.5335C79.6073 59.6142 79.9044 60.8028 79.9322 62.0129V90.9074Z" fill="#A8C8FF"/>
<path opacity="0.3" d="M84.7392 55.0414C84.2149 53.9193 83.3853 52.9674 82.3455 52.2945L56.3351 37.2783C56.0362 37.0696 55.6895 36.9399 55.327 36.901C54.9646 36.8621 54.5982 36.9154 54.2619 37.0559C54.1908 37.0887 54.1229 37.1281 54.0591 37.1736L48.4019 40.4895C48.7471 40.311 49.135 40.2311 49.5227 40.2588C49.9104 40.2865 50.283 40.4207 50.5994 40.6465L76.6097 55.6889C77.685 56.3917 78.5361 57.3882 79.0623 58.5601L84.7392 55.0414Z" fill="#101114"/>
<path opacity="0.6" d="M79.9322 90.9074C79.9322 92.2155 79.5136 93.1246 78.853 93.5235L84.4711 90.2534C85.2036 89.8676 85.6679 88.9454 85.6679 87.5392V58.6447C85.6402 57.3879 85.3224 56.1546 84.7392 55.041L79.0623 58.5335C79.6073 59.6142 79.9044 60.8028 79.9322 62.0129V90.9074Z" fill="#101114"/>
<path d="M71.4234 78.4808C70.4228 76.8327 69.4156 75.2107 68.4149 73.5495C68.2562 73.2349 68.0343 72.9563 67.7631 72.7313C67.4919 72.5062 67.1772 72.3395 66.8387 72.2415C66.3548 72.1434 65.8708 72.0322 65.3737 71.8883C65.1967 71.8145 65.0478 71.6862 64.9486 71.5221C63.3112 68.7197 62.0095 65.7342 61.0703 62.6274C61.0503 62.561 61.0446 62.4911 61.0536 62.4223C61.0627 62.3536 61.0862 62.2875 61.1226 62.2285C61.43 61.9211 61.7766 61.6398 62.0905 61.3652C62.4045 61.0905 62.568 60.4561 62.3391 59.632C61.8551 57.8858 61.3907 56.1395 60.9068 54.3998C60.8131 53.9055 60.5909 53.4446 60.2626 53.0634C59.9342 52.6823 59.5113 52.3943 59.0363 52.2285C57.9816 51.9353 56.8619 51.9764 55.8316 52.3462C55.4326 52.4966 55.2233 52.8564 55.2168 53.4777C55.3868 54.6745 55.498 55.8583 55.7269 57.0748C57.3402 65.8474 61.2207 73.9136 67.3685 81.2735C67.529 81.5176 67.7446 81.7205 67.9979 81.8659C68.2513 82.0113 68.5353 82.0952 68.8269 82.1107C69.8448 82.0865 70.8226 81.7097 71.5934 81.0446C72.1755 80.5214 72.1167 79.5927 71.4234 78.4808Z" fill="#A8C8FF"/>
<path d="M71.345 69.5663C71.2082 67.6851 70.6897 65.8514 69.8212 64.1772C69.1727 62.8692 68.3474 61.6566 67.3686 60.5735C67.1135 60.2857 66.8977 60.1942 66.7669 60.41C66.6361 60.6258 66.7669 60.9332 67.0154 61.2144L67.2705 61.5088C69.0782 63.5954 70.2175 66.177 70.5406 68.9188C70.5374 69.1188 70.5571 69.3185 70.5995 69.514C70.6816 69.7389 70.8135 69.9423 70.9853 70.1091C71.1227 70.2072 71.2796 70.1091 71.3908 70.1091C71.3516 69.841 71.3581 69.7036 71.345 69.5663Z" fill="#A8C8FF"/>
<path d="M65.419 64.1968C66.2403 65.1002 66.7394 66.2501 66.8382 67.4669C66.8813 67.6519 66.9495 67.8302 67.041 67.9967C67.4399 68.3237 67.6361 68.2125 67.6361 67.8005C67.4963 66.2402 66.851 64.7683 65.7983 63.6082C65.5498 63.3532 65.3471 63.2747 65.2294 63.4905C65.187 63.6137 65.1824 63.7468 65.2162 63.8727C65.25 63.9985 65.3206 64.1114 65.419 64.1968Z" fill="#A8C8FF"/>
<g opacity="0.9">
<path d="M71.4239 78.4828C70.4232 76.8347 69.416 75.2127 68.4154 73.5515C68.2567 73.2368 68.0348 72.9583 67.7636 72.7332C67.4924 72.5082 67.1777 72.3414 66.8392 72.2435C66.3552 72.1453 65.8713 72.0342 65.3742 71.8903C65.1972 71.8165 65.0483 71.6882 64.9491 71.524C63.3117 68.7216 62.01 65.7362 61.0708 62.6294C61.0508 62.5629 61.0451 62.493 61.0541 62.4243C61.0632 62.3555 61.0866 62.2894 61.1231 62.2304C61.4305 61.923 61.7771 61.6418 62.091 61.3671C62.405 61.0924 62.5685 60.458 62.3396 59.634C61.8556 57.8877 61.3912 56.1415 60.9073 54.4018C60.8136 53.9075 60.5914 53.4466 60.2631 53.0654C59.9347 52.6842 59.5118 52.3963 59.0368 52.2305C57.9821 51.9372 56.8624 51.9784 55.8321 52.3482C55.4331 52.4986 55.2238 52.8583 55.2173 53.4796C55.3873 54.6765 55.4985 55.8603 55.7274 57.0767C57.3407 65.8493 61.2212 73.9156 67.369 81.2755C67.5295 81.5195 67.7451 81.7224 67.9984 81.8679C68.2518 82.0133 68.5357 82.0971 68.8274 82.1126C69.8452 82.0884 70.8231 81.7116 71.5939 81.0466C72.176 80.5233 72.1171 79.5946 71.4239 78.4828Z" fill="white"/>
<path d="M71.345 69.5682C71.2082 67.687 70.6897 65.8534 69.8212 64.1791C69.1727 62.8712 68.3474 61.6586 67.3686 60.5755C67.1135 60.2877 66.8977 60.1961 66.7669 60.412C66.6361 60.6278 66.7669 60.9352 67.0154 61.2164L67.2705 61.5107C69.0782 63.5974 70.2175 66.1789 70.5406 68.9207C70.5374 69.1207 70.5571 69.3204 70.5995 69.5159C70.6816 69.7408 70.8135 69.9443 70.9853 70.1111C71.1227 70.2092 71.2796 70.1111 71.3908 70.1111C71.3516 69.8429 71.3581 69.7056 71.345 69.5682Z" fill="white"/>
<path d="M65.42 64.2007C66.2413 65.1041 66.7403 66.254 66.8392 67.4708C66.8823 67.6559 66.9505 67.8341 67.042 68.0006C67.4409 68.3276 67.6371 68.2164 67.6371 67.8044C67.4973 66.2441 66.852 64.7722 65.7993 63.6121C65.5508 63.3571 65.3481 63.2786 65.2303 63.4944C65.188 63.6176 65.1834 63.7507 65.2172 63.8766C65.251 64.0024 65.3216 64.1153 65.42 64.2007Z" fill="white"/>
</g>
<path d="M215.798 34.977L221.926 38.463V36.2916C221.926 36.1412 221.926 35.9842 221.926 35.8338C221.926 35.6834 221.926 35.5395 221.926 35.3956V35.3171C222.148 32.446 224.326 31.3407 226.982 32.8776C228.184 33.617 229.214 34.6049 230.003 35.7749C230.598 31.8508 233.783 30.4643 237.636 32.6814C241.913 35.1536 245.379 41.1837 245.379 46.1019V50.7454C245.373 51.1169 245.465 51.4834 245.645 51.8083C245.825 52.1331 246.088 52.4049 246.406 52.5963L250.016 54.7088C250.795 55.1708 251.441 55.8271 251.891 56.6135C252.34 57.4 252.578 58.2896 252.58 59.1954C252.58 59.5712 252.481 59.9403 252.293 60.2657C252.105 60.5911 251.835 60.8613 251.509 61.0489C251.184 61.2366 250.814 61.3351 250.439 61.3347C250.063 61.3342 249.694 61.2347 249.369 61.0462L215.889 41.6938C215.001 41.178 214.264 40.4388 213.75 39.5496C213.236 38.6604 212.963 37.6522 212.959 36.6252C212.959 36.2927 213.046 35.966 213.212 35.6778C213.378 35.3896 213.616 35.1501 213.904 34.9831C214.191 34.8162 214.518 34.7278 214.85 34.7267C215.182 34.7256 215.509 34.812 215.798 34.977Z" fill="#E6E6E6"/>
<path d="M262.515 34.0675L266.969 36.6247V35.0289C266.969 34.9177 266.969 34.8066 266.969 34.6954C266.969 34.5842 266.969 34.4795 266.969 34.3749V34.3357C267.132 32.2493 268.715 31.4449 270.644 32.5633C271.518 33.0986 272.267 33.8144 272.842 34.6627C273.28 31.8242 275.595 30.7974 278.394 32.4128C281.507 34.2114 284.025 38.5803 284.025 42.1708V45.5521C284.028 45.8172 284.099 46.0771 284.232 46.3064C284.365 46.5357 284.555 46.7265 284.784 46.8601L287.4 48.3971C287.969 48.7318 288.441 49.2099 288.768 49.7836C289.095 50.3574 289.266 51.0068 289.264 51.6672C289.264 51.9377 289.193 52.2034 289.058 52.4381C288.924 52.6728 288.731 52.8685 288.498 53.0058C288.265 53.1431 288 53.2174 287.73 53.2212C287.459 53.225 287.192 53.1582 286.955 53.0275L262.58 38.953C261.934 38.5794 261.398 38.0425 261.025 37.3963C260.652 36.75 260.455 36.0171 260.455 35.2709C260.454 35.0294 260.517 34.792 260.637 34.5824C260.757 34.3729 260.93 34.1984 261.139 34.0766C261.347 33.9548 261.584 33.8899 261.825 33.8883C262.067 33.8867 262.305 33.9485 262.515 34.0675Z" fill="#E6E6E6"/>
</svg>
