<svg width="71" height="48" viewBox="0 0 71 48" fill="none" xmlns="http://www.w3.org/2000/svg">
<rect x="0.5" width="70" height="48" rx="10" fill="#F3FBFF"/>
<path d="M30.9712 35.5382L31.4003 32.8132L30.4446 32.791H25.8813L29.0526 12.6827C29.0623 12.622 29.0944 12.5654 29.1412 12.5252C29.1879 12.485 29.2479 12.4629 29.3103 12.4629H37.0047C39.5592 12.4629 41.3219 12.9945 42.2424 14.0436C42.6738 14.5358 42.9486 15.0501 43.0816 15.6162C43.2209 16.2101 43.2235 16.9196 43.0873 17.7851L43.0773 17.8482V18.4027L43.509 18.6472C43.8724 18.84 44.161 19.0606 44.3825 19.3133C44.7518 19.7341 44.9905 20.269 45.0913 20.9031C45.1955 21.5552 45.161 22.3312 44.9905 23.2098C44.7936 24.2204 44.4753 25.1006 44.0455 25.8208C43.65 26.4845 43.1463 27.0348 42.5484 27.4615C41.9774 27.8667 41.299 28.1744 40.532 28.3713C39.7887 28.5647 38.9415 28.6624 38.012 28.6624H37.4132C36.9851 28.6624 36.569 28.8166 36.2427 29.0932C35.9154 29.3753 35.6986 29.7607 35.6323 30.1824L35.5872 30.4278L34.8292 35.2305L34.7947 35.4069C34.7857 35.4629 34.7701 35.4907 34.7472 35.5096C34.7267 35.5266 34.6972 35.5382 34.6684 35.5382H30.9712Z" fill="#253B80"/>
<path d="M43.9156 17.9121C43.8927 18.0589 43.8665 18.209 43.837 18.3633C42.8221 23.5731 39.3507 25.3728 34.9168 25.3728H32.6593C32.1172 25.3728 31.6603 25.7666 31.5757 26.3014L30.4199 33.6318L30.0926 35.7095C30.0376 36.0607 30.3084 36.3773 30.6626 36.3773H34.6667C35.1409 36.3773 35.5435 36.0328 35.6181 35.5653L35.6575 35.3617L36.4115 30.5776L36.4599 30.3153C36.5336 29.8461 36.9372 29.5016 37.4113 29.5016H38.0101C41.8894 29.5016 44.9263 27.9266 45.8139 23.3688C46.1846 21.4649 45.9927 19.8751 45.0115 18.757C44.7147 18.4199 44.3463 18.1401 43.9156 17.9121Z" fill="#179BD7"/>
<path d="M42.8522 17.4892C42.6973 17.4441 42.5372 17.4031 42.3731 17.3662C42.2083 17.3301 42.0392 17.2981 41.8654 17.2702C41.2566 17.1718 40.5898 17.125 39.8753 17.125H33.8444C33.6959 17.125 33.5549 17.1586 33.4286 17.2193C33.1504 17.353 32.9438 17.6164 32.8937 17.9387L31.6106 26.0648L31.5737 26.3018C31.6583 25.767 32.1152 25.3732 32.6574 25.3732H34.9148C39.3487 25.3732 42.8203 23.5726 43.835 18.3637C43.8652 18.2094 43.8907 18.0593 43.9136 17.9125C43.6569 17.7763 43.3788 17.6598 43.0794 17.5606C43.0057 17.536 42.9294 17.5122 42.8522 17.4892Z" fill="#222D65"/>
<path d="M32.8971 17.9386C32.9472 17.6162 33.154 17.3529 33.4319 17.22C33.5592 17.1593 33.6995 17.1257 33.8478 17.1257H39.8789C40.5934 17.1257 41.2603 17.1724 41.8688 17.2709C42.0428 17.2988 42.2119 17.3308 42.3767 17.3668C42.5408 17.4038 42.7007 17.4448 42.8558 17.4899C42.9328 17.5129 43.0091 17.5366 43.0837 17.5605C43.3831 17.6597 43.6613 17.777 43.918 17.9124C44.22 15.9871 43.9156 14.6762 42.8747 13.4892C41.7271 12.1825 39.6557 11.623 37.0054 11.623H29.3107C28.7692 11.623 28.3076 12.0168 28.2238 12.5524L25.019 32.8674C24.9557 33.2693 25.2657 33.632 25.6709 33.632H30.4215L31.6142 26.0646L32.8971 17.9386Z" fill="#253B80"/>
</svg>
