<svg width="71" height="50" viewBox="0 0 71 50" fill="none" xmlns="http://www.w3.org/2000/svg">
<g id="credit-card">
<rect x="0.25" y="0.75" width="70.5" height="48.5" rx="10.25" stroke="#101114" stroke-width="0.5"/>
<rect id="BASE" x="0.5" y="1" width="70" height="48" rx="10" fill="#EBF3FA"/>
<path id="polygon9" d="M30.4482 33.1666H26.4902L28.9658 17.8594H32.9236L30.4482 33.1666Z" fill="#00579F"/>
<path id="path11" d="M44.7947 18.2337C44.014 17.924 42.7758 17.582 41.2447 17.582C37.3361 17.582 34.5837 19.6663 34.5668 22.6462C34.5343 24.8447 36.5374 26.0659 38.0356 26.7989C39.5669 27.548 40.0874 28.037 40.0874 28.7047C40.0718 29.7301 38.85 30.2028 37.7105 30.2028C36.1303 30.2028 35.2836 29.9591 33.9969 29.3886L33.4757 29.144L32.9219 32.5802C33.8502 33.0031 35.5604 33.3784 37.3361 33.3948C41.489 33.3948 44.1928 31.3428 44.2248 28.1673C44.2406 26.4247 43.1829 25.0895 40.9025 23.9985C39.5182 23.2981 38.6704 22.8258 38.6704 22.1092C38.6866 21.4577 39.3875 20.7905 40.9501 20.7905C42.2368 20.7578 43.1822 21.0671 43.8984 21.3766L44.2564 21.5391L44.7947 18.2337Z" fill="#00579F"/>
<path id="path13" d="M50.0572 27.7438C50.3832 26.8644 51.6374 23.4609 51.6374 23.4609C51.621 23.4936 51.9627 22.5653 52.1582 21.9955L52.4348 23.3144C52.4348 23.3144 53.1843 26.9785 53.347 27.7438C52.7285 27.7438 50.839 27.7438 50.0572 27.7438ZM54.9428 17.8594H51.8813C50.9372 17.8594 50.22 18.136 49.8126 19.1294L43.9336 33.1664H48.0866C48.0866 33.1664 48.7703 31.2771 48.9172 30.8702C49.3728 30.8702 53.4128 30.8702 53.9989 30.8702C54.1126 31.4076 54.4712 33.1664 54.4712 33.1664H58.1359L54.9428 17.8594Z" fill="#00579F"/>
<path id="path15" d="M23.184 17.8594L19.3078 28.2974L18.8843 26.1805C18.1676 23.7378 15.9202 21.0838 13.4121 19.7642L16.9625 33.1503H21.148L27.3692 17.8594H23.184Z" fill="#00579F"/>
<path id="path17" d="M15.7085 17.8594H9.34054L9.27539 18.1687C14.2428 19.4389 17.5326 22.5008 18.8843 26.1811L17.4999 19.1461C17.272 18.1684 16.5717 17.8916 15.7085 17.8594Z" fill="#FAA61A"/>
</g>
</svg>
