<svg width="71" height="48" viewBox="0 0 71 48" fill="none" xmlns="http://www.w3.org/2000/svg">
<rect x="0.5" width="70" height="48" rx="10" fill="#F1F6FF"/>
<path fill-rule="evenodd" clip-rule="evenodd" d="M33.5603 31.5169V25.475H36.6786C37.9564 25.475 39.035 25.0468 39.9142 24.2024L40.1252 23.9883C41.7313 22.24 41.6258 19.5163 39.9142 17.8988C39.0584 17.0425 37.8861 16.5786 36.6786 16.6024H31.6729V31.5169H33.5603ZM33.5605 23.6434V18.434H36.7262C37.4063 18.434 38.0512 18.6957 38.5319 19.1714C39.552 20.1705 39.5754 21.8356 38.5905 22.8703C38.1098 23.3817 37.4297 23.6672 36.7262 23.6434H33.5605ZM48.9293 22.1091C48.1204 21.3599 47.0185 20.9793 45.6234 20.9793C43.8298 20.9793 42.4816 21.6453 41.5906 22.9655L43.2553 24.024C43.8649 23.1201 44.6973 22.6681 45.7524 22.6681C46.4206 22.6681 47.0653 22.9179 47.5694 23.3699C48.0618 23.798 48.3432 24.4165 48.3432 25.0706V25.5107C47.6163 25.1063 46.7019 24.8922 45.5765 24.8922C44.2635 24.8922 43.2084 25.2015 42.423 25.8318C41.6375 26.4622 41.239 27.2947 41.239 28.3532C41.2155 29.3166 41.6258 30.2324 42.3527 30.8509C43.0912 31.5169 44.0291 31.8499 45.131 31.8499C46.4323 31.8499 47.4639 31.2672 48.2494 30.1016H48.3314V31.5169H50.1368V25.2252C50.1368 23.9051 49.7382 22.8584 48.9293 22.1091ZM43.8066 29.6377C43.4197 29.3523 43.1852 28.8884 43.1852 28.3889C43.1852 27.8299 43.4432 27.3661 43.9473 26.9974C44.4632 26.6287 45.1081 26.4384 45.8702 26.4384C46.9255 26.4265 47.7462 26.6644 48.3325 27.1401C48.3325 27.9489 48.0159 28.6506 47.3945 29.2453C46.8317 29.8161 46.0696 30.1373 45.2723 30.1373C44.7446 30.1492 44.2287 29.9708 43.8066 29.6377ZM54.193 36.0008L60.5001 21.3123H58.4485L55.5295 28.6387H55.4943L52.5049 21.3123H50.4534L54.5916 30.8628L52.247 36.0008H54.193Z" fill="#3C4043"/>
<path d="M27.044 24.1661C27.044 23.5834 26.9971 23.0006 26.9034 22.4297H18.9434V25.7242H23.5037C23.3161 26.7827 22.7065 27.7342 21.8155 28.3289V30.4697H24.5353C26.1296 28.983 27.044 26.7827 27.044 24.1661Z" fill="#4285F4"/>
<path d="M18.9437 32.5392C21.218 32.5392 23.1406 31.778 24.5357 30.4697L21.8159 28.3289C21.0539 28.8522 20.0809 29.1496 18.9437 29.1496C16.7398 29.1496 14.8758 27.6391 14.2076 25.6172H11.4058V27.8294C12.836 30.7195 15.755 32.5392 18.9437 32.5392Z" fill="#34A853"/>
<path d="M14.208 25.6177C13.8563 24.5592 13.8563 23.4055 14.208 22.3351V20.1348H11.4058C10.1981 22.5492 10.1981 25.4036 11.4058 27.818L14.208 25.6177Z" fill="#FBBC04"/>
<path d="M18.9437 18.8023C20.1512 18.7785 21.3118 19.2423 22.1793 20.0868L24.5943 17.6367C23.0585 16.1857 21.0422 15.3888 18.9437 15.4126C15.755 15.4126 12.836 17.2442 11.4058 20.1344L14.2076 22.3466C14.8758 20.3128 16.7398 18.8023 18.9437 18.8023Z" fill="#EA4335"/>
</svg>
