<svg width="349" height="190" viewBox="0 0 349 190" fill="none" xmlns="http://www.w3.org/2000/svg">
<g filter="url(#filter0_d_3146_40809)">
<rect x="8.75" width="316" height="190" rx="20" fill="url(#paint0_linear_3146_40809)"/>
<rect x="9.25" y="0.5" width="315" height="189" rx="19.5" stroke="url(#paint1_linear_3146_40809)"/>
<rect x="263.75" y="142" width="45.3333" height="32" rx="4" fill="white" fill-opacity="0.1"/>
<path fill-rule="evenodd" clip-rule="evenodd" d="M286.655 164.44C285.077 165.77 283.029 166.574 280.791 166.574C275.798 166.574 271.75 162.574 271.75 157.64C271.75 152.707 275.798 148.707 280.791 148.707C283.029 148.707 285.077 149.51 286.655 150.841C288.234 149.51 290.282 148.707 292.52 148.707C297.513 148.707 301.561 152.707 301.561 157.64C301.561 162.574 297.513 166.574 292.52 166.574C290.282 166.574 288.234 165.77 286.655 164.44Z" fill="#ED0006"/>
<path fill-rule="evenodd" clip-rule="evenodd" d="M286.655 164.44C288.599 162.801 289.832 160.363 289.832 157.64C289.832 154.918 288.599 152.48 286.655 150.841C288.234 149.51 290.282 148.707 292.52 148.707C297.513 148.707 301.561 152.707 301.561 157.64C301.561 162.574 297.513 166.574 292.52 166.574C290.282 166.574 288.234 165.77 286.655 164.44Z" fill="#F9A000"/>
<path fill-rule="evenodd" clip-rule="evenodd" d="M286.656 164.44C288.599 162.802 289.832 160.364 289.832 157.641C289.832 154.918 288.599 152.48 286.656 150.842C284.712 152.48 283.479 154.918 283.479 157.641C283.479 160.364 284.712 162.802 286.656 164.44Z" fill="#FF5E00"/>
<path d="M27.878 169V159.32L25.71 160.64V158.776L27.878 157.48H29.582V169H27.878ZM34.7 168.992L34.708 167.504L39.724 163.008C40.1293 162.651 40.404 162.309 40.548 161.984C40.6973 161.659 40.772 161.333 40.772 161.008C40.772 160.597 40.6813 160.229 40.5 159.904C40.3187 159.573 40.068 159.312 39.748 159.12C39.428 158.928 39.06 158.832 38.644 158.832C38.2173 158.832 37.836 158.933 37.5 159.136C37.1693 159.333 36.9107 159.597 36.724 159.928C36.5373 160.259 36.4467 160.616 36.452 161H34.74C34.74 160.253 34.908 159.6 35.244 159.04C35.5853 158.475 36.052 158.035 36.644 157.72C37.236 157.4 37.9133 157.24 38.676 157.24C39.4013 157.24 40.052 157.405 40.628 157.736C41.204 158.061 41.6573 158.509 41.988 159.08C42.324 159.651 42.492 160.301 42.492 161.032C42.492 161.56 42.4227 162.008 42.284 162.376C42.1453 162.744 41.9373 163.085 41.66 163.4C41.3827 163.715 41.036 164.056 40.62 164.424L36.748 167.88L36.564 167.4H42.492V168.992H34.7ZM50.0346 169.216C49.464 169.216 48.928 169.109 48.4266 168.896C47.9253 168.677 47.4906 168.368 47.1226 167.968C46.76 167.568 46.496 167.096 46.3306 166.552L47.9466 166.104C48.1013 166.6 48.3706 166.981 48.7546 167.248C49.1386 167.509 49.5653 167.637 50.0346 167.632C50.456 167.627 50.8266 167.528 51.1466 167.336C51.4666 167.144 51.7173 166.885 51.8986 166.56C52.08 166.229 52.1706 165.851 52.1706 165.424C52.1706 164.784 51.9706 164.256 51.5706 163.84C51.176 163.424 50.6586 163.216 50.0186 163.216C49.8373 163.216 49.6506 163.243 49.4586 163.296C49.272 163.349 49.096 163.419 48.9306 163.504L48.1466 162.184L52.2106 158.592L52.3866 159.072H46.7866V157.48H53.7146V159.072L50.3386 162.32L50.3226 161.776C51.048 161.776 51.6773 161.939 52.2106 162.264C52.744 162.584 53.1546 163.021 53.4426 163.576C53.736 164.125 53.8826 164.741 53.8826 165.424C53.8826 166.16 53.7093 166.813 53.3626 167.384C53.0213 167.955 52.56 168.403 51.9786 168.728C51.4026 169.053 50.7546 169.216 50.0346 169.216ZM63.2469 169V166.992H58.0469V165.408L61.7909 157.48H63.7029L59.9589 165.408H63.2469V162.288H64.9429V165.408H66.0869V166.992H64.9429V169H63.2469ZM78.0186 169V159.32L75.8506 160.64V158.776L78.0186 157.48H79.7226V169H78.0186ZM84.8406 168.992L84.8486 167.504L89.8646 163.008C90.27 162.651 90.5446 162.309 90.6886 161.984C90.838 161.659 90.9126 161.333 90.9126 161.008C90.9126 160.597 90.822 160.229 90.6406 159.904C90.4593 159.573 90.2086 159.312 89.8886 159.12C89.5686 158.928 89.2006 158.832 88.7846 158.832C88.358 158.832 87.9766 158.933 87.6406 159.136C87.31 159.333 87.0513 159.597 86.8646 159.928C86.678 160.259 86.5873 160.616 86.5926 161H84.8806C84.8806 160.253 85.0486 159.6 85.3846 159.04C85.726 158.475 86.1926 158.035 86.7846 157.72C87.3766 157.4 88.054 157.24 88.8166 157.24C89.542 157.24 90.1926 157.405 90.7686 157.736C91.3446 158.061 91.798 158.509 92.1286 159.08C92.4646 159.651 92.6326 160.301 92.6326 161.032C92.6326 161.56 92.5633 162.008 92.4246 162.376C92.286 162.744 92.078 163.085 91.8006 163.4C91.5233 163.715 91.1766 164.056 90.7606 164.424L86.8886 167.88L86.7046 167.4H92.6326V168.992H84.8406ZM100.175 169.216C99.6046 169.216 99.0686 169.109 98.5673 168.896C98.0659 168.677 97.6313 168.368 97.2633 167.968C96.9006 167.568 96.6366 167.096 96.4713 166.552L98.0873 166.104C98.2419 166.6 98.5113 166.981 98.8953 167.248C99.2793 167.509 99.7059 167.637 100.175 167.632C100.597 167.627 100.967 167.528 101.287 167.336C101.607 167.144 101.858 166.885 102.039 166.56C102.221 166.229 102.311 165.851 102.311 165.424C102.311 164.784 102.111 164.256 101.711 163.84C101.317 163.424 100.799 163.216 100.159 163.216C99.9779 163.216 99.7913 163.243 99.5993 163.296C99.4126 163.349 99.2366 163.419 99.0713 163.504L98.2873 162.184L102.351 158.592L102.527 159.072H96.9273V157.48H103.855V159.072L100.479 162.32L100.463 161.776C101.189 161.776 101.818 161.939 102.351 162.264C102.885 162.584 103.295 163.021 103.583 163.576C103.877 164.125 104.023 164.741 104.023 165.424C104.023 166.16 103.85 166.813 103.503 167.384C103.162 167.955 102.701 168.403 102.119 168.728C101.543 169.053 100.895 169.216 100.175 169.216ZM113.387 169V166.992H108.187V165.408L111.931 157.48H113.843L110.099 165.408H113.387V162.288H115.083V165.408H116.227V166.992H115.083V169H113.387ZM128.159 169V159.32L125.991 160.64V158.776L128.159 157.48H129.863V169H128.159ZM134.981 168.992L134.989 167.504L140.005 163.008C140.411 162.651 140.685 162.309 140.829 161.984C140.979 161.659 141.053 161.333 141.053 161.008C141.053 160.597 140.963 160.229 140.781 159.904C140.6 159.573 140.349 159.312 140.029 159.12C139.709 158.928 139.341 158.832 138.925 158.832C138.499 158.832 138.117 158.933 137.781 159.136C137.451 159.333 137.192 159.597 137.005 159.928C136.819 160.259 136.728 160.616 136.733 161H135.021C135.021 160.253 135.189 159.6 135.525 159.04C135.867 158.475 136.333 158.035 136.925 157.72C137.517 157.4 138.195 157.24 138.957 157.24C139.683 157.24 140.333 157.405 140.909 157.736C141.485 158.061 141.939 158.509 142.269 159.08C142.605 159.651 142.773 160.301 142.773 161.032C142.773 161.56 142.704 162.008 142.565 162.376C142.427 162.744 142.219 163.085 141.941 163.4C141.664 163.715 141.317 164.056 140.901 164.424L137.029 167.88L136.845 167.4H142.773V168.992H134.981ZM150.316 169.216C149.745 169.216 149.209 169.109 148.708 168.896C148.207 168.677 147.772 168.368 147.404 167.968C147.041 167.568 146.777 167.096 146.612 166.552L148.228 166.104C148.383 166.6 148.652 166.981 149.036 167.248C149.42 167.509 149.847 167.637 150.316 167.632C150.737 167.627 151.108 167.528 151.428 167.336C151.748 167.144 151.999 166.885 152.18 166.56C152.361 166.229 152.452 165.851 152.452 165.424C152.452 164.784 152.252 164.256 151.852 163.84C151.457 163.424 150.94 163.216 150.3 163.216C150.119 163.216 149.932 163.243 149.74 163.296C149.553 163.349 149.377 163.419 149.212 163.504L148.428 162.184L152.492 158.592L152.668 159.072H147.068V157.48H153.996V159.072L150.62 162.32L150.604 161.776C151.329 161.776 151.959 161.939 152.492 162.264C153.025 162.584 153.436 163.021 153.724 163.576C154.017 164.125 154.164 164.741 154.164 165.424C154.164 166.16 153.991 166.813 153.644 167.384C153.303 167.955 152.841 168.403 152.26 168.728C151.684 169.053 151.036 169.216 150.316 169.216ZM163.528 169V166.992H158.328V165.408L162.072 157.48H163.984L160.24 165.408H163.528V162.288H165.224V165.408H166.368V166.992H165.224V169H163.528ZM178.3 169V159.32L176.132 160.64V158.776L178.3 157.48H180.004V169H178.3ZM185.122 168.992L185.13 167.504L190.146 163.008C190.551 162.651 190.826 162.309 190.97 161.984C191.119 161.659 191.194 161.333 191.194 161.008C191.194 160.597 191.103 160.229 190.922 159.904C190.741 159.573 190.49 159.312 190.17 159.12C189.85 158.928 189.482 158.832 189.066 158.832C188.639 158.832 188.258 158.933 187.922 159.136C187.591 159.333 187.333 159.597 187.146 159.928C186.959 160.259 186.869 160.616 186.874 161H185.162C185.162 160.253 185.33 159.6 185.666 159.04C186.007 158.475 186.474 158.035 187.066 157.72C187.658 157.4 188.335 157.24 189.098 157.24C189.823 157.24 190.474 157.405 191.05 157.736C191.626 158.061 192.079 158.509 192.41 159.08C192.746 159.651 192.914 160.301 192.914 161.032C192.914 161.56 192.845 162.008 192.706 162.376C192.567 162.744 192.359 163.085 192.082 163.4C191.805 163.715 191.458 164.056 191.042 164.424L187.17 167.88L186.986 167.4H192.914V168.992H185.122ZM200.457 169.216C199.886 169.216 199.35 169.109 198.849 168.896C198.347 168.677 197.913 168.368 197.545 167.968C197.182 167.568 196.918 167.096 196.753 166.552L198.369 166.104C198.523 166.6 198.793 166.981 199.177 167.248C199.561 167.509 199.987 167.637 200.457 167.632C200.878 167.627 201.249 167.528 201.569 167.336C201.889 167.144 202.139 166.885 202.321 166.56C202.502 166.229 202.593 165.851 202.593 165.424C202.593 164.784 202.393 164.256 201.993 163.84C201.598 163.424 201.081 163.216 200.441 163.216C200.259 163.216 200.073 163.243 199.881 163.296C199.694 163.349 199.518 163.419 199.353 163.504L198.569 162.184L202.633 158.592L202.809 159.072H197.209V157.48H204.137V159.072L200.761 162.32L200.745 161.776C201.47 161.776 202.099 161.939 202.633 162.264C203.166 162.584 203.577 163.021 203.865 163.576C204.158 164.125 204.305 164.741 204.305 165.424C204.305 166.16 204.131 166.813 203.785 167.384C203.443 167.955 202.982 168.403 202.401 168.728C201.825 169.053 201.177 169.216 200.457 169.216ZM213.669 169V166.992H208.469V165.408L212.213 157.48H214.125L210.381 165.408H213.669V162.288H215.365V165.408H216.509V166.992H215.365V169H213.669Z" fill="white"/>
<path d="M29.196 141.18C28.332 141.18 27.596 140.992 26.988 140.616C26.38 140.236 25.914 139.708 25.59 139.032C25.27 138.356 25.11 137.572 25.11 136.68C25.11 135.788 25.27 135.004 25.59 134.328C25.914 133.652 26.38 133.126 26.988 132.75C27.596 132.37 28.332 132.18 29.196 132.18C30.056 132.18 30.79 132.37 31.398 132.75C32.01 133.126 32.476 133.652 32.796 134.328C33.116 135.004 33.276 135.788 33.276 136.68C33.276 137.572 33.116 138.356 32.796 139.032C32.476 139.708 32.01 140.236 31.398 140.616C30.79 140.992 30.056 141.18 29.196 141.18ZM29.196 139.986C29.808 139.994 30.316 139.86 30.72 139.584C31.128 139.304 31.434 138.916 31.638 138.42C31.842 137.92 31.944 137.34 31.944 136.68C31.944 136.02 31.842 135.444 31.638 134.952C31.434 134.456 31.128 134.07 30.72 133.794C30.316 133.518 29.808 133.378 29.196 133.374C28.584 133.366 28.074 133.5 27.666 133.776C27.262 134.052 26.958 134.44 26.754 134.94C26.55 135.44 26.446 136.02 26.442 136.68C26.438 137.34 26.538 137.918 26.742 138.414C26.946 138.906 27.252 139.29 27.66 139.566C28.072 139.842 28.584 139.982 29.196 139.986ZM35.1928 141V132.36H36.4468V139.818H40.3588V141H35.1928ZM42.0975 141V132.36H43.3515V141H42.0975ZM47.7813 141L44.9733 132.36H46.2753L48.6693 139.734L51.0933 132.36H52.3953L49.5873 141H47.7813ZM54.0202 141V132.36H55.2742V141H54.0202ZM57.0759 141L59.8839 132.36H61.6899L64.4979 141H63.1959L60.6099 133.116H60.9339L58.3779 141H57.0759ZM58.5339 139.05V137.874H63.0459V139.05H58.5339ZM69.1767 141V132.36H72.6687C72.7527 132.36 72.8567 132.364 72.9807 132.372C73.1047 132.376 73.2227 132.388 73.3347 132.408C73.8147 132.484 74.2147 132.648 74.5347 132.9C74.8587 133.152 75.1007 133.47 75.2607 133.854C75.4207 134.238 75.5007 134.662 75.5007 135.126C75.5007 135.814 75.3247 136.408 74.9727 136.908C74.6207 137.404 74.0927 137.714 73.3887 137.838L72.8787 137.898H70.4307V141H69.1767ZM74.2287 141L72.5247 137.484L73.7907 137.16L75.6627 141H74.2287ZM70.4307 136.71H72.6207C72.7007 136.71 72.7887 136.706 72.8847 136.698C72.9847 136.69 73.0787 136.676 73.1667 136.656C73.4227 136.596 73.6287 136.486 73.7847 136.326C73.9407 136.162 74.0527 135.974 74.1207 135.762C74.1887 135.55 74.2227 135.338 74.2227 135.126C74.2227 134.914 74.1887 134.704 74.1207 134.496C74.0527 134.284 73.9407 134.098 73.7847 133.938C73.6287 133.774 73.4227 133.662 73.1667 133.602C73.0787 133.578 72.9847 133.562 72.8847 133.554C72.7887 133.546 72.7007 133.542 72.6207 133.542H70.4307V136.71ZM77.5814 141V132.36H78.8354V136.086H83.1554V132.36H84.4154V141H83.1554V137.268H78.8354V141H77.5814ZM88.7829 141V137.43L85.8609 132.36H87.3249L89.4189 135.99L91.5129 132.36H92.9769L90.0549 137.43V141H88.7829ZM94.4142 141V132.36H99.9342V133.542H95.6682V135.966H99.2142V137.148H95.6682V139.818H99.9342V141H94.4142Z" fill="white"/>
<path d="M184.995 141.18C184.407 141.18 183.887 141.052 183.435 140.796C182.983 140.536 182.627 140.18 182.367 139.728C182.111 139.276 181.983 138.756 181.983 138.168V135.192C181.983 134.604 182.111 134.084 182.367 133.632C182.627 133.18 182.983 132.826 183.435 132.57C183.887 132.31 184.407 132.18 184.995 132.18C185.583 132.18 186.103 132.31 186.555 132.57C187.007 132.826 187.361 133.18 187.617 133.632C187.877 134.084 188.007 134.604 188.007 135.192V138.168C188.007 138.756 187.877 139.276 187.617 139.728C187.361 140.18 187.007 140.536 186.555 140.796C186.103 141.052 185.583 141.18 184.995 141.18ZM184.995 139.98C185.315 139.98 185.605 139.904 185.865 139.752C186.129 139.596 186.339 139.388 186.495 139.128C186.651 138.864 186.729 138.57 186.729 138.246V135.102C186.729 134.782 186.651 134.492 186.495 134.232C186.339 133.968 186.129 133.76 185.865 133.608C185.605 133.452 185.315 133.374 184.995 133.374C184.675 133.374 184.383 133.452 184.119 133.608C183.859 133.76 183.651 133.968 183.495 134.232C183.339 134.492 183.261 134.782 183.261 135.102V138.246C183.261 138.57 183.339 138.864 183.495 139.128C183.651 139.388 183.859 139.596 184.119 139.752C184.383 139.904 184.675 139.98 184.995 139.98ZM193.252 141.18C192.692 141.18 192.188 141.048 191.74 140.784C191.292 140.516 190.936 140.15 190.672 139.686C190.412 139.222 190.282 138.694 190.282 138.102V135.348C190.282 134.72 190.412 134.168 190.672 133.692C190.936 133.216 191.3 132.846 191.764 132.582C192.232 132.318 192.77 132.186 193.378 132.186C193.834 132.186 194.262 132.272 194.662 132.444C195.062 132.616 195.408 132.872 195.7 133.212L194.782 134.07C194.618 133.858 194.412 133.69 194.164 133.566C193.92 133.438 193.658 133.374 193.378 133.374C193.018 133.374 192.702 133.46 192.43 133.632C192.158 133.8 191.944 134.022 191.788 134.298C191.636 134.574 191.56 134.87 191.56 135.186V136.77L191.314 136.494C191.562 136.17 191.87 135.914 192.238 135.726C192.606 135.538 193 135.444 193.42 135.444C193.956 135.444 194.434 135.57 194.854 135.822C195.278 136.07 195.61 136.408 195.85 136.836C196.094 137.264 196.216 137.746 196.216 138.282C196.216 138.822 196.08 139.312 195.808 139.752C195.54 140.188 195.18 140.536 194.728 140.796C194.28 141.052 193.788 141.18 193.252 141.18ZM193.252 139.974C193.564 139.974 193.848 139.898 194.104 139.746C194.36 139.594 194.564 139.39 194.716 139.134C194.868 138.878 194.944 138.594 194.944 138.282C194.944 137.97 194.868 137.686 194.716 137.43C194.568 137.174 194.366 136.97 194.11 136.818C193.854 136.666 193.57 136.59 193.258 136.59C192.946 136.59 192.66 136.666 192.4 136.818C192.144 136.97 191.94 137.174 191.788 137.43C191.636 137.686 191.56 137.97 191.56 138.282C191.56 138.59 191.636 138.872 191.788 139.128C191.94 139.384 192.144 139.59 192.4 139.746C192.656 139.898 192.94 139.974 193.252 139.974ZM200.519 132.36H201.785L199.481 141H198.215L200.519 132.36ZM203.711 140.994L203.717 139.878L207.479 136.506C207.783 136.238 207.989 135.982 208.097 135.738C208.209 135.494 208.265 135.25 208.265 135.006C208.265 134.698 208.197 134.422 208.061 134.178C207.925 133.93 207.737 133.734 207.497 133.59C207.257 133.446 206.981 133.374 206.669 133.374C206.349 133.374 206.063 133.45 205.811 133.602C205.563 133.75 205.369 133.948 205.229 134.196C205.089 134.444 205.021 134.712 205.025 135H203.741C203.741 134.44 203.867 133.95 204.119 133.53C204.375 133.106 204.725 132.776 205.169 132.54C205.613 132.3 206.121 132.18 206.693 132.18C207.237 132.18 207.725 132.304 208.157 132.552C208.589 132.796 208.929 133.132 209.177 133.56C209.429 133.988 209.555 134.476 209.555 135.024C209.555 135.42 209.503 135.756 209.399 136.032C209.295 136.308 209.139 136.564 208.931 136.8C208.723 137.036 208.463 137.292 208.151 137.568L205.247 140.16L205.109 139.8H209.555V140.994H203.711ZM215.02 141V139.494H211.12V138.306L213.928 132.36H215.362L212.554 138.306H215.02V135.966H216.292V138.306H217.15V139.494H216.292V141H215.02Z" fill="white"/>
<path d="M37.233 23.3636H39.3409V30.9659C39.3409 31.7992 39.1439 32.5322 38.75 33.1648C38.3598 33.7973 37.8106 34.2917 37.1023 34.6477C36.3939 35 35.5663 35.1761 34.6193 35.1761C33.6686 35.1761 32.839 35 32.1307 34.6477C31.4223 34.2917 30.8731 33.7973 30.483 33.1648C30.0928 32.5322 29.8977 31.7992 29.8977 30.9659V23.3636H32.0057V30.7898C32.0057 31.2746 32.1117 31.7064 32.3239 32.0852C32.5398 32.464 32.8428 32.7614 33.233 32.9773C33.6231 33.1894 34.0852 33.2955 34.6193 33.2955C35.1534 33.2955 35.6155 33.1894 36.0057 32.9773C36.3996 32.7614 36.7027 32.464 36.9148 32.0852C37.1269 31.7064 37.233 31.2746 37.233 30.7898V23.3636ZM43.598 29.8864V35H41.5412V26.2727H43.5071V27.7557H43.6094C43.8101 27.267 44.1302 26.8788 44.5696 26.5909C45.0128 26.303 45.5601 26.1591 46.2116 26.1591C46.8139 26.1591 47.3385 26.2879 47.7855 26.5455C48.2363 26.803 48.5848 27.1761 48.831 27.6648C49.081 28.1534 49.2041 28.7462 49.2003 29.4432V35H47.1435V29.7614C47.1435 29.178 46.992 28.7216 46.6889 28.392C46.3897 28.0625 45.9749 27.8977 45.4446 27.8977C45.0848 27.8977 44.7647 27.9773 44.4844 28.1364C44.2079 28.2917 43.9901 28.517 43.831 28.8125C43.6757 29.108 43.598 29.4659 43.598 29.8864ZM55.6491 26.2727V27.8636H50.6321V26.2727H55.6491ZM51.8707 24.1818H53.9276V32.375C53.9276 32.6515 53.9692 32.8636 54.0526 33.0114C54.1397 33.1553 54.2533 33.2538 54.3935 33.3068C54.5336 33.3598 54.6889 33.3864 54.8594 33.3864C54.9882 33.3864 55.1056 33.3769 55.2116 33.358C55.3215 33.339 55.4048 33.322 55.4616 33.3068L55.8082 34.9148C55.6984 34.9527 55.5412 34.9943 55.3366 35.0398C55.1359 35.0852 54.8897 35.1117 54.598 35.1193C54.0829 35.1345 53.6188 35.0568 53.206 34.8864C52.7931 34.7121 52.4654 34.4432 52.223 34.0795C51.9844 33.7159 51.867 33.2614 51.8707 32.7159V24.1818ZM57.3693 35V26.2727H59.4261V35H57.3693ZM58.4034 25.0341C58.0777 25.0341 57.7973 24.9261 57.5625 24.7102C57.3277 24.4905 57.2102 24.2273 57.2102 23.9205C57.2102 23.6098 57.3277 23.3466 57.5625 23.1307C57.7973 22.911 58.0777 22.8011 58.4034 22.8011C58.733 22.8011 59.0133 22.911 59.2443 23.1307C59.4792 23.3466 59.5966 23.6098 59.5966 23.9205C59.5966 24.2273 59.4792 24.4905 59.2443 24.7102C59.0133 24.9261 58.733 25.0341 58.4034 25.0341ZM65.8991 26.2727V27.8636H60.8821V26.2727H65.8991ZM62.1207 24.1818H64.1776V32.375C64.1776 32.6515 64.2192 32.8636 64.3026 33.0114C64.3897 33.1553 64.5033 33.2538 64.6435 33.3068C64.7836 33.3598 64.9389 33.3864 65.1094 33.3864C65.2382 33.3864 65.3556 33.3769 65.4616 33.358C65.5715 33.339 65.6548 33.322 65.7116 33.3068L66.0582 34.9148C65.9484 34.9527 65.7912 34.9943 65.5866 35.0398C65.3859 35.0852 65.1397 35.1117 64.848 35.1193C64.3329 35.1345 63.8688 35.0568 63.456 34.8864C63.0431 34.7121 62.7154 34.4432 62.473 34.0795C62.2344 33.7159 62.117 33.2614 62.1207 32.7159V24.1818ZM69.8636 23.3636V35H67.8068V23.3636H69.8636ZM75.8423 35.1705C74.9673 35.1705 74.2116 34.9886 73.5753 34.625C72.9427 34.2576 72.456 33.7386 72.1151 33.0682C71.7741 32.3939 71.6037 31.6004 71.6037 30.6875C71.6037 29.7898 71.7741 29.0019 72.1151 28.3239C72.4598 27.642 72.9408 27.1117 73.5582 26.733C74.1757 26.3504 74.901 26.1591 75.7344 26.1591C76.2723 26.1591 76.7798 26.2462 77.2571 26.4205C77.7382 26.5909 78.1624 26.8561 78.5298 27.2159C78.901 27.5758 79.1927 28.0341 79.4048 28.5909C79.617 29.1439 79.723 29.803 79.723 30.5682V31.1989H72.5696V29.8125H77.7514C77.7476 29.4186 77.6624 29.0682 77.4957 28.7614C77.3291 28.4508 77.0961 28.2064 76.7969 28.0284C76.5014 27.8504 76.1567 27.7614 75.7628 27.7614C75.3423 27.7614 74.973 27.8636 74.6548 28.0682C74.3366 28.2689 74.0885 28.5341 73.9105 28.8636C73.7363 29.1894 73.6473 29.5473 73.6435 29.9375V31.1477C73.6435 31.6553 73.7363 32.0909 73.9219 32.4545C74.1075 32.8144 74.367 33.0909 74.7003 33.2841C75.0336 33.4735 75.4238 33.5682 75.8707 33.5682C76.17 33.5682 76.4408 33.5265 76.6832 33.4432C76.9257 33.3561 77.1359 33.2292 77.3139 33.0625C77.492 32.8958 77.6264 32.6894 77.7173 32.4432L79.6378 32.6591C79.5166 33.1667 79.2855 33.6098 78.9446 33.9886C78.6075 34.3636 78.1757 34.6553 77.6491 34.8636C77.1226 35.0682 76.5204 35.1705 75.8423 35.1705ZM84.7017 35.1534C84.0161 35.1534 83.4025 34.9773 82.8608 34.625C82.3191 34.2727 81.8911 33.7614 81.5767 33.0909C81.2623 32.4205 81.1051 31.6061 81.1051 30.6477C81.1051 29.678 81.2642 28.8598 81.5824 28.1932C81.9044 27.5227 82.3381 27.017 82.8835 26.6761C83.429 26.3314 84.0369 26.1591 84.7074 26.1591C85.2188 26.1591 85.6392 26.2462 85.9688 26.4205C86.2983 26.5909 86.5597 26.7973 86.7528 27.0398C86.946 27.2784 87.0956 27.5038 87.2017 27.7159H87.2869V23.3636H89.3494V35H87.3267V33.625H87.2017C87.0956 33.8371 86.9422 34.0625 86.7415 34.3011C86.5407 34.536 86.2756 34.7367 85.946 34.9034C85.6165 35.0701 85.2017 35.1534 84.7017 35.1534ZM85.2756 33.4659C85.7112 33.4659 86.0824 33.3485 86.3892 33.1136C86.696 32.875 86.929 32.5436 87.0881 32.1193C87.2472 31.6951 87.3267 31.2008 87.3267 30.6364C87.3267 30.072 87.2472 29.5814 87.0881 29.1648C86.9328 28.7481 86.7017 28.4242 86.3949 28.1932C86.0919 27.9621 85.7188 27.8466 85.2756 27.8466C84.8172 27.8466 84.4347 27.9659 84.1278 28.2045C83.821 28.4432 83.59 28.7727 83.4347 29.1932C83.2794 29.6136 83.2017 30.0947 83.2017 30.6364C83.2017 31.1818 83.2794 31.6686 83.4347 32.0966C83.5938 32.5208 83.8267 32.8561 84.1335 33.1023C84.4441 33.3447 84.8248 33.4659 85.2756 33.4659ZM92.8082 35.125C92.4635 35.125 92.1681 35.0038 91.9219 34.7614C91.6757 34.5189 91.5545 34.2235 91.5582 33.875C91.5545 33.5341 91.6757 33.2424 91.9219 33C92.1681 32.7576 92.4635 32.6364 92.8082 32.6364C93.1416 32.6364 93.4313 32.7576 93.6776 33C93.9276 33.2424 94.0545 33.5341 94.0582 33.875C94.0545 34.1061 93.9938 34.3163 93.8764 34.5057C93.7628 34.6951 93.6113 34.8466 93.4219 34.9602C93.2363 35.0701 93.0317 35.125 92.8082 35.125Z" fill="white"/>
<g clip-path="url(#clip0_3146_40809)">
<path d="M299.893 21.2852C301.774 24.5427 302.764 28.2379 302.764 31.9994C302.764 35.7609 301.774 39.4562 299.893 42.7137M295.179 23.6423C296.646 26.1832 297.418 29.0655 297.418 31.9994C297.418 34.9334 296.646 37.8157 295.179 40.3566M290.679 25.8066C291.739 27.6634 292.298 29.7697 292.298 31.9137C292.298 34.0578 291.739 36.1641 290.679 38.0209M286.179 28.1423C286.943 29.2993 287.348 30.6357 287.348 31.9994C287.348 33.3632 286.943 34.6996 286.179 35.8566" stroke="white" stroke-width="2.57143" stroke-linecap="round"/>
</g>
</g>
<defs>
<filter id="filter0_d_3146_40809" x="0.75" y="-6" width="348" height="222" filterUnits="userSpaceOnUse" color-interpolation-filters="sRGB">
<feFlood flood-opacity="0" result="BackgroundImageFix"/>
<feColorMatrix in="SourceAlpha" type="matrix" values="0 0 0 0 0 0 0 0 0 0 0 0 0 0 0 0 0 0 127 0" result="hardAlpha"/>
<feOffset dx="8" dy="10"/>
<feGaussianBlur stdDeviation="8"/>
<feColorMatrix type="matrix" values="0 0 0 0 0 0 0 0 0 0 0 0 0 0 0 0 0 0 0.05 0"/>
<feBlend mode="normal" in2="BackgroundImageFix" result="effect1_dropShadow_3146_40809"/>
<feBlend mode="normal" in="SourceGraphic" in2="effect1_dropShadow_3146_40809" result="shape"/>
</filter>
<linearGradient id="paint0_linear_3146_40809" x1="8.74508" y1="189.999" x2="176.559" y2="-89.1022" gradientUnits="userSpaceOnUse">
<stop stop-color="#101828"/>
<stop offset="1" stop-color="#475467"/>
</linearGradient>
<linearGradient id="paint1_linear_3146_40809" x1="8.75" y1="8.02303" x2="317.532" y2="201.518" gradientUnits="userSpaceOnUse">
<stop stop-color="white"/>
<stop offset="1" stop-color="white" stop-opacity="0.2"/>
</linearGradient>
<clipPath id="clip0_3146_40809">
<rect width="20" height="24" fill="white" transform="translate(284.75 20)"/>
</clipPath>
</defs>
</svg>
