<svg width="71" height="48" viewBox="0 0 71 48" fill="none" xmlns="http://www.w3.org/2000/svg">
<g id="credit-card">
<rect id="BASE" x="0.75" width="70" height="48" rx="10" fill="#EBF3FA"/>
<path id="polygon9" d="M30.6982 32.1666H26.7402L29.2158 16.8594H33.1736L30.6982 32.1666Z" fill="#00579F"/>
<path id="path11" d="M45.0447 17.2337C44.264 16.924 43.0258 16.582 41.4947 16.582C37.5861 16.582 34.8337 18.6663 34.8168 21.6462C34.7843 23.8447 36.7874 25.0659 38.2856 25.7989C39.8169 26.548 40.3374 27.037 40.3374 27.7047C40.3218 28.7301 39.1 29.2028 37.9605 29.2028C36.3803 29.2028 35.5336 28.9591 34.2469 28.3886L33.7257 28.144L33.1719 31.5802C34.1002 32.0031 35.8104 32.3784 37.5861 32.3948C41.739 32.3948 44.4428 30.3428 44.4748 27.1673C44.4906 25.4247 43.4329 24.0895 41.1525 22.9985C39.7682 22.2981 38.9204 21.8258 38.9204 21.1092C38.9366 20.4577 39.6375 19.7905 41.2001 19.7905C42.4868 19.7578 43.4322 20.0671 44.1484 20.3766L44.5064 20.5391L45.0447 17.2337Z" fill="#00579F"/>
<path id="path13" d="M50.3072 26.7438C50.6332 25.8644 51.8874 22.4609 51.8874 22.4609C51.871 22.4936 52.2127 21.5653 52.4082 20.9955L52.6848 22.3144C52.6848 22.3144 53.4343 25.9785 53.597 26.7438C52.9785 26.7438 51.089 26.7438 50.3072 26.7438ZM55.1928 16.8594H52.1313C51.1872 16.8594 50.47 17.136 50.0626 18.1294L44.1836 32.1664H48.3366C48.3366 32.1664 49.0203 30.2771 49.1672 29.8702C49.6228 29.8702 53.6628 29.8702 54.2489 29.8702C54.3626 30.4076 54.7212 32.1664 54.7212 32.1664H58.3859L55.1928 16.8594Z" fill="#00579F"/>
<path id="path15" d="M23.434 16.8594L19.5578 27.2974L19.1343 25.1805C18.4176 22.7378 16.1702 20.0838 13.6621 18.7642L17.2125 32.1503H21.398L27.6192 16.8594H23.434Z" fill="#00579F"/>
<path id="path17" d="M15.9585 16.8594H9.59054L9.52539 17.1687C14.4928 18.4389 17.7826 21.5008 19.1343 25.1811L17.7499 18.1461C17.522 17.1684 16.8217 16.8916 15.9585 16.8594Z" fill="#FAA61A"/>
</g>
</svg>
