<svg width="24" height="24" viewBox="0 0 24 24" fill="none" xmlns="http://www.w3.org/2000/svg">
<g id="Frame">
<path id="Vector" d="M6.4 19.45C5.8 19.45 5.29167 19.2417 4.875 18.825C4.45833 18.4083 4.25 17.9 4.25 17.3V16.8C4.25 16.2 4.47083 15.6417 4.9125 15.125C5.35417 14.6083 5.94167 14.1667 6.675 13.8C7.40833 13.4333 8.22917 13.1458 9.1375 12.9375C10.0458 12.7292 10.9667 12.625 11.9 12.625C12.8333 12.625 13.7708 12.7292 14.7125 12.9375C15.6542 13.1458 16.4958 13.4375 17.2375 13.8125C17.9792 14.1875 18.5833 14.6333 19.05 15.15C19.5167 15.6667 19.75 16.225 19.75 16.825V17.3C19.75 17.9 19.5417 18.4083 19.125 18.825C18.7083 19.2417 18.2 19.45 17.6 19.45H6.4ZM6.4 18.325H17.6C17.8833 18.325 18.125 18.225 18.325 18.025C18.525 17.825 18.625 17.5833 18.625 17.3V16.8C18.625 16.15 17.9667 15.4792 16.65 14.7875C15.3333 14.0958 13.75 13.75 11.9 13.75C10 13.75 8.4375 14.0958 7.2125 14.7875C5.9875 15.4792 5.375 16.1583 5.375 16.825V17.3C5.375 17.5833 5.475 17.825 5.675 18.025C5.875 18.225 6.11667 18.325 6.4 18.325ZM11.9 10.75C11 10.75 10.2333 10.4333 9.6 9.8C8.96667 9.16667 8.65 8.4 8.65 7.5C8.65 6.6 8.96667 5.83333 9.6 5.2C10.2333 4.56667 11 4.25 11.9 4.25C12.8167 4.25 13.5875 4.56667 14.2125 5.2C14.8375 5.83333 15.15 6.6 15.15 7.5C15.15 8.4 14.8333 9.16667 14.2 9.8C13.5667 10.4333 12.8 10.75 11.9 10.75ZM11.9 9.625C12.4833 9.625 12.9833 9.41667 13.4 9C13.8167 8.58333 14.025 8.08333 14.025 7.5C14.025 6.91667 13.8167 6.41667 13.4 6C12.9833 5.58333 12.4833 5.375 11.9 5.375C11.3167 5.375 10.8167 5.58333 10.4 6C9.98333 6.41667 9.775 6.91667 9.775 7.5C9.775 8.08333 9.98333 8.58333 10.4 9C10.8167 9.41667 11.3167 9.625 11.9 9.625Z" fill="#101114"/>
</g>
</svg>
