<svg width="32" height="32" viewBox="0 0 32 32" fill="none" xmlns="http://www.w3.org/2000/svg">
<g id="Frame">
<path id="Vector" d="M11.9668 22.9992C11.8335 22.8214 11.7612 22.6326 11.7501 22.4326C11.739 22.2326 11.8112 22.0548 11.9668 21.8992L17.9001 15.9659L11.9668 10.0326C11.8112 9.89922 11.739 9.72144 11.7501 9.49922C11.7612 9.277 11.8335 9.08811 11.9668 8.93255C12.1446 8.777 12.3279 8.69922 12.5168 8.69922C12.7057 8.69922 12.8779 8.777 13.0335 8.93255L19.4001 15.2992C19.5112 15.4103 19.589 15.5159 19.6335 15.6159C19.6779 15.7159 19.7001 15.8326 19.7001 15.9659C19.7001 16.0992 19.6779 16.2214 19.6335 16.3326C19.589 16.4437 19.5112 16.5548 19.4001 16.6659L13.0668 22.9992C12.9112 23.1548 12.7335 23.227 12.5335 23.2159C12.3335 23.2048 12.1446 23.1326 11.9668 22.9992Z" fill="#101114"/>
</g>
</svg>
