<svg width="24" height="24" viewBox="0 0 24 24" fill="none" xmlns="http://www.w3.org/2000/svg">
<g id="Frame">
<path id="Vector" d="M4.95 20.5C4.55 20.5 4.20833 20.3583 3.925 20.075C3.64167 19.7917 3.5 19.45 3.5 19.05V4.95C3.5 4.55 3.64167 4.20833 3.925 3.925C4.20833 3.64167 4.55 3.5 4.95 3.5H19.05C19.45 3.5 19.7917 3.64167 20.075 3.925C20.3583 4.20833 20.5 4.55 20.5 4.95V19.05C20.5 19.45 20.3583 19.7917 20.075 20.075C19.7917 20.3583 19.45 20.5 19.05 20.5H4.95ZM4.95 19.375H19.05C19.15 19.375 19.2292 19.3458 19.2875 19.2875C19.3458 19.2292 19.375 19.15 19.375 19.05V6.625H4.625V19.05C4.625 19.15 4.65417 19.2292 4.7125 19.2875C4.77083 19.3458 4.85 19.375 4.95 19.375ZM7.575 11.575C7.40833 11.575 7.27083 11.5208 7.1625 11.4125C7.05417 11.3042 7 11.1667 7 11C7 10.8333 7.05417 10.6958 7.1625 10.5875C7.27083 10.4792 7.40833 10.425 7.575 10.425H16.25C16.4167 10.425 16.5542 10.4792 16.6625 10.5875C16.7708 10.6958 16.825 10.8333 16.825 11C16.825 11.1667 16.7708 11.3042 16.6625 11.4125C16.5542 11.5208 16.4167 11.575 16.25 11.575H7.575ZM7.575 15.575C7.40833 15.575 7.27083 15.5208 7.1625 15.4125C7.05417 15.3042 7 15.1667 7 15C7 14.8333 7.05417 14.6958 7.1625 14.5875C7.27083 14.4792 7.40833 14.425 7.575 14.425H12.25C12.4167 14.425 12.5542 14.4792 12.6625 14.5875C12.7708 14.6958 12.825 14.8333 12.825 15C12.825 15.1667 12.7708 15.3042 12.6625 15.4125C12.5542 15.5208 12.4167 15.575 12.25 15.575H7.575Z" fill="#101114"/>
</g>
</svg>
