<svg width="24" height="24" viewBox="0 0 24 24" fill="none" xmlns="http://www.w3.org/2000/svg">
<g id="Frame">
<path id="Vector" d="M8.5498 12C8.5498 11.9 8.56647 11.8083 8.5998 11.725C8.63314 11.6417 8.68314 11.5667 8.7498 11.5L11.9998 8.25C12.1165 8.15 12.254 8.1 12.4123 8.1C12.5706 8.1 12.7081 8.15833 12.8248 8.275C12.9415 8.39167 12.9998 8.525 12.9998 8.675C12.9998 8.825 12.9415 8.96667 12.8248 9.1L10.4498 11.425L19.0998 11.425C19.2665 11.425 19.404 11.4792 19.5123 11.5875C19.6206 11.6958 19.6748 11.8333 19.6748 12C19.6748 12.1667 19.6206 12.3042 19.5123 12.4125C19.404 12.5208 19.2665 12.575 19.0998 12.575L10.4498 12.575L12.8248 14.925C12.9248 15.0417 12.979 15.1792 12.9873 15.3375C12.9956 15.4958 12.9415 15.6333 12.8248 15.75C12.7081 15.8667 12.5706 15.925 12.4123 15.925C12.254 15.925 12.1165 15.8667 11.9998 15.75L8.7498 12.5C8.68314 12.4333 8.63314 12.3583 8.5998 12.275C8.56647 12.1917 8.5498 12.1 8.5498 12ZM4.4998 5.95C4.4998 5.55 4.64147 5.20833 4.9248 4.925C5.20814 4.64167 5.54981 4.5 5.94981 4.5L8.4998 4.5C8.6498 4.5 8.77897 4.55417 8.8873 4.6625C8.99564 4.77083 9.0498 4.90833 9.0498 5.075C9.0498 5.24167 8.99564 5.375 8.8873 5.475C8.77897 5.575 8.6498 5.625 8.4998 5.625L5.94981 5.625C5.86647 5.625 5.79147 5.65833 5.7248 5.725C5.65814 5.79167 5.6248 5.86667 5.6248 5.95L5.6248 18.05C5.6248 18.1333 5.65814 18.2083 5.7248 18.275C5.79147 18.3417 5.86647 18.375 5.94981 18.375H8.4998C8.6498 18.375 8.77897 18.4292 8.8873 18.5375C8.99564 18.6458 9.0498 18.775 9.0498 18.925C9.0498 19.0917 8.99564 19.2292 8.8873 19.3375C8.77897 19.4458 8.6498 19.5 8.4998 19.5H5.94981C5.54981 19.5 5.20814 19.3583 4.9248 19.075C4.64147 18.7917 4.4998 18.45 4.4998 18.05L4.4998 5.95Z" fill="#DE3730"/>
</g>
</svg>
