<svg width="40" height="40" viewBox="0 0 40 40" fill="none" xmlns="http://www.w3.org/2000/svg">
<g id="Frame">
<path id="Vector" d="M22.6667 28.75L14.75 20.8333C14.6111 20.6944 14.5139 20.5556 14.4583 20.4167C14.4028 20.2778 14.375 20.125 14.375 19.9583C14.375 19.7917 14.4028 19.6458 14.4583 19.5208C14.5139 19.3958 14.6111 19.2639 14.75 19.125L22.7083 11.1667C22.9028 10.9722 23.1319 10.875 23.3958 10.875C23.6597 10.875 23.8889 10.9722 24.0833 11.1667C24.25 11.3611 24.3333 11.5972 24.3333 11.875C24.3333 12.1528 24.2361 12.3889 24.0417 12.5833L16.625 19.9583L24.0833 27.4167C24.25 27.6111 24.3333 27.8264 24.3333 28.0625C24.3333 28.2986 24.25 28.5278 24.0833 28.75C23.8889 28.9444 23.6528 29.0417 23.375 29.0417C23.0972 29.0417 22.8611 28.9444 22.6667 28.75Z" fill="#101114"/>
</g>
</svg>
