<svg width="24" height="24" viewBox="0 0 24 24" fill="none" xmlns="http://www.w3.org/2000/svg">
<g id="Frame">
<path id="Vector" d="M21.5 5.95V18.05C21.5 18.45 21.3583 18.7917 21.075 19.075C20.7917 19.3583 20.45 19.5 20.05 19.5H3.95C3.55 19.5 3.20833 19.3583 2.925 19.075C2.64167 18.7917 2.5 18.45 2.5 18.05V5.95C2.5 5.55 2.64167 5.20833 2.925 4.925C3.20833 4.64167 3.55 4.5 3.95 4.5H20.05C20.45 4.5 20.7917 4.64167 21.075 4.925C21.3583 5.20833 21.5 5.55 21.5 5.95ZM3.625 8.575H20.375V5.95C20.375 5.86667 20.3417 5.79167 20.275 5.725C20.2083 5.65833 20.1333 5.625 20.05 5.625H3.95C3.86667 5.625 3.79167 5.65833 3.725 5.725C3.65833 5.79167 3.625 5.86667 3.625 5.95V8.575ZM3.625 11.2V18.05C3.625 18.1333 3.65833 18.2083 3.725 18.275C3.79167 18.3417 3.86667 18.375 3.95 18.375H20.05C20.1333 18.375 20.2083 18.3417 20.275 18.275C20.3417 18.2083 20.375 18.1333 20.375 18.05V11.2H3.625ZM3.625 18.375C3.625 18.375 3.625 18.3458 3.625 18.2875C3.625 18.2292 3.625 18.15 3.625 18.05V5.95C3.625 5.85 3.625 5.77083 3.625 5.7125C3.625 5.65417 3.625 5.625 3.625 5.625C3.625 5.625 3.625 5.65417 3.625 5.7125C3.625 5.77083 3.625 5.85 3.625 5.95V18.05C3.625 18.15 3.625 18.2292 3.625 18.2875C3.625 18.3458 3.625 18.375 3.625 18.375Z" fill="#101114"/>
</g>
</svg>
