<svg width="32" height="32" viewBox="0 0 32 32" fill="none" xmlns="http://www.w3.org/2000/svg">
<g id="Frame">
<path id="Vector" d="M12.6331 23.0004C12.4998 23.0004 12.3831 22.9782 12.2831 22.9337C12.1831 22.8893 12.0776 22.8115 11.9664 22.7004L6.16644 16.9337C6.01088 16.7782 5.93311 16.5948 5.93311 16.3837C5.93311 16.1726 6.01088 15.9893 6.16644 15.8337C6.32199 15.6782 6.49977 15.6004 6.69977 15.6004C6.89977 15.6004 7.07755 15.6782 7.23311 15.8337L12.6331 21.2337L24.7331 9.10039C24.8887 8.96706 25.072 8.90039 25.2831 8.90039C25.4942 8.90039 25.6776 8.96706 25.8331 9.10039C25.9887 9.27817 26.0664 9.46706 26.0664 9.66706C26.0664 9.86706 25.9887 10.0448 25.8331 10.2004L13.2998 22.7004C13.2109 22.8115 13.1109 22.8893 12.9998 22.9337C12.8887 22.9782 12.7664 23.0004 12.6331 23.0004Z" fill="#101114"/>
</g>
</svg>
