<svg width="24" height="24" viewBox="0 0 24 24" fill="none" xmlns="http://www.w3.org/2000/svg">
<g id="Frame">
<path id="Vector" d="M12 4.75078C12.25 4.75078 12.4625 4.66328 12.6375 4.48828C12.8125 4.31328 12.9 4.10078 12.9 3.85078C12.9 3.58411 12.8125 3.36745 12.6375 3.20078C12.4625 3.03411 12.25 2.95078 12 2.95078C11.75 2.95078 11.5375 3.03828 11.3625 3.21328C11.1875 3.38828 11.1 3.60078 11.1 3.85078C11.1 4.10078 11.1875 4.31328 11.3625 4.48828C11.5375 4.66328 11.75 4.75078 12 4.75078ZM4.95 20.5008C4.53333 20.5008 4.1875 20.3633 3.9125 20.0883C3.6375 19.8133 3.5 19.4674 3.5 19.0508V4.95078C3.5 4.53411 3.6375 4.18828 3.9125 3.91328C4.1875 3.63828 4.53333 3.50078 4.95 3.50078H10C10.0833 3.01745 10.3125 2.61328 10.6875 2.28828C11.0625 1.96328 11.5 1.80078 12 1.80078C12.5 1.80078 12.9375 1.96328 13.3125 2.28828C13.6875 2.61328 13.9167 3.01745 14 3.50078H19.05C19.4667 3.50078 19.8125 3.63828 20.0875 3.91328C20.3625 4.18828 20.5 4.53411 20.5 4.95078V19.0508C20.5 19.4674 20.3625 19.8133 20.0875 20.0883C19.8125 20.3633 19.4667 20.5008 19.05 20.5008H4.95ZM4.95 19.3758H19.05C19.1333 19.3758 19.2083 19.3424 19.275 19.2758C19.3417 19.2091 19.375 19.1341 19.375 19.0508V4.95078C19.375 4.86745 19.3417 4.79245 19.275 4.72578C19.2083 4.65911 19.1333 4.62578 19.05 4.62578H17.225V5.25078C17.225 5.65078 17.0833 5.99245 16.8 6.27578C16.5167 6.55911 16.1833 6.70078 15.8 6.70078H8.2C7.81667 6.70078 7.48333 6.55911 7.2 6.27578C6.91667 5.99245 6.775 5.65078 6.775 5.25078V4.62578H4.95C4.86667 4.62578 4.79167 4.65911 4.725 4.72578C4.65833 4.79245 4.625 4.86745 4.625 4.95078V19.0508C4.625 19.1341 4.65833 19.2091 4.725 19.2758C4.79167 19.3424 4.86667 19.3758 4.95 19.3758Z" fill="black"/>
</g>
</svg>
