<svg width="51" height="21" viewBox="0 0 51 21" fill="none" xmlns="http://www.w3.org/2000/svg">
<g id="GooglePay">
<g id="Pay">
<path id="Union" fill-rule="evenodd" clip-rule="evenodd" d="M23.8103 16.5169V10.475H26.9286C28.2064 10.475 29.285 10.0468 30.1642 9.20239L30.3752 8.98831C31.9813 7.23996 31.8758 4.51635 30.1642 2.89883C29.3084 2.04249 28.1361 1.57865 26.9286 1.60243H21.9229V16.5169H23.8103ZM23.8105 8.64337V3.43401H26.9762C27.6563 3.43401 28.3012 3.69567 28.7819 4.17141C29.802 5.17046 29.8254 6.83556 28.8405 7.87029C28.3598 8.38172 27.6797 8.66716 26.9762 8.64337H23.8105ZM39.1793 7.10915C38.3704 6.35985 37.2685 5.97926 35.8734 5.97926C34.0798 5.97926 32.7316 6.6453 31.8406 7.96548L33.5053 9.024C34.1149 8.1201 34.9473 7.66814 36.0024 7.66814C36.6706 7.66814 37.3153 7.91791 37.8194 8.36986C38.3118 8.79803 38.5932 9.41649 38.5932 10.0706V10.5107C37.8663 10.1063 36.9519 9.89223 35.8265 9.89223C34.5135 9.89223 33.4584 10.2015 32.673 10.8318C31.8875 11.4622 31.489 12.2947 31.489 13.3532C31.4655 14.3166 31.8758 15.2324 32.6027 15.8509C33.3412 16.5169 34.2791 16.8499 35.381 16.8499C36.6823 16.8499 37.7139 16.2672 38.4994 15.1016H38.5814V16.5169H40.3868V10.2252C40.3868 8.90507 39.9882 7.85844 39.1793 7.10915ZM34.0566 14.6377C33.6697 14.3523 33.4352 13.8884 33.4352 13.3889C33.4352 12.8299 33.6932 12.3661 34.1973 11.9974C34.7132 11.6287 35.3581 11.4384 36.1202 11.4384C37.1755 11.4265 37.9962 11.6644 38.5825 12.1401C38.5825 12.9489 38.2659 13.6506 37.6445 14.2453C37.0817 14.8161 36.3196 15.1373 35.5223 15.1373C34.9946 15.1492 34.4787 14.9708 34.0566 14.6377ZM44.443 21.0008L50.7501 6.31228H48.6985L45.7795 13.6387H45.7443L42.7549 6.31228H40.7034L44.8416 15.8628L42.497 21.0008H44.443Z" fill="#3C4043"/>
</g>
<g id="G">
<path id="Blue" d="M17.294 9.16614C17.294 8.58336 17.2471 8.00058 17.1534 7.42969H9.19336V10.7242H13.7537C13.5661 11.7827 12.9565 12.7342 12.0655 13.3289V15.4697H14.7853C16.3796 13.983 17.294 11.7827 17.294 9.16614Z" fill="#4285F4"/>
<path id="Green" d="M9.19373 17.5392C11.468 17.5392 13.3906 16.778 14.7857 15.4697L12.0659 13.3289C11.3039 13.8522 10.3309 14.1496 9.19373 14.1496C6.98978 14.1496 5.1258 12.6391 4.45759 10.6172H1.65576V12.8294C3.08598 15.7195 6.00504 17.5392 9.19373 17.5392Z" fill="#34A853"/>
<path id="Yellow" d="M4.45803 10.6177C4.10628 9.55916 4.10628 8.40548 4.45803 7.33507V5.13477H1.65575C0.448082 7.54915 0.448082 10.4036 1.65575 12.818L4.45803 10.6177Z" fill="#FBBC04"/>
<path id="Red" d="M9.19373 3.80228C10.4012 3.77849 11.5618 4.24234 12.4293 5.08678L14.8443 2.63672C13.3085 1.18571 11.2922 0.38884 9.19373 0.412627C6.00504 0.412627 3.08598 2.24423 1.65576 5.13436L4.45759 7.34655C5.1258 5.31276 6.98978 3.80228 9.19373 3.80228Z" fill="#EA4335"/>
</g>
</g>
</svg>
