<svg width="17" height="16" viewBox="0 0 17 16" fill="none" xmlns="http://www.w3.org/2000/svg">
<g id="Icon set">
<path id="Vector" d="M8.24982 11.4109C9.01478 11.4109 9.66328 11.1448 10.1953 10.6128C10.7274 10.0808 10.9934 9.43226 10.9934 8.6673C10.9934 7.90235 10.7274 7.25385 10.1953 6.7218C9.66328 6.18976 9.01478 5.92373 8.24982 5.92373C7.48487 5.92373 6.83637 6.18976 6.30432 6.7218C5.77228 7.25385 5.50625 7.90235 5.50625 8.6673C5.50625 9.43226 5.77228 10.0808 6.30432 10.6128C6.83637 11.1448 7.48487 11.4109 8.24982 11.4109ZM8.24982 10.4109C7.75751 10.4109 7.34383 10.2434 7.00879 9.90834C6.67374 9.57329 6.50622 9.15961 6.50622 8.6673C6.50622 8.17499 6.67374 7.76131 7.00879 7.42627C7.34383 7.09122 7.75751 6.9237 8.24982 6.9237C8.74213 6.9237 9.15581 7.09122 9.49085 7.42627C9.8259 7.76131 9.99342 8.17499 9.99342 8.6673C9.99342 9.15961 9.8259 9.57329 9.49085 9.90834C9.15581 10.2434 8.74213 10.4109 8.24982 10.4109ZM3.12164 13.6673C2.78488 13.6673 2.49984 13.5506 2.2665 13.3173C2.03317 13.084 1.9165 12.7989 1.9165 12.4622V4.87245C1.9165 4.5357 2.03317 4.25065 2.2665 4.01732C2.49984 3.78398 2.78488 3.66732 3.12164 3.66732H5.15752L6.02932 2.72245C6.13872 2.60194 6.27099 2.50707 6.42612 2.43783C6.58124 2.3686 6.7447 2.33398 6.91649 2.33398H9.58316C9.75494 2.33398 9.9184 2.3686 10.0735 2.43783C10.2287 2.50707 10.3609 2.60194 10.4703 2.72245L11.3421 3.66732H13.378C13.7148 3.66732 13.9998 3.78398 14.2331 4.01732C14.4665 4.25065 14.5831 4.5357 14.5831 4.87245V12.4622C14.5831 12.7989 14.4665 13.084 14.2331 13.3173C13.9998 13.5506 13.7148 13.6673 13.378 13.6673H3.12164ZM3.12164 12.6673H13.378C13.4378 12.6673 13.487 12.6481 13.5255 12.6096C13.5639 12.5711 13.5832 12.522 13.5832 12.4622V4.87245C13.5832 4.81262 13.5639 4.76347 13.5255 4.725C13.487 4.68653 13.4378 4.6673 13.378 4.6673H10.896L9.67291 3.33397H6.82674L5.60367 4.6673H3.12164C3.0618 4.6673 3.01265 4.68653 2.97419 4.725C2.93572 4.76347 2.91649 4.81262 2.91649 4.87245V12.4622C2.91649 12.522 2.93572 12.5711 2.97419 12.6096C3.01265 12.6481 3.0618 12.6673 3.12164 12.6673Z" fill="#003C77"/>
</g>
</svg>
