<svg width="46" height="28" viewBox="0 0 46 28" fill="none" xmlns="http://www.w3.org/2000/svg">
<g id="Mastercard">
<path id="Left" fill-rule="evenodd" clip-rule="evenodd" d="M23.25 24.3139C20.8669 26.3704 17.7755 27.6119 14.3975 27.6119C6.86021 27.6119 0.75 21.4308 0.75 13.806C0.75 6.18114 6.86021 0 14.3975 0C17.7755 0 20.8669 1.2415 23.25 3.29806C25.6331 1.2415 28.7245 0 32.1025 0C39.6398 0 45.75 6.18114 45.75 13.806C45.75 21.4308 39.6398 27.6119 32.1025 27.6119C28.7245 27.6119 25.6331 26.3704 23.25 24.3139Z" fill="#ED0006"/>
<path id="Right" fill-rule="evenodd" clip-rule="evenodd" d="M23.25 24.3139C26.1844 21.7816 28.0451 18.0136 28.0451 13.806C28.0451 9.59833 26.1844 5.83033 23.25 3.29806C25.6331 1.2415 28.7245 0 32.1025 0C39.6398 0 45.75 6.18114 45.75 13.806C45.75 21.4308 39.6398 27.6119 32.1025 27.6119C28.7245 27.6119 25.6331 26.3704 23.25 24.3139Z" fill="#F9A000"/>
<path id="Middle" fill-rule="evenodd" clip-rule="evenodd" d="M23.2501 3.29883C26.1845 5.8311 28.0451 9.59908 28.0451 13.8067C28.0451 18.0143 26.1845 21.7823 23.2501 24.3145C20.3157 21.7823 18.4551 18.0143 18.4551 13.8067C18.4551 9.59908 20.3157 5.8311 23.2501 3.29883Z" fill="#FF5E00"/>
</g>
</svg>
