<svg width="22" height="26" viewBox="0 0 22 26" fill="none" xmlns="http://www.w3.org/2000/svg">
<g id="PayPal">
<path id="Vector" d="M6.22122 24.5382L6.65027 21.8132L5.69464 21.791H1.13135L4.30263 1.68273C4.31231 1.62202 4.34442 1.56542 4.39118 1.52523C4.43793 1.48504 4.49791 1.46289 4.56025 1.46289H12.2547C14.8092 1.46289 16.5719 1.99445 17.4924 3.04362C17.9238 3.53582 18.1986 4.05014 18.3316 4.61615C18.4709 5.21008 18.4735 5.91964 18.3373 6.78507L18.3273 6.84824V7.40275L18.759 7.64722C19.1224 7.83998 19.411 8.06064 19.6325 8.31331C20.0018 8.73412 20.2405 9.26896 20.3413 9.90306C20.4455 10.5552 20.411 11.3312 20.2405 12.2098C20.0436 13.2204 19.7253 14.1006 19.2955 14.8208C18.9 15.4845 18.3963 16.0348 17.7984 16.4615C17.2274 16.8667 16.549 17.1744 15.782 17.3713C15.0387 17.5647 14.1915 17.6624 13.262 17.6624H12.6632C12.2351 17.6624 11.819 17.8166 11.4927 18.0932C11.1654 18.3753 10.9486 18.7607 10.8823 19.1824L10.8372 19.4278L10.0792 24.2305L10.0447 24.4069C10.0357 24.4629 10.0201 24.4907 9.99724 24.5096C9.9767 24.5266 9.94718 24.5382 9.91837 24.5382H6.22122Z" fill="#253B80"/>
<path id="Vector_2" d="M19.1656 6.91211C19.1427 7.05894 19.1165 7.20905 19.087 7.36327C18.0721 12.5731 14.6007 14.3728 10.1668 14.3728H7.90935C7.36718 14.3728 6.91026 14.7666 6.82573 15.3014L5.66985 22.6318L5.34257 24.7095C5.28755 25.0607 5.5584 25.3773 5.9126 25.3773H9.91672C10.3909 25.3773 10.7935 25.0328 10.8681 24.5653L10.9075 24.3617L11.6615 19.5776L11.7099 19.3153C11.7836 18.8461 12.1872 18.5016 12.6613 18.5016H13.2601C17.1394 18.5016 20.1763 16.9266 21.0639 12.3688C21.4346 10.4649 21.2427 8.87512 20.2615 7.75702C19.9647 7.41987 19.5963 7.14014 19.1656 6.91211Z" fill="#179BD7"/>
<path id="Vector_3" d="M18.1022 6.48921C17.9473 6.44409 17.7872 6.40307 17.6231 6.36616C17.4583 6.33008 17.2892 6.29809 17.1154 6.2702C16.5066 6.17175 15.8398 6.125 15.1253 6.125H9.09439C8.94587 6.125 8.80489 6.15863 8.67856 6.21934C8.4004 6.35303 8.19378 6.61637 8.14372 6.93874L6.86057 15.0648L6.82373 15.3018C6.90827 14.767 7.36519 14.3732 7.90735 14.3732H10.1648C14.5987 14.3732 18.0703 12.5726 19.085 7.36366C19.1152 7.20945 19.1407 7.05933 19.1636 6.91251C18.9069 6.77633 18.6288 6.65984 18.3294 6.56057C18.2557 6.53597 18.1794 6.51219 18.1022 6.48921Z" fill="#222D65"/>
<path id="Vector_4" d="M8.14711 6.93862C8.19717 6.61623 8.40402 6.35291 8.68195 6.22002C8.80923 6.15931 8.94949 6.12568 9.09778 6.12568H15.1289C15.8434 6.12568 16.5103 6.17244 17.1188 6.27088C17.2928 6.29877 17.4619 6.33076 17.6267 6.36684C17.7908 6.40378 17.9507 6.44479 18.1058 6.48989C18.1828 6.51287 18.2591 6.53665 18.3337 6.56045C18.6331 6.6597 18.9113 6.77701 19.168 6.91236C19.47 4.98709 19.1656 3.67624 18.1247 2.48924C16.9771 1.1825 14.9057 0.623047 12.2554 0.623047H4.5607C4.01925 0.623047 3.5576 1.01678 3.47378 1.55245L0.268966 21.8674C0.205682 22.2693 0.515726 22.632 0.920932 22.632H5.67148L6.86419 15.0646L8.14711 6.93862Z" fill="#253B80"/>
</g>
</svg>
