<svg width="21" height="20" viewBox="0 0 21 20" fill="none" xmlns="http://www.w3.org/2000/svg">
<g id="Frame">
<path id="Vector" d="M15.9373 17.4792C14.104 17.4792 12.3436 17.1563 10.6561 16.5104C8.96859 15.8646 7.47553 14.9688 6.17692 13.8229C4.87831 12.6771 3.84359 11.3229 3.07275 9.76042C2.30192 8.19792 1.9165 6.5 1.9165 4.66667C1.9165 4.05556 2.08664 3.54167 2.42692 3.125C2.7672 2.70833 3.24984 2.5 3.87484 2.5H5.81234C6.18734 2.5 6.479 2.60764 6.68734 2.82292C6.89567 3.03819 7.0415 3.34722 7.12484 3.75C7.20817 4.16667 7.30192 4.59722 7.40609 5.04167C7.51025 5.48611 7.63178 5.88194 7.77067 6.22917C7.89567 6.52083 7.93387 6.79514 7.88525 7.05208C7.83664 7.30903 7.69428 7.55556 7.45817 7.79167L5.83317 9.375C6.49984 10.3472 7.42692 11.2882 8.61442 12.1979C9.80192 13.1076 10.9582 13.7292 12.0832 14.0625L13.0415 12.125C13.1665 11.875 13.3262 11.7049 13.5207 11.6146C13.7151 11.5243 13.9859 11.4931 14.3332 11.5208C14.6943 11.5486 15.0519 11.5625 15.4061 11.5625C15.7603 11.5625 16.1596 11.5486 16.604 11.5208C17.0207 11.4931 17.3714 11.6042 17.6561 11.8542C17.9408 12.1042 18.1318 12.5069 18.229 13.0625L18.5623 14.9375C18.5623 14.9375 18.5762 15.0556 18.604 15.2917C18.604 15.875 18.3644 16.3854 17.8853 16.8229C17.4061 17.2604 16.7568 17.4792 15.9373 17.4792Z" fill="#0DAD27"/>
</g>
</svg>
