<svg width="16" height="16" viewBox="0 0 16 16" fill="none" xmlns="http://www.w3.org/2000/svg">
<g id="Icon set">
<path id="Vector" d="M8.4998 7.79677V5.16598C8.4998 5.02433 8.45187 4.90558 8.356 4.80975C8.26013 4.71392 8.14133 4.666 7.9996 4.666C7.85787 4.666 7.73914 4.71392 7.64342 4.80975C7.5477 4.90558 7.49984 5.02433 7.49984 5.16598V7.95062C7.49984 8.02909 7.51437 8.10512 7.54342 8.1787C7.57248 8.25228 7.6182 8.32027 7.6806 8.38267L9.96394 10.666C10.0562 10.7583 10.1723 10.8055 10.312 10.8077C10.4517 10.8098 10.5699 10.7626 10.6665 10.666C10.7631 10.5694 10.8114 10.4523 10.8114 10.3147C10.8114 10.1771 10.7631 10.06 10.6665 9.96345L8.4998 7.79677ZM8.00094 14.3327C7.12498 14.3327 6.30163 14.1664 5.53087 13.834C4.7601 13.5015 4.08965 13.0504 3.5195 12.4805C2.94935 11.9106 2.49798 11.2404 2.16539 10.47C1.8328 9.69959 1.6665 8.87641 1.6665 8.00045C1.6665 7.12449 1.83273 6.30114 2.16517 5.53038C2.49762 4.75962 2.94878 4.08916 3.51867 3.51902C4.08857 2.94886 4.75873 2.49749 5.52915 2.1649C6.29957 1.83231 7.12275 1.66602 7.9987 1.66602C8.87466 1.66602 9.69802 1.83224 10.4688 2.16468C11.2395 2.49713 11.91 2.94829 12.4801 3.51818C13.0503 4.08808 13.5017 4.75824 13.8343 5.52867C14.1668 6.29908 14.3331 7.12226 14.3331 7.99822C14.3331 8.87417 14.1669 9.69753 13.8345 10.4683C13.502 11.239 13.0509 11.9095 12.481 12.4796C11.9111 13.0498 11.2409 13.5012 10.4705 13.8338C9.70008 14.1664 8.87689 14.3327 8.00094 14.3327ZM7.99982 13.3327C9.4776 13.3327 10.7359 12.8132 11.7748 11.7743C12.8137 10.7354 13.3332 9.47711 13.3332 7.99933C13.3332 6.52156 12.8137 5.26322 11.7748 4.22433C10.7359 3.18544 9.4776 2.666 7.99982 2.666C6.52204 2.666 5.26371 3.18544 4.22482 4.22433C3.18593 5.26322 2.66649 6.52156 2.66649 7.99933C2.66649 9.47711 3.18593 10.7354 4.22482 11.7743C5.26371 12.8132 6.52204 13.3327 7.99982 13.3327Z" fill="#46474A"/>
</g>
</svg>
