<svg width="16" height="16" viewBox="0 0 16 16" fill="none" xmlns="http://www.w3.org/2000/svg">
<g id="Icon set">
<mask id="mask0_3224_9922" style="mask-type:alpha" maskUnits="userSpaceOnUse" x="0" y="0" width="16" height="16">
<rect id="Bounding box" width="16" height="16" fill="#D9D9D9"/>
</mask>
<g mask="url(#mask0_3224_9922)">
<path id="location_on" d="M7.8022 7.90958C8.12082 7.90958 8.39321 7.79147 8.61938 7.55525C8.84555 7.31903 8.95864 7.03505 8.95864 6.70333C8.95864 6.37161 8.84519 6.08802 8.6183 5.85255C8.3914 5.61708 8.11864 5.49935 7.80002 5.49935C7.48139 5.49935 7.209 5.61746 6.98283 5.85368C6.75666 6.0899 6.64358 6.37388 6.64358 6.7056C6.64358 7.03732 6.75702 7.32092 6.98392 7.55638C7.21081 7.79185 7.48357 7.90958 7.8022 7.90958ZM7.80111 13.0083C9.05387 11.8408 10.0125 10.7209 10.6771 9.6487C11.3417 8.57648 11.6739 7.63737 11.6739 6.83138C11.6739 5.616 11.3031 4.61686 10.5613 3.83395C9.81962 3.05104 8.89954 2.65958 7.80111 2.65958C6.70267 2.65958 5.78259 3.05104 5.04086 3.83395C4.29913 4.61686 3.92827 5.616 3.92827 6.83138C3.92827 7.63737 4.26055 8.57648 4.92511 9.6487C5.58967 10.7209 6.54834 11.8408 7.80111 13.0083ZM7.8022 14.3327C7.48308 14.3327 4.98115 11.5322 4.17579 10.2801C3.37045 9.02797 2.96777 7.87839 2.96777 6.83138C2.96777 5.29294 3.44577 4.04743 4.40177 3.09487C5.35776 2.1423 6.49087 1.66602 7.80111 1.66602C9.11134 1.66602 10.2445 2.1423 11.2004 3.09487C12.1564 4.04743 12.6344 5.29294 12.6344 6.83138C12.6344 7.87839 12.2318 9.02797 11.4264 10.2801C10.6211 11.5322 8.12131 14.3327 7.8022 14.3327Z" fill="#46474A"/>
</g>
</g>
</svg>
