<svg width="17" height="16" viewBox="0 0 17 16" fill="none" xmlns="http://www.w3.org/2000/svg">
<g id="Icon set">
<path id="Vector" d="M7.93006 9.44997L5.82931 7.34924C5.80033 7.32026 5.77751 7.2879 5.76084 7.25217C5.74417 7.21642 5.73584 7.17813 5.73584 7.13728C5.73584 7.0556 5.76346 6.98462 5.81871 6.92437C5.87394 6.86411 5.94675 6.83398 6.03712 6.83398H10.4627C10.5531 6.83398 10.6259 6.8644 10.6811 6.92523C10.7364 6.98608 10.764 7.05706 10.764 7.13817C10.764 7.15846 10.7328 7.22886 10.6704 7.34937L8.56979 9.44998C8.5215 9.49827 8.47158 9.53353 8.42004 9.55575C8.36848 9.57797 8.31178 9.58909 8.24992 9.58909C8.18807 9.58909 8.13136 9.57797 8.07981 9.55575C8.02826 9.53353 7.97835 9.49827 7.93006 9.44997Z" fill="#191C21"/>
</g>
</svg>
