<svg width="20" height="21" viewBox="0 0 20 21" fill="none" xmlns="http://www.w3.org/2000/svg">
<g id="Edit / Path" clip-path="url(#clip0_3224_9746)">
<path id="Vector" d="M6.59814 10.2302C6.59814 11.9582 7.9989 13.3589 9.72682 13.3589C11.4547 13.3589 12.8555 11.9582 12.8555 10.2302C12.8555 9.36628 12.5053 8.58411 11.9391 8.01793C11.373 7.45175 10.5908 7.10156 9.72682 7.10156C7.9989 7.10156 6.59814 8.50232 6.59814 10.2302Z" fill="white" stroke="white" stroke-width="1.56434" stroke-linecap="round" stroke-linejoin="round"/>
<path id="Vector 5" d="M9.72691 4.49295C12.8948 4.49295 15.4628 7.06101 15.4628 10.2289M9.72691 4.49295C6.55905 4.49295 3.991 7.06101 3.991 10.2289M9.72691 4.49295V1.625M15.4628 10.2289C15.4628 13.3967 12.8948 15.9648 9.72691 15.9648M15.4628 10.2289H18.3308M9.72691 15.9648C6.55905 15.9648 3.991 13.3967 3.991 10.2289M9.72691 15.9648V18.8327M3.991 10.2289H1.12305" stroke="white" stroke-width="1.56434" stroke-linecap="round"/>
</g>
<defs>
<clipPath id="clip0_3224_9746">
<rect width="19.2794" height="19.2794" fill="white" transform="translate(0.34082 0.84375)"/>
</clipPath>
</defs>
</svg>
