<svg width="25" height="24" viewBox="0 0 25 24" fill="none" xmlns="http://www.w3.org/2000/svg">
<g id="Frame">
<path id="Vector" d="M12.25 13.2L7.075 18.375C6.90833 18.5417 6.70833 18.625 6.475 18.625C6.24167 18.625 6.04167 18.5417 5.875 18.375C5.70833 18.2083 5.625 18.0083 5.625 17.775C5.625 17.5417 5.70833 17.3417 5.875 17.175L11.05 12L5.875 6.825C5.70833 6.65833 5.625 6.45833 5.625 6.225C5.625 5.99167 5.70833 5.79167 5.875 5.625C6.04167 5.45833 6.24167 5.375 6.475 5.375C6.70833 5.375 6.90833 5.45833 7.075 5.625L12.25 10.8L17.425 5.625C17.5917 5.45833 17.7917 5.375 18.025 5.375C18.2583 5.375 18.4583 5.45833 18.625 5.625C18.7917 5.79167 18.875 5.99167 18.875 6.225C18.875 6.45833 18.7917 6.65833 18.625 6.825L13.45 12L18.625 17.175C18.7917 17.3417 18.875 17.5417 18.875 17.775C18.875 18.0083 18.7917 18.2083 18.625 18.375C18.4583 18.5417 18.2583 18.625 18.025 18.625C17.7917 18.625 17.5917 18.5417 17.425 18.375L12.25 13.2Z" fill="#1A1C1E"/>
</g>
</svg>
