<svg width="24" height="24" viewBox="0 0 24 24" fill="none" xmlns="http://www.w3.org/2000/svg">
<g id="Frame">
<path id="Vector" d="M12.05 16.75C12.2167 16.75 12.3542 16.6958 12.4625 16.5875C12.5708 16.4792 12.625 16.3417 12.625 16.175V11.55C12.625 11.4 12.5708 11.2708 12.4625 11.1625C12.3542 11.0542 12.2167 11 12.05 11C11.8833 11 11.75 11.0542 11.65 11.1625C11.55 11.2708 11.5 11.4083 11.5 11.575V16.2C11.5 16.35 11.5542 16.4792 11.6625 16.5875C11.7708 16.6958 11.9 16.75 12.05 16.75ZM12 9.4C12.1833 9.4 12.3417 9.3375 12.475 9.2125C12.6083 9.0875 12.675 8.925 12.675 8.725C12.675 8.54167 12.6083 8.38333 12.475 8.25C12.3417 8.11667 12.1833 8.05 12 8.05C11.8 8.05 11.6375 8.11667 11.5125 8.25C11.3875 8.38333 11.325 8.54167 11.325 8.725C11.325 8.925 11.3917 9.0875 11.525 9.2125C11.6583 9.3375 11.8167 9.4 12 9.4ZM12 21.5C10.6667 21.5 9.42083 21.2583 8.2625 20.775C7.10417 20.2917 6.09583 19.6208 5.2375 18.7625C4.37917 17.9042 3.70833 16.8958 3.225 15.7375C2.74167 14.5792 2.5 13.3333 2.5 12C2.5 10.6667 2.74167 9.425 3.225 8.275C3.70833 7.125 4.37917 6.12083 5.2375 5.2625C6.09583 4.40417 7.10417 3.72917 8.2625 3.2375C9.42083 2.74583 10.6667 2.5 12 2.5C13.3333 2.5 14.575 2.74583 15.725 3.2375C16.875 3.72917 17.8792 4.40417 18.7375 5.2625C19.5958 6.12083 20.2708 7.125 20.7625 8.275C21.2542 9.425 21.5 10.6667 21.5 12C21.5 13.3333 21.2542 14.5792 20.7625 15.7375C20.2708 16.8958 19.5958 17.9042 18.7375 18.7625C17.8792 19.6208 16.875 20.2917 15.725 20.775C14.575 21.2583 13.3333 21.5 12 21.5ZM12 20.375C14.3 20.375 16.2708 19.5542 17.9125 17.9125C19.5542 16.2708 20.375 14.3 20.375 12C20.375 9.7 19.5542 7.72917 17.9125 6.0875C16.2708 4.44583 14.3 3.625 12 3.625C9.7 3.625 7.72917 4.44583 6.0875 6.0875C4.44583 7.72917 3.625 9.7 3.625 12C3.625 14.3 4.44583 16.2708 6.0875 17.9125C7.72917 19.5542 9.7 20.375 12 20.375Z" fill="#101114"/>
</g>
</svg>
