<svg width="24" height="24" viewBox="0 0 24 24" fill="none" xmlns="http://www.w3.org/2000/svg">
<g id="Frame">
<path id="Vector" d="M11.9998 16.85C13.7831 15.4167 15.1331 14.0417 16.0498 12.725C16.9665 11.4083 17.4248 10.1583 17.4248 8.975C17.4248 7.95833 17.2415 7.09583 16.8748 6.3875C16.5081 5.67917 16.0498 5.1 15.4998 4.65C14.9498 4.2 14.3581 3.875 13.7248 3.675C13.0915 3.475 12.5165 3.375 11.9998 3.375C11.4831 3.375 10.9081 3.475 10.2748 3.675C9.64147 3.875 9.0498 4.2 8.4998 4.65C7.9498 5.1 7.49147 5.67917 7.1248 6.3875C6.75814 7.09583 6.5748 7.95833 6.5748 8.975C6.5748 10.1583 7.03314 11.4083 7.9498 12.725C8.86647 14.0417 10.2165 15.4167 11.9998 16.85ZM11.9998 18.025C11.8998 18.025 11.7998 18.0167 11.6998 18C11.5998 17.9833 11.5165 17.9417 11.4498 17.875C9.41647 16.275 7.90397 14.7458 6.9123 13.2875C5.92064 11.8292 5.4248 10.3917 5.4248 8.975C5.4248 7.85833 5.6248 6.88333 6.0248 6.05C6.4248 5.21667 6.9373 4.51667 7.5623 3.95C8.1873 3.38333 8.89147 2.95833 9.6748 2.675C10.4581 2.39167 11.2331 2.25 11.9998 2.25C12.7665 2.25 13.5415 2.39167 14.3248 2.675C15.1081 2.95833 15.8123 3.38333 16.4373 3.95C17.0623 4.51667 17.5748 5.21667 17.9748 6.05C18.3748 6.88333 18.5748 7.85833 18.5748 8.975C18.5748 10.3917 18.079 11.8292 17.0873 13.2875C16.0956 14.7458 14.5831 16.275 12.5498 17.875C12.4831 17.9417 12.3998 17.9833 12.2998 18C12.1998 18.0167 12.0998 18.025 11.9998 18.025ZM11.9998 10.375C12.4331 10.375 12.804 10.2208 13.1123 9.9125C13.4206 9.60417 13.5748 9.23333 13.5748 8.8C13.5748 8.36667 13.4206 8 13.1123 7.7C12.804 7.4 12.4331 7.25 11.9998 7.25C11.5665 7.25 11.1956 7.40417 10.8873 7.7125C10.579 8.02083 10.4248 8.39167 10.4248 8.825C10.4248 9.25833 10.579 9.625 10.8873 9.925C11.1956 10.225 11.5665 10.375 11.9998 10.375ZM5.9998 21.75C5.83314 21.75 5.69564 21.6958 5.5873 21.5875C5.47897 21.4792 5.4248 21.3417 5.4248 21.175C5.4248 21.0083 5.47897 20.875 5.5873 20.775C5.69564 20.675 5.83314 20.625 5.9998 20.625H17.9998C18.1665 20.625 18.304 20.6792 18.4123 20.7875C18.5206 20.8958 18.5748 21.0333 18.5748 21.2C18.5748 21.35 18.5206 21.4792 18.4123 21.5875C18.304 21.6958 18.1665 21.75 17.9998 21.75H5.9998Z" fill="#101114"/>
</g>
</svg>
