<svg width="24" height="24" viewBox="0 0 24 24" fill="none" xmlns="http://www.w3.org/2000/svg">
<g id="Frame">
<path id="Vector" d="M13.3496 21.5H10.6496C10.4663 21.5 10.3079 21.4417 10.1746 21.325C10.0413 21.2083 9.95794 21.0667 9.92461 20.9L9.57461 18.5C9.22461 18.3833 8.85378 18.2125 8.46211 17.9875C8.07044 17.7625 7.73294 17.525 7.44961 17.275L5.24961 18.3C5.06628 18.3667 4.88711 18.3708 4.71211 18.3125C4.53711 18.2542 4.39961 18.1417 4.29961 17.975L2.94961 15.575C2.84961 15.4083 2.82461 15.2375 2.87461 15.0625C2.92461 14.8875 3.02461 14.75 3.17461 14.65L5.17461 13.15C5.14128 12.9833 5.11628 12.7958 5.09961 12.5875C5.08294 12.3792 5.07461 12.1833 5.07461 12C5.07461 11.8333 5.08294 11.6458 5.09961 11.4375C5.11628 11.2292 5.14128 11.0333 5.17461 10.85L3.17461 9.35C3.02461 9.25 2.92461 9.1125 2.87461 8.9375C2.82461 8.7625 2.84961 8.59167 2.94961 8.425L4.29961 6.05C4.39961 5.88333 4.53711 5.76667 4.71211 5.7C4.88711 5.63333 5.05794 5.64167 5.22461 5.725L7.42461 6.725C7.72461 6.475 8.06628 6.24167 8.44961 6.025C8.83294 5.80833 9.19961 5.64167 9.54961 5.525L9.92461 3.1C9.95794 2.93333 10.0413 2.79167 10.1746 2.675C10.3079 2.55833 10.4663 2.5 10.6496 2.5H13.3496C13.5163 2.5 13.6704 2.55833 13.8121 2.675C13.9538 2.79167 14.0413 2.93333 14.0746 3.1L14.4246 5.525C14.7913 5.65833 15.1621 5.825 15.5371 6.025C15.9121 6.225 16.2413 6.45833 16.5246 6.725L18.7746 5.725C18.9413 5.64167 19.1121 5.62917 19.2871 5.6875C19.4621 5.74583 19.5996 5.85833 19.6996 6.025L21.0496 8.4C21.1496 8.56667 21.1788 8.74167 21.1371 8.925C21.0954 9.10833 20.9913 9.25 20.8246 9.35L18.7996 10.825C18.8329 11.025 18.8579 11.225 18.8746 11.425C18.8913 11.625 18.8996 11.8167 18.8996 12C18.8996 12.1667 18.8913 12.35 18.8746 12.55C18.8579 12.75 18.8329 12.9583 18.7996 13.175L20.8246 14.65C20.9746 14.75 21.0704 14.8875 21.1121 15.0625C21.1538 15.2375 21.1246 15.4083 21.0246 15.575L19.6746 17.975C19.5746 18.1417 19.4371 18.2542 19.2621 18.3125C19.0871 18.3708 18.9163 18.3583 18.7496 18.275L16.5246 17.275C16.2246 17.525 15.8913 17.7625 15.5246 17.9875C15.1579 18.2125 14.7913 18.375 14.4246 18.475L14.0746 20.9C14.0413 21.0667 13.9538 21.2083 13.8121 21.325C13.6704 21.4417 13.5163 21.5 13.3496 21.5ZM11.9746 14.825C12.7579 14.825 13.4246 14.55 13.9746 14C14.5246 13.45 14.7996 12.7833 14.7996 12C14.7996 11.2167 14.5246 10.55 13.9746 10C13.4246 9.45 12.7579 9.175 11.9746 9.175C11.1913 9.175 10.5246 9.45 9.97461 10C9.42461 10.55 9.14961 11.2167 9.14961 12C9.14961 12.7833 9.42461 13.45 9.97461 14C10.5246 14.55 11.1913 14.825 11.9746 14.825ZM11.9746 13.675C11.5079 13.675 11.1121 13.5125 10.7871 13.1875C10.4621 12.8625 10.2996 12.4667 10.2996 12C10.2996 11.5333 10.4621 11.1375 10.7871 10.8125C11.1121 10.4875 11.5079 10.325 11.9746 10.325C12.4413 10.325 12.8371 10.4875 13.1621 10.8125C13.4871 11.1375 13.6496 11.5333 13.6496 12C13.6496 12.4667 13.4871 12.8625 13.1621 13.1875C12.8371 13.5125 12.4413 13.675 11.9746 13.675ZM10.9246 20.375H13.0496L13.4246 17.575C13.9579 17.4417 14.4538 17.2417 14.9121 16.975C15.3704 16.7083 15.8079 16.375 16.2246 15.975L18.8246 17.1L19.8246 15.325L17.5246 13.625C17.5913 13.325 17.6454 13.0458 17.6871 12.7875C17.7288 12.5292 17.7496 12.2667 17.7496 12C17.7496 11.7167 17.7329 11.45 17.6996 11.2C17.6663 10.95 17.6079 10.6833 17.5246 10.4L19.8496 8.675L18.8496 6.9L16.2246 8.025C15.8746 7.625 15.4496 7.275 14.9496 6.975C14.4496 6.675 13.9329 6.49167 13.3996 6.425L13.0746 3.625H10.9246L10.5996 6.425C10.0496 6.525 9.54128 6.70833 9.07461 6.975C8.60794 7.24167 8.17461 7.59167 7.77461 8.025L5.14961 6.9L4.14961 8.675L6.44961 10.375C6.38294 10.625 6.32878 10.8875 6.28711 11.1625C6.24544 11.4375 6.22461 11.7167 6.22461 12C6.22461 12.2833 6.24544 12.5583 6.28711 12.825C6.32878 13.0917 6.38294 13.3583 6.44961 13.625L4.14961 15.325L5.14961 17.1L7.74961 15.975C8.14961 16.3917 8.58711 16.7292 9.06211 16.9875C9.53711 17.2458 10.0496 17.4417 10.5996 17.575L10.9246 20.375Z" fill="#101114"/>
</g>
</svg>
