<svg width="24" height="24" viewBox="0 0 24 24" fill="none" xmlns="http://www.w3.org/2000/svg">
<g id="Frame">
<path id="Vector" d="M5 17.9996V13.3496L15.3 3.04961C15.9333 2.41628 16.7083 2.09961 17.625 2.09961C18.5417 2.09961 19.3167 2.41628 19.95 3.04961C20.5833 3.68294 20.9 4.45794 20.9 5.37461C20.9 6.29128 20.5833 7.06628 19.95 7.69961L9.65 17.9996H5ZM6.5 16.4996H9.025L18.9 6.62461C19.25 6.27461 19.425 5.85378 19.425 5.36211C19.425 4.87044 19.25 4.44961 18.9 4.09961C18.55 3.74961 18.1292 3.57461 17.6375 3.57461C17.1458 3.57461 16.725 3.74961 16.375 4.09961L6.5 13.9746V16.4996ZM3 21.9996V20.4996H21V21.9996H3Z" fill="#101114"/>
</g>
</svg>
