<svg width="24" height="24" viewBox="0 0 24 24" fill="none" xmlns="http://www.w3.org/2000/svg">
<g id="Frame">
<path id="Vector" d="M2 20.2V3.5C2 3.11667 2.15 2.77083 2.45 2.4625C2.75 2.15417 3.1 2 3.5 2H20.5C20.8833 2 21.2292 2.15417 21.5375 2.4625C21.8458 2.77083 22 3.11667 22 3.5V16.5C22 16.8833 21.8458 17.2292 21.5375 17.5375C21.2292 17.8458 20.8833 18 20.5 18H6L3.275 20.725C3.04167 20.9583 2.77083 21.0125 2.4625 20.8875C2.15417 20.7625 2 20.5333 2 20.2ZM3.5 18.375L5.375 16.5H20.5V3.5H3.5V18.375ZM3.5 3.5V16.5V18.375V3.5Z" fill="#101114"/>
</g>
</svg>
