<svg width="91" height="91" viewBox="0 0 91 91" fill="none" xmlns="http://www.w3.org/2000/svg">
<path d="M34.4354 7.79034C41.0718 3.11776 49.9282 3.11776 56.5646 7.79034C58.8869 9.42538 61.5426 10.5254 64.3409 11.0114C72.3376 12.4 78.6 18.6624 79.9886 26.6591C80.4746 29.4574 81.5746 32.1131 83.2097 34.4354C87.8822 41.0718 87.8822 49.9282 83.2097 56.5646C81.5746 58.8869 80.4746 61.5426 79.9886 64.3409C78.6 72.3376 72.3376 78.6 64.3409 79.9886C61.5426 80.4746 58.8869 81.5746 56.5646 83.2097C49.9282 87.8822 41.0718 87.8822 34.4354 83.2097C32.1131 81.5746 29.4574 80.4746 26.6591 79.9886C18.6624 78.6 12.4 72.3376 11.0114 64.3409C10.5254 61.5426 9.42538 58.8869 7.79034 56.5646C3.11776 49.9282 3.11776 41.0718 7.79034 34.4354C9.42538 32.1131 10.5254 29.4574 11.0114 26.6591C12.4 18.6624 18.6624 12.4 26.6591 11.0114C29.4574 10.5254 32.1131 9.42538 34.4354 7.79034Z" fill="url(#paint0_linear_3146_42222)"/>
<path d="M45.4997 47.5007L36.8747 56.1257C36.5969 56.4034 36.2636 56.5423 35.8747 56.5423C35.4858 56.5423 35.1525 56.4034 34.8747 56.1257C34.5969 55.8479 34.458 55.5145 34.458 55.1257C34.458 54.7368 34.5969 54.4034 34.8747 54.1257L43.4997 45.5007L34.8747 36.8757C34.5969 36.5979 34.458 36.2645 34.458 35.8757C34.458 35.4868 34.5969 35.1534 34.8747 34.8757C35.1525 34.5979 35.4858 34.459 35.8747 34.459C36.2636 34.459 36.5969 34.5979 36.8747 34.8757L45.4997 43.5007L54.1247 34.8757C54.4025 34.5979 54.7358 34.459 55.1247 34.459C55.5136 34.459 55.8469 34.5979 56.1247 34.8757C56.4025 35.1534 56.5413 35.4868 56.5413 35.8757C56.5413 36.2645 56.4025 36.5979 56.1247 36.8757L47.4997 45.5007L56.1247 54.1257C56.4025 54.4034 56.5413 54.7368 56.5413 55.1257C56.5413 55.5145 56.4025 55.8479 56.1247 56.1257C55.8469 56.4034 55.5136 56.5423 55.1247 56.5423C54.7358 56.5423 54.4025 56.4034 54.1247 56.1257L45.4997 47.5007Z" fill="white"/>
<defs>
<linearGradient id="paint0_linear_3146_42222" x1="45.5" y1="0" x2="45.5" y2="91" gradientUnits="userSpaceOnUse">
<stop stop-color="#DE3730"/>
<stop offset="1" stop-color="#C1312B"/>
</linearGradient>
</defs>
</svg>
