<svg width="92" height="91" viewBox="0 0 92 91" fill="none" xmlns="http://www.w3.org/2000/svg">
<path d="M34.9979 7.79034C41.6343 3.11776 50.4907 3.11776 57.1271 7.79034C59.4494 9.42538 62.1051 10.5254 64.9034 11.0114C72.9001 12.4 79.1625 18.6624 80.5511 26.6591C81.0371 29.4574 82.1371 32.1131 83.7722 34.4354C88.4447 41.0718 88.4447 49.9282 83.7722 56.5646C82.1371 58.8869 81.0371 61.5426 80.5511 64.3409C79.1625 72.3376 72.9001 78.6 64.9034 79.9886C62.1051 80.4746 59.4494 81.5746 57.1271 83.2097C50.4907 87.8822 41.6343 87.8822 34.9979 83.2097C32.6756 81.5746 30.0199 80.4746 27.2216 79.9886C19.2249 78.6 12.9625 72.3376 11.5739 64.3409C11.0879 61.5426 9.98788 58.8869 8.35284 56.5646C3.68026 49.9282 3.68026 41.0718 8.35284 34.4354C9.98788 32.1131 11.0879 29.4574 11.5739 26.6591C12.9625 18.6624 19.2249 12.4 27.2216 11.0114C30.0199 10.5254 32.6756 9.42538 34.9979 7.79034Z" fill="url(#paint0_linear_3146_42216)"/>
<path d="M41.0623 52.4497L34.1123 45.4997L31.7456 47.8497L41.0623 57.1664L61.0623 37.1664L58.7123 34.8164L41.0623 52.4497Z" fill="white"/>
<defs>
<linearGradient id="paint0_linear_3146_42216" x1="46.0625" y1="0" x2="46.0625" y2="91" gradientUnits="userSpaceOnUse">
<stop stop-color="#FF9500"/>
<stop offset="1" stop-color="#E88E0F"/>
</linearGradient>
</defs>
</svg>
