<svg width="33" height="32" viewBox="0 0 33 32" fill="none" xmlns="http://www.w3.org/2000/svg">
<path d="M16.5623 17.5993L9.66234 24.4993C9.44011 24.7216 9.17345 24.8327 8.86234 24.8327C8.55123 24.8327 8.28456 24.7216 8.06234 24.4993C7.84012 24.2771 7.729 24.0105 7.729 23.6993C7.729 23.3882 7.84012 23.1216 8.06234 22.8993L14.9623 15.9993L8.06234 9.09935C7.84012 8.87713 7.729 8.61046 7.729 8.29935C7.729 7.98824 7.84012 7.72157 8.06234 7.49935C8.28456 7.27713 8.55123 7.16602 8.86234 7.16602C9.17345 7.16602 9.44011 7.27713 9.66234 7.49935L16.5623 14.3993L23.4623 7.49935C23.6846 7.27713 23.9512 7.16602 24.2623 7.16602C24.5734 7.16602 24.8401 7.27713 25.0623 7.49935C25.2846 7.72157 25.3957 7.98824 25.3957 8.29935C25.3957 8.61046 25.2846 8.87713 25.0623 9.09935L18.1623 15.9993L25.0623 22.8993C25.2846 23.1216 25.3957 23.3882 25.3957 23.6993C25.3957 24.0105 25.2846 24.2771 25.0623 24.4993C24.8401 24.7216 24.5734 24.8327 24.2623 24.8327C23.9512 24.8327 23.6846 24.7216 23.4623 24.4993L16.5623 17.5993Z" fill="#1A1C1E"/>
</svg>
