<svg width="25" height="24" viewBox="0 0 25 24" fill="none" xmlns="http://www.w3.org/2000/svg">
<g id="Icon">
<mask id="mask0_3412_13806" style="mask-type:alpha" maskUnits="userSpaceOnUse" x="0" y="0" width="25" height="24">
<rect id="Bounding box" x="0.5" width="24" height="24" fill="#D9D9D9"/>
</mask>
<g mask="url(#mask0_3412_13806)">
<path id="forum" d="M7.5 18C7.21667 18 6.97917 17.9042 6.7875 17.7125C6.59583 17.5208 6.5 17.2833 6.5 17V15H19.5V6H21.5C21.7833 6 22.0208 6.09583 22.2125 6.2875C22.4042 6.47917 22.5 6.71667 22.5 7V19.575C22.5 20.025 22.2958 20.3375 21.8875 20.5125C21.4792 20.6875 21.1167 20.6167 20.8 20.3L18.5 18H7.5ZM6.5 13L4.2 15.3C3.88333 15.6167 3.52083 15.6875 3.1125 15.5125C2.70417 15.3375 2.5 15.025 2.5 14.575V3C2.5 2.71667 2.59583 2.47917 2.7875 2.2875C2.97917 2.09583 3.21667 2 3.5 2H16.5C16.7833 2 17.0208 2.09583 17.2125 2.2875C17.4042 2.47917 17.5 2.71667 17.5 3V12C17.5 12.2833 17.4042 12.5208 17.2125 12.7125C17.0208 12.9042 16.7833 13 16.5 13H6.5Z" fill="#191C21"/>
</g>
</g>
</svg>
