<svg width="25" height="24" viewBox="0 0 25 24" fill="none" xmlns="http://www.w3.org/2000/svg">
<g id="Icon">
<path id="Vector" d="M6 18.8846C5.7875 18.8846 5.60938 18.8127 5.46563 18.6689C5.32187 18.5251 5.25 18.3469 5.25 18.1343C5.25 17.9217 5.32187 17.7436 5.46563 17.6C5.60938 17.4564 5.7875 17.3846 6 17.3846H7.0577V9.92305C7.0577 8.57818 7.47276 7.38908 8.30287 6.35575C9.13301 5.32242 10.1987 4.66153 11.5 4.37308V3.75C11.5 3.40278 11.6214 3.10765 11.8643 2.8646C12.1071 2.62153 12.4019 2.5 12.7488 2.5C13.0957 2.5 13.391 2.62153 13.6346 2.8646C13.8782 3.10765 14 3.40278 14 3.75V4.37308C15.3012 4.66153 16.3669 5.32242 17.1971 6.35575C18.0272 7.38908 18.4422 8.57818 18.4422 9.92305V17.3846H19.5C19.7125 17.3846 19.8906 17.4565 20.0343 17.6003C20.1781 17.7441 20.25 17.9223 20.25 18.1349C20.25 18.3475 20.1781 18.5256 20.0343 18.6692C19.8906 18.8128 19.7125 18.8846 19.5 18.8846H6ZM12.7483 21.6923C12.2507 21.6923 11.8253 21.5153 11.4721 21.1613C11.1189 20.8073 10.9423 20.3817 10.9423 19.8846H14.5577C14.5577 20.3833 14.3805 20.8093 14.0261 21.1625C13.6718 21.5157 13.2459 21.6923 12.7483 21.6923Z" fill="#101114"/>
</g>
</svg>
