<svg width="25" height="24" viewBox="0 0 25 24" fill="none" xmlns="http://www.w3.org/2000/svg">
<g id="Icon">
<path id="Vector" d="M6.49997 19.0009H9.84615V13.9624C9.84615 13.7063 9.93277 13.4917 10.106 13.3184C10.2792 13.1452 10.4939 13.0586 10.75 13.0586H14.25C14.5061 13.0586 14.7207 13.1452 14.8939 13.3184C15.0672 13.4917 15.1538 13.7063 15.1538 13.9624V19.0009H18.5V10.1547C18.5 10.1034 18.4888 10.057 18.4663 10.0153C18.4439 9.97363 18.4134 9.93677 18.375 9.90472L12.6827 5.62587C12.6314 5.581 12.5705 5.55857 12.5 5.55857C12.4295 5.55857 12.3686 5.581 12.3173 5.62587L6.62497 9.90472C6.58652 9.93677 6.55607 9.97363 6.53362 10.0153C6.51119 10.057 6.49997 10.1034 6.49997 10.1547V19.0009ZM5 19.0009V10.1547C5 9.8685 5.06402 9.59735 5.19207 9.34127C5.32012 9.08519 5.49712 8.87429 5.72307 8.70859L11.4154 4.42014C11.7313 4.17911 12.0923 4.05859 12.4984 4.05859C12.9046 4.05859 13.2666 4.17911 13.5846 4.42014L19.2769 8.70859C19.5028 8.87429 19.6798 9.08519 19.8079 9.34127C19.9359 9.59735 20 9.8685 20 10.1547V19.0009C20 19.4098 19.8522 19.7621 19.5567 20.0576C19.2612 20.3531 18.9089 20.5008 18.5 20.5008H14.5577C14.3016 20.5008 14.0869 20.4142 13.9137 20.241C13.7404 20.0677 13.6538 19.8531 13.6538 19.597V14.5585H11.3461V19.597C11.3461 19.8531 11.2595 20.0677 11.0863 20.241C10.913 20.4142 10.6984 20.5008 10.4423 20.5008H6.49997C6.09101 20.5008 5.73877 20.3531 5.44327 20.0576C5.14776 19.7621 5 19.4098 5 19.0009Z" fill="#101114"/>
</g>
</svg>
