<svg width="25" height="24" viewBox="0 0 25 24" fill="none" xmlns="http://www.w3.org/2000/svg">
<path d="M13.5 11.6961V7.74995C13.5 7.53747 13.4281 7.35935 13.2843 7.2156C13.1404 7.07185 12.9622 6.99998 12.7497 6.99998C12.5371 6.99998 12.359 7.07185 12.2154 7.2156C12.0718 7.35935 12 7.53747 12 7.74995V11.9269C12 12.0446 12.0218 12.1587 12.0654 12.269C12.109 12.3794 12.1776 12.4814 12.2712 12.575L15.6962 16C15.8346 16.1384 16.0087 16.2093 16.2183 16.2125C16.4279 16.2157 16.6051 16.1448 16.75 16C16.8948 15.8551 16.9673 15.6795 16.9673 15.4731C16.9673 15.2667 16.8948 15.091 16.75 14.9462L13.5 11.6961ZM12.7516 21.5C11.4377 21.5 10.2027 21.2506 9.04655 20.752C7.8904 20.2533 6.88472 19.5765 6.0295 18.7217C5.17427 17.8669 4.49721 16.8616 3.99833 15.706C3.49944 14.5504 3.25 13.3156 3.25 12.0017C3.25 10.6877 3.49933 9.45268 3.998 8.29655C4.49667 7.1404 5.17342 6.13472 6.02825 5.2795C6.8831 4.42427 7.88834 3.74721 9.04398 3.24833C10.1996 2.74944 11.4344 2.5 12.7483 2.5C14.0622 2.5 15.2973 2.74933 16.4534 3.248C17.6096 3.74667 18.6152 4.42342 19.4705 5.27825C20.3257 6.1331 21.0027 7.13834 21.5016 8.29398C22.0005 9.44959 22.25 10.6844 22.25 11.9983C22.25 13.3122 22.0006 14.5473 21.502 15.7034C21.0033 16.8596 20.3265 17.8652 19.4717 18.7205C18.6169 19.5757 17.6116 20.2527 16.456 20.7516C15.3004 21.2505 14.0656 21.5 12.7516 21.5ZM12.75 20C14.9666 20 16.8541 19.2208 18.4125 17.6625C19.9708 16.1041 20.75 14.2166 20.75 12C20.75 9.78331 19.9708 7.89581 18.4125 6.33748C16.8541 4.77914 14.9666 3.99998 12.75 3.99998C10.5333 3.99998 8.64581 4.77914 7.08748 6.33748C5.52914 7.89581 4.74998 9.78331 4.74998 12C4.74998 14.2166 5.52914 16.1041 7.08748 17.6625C8.64581 19.2208 10.5333 20 12.75 20Z" fill="#101114"/>
</svg>
