<svg width="65" height="32" viewBox="0 0 65 32" fill="none" xmlns="http://www.w3.org/2000/svg">
<path d="M25.25 22.9999V14.1537C25.25 13.8675 25.314 13.5964 25.4421 13.3403C25.5701 13.0842 25.7471 12.8733 25.9731 12.7076L31.6654 8.41917C31.9813 8.17813 32.3423 8.05762 32.7484 8.05762C33.1546 8.05762 33.5166 8.17813 33.8346 8.41917L39.5269 12.7076C39.7528 12.8733 39.9298 13.0842 40.0579 13.3403C40.1859 13.5964 40.25 13.8675 40.25 14.1537V22.9999C40.25 23.4089 40.1022 23.7611 39.8067 24.0566C39.5112 24.3521 39.1589 24.4999 38.75 24.4999H35.5577C35.3016 24.4999 35.0869 24.4132 34.9137 24.24C34.7404 24.0668 34.6538 23.8521 34.6538 23.596V18.7114C34.6538 18.4553 34.5672 18.2407 34.3939 18.0674C34.2207 17.8942 34.0061 17.8076 33.75 17.8076H31.75C31.4939 17.8076 31.2792 17.8942 31.106 18.0674C30.9327 18.2407 30.8461 18.4553 30.8461 18.7114V23.596C30.8461 23.8521 30.7595 24.0668 30.5863 24.24C30.413 24.4132 30.1984 24.4999 29.9423 24.4999H26.75C26.341 24.4999 25.9888 24.3521 25.6933 24.0566C25.3978 23.7611 25.25 23.4089 25.25 22.9999Z" fill="#101114"/>
</svg>
