<svg width="20" height="18" viewBox="0 0 20 18" fill="none" xmlns="http://www.w3.org/2000/svg">
<path d="M4.86543 15.1153C4.61478 15.1153 4.40468 15.0305 4.23513 14.861C4.06558 14.6914 3.98081 14.4813 3.98081 14.2307V12.7307H16.3558L16.6731 13.0481V3.99998H18.1731C18.4237 3.99998 18.6338 4.08475 18.8034 4.2543C18.9729 4.42385 19.0577 4.63394 19.0577 4.88458V16.4691C19.0577 16.8722 18.8728 17.1522 18.5029 17.309C18.133 17.4657 17.8058 17.4018 17.5212 17.1172L15.5193 15.1153H4.86543ZM3.98081 10.7307L1.97891 12.7326C1.69431 13.0172 1.36707 13.0812 0.997183 12.9244C0.627316 12.7676 0.442383 12.4877 0.442383 12.0846V1.38463C0.442383 1.13398 0.527158 0.923876 0.696708 0.754326C0.866258 0.584776 1.07636 0.5 1.32701 0.5H13.7885C14.0391 0.5 14.2492 0.584776 14.4188 0.754326C14.5883 0.923876 14.6731 1.13398 14.6731 1.38463V9.84613C14.6731 10.0968 14.5883 10.3069 14.4188 10.4764C14.2492 10.646 14.0391 10.7307 13.7885 10.7307H3.98081ZM13.1731 9.23075V1.99998H1.94236V9.92313L2.63471 9.23075H13.1731Z" fill="#101114"/>
</svg>
