<svg width="24" height="24" viewBox="0 0 24 24" fill="none" xmlns="http://www.w3.org/2000/svg">
<path d="M12 18.75C11.8334 18.75 11.6959 18.6958 11.5875 18.5875C11.4792 18.4792 11.425 18.3417 11.425 18.175V12.575H5.82502C5.65835 12.575 5.52085 12.5208 5.41252 12.4125C5.30419 12.3042 5.25002 12.1667 5.25002 12C5.25002 11.8333 5.30419 11.6958 5.41252 11.5875C5.52085 11.4792 5.65835 11.425 5.82502 11.425H11.425V5.825C11.425 5.65833 11.4792 5.52083 11.5875 5.4125C11.6959 5.30417 11.8334 5.25 12 5.25C12.1667 5.25 12.3042 5.30417 12.4125 5.4125C12.5209 5.52083 12.575 5.65833 12.575 5.825V11.425H18.175C18.3417 11.425 18.4792 11.4792 18.5875 11.5875C18.6959 11.6958 18.75 11.8333 18.75 12C18.75 12.1667 18.6959 12.3042 18.5875 12.4125C18.4792 12.5208 18.3417 12.575 18.175 12.575H12.575V18.175C12.575 18.3417 12.5209 18.4792 12.4125 18.5875C12.3042 18.6958 12.1667 18.75 12 18.75Z" fill="#1A1C1E"/>
</svg>
