<svg width="45" height="44" viewBox="0 0 45 44" fill="none" xmlns="http://www.w3.org/2000/svg">
<path d="M16.5417 24.4993H15.7083C15.2663 24.4993 14.8424 24.3238 14.5298 24.0112C14.2173 23.6986 14.0417 23.2747 14.0417 22.8327V15.3327C14.0417 14.8907 14.2173 14.4667 14.5298 14.1542C14.8424 13.8416 15.2663 13.666 15.7083 13.666H23.2083C23.6504 13.666 24.0743 13.8416 24.3868 14.1542C24.6994 14.4667 24.875 14.8907 24.875 15.3327V16.166M21.5417 19.4993H29.0417C29.9621 19.4993 30.7083 20.2455 30.7083 21.166V28.666C30.7083 29.5865 29.9621 30.3327 29.0417 30.3327H21.5417C20.6212 30.3327 19.875 29.5865 19.875 28.666V21.166C19.875 20.2455 20.6212 19.4993 21.5417 19.4993Z" stroke="#475467" stroke-width="1.66667" stroke-linecap="round" stroke-linejoin="round"/>
</svg>
