<svg width="229" height="228" viewBox="0 0 229 228" fill="none" xmlns="http://www.w3.org/2000/svg">
<g id="Contact us-amico 1">
<g id="freepik--Floor--inject-212">
<path id="Vector" d="M114.75 223.08C164.368 223.08 204.59 200.231 204.59 172.044C204.59 143.858 164.368 121.008 114.75 121.008C65.133 121.008 24.9102 143.858 24.9102 172.044C24.9102 200.231 65.133 223.08 114.75 223.08Z" fill="#F5F5F5"/>
</g>
<g id="freepik--Shadows--inject-212">
<path id="Vector_2" d="M152.136 204.226L85.074 165.505C84.484 165.165 83.9941 164.675 83.6534 164.086C83.3127 163.497 83.1333 162.828 83.1333 162.147C83.1333 161.466 83.3127 160.797 83.6534 160.208C83.9941 159.618 84.484 159.129 85.074 158.789L91.6895 154.617C92.8314 153.959 94.1262 153.613 95.444 153.613C96.7619 153.613 98.0566 153.959 99.1986 154.617L166.27 193.344C166.86 193.683 167.35 194.173 167.69 194.762C168.031 195.352 168.21 196.021 168.21 196.701C168.21 197.382 168.031 198.051 167.69 198.641C167.35 199.23 166.86 199.719 166.27 200.059L159.654 204.226C158.512 204.888 157.215 205.236 155.895 205.236C154.575 205.236 153.279 204.888 152.136 204.226Z" fill="#E0E0E0"/>
<path id="Vector_3" d="M50.1683 168.923C58.2057 168.923 64.7214 165.182 64.7214 160.566C64.7214 155.951 58.2057 152.209 50.1683 152.209C42.1308 152.209 35.6151 155.951 35.6151 160.566C35.6151 165.182 42.1308 168.923 50.1683 168.923Z" fill="#E6E6E6"/>
</g>
<g id="freepik--Plants--inject-212">
<path id="Vector_4" d="M175.917 170.836L182.3 174.506C182.3 174.506 179.04 164.261 180.777 153.935C181.434 150.032 182.843 148.094 183.335 147.05C183.828 146.006 187.644 139.555 184.247 136.6C180.85 133.646 172.949 139.587 173.378 155.485C173.573 160.688 174.426 165.847 175.917 170.836Z" fill="#A8C8FF"/>
<path id="Vector_5" opacity="0.5" d="M175.917 170.836L182.3 174.506C182.3 174.506 179.04 164.261 180.777 153.935C181.434 150.032 182.843 148.094 183.335 147.05C183.828 146.006 187.644 139.555 184.247 136.6C180.85 133.646 172.949 139.587 173.378 155.485C173.573 160.688 174.426 165.847 175.917 170.836Z" fill="#101114"/>
<path id="Vector_6" d="M178.885 172.77C178.839 172.771 178.793 172.757 178.755 172.731C178.716 172.705 178.687 172.667 178.671 172.624C178.648 172.555 176.209 165.89 176.286 155.175C176.364 144.461 181.995 138.644 182.049 138.589C182.071 138.568 182.096 138.551 182.124 138.539C182.151 138.527 182.181 138.521 182.211 138.521C182.241 138.521 182.271 138.527 182.299 138.539C182.327 138.551 182.352 138.568 182.373 138.589C182.394 138.61 182.411 138.635 182.423 138.663C182.435 138.691 182.441 138.721 182.441 138.751C182.441 138.781 182.435 138.811 182.423 138.838C182.411 138.866 182.394 138.891 182.373 138.913C182.318 138.967 176.82 144.612 176.742 155.18C176.665 165.748 179.072 172.405 179.1 172.469C179.12 172.526 179.117 172.588 179.092 172.643C179.066 172.698 179.02 172.74 178.963 172.761C178.938 172.768 178.911 172.771 178.885 172.77Z" fill="white"/>
<path id="Vector_7" d="M178.58 172.405L187.306 177.42C188.216 177.958 189.294 178.133 190.327 177.911C191.359 177.688 192.27 177.085 192.878 176.221C193.456 175.322 193.699 174.249 193.566 173.189C193.147 168.657 191.177 167.613 193.589 165.594C196.001 163.574 196.63 163.433 196.493 161.49C196.357 159.548 195.03 158.7 194.401 157.934C193.772 157.168 192.03 155.563 193.215 153.192C194.401 150.822 196.019 148.528 193.566 147.48C192.103 146.85 189.664 147.689 188.059 149.431C186.454 151.173 185.132 152.426 183.595 152.846C182.059 153.265 178.858 153.334 178.995 155.983C179.132 158.632 179.834 159.539 179.205 160.72C178.019 162.926 172.863 164.18 178.58 172.405Z" fill="#A8C8FF"/>
<path id="Vector_8" d="M182.893 175.103C182.836 175.101 182.782 175.079 182.74 175.04C182.698 175.002 182.671 174.949 182.665 174.893C182.665 174.738 181.324 159.09 192.084 148.677C192.129 148.641 192.185 148.622 192.243 148.625C192.3 148.629 192.354 148.654 192.394 148.695C192.434 148.737 192.456 148.792 192.457 148.849C192.458 148.907 192.437 148.963 192.399 149.005C181.794 159.268 183.107 174.697 183.121 174.852C183.126 174.912 183.107 174.971 183.069 175.017C183.03 175.063 182.975 175.092 182.916 175.098L182.893 175.103Z" fill="white"/>
<path id="Vector_9" d="M184.621 161.636C184.564 161.636 184.508 161.614 184.466 161.575C184.424 161.536 184.398 161.483 184.393 161.426C184.298 160.213 183.956 159.033 183.39 157.957C182.823 156.88 182.043 155.931 181.097 155.166C181.072 155.149 181.051 155.127 181.035 155.101C181.019 155.076 181.008 155.047 181.003 155.018C180.998 154.988 180.999 154.958 181.006 154.928C181.012 154.899 181.025 154.871 181.042 154.847C181.059 154.822 181.081 154.801 181.106 154.785C181.131 154.769 181.159 154.758 181.188 154.753C181.217 154.748 181.247 154.749 181.276 154.756C181.305 154.762 181.333 154.775 181.357 154.792C182.365 155.591 183.196 156.591 183.797 157.729C184.398 158.866 184.756 160.115 184.849 161.398C184.854 161.459 184.835 161.52 184.796 161.567C184.757 161.614 184.7 161.643 184.639 161.649L184.621 161.636Z" fill="white"/>
<path id="Vector_10" d="M183.878 164.321C183.823 164.322 183.769 164.302 183.728 164.266C183.682 164.226 183.655 164.17 183.65 164.109C183.646 164.049 183.666 163.989 183.705 163.943C183.814 163.815 186.509 160.842 192.823 161.631C192.883 161.639 192.937 161.67 192.974 161.718C193.011 161.766 193.027 161.826 193.019 161.886C193.011 161.946 192.98 162.001 192.932 162.039C192.885 162.076 192.824 162.093 192.764 162.087C186.7 161.326 184.07 164.216 184.042 164.243C184.021 164.267 183.996 164.286 183.968 164.299C183.94 164.312 183.909 164.32 183.878 164.321Z" fill="white"/>
</g>
<g id="freepik--Device--inject-212">
<path id="Vector_11" d="M150.093 199.596L91.1147 165.543C86.9521 163.14 83.5782 156.693 83.5782 151.144V24.853C83.5782 19.3044 86.9521 16.7557 91.1147 19.1585L150.093 53.2116C154.256 55.6143 157.63 62.0611 157.63 67.6097V193.901C157.63 199.445 154.256 201.998 150.093 199.596Z" fill="#455A64"/>
<path id="Vector_12" d="M156.886 49.2413L97.9033 15.1882C96.1252 14.1624 94.493 14.0439 93.2027 14.673C93.0448 14.7521 92.8924 14.842 92.7468 14.942L86.1359 18.7855C87.4672 17.9876 89.2088 18.0469 91.1191 19.1502L150.098 53.2033C154.26 55.6061 157.634 62.0528 157.634 67.6015V193.893C157.634 196.829 156.69 198.908 155.186 199.893L161.71 196.095C163.374 195.211 164.446 193.045 164.446 189.94V63.6486C164.446 58.0909 161.049 51.6441 156.886 49.2413Z" fill="#37474F"/>
<path id="Vector_13" d="M157.63 67.6013V193.893C157.63 196.829 156.686 198.908 155.182 199.893L161.71 196.095C163.375 195.21 164.446 193.045 164.446 189.94V63.6484L157.653 67.5922L157.63 67.6013Z" fill="#263238"/>
<path id="Vector_14" d="M164.423 73.4473L157.63 77.3682V80.4321L164.423 76.5065V73.4473Z" fill="#37474F"/>
<path id="Vector_15" d="M161.446 93.8211C160.839 94.1722 160.347 93.7983 160.347 92.9913V86.4032C160.353 85.9914 160.456 85.5867 160.646 85.2217C160.837 84.8567 161.111 84.5415 161.446 84.3014C162.052 83.9503 162.544 84.3014 162.544 85.1312V91.7193C162.538 92.1311 162.436 92.5358 162.245 92.9008C162.054 93.2658 161.78 93.581 161.446 93.8211Z" fill="#37474F"/>
<path id="Vector_16" d="M160.342 93.0086V86.4022C160.349 85.9904 160.451 85.5857 160.642 85.2207C160.833 84.8557 161.107 84.5405 161.441 84.3004C161.541 84.2304 161.658 84.1878 161.779 84.1766C161.901 84.1654 162.023 84.186 162.134 84.2366L161.309 83.8125C161.196 83.7582 161.071 83.7347 160.946 83.7443C160.821 83.7539 160.701 83.7963 160.598 83.8673C160.263 84.1074 159.989 84.4225 159.797 84.7874C159.605 85.1523 159.502 85.557 159.494 85.9691V92.5526C159.477 92.719 159.503 92.8869 159.568 93.0408C159.633 93.1946 159.737 93.3294 159.868 93.4326L160.73 93.8885C160.593 93.7897 160.485 93.656 160.416 93.5013C160.348 93.3466 160.323 93.1765 160.342 93.0086Z" fill="#455A64"/>
<path id="Vector_17" d="M161.446 109.766C160.839 110.117 160.347 109.766 160.347 108.937V102.348C160.353 101.937 160.456 101.532 160.647 101.167C160.838 100.802 161.111 100.487 161.446 100.247C162.052 99.8956 162.544 100.247 162.544 101.081V107.665C162.539 108.077 162.437 108.481 162.246 108.847C162.055 109.212 161.781 109.527 161.446 109.766Z" fill="#37474F"/>
<path id="Vector_18" d="M160.343 108.936V102.348C160.349 101.936 160.452 101.532 160.643 101.167C160.834 100.802 161.107 100.486 161.441 100.246C161.542 100.177 161.658 100.135 161.78 100.124C161.901 100.113 162.023 100.133 162.134 100.182L161.309 99.7537C161.197 99.697 161.071 99.6721 160.946 99.6817C160.821 99.6914 160.7 99.7352 160.598 99.8084C160.262 100.048 159.987 100.363 159.796 100.728C159.604 101.093 159.501 101.498 159.495 101.91V108.512C159.477 108.678 159.502 108.846 159.568 109C159.633 109.154 159.737 109.289 159.869 109.392L160.73 109.848C160.587 109.747 160.476 109.608 160.407 109.447C160.339 109.286 160.316 109.109 160.343 108.936Z" fill="#455A64"/>
<path id="Vector_19" d="M148.032 56.7556L90.0752 23.2815C89.8333 23.1424 89.5592 23.0689 89.2802 23.0684C89.0011 23.0678 88.7268 23.1403 88.4844 23.2786C88.242 23.4168 88.0399 23.616 87.8983 23.8565C87.7567 24.0969 87.6804 24.3703 87.677 24.6493V151.146C87.677 155.368 90.6724 160.552 94.329 162.663L150.864 195.321C151.132 195.475 151.436 195.556 151.745 195.556C152.054 195.555 152.358 195.474 152.626 195.319C152.894 195.164 153.117 194.942 153.271 194.674C153.426 194.406 153.508 194.103 153.508 193.793V66.2525C153.531 62.7692 151.06 58.4972 148.032 56.7556Z" fill="#A8C8FF"/>
<path id="Vector_20" opacity="0.9" d="M148.032 56.7556L90.0752 23.2815C89.8333 23.1424 89.5592 23.0689 89.2802 23.0684C89.0011 23.0678 88.7268 23.1403 88.4844 23.2786C88.242 23.4168 88.0399 23.616 87.8983 23.8565C87.7567 24.0969 87.6804 24.3703 87.677 24.6493V151.146C87.677 155.368 90.6724 160.552 94.329 162.663L150.864 195.321C151.132 195.475 151.436 195.556 151.745 195.556C152.054 195.555 152.358 195.474 152.626 195.319C152.894 195.164 153.117 194.942 153.271 194.674C153.426 194.406 153.508 194.103 153.508 193.793V66.2525C153.531 62.7692 151.06 58.4972 148.032 56.7556Z" fill="white"/>
<path id="Vector_21" d="M107.409 32.0195L108.308 35.7992L127.52 46.8781L130.839 45.1092L107.409 32.0195Z" fill="#455A64"/>
<path id="Vector_22" d="M113.059 35.6733C113.059 36.3025 112.603 36.5532 112.074 36.2432C111.79 36.0547 111.554 35.8022 111.385 35.5061C111.217 35.21 111.12 34.8784 111.103 34.538C111.103 33.9134 111.559 33.6581 112.087 33.9727C112.371 34.1602 112.607 34.4118 112.776 34.7072C112.944 35.0026 113.041 35.3336 113.059 35.6733Z" fill="#263238"/>
<path id="Vector_23" d="M126.002 43.6734C125.897 43.6725 125.793 43.6459 125.701 43.5959L115.889 38.1248C115.751 38.0434 115.65 37.9111 115.607 37.7561C115.565 37.6011 115.585 37.4358 115.663 37.2953C115.741 37.1548 115.871 37.0504 116.025 37.0044C116.179 36.9583 116.344 36.9742 116.487 37.0488L126.303 42.5199C126.422 42.5862 126.516 42.6903 126.57 42.8158C126.623 42.9413 126.634 43.0811 126.599 43.2132C126.565 43.3453 126.488 43.4622 126.379 43.5455C126.271 43.6288 126.138 43.6738 126.002 43.6734Z" fill="#263238"/>
<path id="Vector_24" d="M99.8321 49.6054C99.2348 49.2589 98.8017 49.5598 98.8017 50.3212C98.8017 50.7019 98.8958 51.0768 99.0755 51.4125C99.2553 51.7481 99.5152 52.0342 99.8321 52.2452C100.002 52.3482 100.197 52.4027 100.395 52.4027C100.594 52.4027 100.789 52.3482 100.958 52.2452L101.911 53.9686C101.576 54.1536 101.196 54.2417 100.813 54.2232C100.431 54.2047 100.061 54.0802 99.7455 53.8637C98.9714 53.3901 98.3259 52.733 97.8663 51.9504C97.4066 51.1679 97.1469 50.2842 97.1102 49.3774C97.1102 47.6859 98.2455 47.0978 99.8093 48.0096C100.692 48.5783 101.416 49.363 101.911 50.2893L100.958 51.0461C100.723 50.471 100.333 49.9723 99.8321 49.6054Z" fill="#A8C8FF"/>
<path id="Vector_25" d="M107.396 55.3178C107.396 57.023 106.242 57.5974 104.66 56.6856C103.864 56.2098 103.198 55.5446 102.721 54.7492C102.243 53.9538 101.97 53.0528 101.925 52.1263C101.925 50.4212 103.078 49.8467 104.66 50.7586C105.459 51.2322 106.126 51.8969 106.604 52.6927C107.081 53.4886 107.354 54.3907 107.396 55.3178ZM103.616 53.1431C103.624 53.5345 103.725 53.9185 103.911 54.2633C104.096 54.6081 104.361 54.9039 104.683 55.1263C105.249 55.4546 105.704 55.1263 105.704 54.3513C105.703 53.9686 105.609 53.592 105.432 53.2531C105.254 52.9143 104.997 52.6232 104.683 52.4045C104.109 52.0716 103.616 52.3543 103.616 53.1431Z" fill="#A8C8FF"/>
<path id="Vector_26" d="M109.233 53.5082L111.203 57.6115V54.6571L112.694 55.5188V61.268L111.326 60.4747L109.366 56.4078V59.344L107.866 58.4777V52.7148L109.233 53.5082Z" fill="#A8C8FF"/>
<path id="Vector_27" d="M117.568 58.3195V59.824L116.145 59.0034V63.2526L114.499 62.2997V58.0505L113.086 57.2344V55.7344L117.568 58.3195Z" fill="#A8C8FF"/>
<path id="Vector_28" d="M120.777 65.1126L118.908 64.032L118.653 64.6977L116.966 63.722L119.068 59.1855L120.759 60.1612L122.783 67.0822L121.028 66.07L120.777 65.1126ZM120.372 63.5168L119.861 61.5518L119.337 62.9196L120.372 63.5168Z" fill="#A8C8FF"/>
<path id="Vector_29" d="M125.396 64.3651C124.798 64.0232 124.365 64.3196 124.365 65.0855C124.366 65.4661 124.461 65.8407 124.64 66.1762C124.82 66.5117 125.079 66.7979 125.396 67.0095C125.567 67.1115 125.762 67.1654 125.961 67.1654C126.16 67.1654 126.355 67.1115 126.526 67.0095L127.479 68.7329C127.143 68.9158 126.762 69.0027 126.38 68.9842C125.997 68.9657 125.627 68.8425 125.309 68.6281C124.534 68.154 123.888 67.4961 123.429 66.7128C122.969 65.9294 122.71 65.0447 122.674 64.1372C122.674 62.4457 123.814 61.8576 125.373 62.7694C126.255 63.3409 126.979 64.1247 127.479 65.049L126.526 65.8013C126.286 65.2292 125.895 64.7329 125.396 64.3651Z" fill="#A8C8FF"/>
<path id="Vector_30" d="M131.975 66.6404V68.1404L130.552 67.3198V71.5827L128.906 70.6298V66.3806L127.493 65.5645V64.0645L131.975 66.6404Z" fill="#A8C8FF"/>
<path id="Vector_31" d="M136.84 73.6971C137.245 73.9296 137.555 73.7473 137.555 73.1773V69.8628L139.206 70.8111V74.1257C139.206 75.653 138.294 76.1089 136.835 75.2746C136.132 74.8843 135.541 74.32 135.119 73.6358C134.697 72.9517 134.457 72.1706 134.423 71.3673V68.0527L136.074 69.0056V72.3202C136.08 72.5946 136.153 72.8634 136.286 73.1033C136.42 73.3432 136.61 73.547 136.84 73.6971Z" fill="#A8C8FF"/>
<path id="Vector_32" d="M141.864 73.7155C141.677 73.6106 141.558 73.606 141.558 73.7793C141.558 74.4997 144.134 75.5392 144.134 77.6227C144.134 78.8993 143.163 78.9039 142.041 78.2565C141.055 77.6524 140.206 76.8496 139.547 75.8993L140.158 74.8234C140.66 75.5996 141.303 76.274 142.055 76.8112C142.297 76.9525 142.452 76.9525 142.452 76.7474C142.452 75.9996 139.871 75.0057 139.871 72.986C139.871 71.837 140.71 71.6182 142.005 72.3477C142.839 72.8522 143.573 73.5059 144.171 74.2762L143.573 75.3796C143.08 74.7513 142.505 74.1916 141.864 73.7155Z" fill="#A8C8FF"/>
</g>
<g id="freepik--speech-bubble--inject-212">
<path id="Vector_33" d="M91.5388 77.9361C93.3887 75.6641 94.3199 72.7812 94.1486 69.8563C93.9774 66.9314 92.7162 64.1769 90.6138 62.1363C88.5114 60.0956 85.7206 58.917 82.7919 58.8329C79.8632 58.7489 77.0093 59.7656 74.7934 61.6823C72.5775 63.5991 71.1604 66.2767 70.8217 69.187C70.483 72.0972 71.2474 75.0287 72.964 77.4031C74.6805 79.7775 77.2247 81.4223 80.0944 82.0131C82.9641 82.6038 85.951 82.0975 88.4658 80.5942L94.174 83.0744L91.5388 77.9361Z" fill="#A8C8FF"/>
<path id="Vector_34" opacity="0.4" d="M91.5388 77.9361C93.3887 75.6641 94.3199 72.7812 94.1486 69.8563C93.9774 66.9314 92.7162 64.1769 90.6138 62.1363C88.5114 60.0956 85.7206 58.917 82.7919 58.8329C79.8632 58.7489 77.0093 59.7656 74.7934 61.6823C72.5775 63.5991 71.1604 66.2767 70.8217 69.187C70.483 72.0972 71.2474 75.0287 72.964 77.4031C74.6805 79.7775 77.2247 81.4223 80.0944 82.0131C82.9641 82.6038 85.951 82.0975 88.4658 80.5942L94.174 83.0744L91.5388 77.9361Z" fill="#101114"/>
<path id="Vector_35" d="M78.1162 69.9115C78.1162 69.7337 77.9885 69.6334 77.756 69.6334C77.2167 69.7041 76.7129 69.9416 76.3153 70.3128L75.6678 69.0544C76.3493 68.5416 77.1726 68.2518 78.025 68.2246C79.1192 68.2246 79.949 68.7991 79.949 69.6562C79.949 70.2672 79.4931 70.8553 78.9095 71.4434L78.0934 72.2504H80.0219V73.5909H75.8776V72.4921L77.7241 70.5817C77.9229 70.4059 78.0603 70.171 78.1162 69.9115Z" fill="white"/>
<path id="Vector_36" d="M83.3959 68.3027L82.1375 71.321H82.6527V70.3042H84.2393V71.321H84.8412V72.5656H84.2393V73.5915H82.6527V72.5656H80.3959V71.4349L81.7637 68.3027H83.3959Z" fill="white"/>
<path id="Vector_37" d="M89.7378 70.959V73.5897H88.0417V71.4468C88.0515 71.377 88.0462 71.306 88.0262 71.2384C88.0062 71.1709 87.9719 71.1084 87.9256 71.0552C87.8794 71.0021 87.8223 70.9595 87.7581 70.9303C87.694 70.9011 87.6244 70.886 87.5539 70.886C87.2211 70.886 87.0114 71.1459 87.0114 71.5471V73.5897H85.3153V68H87.0114V70.0562C87.144 69.8465 87.3289 69.6749 87.5479 69.5582C87.7669 69.4415 88.0125 69.3837 88.2606 69.3906C88.4639 69.3853 88.666 69.4231 88.8537 69.5013C89.0414 69.5795 89.2105 69.6964 89.3499 69.8445C89.4893 69.9925 89.5959 70.1683 89.6628 70.3603C89.7296 70.5524 89.7552 70.7564 89.7378 70.959Z" fill="white"/>
</g>
<g id="freepik--Character--inject-212">
<path id="Vector_38" d="M145.042 113.324V169.973C145.043 170.614 144.875 171.244 144.555 171.799C144.235 172.354 143.775 172.815 143.22 173.136C142.666 173.457 142.036 173.626 141.396 173.626C140.755 173.626 140.125 173.458 139.571 173.137L109.06 155.52L103.653 152.402C101.791 151.325 100.244 149.779 99.1671 147.917C98.0902 146.055 97.5208 143.943 97.516 141.792V85.1391C97.515 84.4984 97.6829 83.8688 98.0026 83.3135C98.3224 82.7583 98.7827 82.2971 99.3374 81.9763C99.892 81.6556 100.521 81.4866 101.162 81.4863C101.803 81.4861 102.432 81.6546 102.987 81.975L138.914 102.715C140.777 103.79 142.324 105.336 143.399 107.199C144.475 109.061 145.041 111.174 145.042 113.324Z" fill="#A8C8FF"/>
<path id="Vector_39" opacity="0.5" d="M145.042 113.324V169.973C145.043 170.614 144.875 171.244 144.555 171.799C144.235 172.354 143.775 172.815 143.22 173.136C142.666 173.457 142.036 173.626 141.396 173.626C140.755 173.626 140.125 173.458 139.571 173.137L109.06 155.52L103.653 152.402C101.791 151.325 100.244 149.779 99.1671 147.917C98.0902 146.055 97.5208 143.943 97.516 141.792V85.1391C97.515 84.4984 97.6829 83.8688 98.0026 83.3135C98.3224 82.7583 98.7827 82.2971 99.3374 81.9763C99.892 81.6556 100.521 81.4866 101.162 81.4863C101.803 81.4861 102.432 81.6546 102.987 81.975L138.914 102.715C140.777 103.79 142.324 105.336 143.399 107.199C144.475 109.061 145.041 111.174 145.042 113.324Z" fill="white"/>
<path id="Vector_40" d="M127.466 146.844C127.466 146.844 133.179 156.318 129.053 167L109.047 155.52L127.466 146.844Z" fill="#263238"/>
<path id="Vector_41" d="M136.576 104.276C137.009 100.765 134.513 97.5681 131.001 97.1358C127.49 96.7034 124.293 99.1993 123.861 102.711C123.428 106.222 125.924 109.419 129.436 109.851C132.947 110.284 136.144 107.788 136.576 104.276Z" fill="#263238"/>
<path id="Vector_42" d="M130.252 85.5258C130.252 85.5258 132.217 82.3343 132.819 82.5668C133.421 82.7993 132.427 85.8403 132.427 85.8403C132.427 85.8403 135.399 86.4604 134.848 87.2081C134.296 87.9558 130.662 87.778 130.662 87.778L130.252 85.5258Z" fill="#263238"/>
<path id="Vector_43" d="M131.619 93.7513C130.252 104.028 121.589 104.028 121.589 104.028L103.443 96.0401C103.443 96.0401 102.075 94.841 101.656 92.0872C101.495 90.9592 101.495 89.814 101.656 88.686C101.656 88.686 101.656 88.6632 101.656 88.6541C102.235 84.3319 105.468 79.686 112.507 78.259C114.05 77.9475 115.62 77.7947 117.194 77.8031C117.955 77.8004 118.716 77.8384 119.474 77.917C124.945 78.455 128.779 81.0082 130.607 84.9793C131.018 85.8756 131.324 86.8165 131.519 87.7833C131.89 89.7526 131.924 91.7707 131.619 93.7513Z" fill="#263238"/>
<path id="Vector_44" d="M88.0556 113.63C88.0556 113.63 81.6134 113.406 79.1332 119.685C79.1332 119.685 81.8687 121.531 85.4569 119.685C89.045 117.838 88.0556 113.63 88.0556 113.63Z" fill="#A8C8FF"/>
<path id="Vector_45" opacity="0.5" d="M88.0556 113.63C88.0556 113.63 81.6134 113.406 79.1332 119.685C79.1332 119.685 81.8687 121.531 85.4569 119.685C89.045 117.838 88.0556 113.63 88.0556 113.63Z" fill="#101114"/>
<path id="Vector_46" d="M87.8733 116.655C87.8733 116.655 86.0496 108.731 85.0876 108.635C84.1256 108.539 83.9387 111.051 84.0162 112.469L81.7366 107.563C81.6643 107.411 81.5615 107.275 81.4346 107.164C81.3077 107.053 81.1594 106.969 80.9987 106.917C80.8381 106.865 80.6686 106.847 80.5007 106.863C80.3328 106.88 80.1699 106.93 80.0223 107.012C77.7427 108.266 73.7442 112.077 82.1743 121.501L87.8733 116.655Z" fill="#945959"/>
<path id="Vector_47" d="M111.217 111.174L109.849 110.996C108.471 110.813 107.068 111 105.786 111.539C104.504 112.077 103.389 112.947 102.554 114.06L94.4159 124.892L88.0329 113.631C88.0329 113.631 87.267 121.291 79.1105 119.686L87.8688 134.426C88.4231 135.359 89.1946 136.144 90.1176 136.715C91.0407 137.286 92.088 137.626 93.1704 137.705C94.2529 137.784 95.3385 137.601 96.3348 137.17C97.3312 136.74 98.2088 136.075 98.8931 135.233L106.389 126.018L111.217 111.174Z" fill="#A8C8FF"/>
<path id="Vector_48" d="M128.588 136.454C126.764 141.077 126.563 141.98 127.676 144.291C128.451 145.998 129.061 147.775 129.5 149.598C129.5 149.598 121.047 159.072 109.015 155.525L103.607 152.407C102.483 151.758 101.47 150.933 100.607 149.963L102.253 137.689C102.336 137.043 102.271 136.387 102.062 135.77L100.334 130.705C99.4907 128.231 99.3652 125.568 99.972 123.026C100.579 120.484 101.893 118.165 103.762 116.338L109.571 110.662L124.826 112.613L127.106 113.265C128.598 113.697 129.885 114.653 130.729 115.957C131.573 117.261 131.919 118.826 131.702 120.364C130.954 125.744 129.732 133.55 128.588 136.454Z" fill="#A8C8FF"/>
<path id="Vector_49" opacity="0.5" d="M128.588 136.454C126.764 141.077 126.563 141.98 127.676 144.291C128.451 145.998 129.061 147.775 129.5 149.598C129.5 149.598 121.047 159.072 109.015 155.525L103.607 152.407C102.483 151.758 101.47 150.933 100.607 149.963L102.253 137.689C102.336 137.043 102.271 136.387 102.062 135.77L100.334 130.705C99.4907 128.231 99.3652 125.568 99.972 123.026C100.579 120.484 101.893 118.165 103.762 116.338L109.571 110.662L124.826 112.613L127.106 113.265C128.598 113.697 129.885 114.653 130.729 115.957C131.573 117.261 131.919 118.826 131.702 120.364C130.954 125.744 129.732 133.55 128.588 136.454Z" fill="#101114"/>
<path id="Vector_50" d="M119.387 122.644L116.332 120.041C116.009 119.764 115.618 119.577 115.2 119.497C114.782 119.417 114.35 119.447 113.948 119.585L110.255 120.857L109.758 118.787C109.68 118.465 109.538 118.162 109.34 117.897C109.142 117.631 108.893 117.408 108.607 117.242C108.32 117.075 108.003 116.968 107.674 116.927C107.346 116.887 107.012 116.913 106.694 117.005L105.094 117.461L107.802 112.272C108.686 110.582 110.048 109.19 111.718 108.269L112.78 107.686L121.557 108.141C121.557 108.141 124.826 109.509 124.826 112.587L119.387 122.617" fill="#A8C8FF"/>
<path id="Vector_51" d="M121.594 112.03L112.794 118.887V97.0527H121.594V112.03Z" fill="#945959"/>
<path id="Vector_52" d="M112.931 110.229L110.255 120.874L121.557 112.029L112.931 110.229Z" fill="#945959"/>
<path id="Vector_53" d="M112.794 108.647C114.751 107.92 116.539 106.804 118.051 105.365C119.563 103.926 120.767 102.195 121.589 100.276V97.0527H112.79L112.794 108.647Z" fill="#703838"/>
<path id="Vector_54" d="M114.691 80.8711C111.353 80.8711 104.259 82.7313 103.439 91.4668C102.618 100.202 103.411 106.968 107.916 107.625C112.42 108.281 122.888 105.012 124.293 93.7054C125.697 82.3984 117.942 80.8711 114.691 80.8711Z" fill="#945959"/>
<path id="Vector_55" d="M109.439 95.166V100.313L106.42 99.3879L109.439 95.166Z" fill="#703838"/>
<path id="Vector_56" d="M112.794 97.1012C113.373 97.1012 113.843 96.6317 113.843 96.0525C113.843 95.4734 113.373 95.0039 112.794 95.0039C112.215 95.0039 111.745 95.4734 111.745 96.0525C111.745 96.6317 112.215 97.1012 112.794 97.1012Z" fill="#263238"/>
<path id="Vector_57" d="M106.94 95.3247C106.939 95.5319 106.877 95.7342 106.761 95.906C106.645 96.0779 106.481 96.2116 106.29 96.2902C106.098 96.3689 105.887 96.389 105.684 96.348C105.481 96.3071 105.295 96.2068 105.148 96.06C105.002 95.9132 104.903 95.7263 104.863 95.523C104.823 95.3197 104.844 95.1091 104.923 94.9178C105.003 94.7264 105.137 94.5629 105.309 94.4479C105.482 94.3329 105.684 94.2715 105.892 94.2715C106.03 94.2715 106.166 94.2988 106.294 94.3517C106.421 94.4047 106.537 94.4824 106.635 94.5802C106.732 94.6781 106.809 94.7942 106.862 94.922C106.914 95.0497 106.941 95.1866 106.94 95.3247Z" fill="#263238"/>
<path id="Vector_58" d="M104.61 93.1366L106.662 91.9193C106.662 91.9193 105.878 91.1032 105.093 91.591C104.309 92.0789 104.61 93.1366 104.61 93.1366Z" fill="#263238"/>
<path id="Vector_59" d="M108.021 102.401C109.02 102.474 110.014 102.208 110.843 101.645C110.843 101.645 111.039 103.135 109.789 103.418C108.54 103.701 108.021 102.401 108.021 102.401Z" fill="#703838"/>
<path id="Vector_60" d="M106.229 83.8432C106.229 83.8432 107.483 95.9024 123.882 96.2809C123.882 96.2809 128.838 84.2946 119.045 80.401C109.252 76.5074 106.229 83.8432 106.229 83.8432Z" fill="#263238"/>
<path id="Vector_61" d="M128.711 94.4774L126.695 93.3102C125.929 92.8543 124.872 92.9182 123.7 93.5929C121.375 94.9333 119.487 98.2023 119.487 100.888C119.487 102.233 119.943 103.167 120.727 103.623L122.706 104.763L122.82 104.827L122.888 104.868C123.636 105.233 124.635 105.146 125.733 104.512C128.059 103.145 129.946 99.9029 129.946 97.2175C129.932 95.8589 129.463 94.9197 128.711 94.4774Z" fill="#A8C8FF"/>
<path id="Vector_62" d="M128.694 101.344C130.339 98.4956 130.339 95.4173 128.695 94.468C127.05 93.5187 124.385 95.0579 122.74 97.9058C121.096 100.754 121.096 103.832 122.74 104.781C124.384 105.731 127.05 104.191 128.694 101.344Z" fill="#A8C8FF"/>
<path id="Vector_63" opacity="0.5" d="M128.694 101.344C130.339 98.4956 130.339 95.4173 128.695 94.468C127.05 93.5187 124.385 95.0579 122.74 97.9058C121.096 100.754 121.096 103.832 122.74 104.781C124.384 105.731 127.05 104.191 128.694 101.344Z" fill="#101114"/>
<path id="Vector_64" d="M129.517 97.0055L128.149 96.2076C127.63 95.8976 126.905 95.9386 126.102 96.3991C125.264 96.9469 124.566 97.6842 124.066 98.5515C123.565 99.4188 123.276 100.392 123.221 101.391C123.221 102.303 123.545 102.955 124.069 103.256L125.437 104.036C125.461 104.054 125.487 104.069 125.514 104.081L125.56 104.109C125.88 104.23 126.226 104.272 126.566 104.229C126.906 104.186 127.231 104.06 127.511 103.863C128.349 103.315 129.046 102.579 129.546 101.712C130.047 100.846 130.337 99.8738 130.393 98.8748C130.356 97.9493 130.037 97.3064 129.517 97.0055Z" fill="#A8C8FF"/>
<path id="Vector_65" d="M130.357 98.866C130.301 99.865 130.011 100.837 129.511 101.703C129.01 102.57 128.313 103.306 127.475 103.854C125.879 104.766 124.589 104.027 124.589 102.19C124.643 101.19 124.933 100.217 125.434 99.3499C125.936 98.4831 126.635 97.747 127.475 97.2018C129.066 96.2808 130.357 97.024 130.357 98.866Z" fill="#A8C8FF"/>
<path id="Vector_66" opacity="0.3" d="M130.357 98.866C130.301 99.865 130.011 100.837 129.511 101.703C129.01 102.57 128.313 103.306 127.475 103.854C125.879 104.766 124.589 104.027 124.589 102.19C124.643 101.19 124.933 100.217 125.434 99.3499C125.936 98.4831 126.635 97.747 127.475 97.2018C129.066 96.2808 130.357 97.024 130.357 98.866Z" fill="#101114"/>
<path id="Vector_67" d="M122.451 78.519C121.144 77.5095 119.543 76.954 117.891 76.937H117.486C115.813 76.919 114.144 77.0717 112.502 77.3929C112.803 77.3929 113.104 77.3929 113.414 77.3929H112.502V78.2409H113.35C116.273 78.3403 119.043 79.5723 121.073 81.6763C123.104 83.7804 124.237 86.5917 124.233 89.516V93.1041C124.233 93.2459 124.263 93.3862 124.321 93.5158C124.378 93.6455 124.462 93.7616 124.568 93.8566C124.673 93.9516 124.797 94.0234 124.932 94.0673C125.067 94.1113 125.209 94.1264 125.35 94.1117H125.455L126.367 93.829C126.306 93.8482 126.244 93.8604 126.18 93.8655C126.452 93.8286 126.701 93.693 126.879 93.4844C127.057 93.2759 127.153 93.0091 127.147 92.7348V89.4065C127.138 83.3838 124.534 80.1467 122.451 78.519Z" fill="#A8C8FF"/>
<path id="Vector_68" d="M116.71 107.376C116.334 107.376 115.963 107.295 115.621 107.139L112.771 105.821C112.727 105.805 112.686 105.78 112.651 105.748C112.617 105.715 112.59 105.676 112.571 105.632C112.553 105.589 112.544 105.542 112.544 105.494C112.545 105.447 112.555 105.4 112.575 105.357C112.595 105.314 112.623 105.276 112.658 105.244C112.694 105.213 112.735 105.189 112.78 105.174C112.825 105.159 112.873 105.154 112.92 105.159C112.967 105.164 113.013 105.178 113.054 105.201L115.903 106.519C116.267 106.688 116.674 106.739 117.068 106.665C117.462 106.592 117.823 106.397 118.101 106.108L120.836 103.282C120.901 103.218 120.988 103.182 121.078 103.182C121.169 103.182 121.256 103.218 121.32 103.282C121.383 103.346 121.418 103.433 121.418 103.523C121.418 103.614 121.383 103.7 121.32 103.765L118.584 106.592C118.341 106.842 118.049 107.04 117.727 107.175C117.405 107.31 117.059 107.378 116.71 107.376Z" fill="#A8C8FF"/>
<path id="Vector_69" opacity="0.5" d="M116.71 107.376C116.334 107.376 115.963 107.295 115.621 107.139L112.771 105.821C112.727 105.805 112.686 105.78 112.651 105.748C112.617 105.715 112.59 105.676 112.571 105.632C112.553 105.589 112.544 105.542 112.544 105.494C112.545 105.447 112.555 105.4 112.575 105.357C112.595 105.314 112.623 105.276 112.658 105.244C112.694 105.213 112.735 105.189 112.78 105.174C112.825 105.159 112.873 105.154 112.92 105.159C112.967 105.164 113.013 105.178 113.054 105.201L115.903 106.519C116.267 106.688 116.674 106.739 117.068 106.665C117.462 106.592 117.823 106.397 118.101 106.108L120.836 103.282C120.901 103.218 120.988 103.182 121.078 103.182C121.169 103.182 121.256 103.218 121.32 103.282C121.383 103.346 121.418 103.433 121.418 103.523C121.418 103.614 121.383 103.7 121.32 103.765L118.584 106.592C118.341 106.842 118.049 107.04 117.727 107.175C117.405 107.31 117.059 107.378 116.71 107.376Z" fill="#101114"/>
<path id="Vector_70" d="M113.519 104.863C113.519 105.126 113.441 105.383 113.295 105.602C113.149 105.821 112.941 105.992 112.697 106.093C112.454 106.193 112.187 106.22 111.928 106.168C111.67 106.117 111.433 105.99 111.247 105.804C111.06 105.618 110.934 105.381 110.882 105.122C110.831 104.864 110.857 104.596 110.958 104.353C111.059 104.11 111.229 103.902 111.448 103.756C111.667 103.609 111.925 103.531 112.188 103.531C112.541 103.531 112.88 103.672 113.129 103.921C113.379 104.171 113.519 104.509 113.519 104.863Z" fill="#A8C8FF"/>
<path id="Vector_71" opacity="0.5" d="M113.519 104.863C113.519 105.126 113.441 105.383 113.295 105.602C113.149 105.821 112.941 105.992 112.697 106.093C112.454 106.193 112.187 106.22 111.928 106.168C111.67 106.117 111.433 105.99 111.247 105.804C111.06 105.618 110.934 105.381 110.882 105.122C110.831 104.864 110.857 104.596 110.958 104.353C111.059 104.11 111.229 103.902 111.448 103.756C111.667 103.609 111.925 103.531 112.188 103.531C112.541 103.531 112.88 103.672 113.129 103.921C113.379 104.171 113.519 104.509 113.519 104.863Z" fill="#101114"/>
<path id="Vector_72" d="M127.138 89.4059V92.7341C127.143 93.0084 127.048 93.2753 126.87 93.4838C126.692 93.6923 126.443 93.828 126.171 93.8648C126.021 93.8808 125.869 93.865 125.725 93.8185C125.582 93.7719 125.449 93.6956 125.337 93.5945C125.225 93.4935 125.135 93.3699 125.074 93.2319C125.012 93.0939 124.981 92.9445 124.981 92.7934V89.4059C124.984 87.7892 124.659 86.1886 124.027 84.7006C123.395 83.2125 122.468 81.8677 121.303 80.7471C120.138 79.6265 118.758 78.7532 117.246 78.1798C115.734 77.6064 114.122 77.3447 112.507 77.4105C114.148 77.0893 115.818 76.9365 117.49 76.9546H117.887C119.538 76.9716 121.139 77.5271 122.446 78.5366C124.534 80.146 127.138 83.3831 127.138 89.4059Z" fill="#A8C8FF"/>
<path id="Vector_73" opacity="0.5" d="M127.138 89.4059V92.7341C127.143 93.0084 127.048 93.2753 126.87 93.4838C126.692 93.6923 126.443 93.828 126.171 93.8648C126.021 93.8808 125.869 93.865 125.725 93.8185C125.582 93.7719 125.449 93.6956 125.337 93.5945C125.225 93.4935 125.135 93.3699 125.074 93.2319C125.012 93.0939 124.981 92.9445 124.981 92.7934V89.4059C124.984 87.7892 124.659 86.1886 124.027 84.7006C123.395 83.2125 122.468 81.8677 121.303 80.7471C120.138 79.6265 118.758 78.7532 117.246 78.1798C115.734 77.6064 114.122 77.3447 112.507 77.4105C114.148 77.0893 115.818 76.9365 117.49 76.9546H117.887C119.538 76.9716 121.139 77.5271 122.446 78.5366C124.534 80.146 127.138 83.3831 127.138 89.4059Z" fill="#101114"/>
<path id="Vector_74" d="M122.013 152.128C122.013 152.128 119.806 158.205 127.694 160.941C127.694 160.941 130.27 157.157 127.694 154.061C125.118 150.965 122.013 152.128 122.013 152.128Z" fill="#A8C8FF"/>
<path id="Vector_75" opacity="0.7" d="M122.013 152.128C122.013 152.128 119.806 158.205 127.694 160.941C127.694 160.941 130.27 157.157 127.694 154.061C125.118 150.965 122.013 152.128 122.013 152.128Z" fill="#101114"/>
<path id="Vector_76" d="M124.78 152.406C124.78 152.406 117.075 155.228 117.116 156.323C117.157 157.417 120.39 156.669 120.39 156.669L119.209 157.444C117.966 158.256 117.002 159.43 116.451 160.809C116.33 161.113 116.326 161.451 116.439 161.757C116.552 162.064 116.773 162.319 117.062 162.473L119.989 164.023C120.154 164.111 120.335 164.165 120.522 164.181C120.708 164.197 120.896 164.176 121.074 164.119C121.252 164.062 121.417 163.969 121.558 163.847C121.7 163.725 121.816 163.575 121.899 163.408C122.062 163.085 122.288 162.799 122.562 162.564C122.837 162.329 123.155 162.151 123.499 162.04C125.09 161.511 128.059 159.988 129.248 155.821L124.78 152.406Z" fill="#945959"/>
<path id="Vector_77" d="M127.092 113.256C127.092 113.256 122.989 115.535 125.168 122.456C127.347 129.377 131.437 140.114 131.437 140.114L122.013 152.128C123.02 152.25 123.99 152.582 124.859 153.104C125.729 153.625 126.479 154.324 127.06 155.155C127.617 156.001 127.965 156.966 128.075 157.972C128.185 158.978 128.054 159.996 127.694 160.941L139.393 145.896C140.475 144.505 141.193 142.867 141.483 141.129C141.773 139.392 141.625 137.609 141.053 135.943L136.037 121.298C135.424 119.51 134.406 117.887 133.061 116.557C131.716 115.228 130.082 114.227 128.287 113.634L127.092 113.256Z" fill="#A8C8FF"/>
</g>
<g id="freepik--Icons--inject-212">
<path id="Vector_78" d="M57.8276 72.3736L39.6954 61.8873C39.4868 61.7427 39.2453 61.6523 38.993 61.6245C38.7407 61.5966 38.4853 61.6321 38.2501 61.7277C38.2006 61.7506 38.1533 61.7781 38.1088 61.8098L34.1651 64.1213H34.1924C33.6954 64.404 33.3809 65.0605 33.3809 65.9997V86.1699C33.3809 87.875 34.4158 89.8583 35.697 90.5969L53.8291 101.083C54.0592 101.25 54.3331 101.345 54.6167 101.357C54.9004 101.369 55.1814 101.298 55.4249 101.152C55.4125 101.157 55.4016 101.164 55.393 101.174L59.3094 98.8948C59.82 98.6212 60.1437 97.9556 60.1437 97.0027V76.8006C60.1437 75.0954 59.127 73.1122 57.8276 72.3736Z" fill="#A8C8FF"/>
<path id="Vector_79" d="M59.4964 74.2839C59.1296 73.5037 58.5515 72.8419 57.8277 72.3736L39.6955 61.8873C39.4869 61.7427 39.2455 61.6523 38.9931 61.6245C38.7408 61.5966 38.4854 61.6321 38.2503 61.7277C38.2007 61.7506 38.1534 61.7781 38.1089 61.8098L34.1652 64.1213C34.4064 63.998 34.6769 63.9434 34.9471 63.9635C35.2173 63.9836 35.4767 64.0776 35.6971 64.2353L53.8292 74.7216C54.5776 75.2109 55.1708 75.9037 55.539 76.7185L59.4964 74.2839Z" fill="#A8C8FF"/>
<path id="Vector_80" d="M56.1453 99.3109C56.1453 100.223 55.8536 100.857 55.3931 101.135L59.3095 98.855C59.8201 98.5814 60.1438 97.9158 60.1438 96.9629V76.8019C60.1245 75.9243 59.903 75.0631 59.4964 74.2852L55.539 76.7198C55.9189 77.4748 56.1261 78.3049 56.1453 79.1499V99.3109Z" fill="#A8C8FF"/>
<path id="Vector_81" opacity="0.3" d="M59.4964 74.2839C59.1296 73.5037 58.5515 72.8419 57.8277 72.3736L39.6955 61.8873C39.4869 61.7427 39.2455 61.6523 38.9931 61.6245C38.7408 61.5966 38.4854 61.6321 38.2503 61.7277C38.2007 61.7506 38.1534 61.7781 38.1089 61.8098L34.1652 64.1213C34.4064 63.998 34.6769 63.9434 34.9471 63.9635C35.2173 63.9836 35.4767 64.0776 35.6971 64.2353L53.8292 74.7216C54.5776 75.2109 55.1708 75.9037 55.539 76.7185L59.4964 74.2839Z" fill="#101114"/>
<path id="Vector_82" opacity="0.6" d="M56.1453 99.3109C56.1453 100.223 55.8536 100.857 55.3931 101.135L59.3095 98.855C59.8201 98.5814 60.1438 97.9158 60.1438 96.9629V76.8019C60.1245 75.9243 59.903 75.0631 59.4964 74.2852L55.539 76.7198C55.9189 77.4748 56.1261 78.3049 56.1453 79.1499V99.3109Z" fill="#101114"/>
<path id="Vector_83" d="M50.829 84.9267C50.829 87.5391 49.794 88.4282 48.2439 87.53C47.8163 87.2865 47.4423 86.9591 47.1446 86.5673C46.8468 86.1755 46.6314 85.7276 46.5114 85.2504C46.0554 85.8112 45.3488 85.8476 44.3548 85.2732C42.7226 84.3294 41.4369 82.0817 41.4369 79.8978C41.4369 77.7139 42.7089 76.9616 44.3548 77.91C45.19 78.4022 45.8646 79.1259 46.2971 79.9935V79.1318L48.0159 80.1258V84.8492C47.9903 85.0977 48.0333 85.3486 48.1402 85.5744C48.2471 85.8003 48.4138 85.9925 48.6223 86.1303C49.2013 86.4677 49.5569 85.8978 49.5569 84.2063C49.5569 81.2473 47.6603 78.1106 44.8564 76.492C42.0524 74.8735 40.1603 75.9996 40.1603 79.0452C40.1971 80.6613 40.6424 82.2418 41.4547 83.6393C42.2671 85.0368 43.4201 86.2059 44.8062 87.0376C45.5588 87.5012 46.4135 87.7736 47.2956 87.8309L47.7013 89.4039C46.6742 89.321 45.6817 88.9943 44.8062 88.451C41.1588 86.34 38.7469 82.0908 38.7469 78.2428C38.7469 74.3948 41.1816 72.9997 44.8564 75.1243C48.408 77.1714 50.829 81.2701 50.829 84.9267ZM46.3244 82.7337C46.3333 82.1555 46.1922 81.585 45.915 81.0776C45.6377 80.5702 45.2337 80.1433 44.7424 79.8385C43.8305 79.3051 43.1785 79.679 43.1785 80.9191C43.1668 81.4982 43.3046 82.0705 43.5785 82.5808C43.8524 83.0911 44.2533 83.5222 44.7424 83.8324C45.6542 84.3476 46.3244 84.0148 46.3244 82.7337Z" fill="#A8C8FF"/>
<g id="Group" opacity="0.9">
<path id="Vector_84" d="M50.8289 84.9267C50.8289 87.5391 49.7939 88.4282 48.2438 87.53C47.8161 87.2865 47.4422 86.9591 47.1445 86.5673C46.8467 86.1755 46.6313 85.7276 46.5112 85.2504C46.0553 85.8112 45.3486 85.8476 44.3547 85.2732C42.7225 84.3294 41.4368 82.0817 41.4368 79.8978C41.4368 77.7139 42.7088 76.9616 44.3547 77.91C45.1899 78.4022 45.8645 79.1259 46.297 79.9935V79.1318L48.0158 80.1258V84.8492C47.9902 85.0977 48.0332 85.3486 48.1401 85.5744C48.247 85.8003 48.4137 85.9925 48.6222 86.1303C49.2012 86.4677 49.5568 85.8978 49.5568 84.2063C49.5568 81.2473 47.6602 78.1106 44.8562 76.492C42.0523 74.8735 40.1602 75.9996 40.1602 79.0452C40.1969 80.6613 40.6422 82.2418 41.4546 83.6393C42.267 85.0368 43.42 86.2059 44.8061 87.0376C45.5587 87.5012 46.4133 87.7736 47.2954 87.8309L47.7012 89.4039C46.6741 89.321 45.6816 88.9943 44.8061 88.451C41.1587 86.34 38.7468 82.0908 38.7468 78.2428C38.7468 74.3948 41.1815 72.9997 44.8562 75.1243C48.4079 77.1714 50.8289 81.2701 50.8289 84.9267ZM46.3243 82.7337C46.3332 82.1555 46.1921 81.585 45.9148 81.0776C45.6376 80.5702 45.2336 80.1433 44.7422 79.8385C43.8304 79.3051 43.1784 79.679 43.1784 80.9191C43.1667 81.4982 43.3044 82.0705 43.5784 82.5808C43.8523 83.0911 44.2532 83.5222 44.7422 83.8324C45.6541 84.3476 46.3243 84.0148 46.3243 82.7337Z" fill="white"/>
</g>
<path id="Vector_85" d="M57.8276 108.293L39.6954 97.8067C39.4871 97.6613 39.2453 97.5709 38.9927 97.5438C38.74 97.5167 38.4846 97.5538 38.2501 97.6517C38.2006 97.6746 38.1533 97.7021 38.1088 97.7338L34.1651 100.045H34.1924C33.6954 100.328 33.3809 100.985 33.3809 101.919V122.08C33.3809 123.79 34.4158 125.769 35.697 126.507L53.8291 136.994C54.0587 137.161 54.3327 137.257 54.6167 137.269C54.9006 137.281 55.1818 137.209 55.4249 137.062L55.393 137.089L59.3094 134.787C59.82 134.518 60.1437 133.875 60.1437 132.895V112.716C60.1437 111.01 59.127 109.032 57.8276 108.293Z" fill="#A8C8FF"/>
<path id="Vector_86" d="M59.4964 110.203C59.1308 109.422 58.5525 108.76 57.8277 108.293L39.6955 97.8067C39.4872 97.6613 39.2454 97.5709 38.9928 97.5438C38.7401 97.5167 38.4847 97.5538 38.2503 97.6517C38.2007 97.6746 38.1534 97.7021 38.1089 97.7338L34.1652 100.045C34.4059 99.9209 34.6762 99.8652 34.9465 99.8845C35.2168 99.9038 35.4765 99.9973 35.6971 100.155L53.8292 110.641C54.5788 111.131 55.1722 111.826 55.539 112.643L59.4964 110.203Z" fill="#A8C8FF"/>
<path id="Vector_87" d="M56.1453 135.224C56.1453 136.136 55.8536 136.77 55.3931 137.071L59.3095 134.768C59.8201 134.499 60.1438 133.857 60.1438 132.876V112.715C60.1245 111.839 59.9029 110.979 59.4964 110.203L55.539 112.638C55.9188 113.391 56.126 114.22 56.1453 115.063V135.224Z" fill="#A8C8FF"/>
<path id="Vector_88" opacity="0.3" d="M59.4964 110.203C59.1308 109.422 58.5525 108.76 57.8277 108.293L39.6955 97.8067C39.4872 97.6613 39.2454 97.5709 38.9928 97.5438C38.7401 97.5167 38.4847 97.5538 38.2503 97.6517C38.2007 97.6746 38.1534 97.7021 38.1089 97.7338L34.1652 100.045C34.4059 99.9209 34.6762 99.8652 34.9465 99.8845C35.2168 99.9038 35.4765 99.9973 35.6971 100.155L53.8292 110.641C54.5788 111.131 55.1722 111.826 55.539 112.643L59.4964 110.203Z" fill="#101114"/>
<path id="Vector_89" opacity="0.6" d="M56.1453 135.224C56.1453 136.136 55.8536 136.77 55.3931 137.071L59.3095 134.768C59.8201 134.499 60.1438 133.857 60.1438 132.876V112.715C60.1245 111.839 59.9029 110.979 59.4964 110.203L55.539 112.638C55.9188 113.391 56.126 114.22 56.1453 115.063V135.224Z" fill="#101114"/>
<path id="Vector_90" d="M42.7366 117.306L38.3643 110.203V119.828L42.7366 117.306Z" fill="#A8C8FF"/>
<path id="Vector_91" d="M46.7987 119.353L51.1619 126.908V117.297L46.7987 119.353Z" fill="#A8C8FF"/>
<path id="Vector_92" d="M39.0251 109.879L43.516 117.174C43.535 117.19 43.5519 117.208 43.5662 117.228C43.5701 117.246 43.5701 117.265 43.5662 117.283L44.902 119.453L46.0327 118.92C46.0503 118.901 46.0702 118.884 46.092 118.87C46.1366 118.844 46.1864 118.828 46.2379 118.824L50.7971 116.686L39.0251 109.879Z" fill="#A8C8FF"/>
<path id="Vector_93" d="M46.1377 119.663L44.9158 120.237C44.8687 120.259 44.8173 120.27 44.7653 120.269C44.7024 120.27 44.6404 120.254 44.5852 120.224C44.5301 120.194 44.4838 120.15 44.4507 120.096L43.1149 117.926L38.7289 120.461L50.5328 127.272L46.1377 119.663Z" fill="#A8C8FF"/>
<g id="Group_2" opacity="0.9">
<path id="Vector_94" d="M42.7372 117.306L38.3649 110.203V119.828L42.7372 117.306Z" fill="white"/>
<path id="Vector_95" d="M46.7993 119.351L51.1625 126.906V117.295L46.7993 119.351Z" fill="white"/>
<path id="Vector_96" d="M39.0262 109.879L43.5171 117.174C43.5361 117.19 43.553 117.208 43.5673 117.228C43.5712 117.246 43.5712 117.265 43.5673 117.283L44.9031 119.453L46.0338 118.92C46.0514 118.901 46.0713 118.884 46.0931 118.87C46.1377 118.844 46.1875 118.828 46.239 118.824L50.7982 116.686L39.0262 109.879Z" fill="white"/>
<path id="Vector_97" d="M46.1382 119.663L44.9163 120.237C44.8692 120.259 44.8178 120.27 44.7658 120.269C44.7029 120.27 44.6409 120.254 44.5857 120.224C44.5306 120.194 44.4843 120.15 44.4512 120.096L43.1154 117.926L38.7294 120.461L50.5333 127.272L46.1382 119.663Z" fill="white"/>
</g>
<path id="Vector_98" d="M57.8276 36.4747L39.6954 25.9884C39.4871 25.843 39.2453 25.7525 38.9927 25.7254C38.74 25.6983 38.4846 25.7354 38.2501 25.8334C38.2006 25.8563 38.1533 25.8837 38.1088 25.9154L34.1651 28.227H34.1924C33.6954 28.5051 33.3809 29.1662 33.3809 30.1008V50.2619C33.3809 51.967 34.4158 53.9503 35.697 54.6889L53.8291 65.1752C54.0587 65.3427 54.3327 65.4386 54.6167 65.4508C54.9006 65.4629 55.1818 65.3909 55.4249 65.2436L55.393 65.2664L59.3094 62.9868C59.82 62.7178 60.1437 62.0749 60.1437 61.0947V40.8835C60.1437 39.1783 59.127 37.195 57.8276 36.4747Z" fill="#A8C8FF"/>
<path id="Vector_99" d="M59.4964 38.3713C59.1309 37.5891 58.5526 36.9255 57.8277 36.4564L39.6955 25.9884C39.4872 25.843 39.2454 25.7525 38.9928 25.7254C38.7401 25.6983 38.4847 25.7354 38.2503 25.8334C38.2007 25.8563 38.1534 25.8837 38.1089 25.9154L34.1652 28.227C34.4059 28.1025 34.6762 28.0469 34.9465 28.0662C35.2168 28.0855 35.4765 28.179 35.6971 28.3364L53.8292 38.8227C54.5788 39.3127 55.1722 40.0073 55.539 40.8242L59.4964 38.3713Z" fill="#A8C8FF"/>
<path id="Vector_100" d="M56.1453 63.3741C56.1453 64.2859 55.8536 64.9196 55.3931 65.1978L59.3095 62.9181C59.8201 62.6491 60.1438 62.0063 60.1438 61.026V40.8832C60.1245 40.0072 59.9029 39.1474 59.4964 38.3711L55.539 40.8057C55.9188 41.5591 56.126 42.3877 56.1453 43.2313V63.3741Z" fill="#A8C8FF"/>
<path id="Vector_101" opacity="0.3" d="M59.4964 38.3713C59.1309 37.5891 58.5526 36.9255 57.8277 36.4564L39.6955 25.9884C39.4872 25.843 39.2454 25.7525 38.9928 25.7254C38.7401 25.6983 38.4847 25.7354 38.2503 25.8334C38.2007 25.8563 38.1534 25.8837 38.1089 25.9154L34.1652 28.227C34.4059 28.1025 34.6762 28.0469 34.9465 28.0662C35.2168 28.0855 35.4765 28.179 35.6971 28.3364L53.8292 38.8227C54.5788 39.3127 55.1722 40.0073 55.539 40.8242L59.4964 38.3713Z" fill="#101114"/>
<path id="Vector_102" opacity="0.6" d="M56.1453 63.3741C56.1453 64.2859 55.8536 64.9196 55.3931 65.1978L59.3095 62.9181C59.8201 62.6491 60.1438 62.0063 60.1438 61.026V40.8832C60.1245 40.0072 59.9029 39.1474 59.4964 38.3711L55.539 40.8057C55.9188 41.5591 56.126 42.3877 56.1453 43.2313V63.3741Z" fill="#101114"/>
<path id="Vector_103" d="M50.2137 54.711C49.5162 53.5621 48.814 52.4314 48.1165 51.2734C48.0058 51.054 47.8512 50.8598 47.6621 50.7029C47.4731 50.546 47.2537 50.4298 47.0177 50.3615C46.6803 50.2931 46.3429 50.2156 45.9964 50.1153C45.873 50.0638 45.7692 49.9744 45.7001 49.86C44.5586 47.9064 43.6512 45.8252 42.9964 43.6594C42.9825 43.6131 42.9786 43.5644 42.9848 43.5164C42.9911 43.4685 43.0075 43.4224 43.0329 43.3813C43.2472 43.167 43.4888 42.9709 43.7077 42.7795C43.9265 42.588 44.0405 42.1457 43.8809 41.5713C43.5435 40.3539 43.2198 39.1366 42.8824 37.9238C42.8172 37.5793 42.6623 37.2579 42.4334 36.9922C42.2045 36.7265 41.9096 36.5258 41.5785 36.4102C40.8433 36.2058 40.0627 36.2344 39.3445 36.4922C39.0664 36.5971 38.9205 36.8479 38.9159 37.281C39.0344 38.1153 39.1119 38.9406 39.2715 39.7886C40.3961 45.9041 43.1013 51.5272 47.387 56.6578C47.4989 56.828 47.6492 56.9694 47.8258 57.0708C48.0024 57.1722 48.2004 57.2306 48.4037 57.2414C49.1132 57.2246 49.7949 56.9619 50.3323 56.4983C50.738 56.1335 50.697 55.4861 50.2137 54.711Z" fill="#A8C8FF"/>
<path id="Vector_104" d="M50.1589 48.4972C50.0636 47.1858 49.7021 45.9075 49.0966 44.7403C48.6446 43.8285 48.0693 42.9832 47.3869 42.2282C47.2091 42.0276 47.0587 41.9637 46.9675 42.1142C46.8763 42.2647 46.9675 42.4789 47.1407 42.675L47.3185 42.8802C48.5787 44.3348 49.3729 46.1344 49.5982 48.0458C49.5959 48.1852 49.6097 48.3244 49.6392 48.4607C49.6965 48.6175 49.7884 48.7593 49.9082 48.8756C50.0039 48.944 50.1134 48.8756 50.1909 48.8756C50.1635 48.6886 50.1681 48.5929 50.1589 48.4972Z" fill="#A8C8FF"/>
<path id="Vector_105" d="M46.0281 44.7535C46.6006 45.3833 46.9485 46.1849 47.0174 47.0332C47.0474 47.1622 47.095 47.2864 47.1588 47.4025C47.4369 47.6304 47.5737 47.5529 47.5737 47.2657C47.4762 46.178 47.0263 45.1519 46.2925 44.3432C46.1192 44.1654 45.9779 44.1107 45.8958 44.2611C45.8663 44.3471 45.8631 44.4398 45.8867 44.5276C45.9102 44.6153 45.9595 44.694 46.0281 44.7535Z" fill="#A8C8FF"/>
<g id="Group_3" opacity="0.9">
<path id="Vector_106" d="M50.2139 54.713C49.5163 53.5641 48.8142 52.4334 48.1166 51.2753C48.006 51.056 47.8513 50.8618 47.6622 50.7049C47.4732 50.548 47.2538 50.4318 47.0178 50.3635C46.6804 50.2951 46.343 50.2176 45.9965 50.1173C45.8731 50.0658 45.7693 49.9764 45.7002 49.8619C44.5587 47.9084 43.6513 45.8272 42.9966 43.6613C42.9826 43.615 42.9787 43.5663 42.985 43.5184C42.9912 43.4704 43.0076 43.4244 43.033 43.3832C43.2473 43.1689 43.489 42.9729 43.7078 42.7814C43.9266 42.5899 44.0406 42.1477 43.881 41.5732C43.5437 40.3559 43.22 39.1386 42.8826 37.9258C42.8173 37.5812 42.6624 37.2599 42.4335 36.9942C42.2046 36.7285 41.9097 36.5277 41.5786 36.4121C40.8434 36.2077 40.0628 36.2364 39.3446 36.4942C39.0665 36.5991 38.9206 36.8498 38.916 37.2829C39.0346 38.1173 39.1121 38.9425 39.2716 39.7905C40.3963 45.906 43.1014 51.5291 47.3871 56.6598C47.499 56.8299 47.6493 56.9714 47.8259 57.0728C48.0025 57.1741 48.2005 57.2326 48.4038 57.2434C49.1134 57.2265 49.795 56.9638 50.3324 56.5002C50.7382 56.1355 50.6971 55.4881 50.2139 54.713Z" fill="white"/>
<path id="Vector_107" d="M50.1591 48.4991C50.0637 47.1877 49.7022 45.9095 49.0968 44.7423C48.6447 43.8305 48.0694 42.9852 47.387 42.2301C47.2092 42.0295 47.0588 41.9657 46.9676 42.1162C46.8764 42.2666 46.9676 42.4809 47.1408 42.6769L47.3187 42.8821C48.5788 44.3368 49.373 46.1364 49.5983 48.0477C49.5961 48.1872 49.6098 48.3264 49.6393 48.4626C49.6966 48.6194 49.7885 48.7613 49.9083 48.8775C50.0041 48.9459 50.1135 48.8775 50.191 48.8775C50.1636 48.6906 50.1682 48.5949 50.1591 48.4991Z" fill="white"/>
<path id="Vector_108" d="M46.0284 44.7575C46.601 45.3872 46.9489 46.1888 47.0178 47.0371C47.0478 47.1661 47.0954 47.2903 47.1591 47.4064C47.4372 47.6343 47.574 47.5568 47.574 47.2696C47.4765 46.1819 47.0267 45.1558 46.2929 44.3471C46.1196 44.1693 45.9783 44.1146 45.8962 44.2651C45.8667 44.351 45.8635 44.4437 45.8871 44.5315C45.9106 44.6192 45.9598 44.6979 46.0284 44.7575Z" fill="white"/>
</g>
</g>
<g id="freepik--Clouds--inject-212">
<path id="Vector_109" d="M150.859 24.3817L155.131 26.8118V25.2981C155.131 25.1932 155.131 25.0838 155.131 24.9789C155.131 24.8741 155.131 24.7738 155.131 24.6735V24.6188C155.286 22.6172 156.804 21.8467 158.655 22.9181C159.493 23.4336 160.212 24.1222 160.762 24.9379C161.177 22.2023 163.397 21.2358 166.082 22.7814C169.064 24.5048 171.48 28.7084 171.48 32.137V35.374C171.476 35.633 171.54 35.8885 171.666 36.1149C171.791 36.3414 171.974 36.5309 172.196 36.6643L174.713 38.137C175.256 38.459 175.706 38.9165 176.02 39.4647C176.333 40.013 176.499 40.6332 176.5 41.2646C176.5 41.5266 176.431 41.7839 176.3 42.0108C176.169 42.2376 175.981 42.4259 175.754 42.5567C175.527 42.6875 175.269 42.7563 175.008 42.7559C174.746 42.7556 174.488 42.6863 174.262 42.5549L150.923 29.064C150.304 28.7045 149.789 28.1891 149.431 27.5693C149.073 26.9494 148.883 26.2466 148.88 25.5306C148.88 25.2988 148.941 25.0711 149.056 24.8702C149.172 24.6693 149.338 24.5023 149.539 24.3859C149.739 24.2696 149.966 24.2079 150.198 24.2072C150.43 24.2064 150.658 24.2666 150.859 24.3817Z" fill="#E6E6E6"/>
<path id="Vector_110" d="M183.426 23.7483L186.531 25.5309V24.4185C186.531 24.341 186.531 24.2635 186.531 24.186C186.531 24.1085 186.531 24.0355 186.531 23.9626V23.9352C186.645 22.4808 187.748 21.92 189.093 22.6997C189.702 23.0728 190.224 23.5718 190.625 24.1632C190.93 22.1845 192.544 21.4687 194.496 22.5948C196.666 23.8486 198.421 26.8942 198.421 29.3972V31.7543C198.423 31.9391 198.472 32.1203 198.565 32.2801C198.658 32.44 198.79 32.573 198.95 32.6662L200.774 33.7376C201.17 33.971 201.499 34.3042 201.727 34.7042C201.955 35.1042 202.074 35.5569 202.073 36.0172C202.073 36.2058 202.023 36.391 201.93 36.5547C201.836 36.7183 201.701 36.8547 201.539 36.9504C201.376 37.0461 201.192 37.0979 201.003 37.1005C200.815 37.1032 200.629 37.0567 200.464 36.9656L183.471 27.154C183.021 26.8936 182.647 26.5193 182.387 26.0688C182.127 25.6183 181.99 25.1074 181.99 24.5872C181.989 24.4188 182.033 24.2533 182.117 24.1072C182.2 23.9611 182.321 23.8396 182.466 23.7546C182.612 23.6697 182.777 23.6244 182.945 23.6233C183.113 23.6222 183.279 23.6653 183.426 23.7483Z" fill="#E6E6E6"/>
</g>
</g>
</svg>
