<svg width="326" height="48" viewBox="0 0 326 48" fill="none" xmlns="http://www.w3.org/2000/svg">
<g clip-path="url(#clip0_3146_40733)">
<mask id="path-1-inside-1_3146_40733" fill="white">
<path d="M0 0H326V48H0V0Z"/>
</mask>
<path d="M9.368 27.432C9.46933 27.432 9.55733 27.472 9.632 27.552L10.376 28.36C9.90667 28.9253 9.33067 29.3627 8.648 29.672C7.96533 29.976 7.14933 30.128 6.2 30.128C5.35733 30.128 4.59467 29.984 3.912 29.696C3.23467 29.4027 2.656 28.9973 2.176 28.48C1.696 27.9573 1.32533 27.336 1.064 26.616C0.808 25.896 0.68 25.104 0.68 24.24C0.68 23.376 0.816 22.584 1.088 21.864C1.36533 21.1387 1.752 20.5173 2.248 20C2.74933 19.4773 3.34667 19.072 4.04 18.784C4.73867 18.496 5.50667 18.352 6.344 18.352C7.176 18.352 7.90933 18.488 8.544 18.76C9.184 19.0267 9.73867 19.384 10.208 19.832L9.592 20.704C9.54933 20.7627 9.49867 20.8133 9.44 20.856C9.38133 20.8987 9.30133 20.92 9.2 20.92C9.09333 20.92 8.97067 20.872 8.832 20.776C8.69867 20.6747 8.52533 20.5653 8.312 20.448C8.104 20.3253 7.84 20.216 7.52 20.12C7.20533 20.0187 6.81067 19.968 6.336 19.968C5.78667 19.968 5.28267 20.064 4.824 20.256C4.36533 20.448 3.97067 20.728 3.64 21.096C3.30933 21.464 3.05067 21.912 2.864 22.44C2.68267 22.968 2.592 23.568 2.592 24.24C2.592 24.9173 2.688 25.5227 2.88 26.056C3.072 26.584 3.336 27.032 3.672 27.4C4.008 27.7627 4.40267 28.04 4.856 28.232C5.30933 28.424 5.79733 28.52 6.32 28.52C6.64 28.52 6.92533 28.504 7.176 28.472C7.432 28.4347 7.66667 28.3787 7.88 28.304C8.09333 28.224 8.29333 28.1253 8.48 28.008C8.672 27.8907 8.86133 27.7467 9.048 27.576C9.15467 27.48 9.26133 27.432 9.368 27.432ZM18.428 21.84V30H17.388C17.1587 30 17.012 29.8907 16.948 29.672L16.82 28.912C16.6493 29.0933 16.468 29.2587 16.276 29.408C16.0893 29.5573 15.8893 29.6853 15.676 29.792C15.4627 29.8987 15.2333 29.9813 14.988 30.04C14.748 30.0987 14.4893 30.128 14.212 30.128C13.764 30.128 13.3693 30.0533 13.028 29.904C12.6867 29.7547 12.3987 29.544 12.164 29.272C11.9347 29 11.7613 28.6747 11.644 28.296C11.5267 27.912 11.468 27.4907 11.468 27.032V21.84H13.188V27.032C13.188 27.5813 13.3133 28.008 13.564 28.312C13.82 28.616 14.2067 28.768 14.724 28.768C15.1027 28.768 15.4547 28.6827 15.78 28.512C16.1107 28.336 16.42 28.096 16.708 27.792V21.84H18.428ZM27.5248 30H25.8768C25.7434 30 25.6368 29.9653 25.5568 29.896C25.4821 29.8267 25.4208 29.7493 25.3728 29.664L23.4928 26.648C23.4448 26.8293 23.3808 26.9867 23.3008 27.12L21.5968 29.664C21.5381 29.7493 21.4714 29.8267 21.3968 29.896C21.3274 29.9653 21.2341 30 21.1168 30H19.5808L22.4048 25.792L19.6928 21.84H21.3408C21.4741 21.84 21.5701 21.8613 21.6288 21.904C21.6928 21.9413 21.7488 22 21.7968 22.08L23.6448 24.96C23.6928 24.784 23.7674 24.616 23.8688 24.456L25.4288 22.112C25.5354 21.9307 25.6714 21.84 25.8368 21.84H27.4128L24.7008 25.72L27.5248 30ZM30.4806 21.84V30H28.7606V21.84H30.4806ZM30.7686 19.376C30.7686 19.5307 30.7366 19.6773 30.6726 19.816C30.614 19.9547 30.5313 20.0773 30.4246 20.184C30.318 20.2853 30.1926 20.368 30.0486 20.432C29.91 20.4907 29.7606 20.52 29.6006 20.52C29.446 20.52 29.2993 20.4907 29.1606 20.432C29.0273 20.368 28.91 20.2853 28.8086 20.184C28.7073 20.0773 28.6246 19.9547 28.5606 19.816C28.502 19.6773 28.4726 19.5307 28.4726 19.376C28.4726 19.216 28.502 19.0667 28.5606 18.928C28.6246 18.7893 28.7073 18.6693 28.8086 18.568C28.91 18.4613 29.0273 18.3787 29.1606 18.32C29.2993 18.256 29.446 18.224 29.6006 18.224C29.7606 18.224 29.91 18.256 30.0486 18.32C30.1926 18.3787 30.318 18.4613 30.4246 18.568C30.5313 18.6693 30.614 18.7893 30.6726 18.928C30.7366 19.0667 30.7686 19.216 30.7686 19.376ZM37.9938 25C37.9938 24.712 37.9511 24.4453 37.8658 24.2C37.7858 23.9493 37.6658 23.7333 37.5058 23.552C37.3458 23.3653 37.1458 23.2213 36.9058 23.12C36.6711 23.0133 36.3991 22.96 36.0898 22.96C35.4658 22.96 34.9751 23.1387 34.6178 23.496C34.2604 23.8533 34.0338 24.3547 33.9378 25H37.9938ZM33.8898 26.056C33.9111 26.52 33.9831 26.9227 34.1058 27.264C34.2284 27.6 34.3911 27.88 34.5938 28.104C34.8018 28.328 35.0471 28.496 35.3298 28.608C35.6178 28.7147 35.9378 28.768 36.2898 28.768C36.6258 28.768 36.9164 28.7307 37.1618 28.656C37.4071 28.576 37.6204 28.4907 37.8018 28.4C37.9831 28.304 38.1378 28.2187 38.2658 28.144C38.3938 28.064 38.5111 28.024 38.6178 28.024C38.7564 28.024 38.8631 28.0773 38.9378 28.184L39.4258 28.816C39.2231 29.056 38.9938 29.2587 38.7378 29.424C38.4818 29.5893 38.2098 29.7253 37.9218 29.832C37.6338 29.9333 37.3378 30.0053 37.0338 30.048C36.7298 30.096 36.4338 30.12 36.1458 30.12C35.5804 30.12 35.0551 30.0267 34.5698 29.84C34.0898 29.648 33.6711 29.368 33.3138 29C32.9618 28.632 32.6844 28.176 32.4818 27.632C32.2844 27.088 32.1858 26.4613 32.1858 25.752C32.1858 25.1867 32.2738 24.6587 32.4498 24.168C32.6311 23.6773 32.8871 23.2507 33.2178 22.888C33.5538 22.5253 33.9591 22.24 34.4338 22.032C34.9138 21.8187 35.4551 21.712 36.0578 21.712C36.5591 21.712 37.0231 21.7947 37.4498 21.96C37.8764 22.12 38.2444 22.3573 38.5538 22.672C38.8631 22.9867 39.1031 23.3733 39.2738 23.832C39.4498 24.2853 39.5378 24.8027 39.5378 25.384C39.5378 25.6507 39.5084 25.8293 39.4498 25.92C39.3911 26.0107 39.2844 26.056 39.1298 26.056H33.8898ZM46.7341 22.92C46.9101 22.7387 47.0915 22.576 47.2781 22.432C47.4701 22.2827 47.6728 22.1547 47.8861 22.048C48.0995 21.9413 48.3261 21.8587 48.5661 21.8C48.8061 21.7413 49.0675 21.712 49.3501 21.712C49.7981 21.712 50.1901 21.7867 50.5261 21.936C50.8675 22.0853 51.1528 22.296 51.3821 22.568C51.6168 22.84 51.7928 23.168 51.9101 23.552C52.0275 23.9307 52.0861 24.3493 52.0861 24.808V30H50.3741V24.808C50.3741 24.2587 50.2461 23.832 49.9901 23.528C49.7395 23.224 49.3555 23.072 48.8381 23.072C48.4541 23.072 48.0968 23.16 47.7661 23.336C47.4408 23.512 47.1341 23.752 46.8461 24.056V30H45.1261V21.84H46.1661C46.4008 21.84 46.5501 21.9493 46.6141 22.168L46.7341 22.92ZM55.1429 26.824C55.1429 27.112 55.1829 27.3813 55.2629 27.632C55.3482 27.8773 55.4709 28.0933 55.6309 28.28C55.7909 28.4613 55.9882 28.6053 56.2229 28.712C56.4629 28.8133 56.7375 28.864 57.0469 28.864C57.6762 28.864 58.1695 28.6853 58.5269 28.328C58.8842 27.9707 59.1109 27.4693 59.2069 26.824H55.1429ZM53.7109 23.016C53.9082 22.776 54.1349 22.5733 54.3909 22.408C54.6522 22.2427 54.9269 22.1093 55.2149 22.008C55.5029 21.9013 55.7989 21.8267 56.1029 21.784C56.4069 21.736 56.7055 21.712 56.9989 21.712C57.5642 21.712 58.0869 21.808 58.5669 22C59.0522 22.1867 59.4709 22.464 59.8229 22.832C60.1749 23.2 60.4495 23.656 60.6469 24.2C60.8495 24.744 60.9509 25.3707 60.9509 26.08C60.9509 26.64 60.8602 27.168 60.6789 27.664C60.5029 28.1547 60.2469 28.5813 59.9109 28.944C59.5802 29.3067 59.1749 29.5947 58.6949 29.808C58.2202 30.016 57.6815 30.12 57.0789 30.12C56.5775 30.12 56.1135 30.0373 55.6869 29.872C55.2655 29.7067 54.9002 29.4693 54.5909 29.16C54.2815 28.8453 54.0389 28.4613 53.8629 28.008C53.6922 27.5493 53.6069 27.0267 53.6069 26.44C53.6069 26.1787 53.6335 26.0027 53.6869 25.912C53.7455 25.816 53.8522 25.768 54.0069 25.768H59.2469C59.2255 25.3093 59.1535 24.912 59.0309 24.576C58.9082 24.2347 58.7429 23.952 58.5349 23.728C58.3322 23.504 58.0869 23.3387 57.7989 23.232C57.5162 23.12 57.1989 23.064 56.8469 23.064C56.5109 23.064 56.2202 23.104 55.9749 23.184C55.7295 23.2587 55.5162 23.344 55.3349 23.44C55.1535 23.5307 54.9989 23.616 54.8709 23.696C54.7429 23.7707 54.6255 23.808 54.5189 23.808C54.3855 23.808 54.2789 23.7547 54.1989 23.648L53.7109 23.016ZM67.8029 23.848C67.5629 23.5387 67.2989 23.3227 67.0109 23.2C66.7229 23.0773 66.4109 23.016 66.0749 23.016C65.4029 23.016 64.8775 23.264 64.4989 23.76C64.1202 24.2507 63.9309 24.9787 63.9309 25.944C63.9309 26.4453 63.9735 26.8747 64.0589 27.232C64.1442 27.584 64.2669 27.872 64.4269 28.096C64.5869 28.32 64.7815 28.4827 65.0109 28.584C65.2402 28.6853 65.4989 28.736 65.7869 28.736C66.2242 28.736 66.6002 28.6427 66.9149 28.456C67.2349 28.264 67.5309 27.9947 67.8029 27.648V23.848ZM69.5229 18.16V30H68.4829C68.2535 30 68.1069 29.8907 68.0429 29.672L67.8909 28.784C67.5495 29.184 67.1602 29.5067 66.7229 29.752C66.2909 29.9973 65.7869 30.12 65.2109 30.12C64.7522 30.12 64.3362 30.0293 63.9629 29.848C63.5895 29.6613 63.2695 29.392 63.0029 29.04C62.7362 28.688 62.5282 28.2533 62.3789 27.736C62.2349 27.2133 62.1629 26.616 62.1629 25.944C62.1629 25.336 62.2429 24.7733 62.4029 24.256C62.5682 23.7387 62.8029 23.2907 63.1069 22.912C63.4109 22.528 63.7789 22.2293 64.2109 22.016C64.6482 21.7973 65.1362 21.688 65.6749 21.688C66.1549 21.688 66.5629 21.7653 66.8989 21.92C67.2349 22.0693 67.5362 22.28 67.8029 22.552V18.16H69.5229ZM73.4181 21.84V30H71.6981V21.84H73.4181ZM73.7061 19.376C73.7061 19.5307 73.6741 19.6773 73.6101 19.816C73.5515 19.9547 73.4688 20.0773 73.3621 20.184C73.2555 20.2853 73.1301 20.368 72.9861 20.432C72.8475 20.4907 72.6981 20.52 72.5381 20.52C72.3835 20.52 72.2368 20.4907 72.0981 20.432C71.9648 20.368 71.8475 20.2853 71.7461 20.184C71.6448 20.0773 71.5621 19.9547 71.4981 19.816C71.4395 19.6773 71.4101 19.5307 71.4101 19.376C71.4101 19.216 71.4395 19.0667 71.4981 18.928C71.5621 18.7893 71.6448 18.6693 71.7461 18.568C71.8475 18.4613 71.9648 18.3787 72.0981 18.32C72.2368 18.256 72.3835 18.224 72.5381 18.224C72.6981 18.224 72.8475 18.256 72.9861 18.32C73.1301 18.3787 73.2555 18.4613 73.3621 18.568C73.4688 18.6693 73.5515 18.7893 73.6101 18.928C73.6741 19.0667 73.7061 19.216 73.7061 19.376ZM77.2033 23.352C77.4593 22.8347 77.7686 22.4293 78.1313 22.136C78.4939 21.8373 78.9286 21.688 79.4353 21.688C79.6113 21.688 79.7766 21.7093 79.9313 21.752C80.0859 21.7893 80.2246 21.848 80.3473 21.928L80.2273 23.224C80.2059 23.3147 80.1713 23.3787 80.1233 23.416C80.0806 23.448 80.0219 23.464 79.9473 23.464C79.8673 23.464 79.7526 23.4507 79.6033 23.424C79.4539 23.392 79.2966 23.376 79.1313 23.376C78.8913 23.376 78.6779 23.4107 78.4913 23.48C78.3099 23.5493 78.1446 23.6507 77.9953 23.784C77.8513 23.9173 77.7233 24.08 77.6113 24.272C77.4993 24.464 77.3953 24.6827 77.2993 24.928V30H75.5793V21.84H76.5793C76.7606 21.84 76.8859 21.8747 76.9553 21.944C77.0246 22.008 77.0726 22.1227 77.0993 22.288L77.2033 23.352ZM81.0455 19.512C81.2215 19.352 81.4135 19.2027 81.6215 19.064C81.8295 18.9253 82.0535 18.8027 82.2935 18.696C82.5388 18.5893 82.8028 18.5067 83.0855 18.448C83.3735 18.384 83.6828 18.352 84.0135 18.352C84.4562 18.352 84.8615 18.416 85.2295 18.544C85.6028 18.6667 85.9228 18.8453 86.1895 19.08C86.4615 19.3093 86.6722 19.5893 86.8215 19.92C86.9708 20.2453 87.0455 20.6107 87.0455 21.016C87.0455 21.4213 86.9868 21.7733 86.8695 22.072C86.7522 22.3653 86.6028 22.6213 86.4215 22.84C86.2402 23.0587 86.0428 23.2507 85.8295 23.416C85.6162 23.576 85.4135 23.728 85.2215 23.872C85.0348 24.0107 84.8722 24.152 84.7335 24.296C84.6002 24.4347 84.5202 24.5893 84.4935 24.76L84.3255 25.96H83.1575L83.0375 24.64C83.0108 24.3893 83.0508 24.1733 83.1575 23.992C83.2642 23.8107 83.4055 23.64 83.5815 23.48C83.7628 23.32 83.9602 23.168 84.1735 23.024C84.3922 22.8747 84.5948 22.7093 84.7815 22.528C84.9682 22.3467 85.1255 22.144 85.2535 21.92C85.3815 21.696 85.4455 21.4267 85.4455 21.112C85.4455 20.904 85.4055 20.7173 85.3255 20.552C85.2455 20.3813 85.1335 20.2373 84.9895 20.12C84.8455 20.0027 84.6775 19.912 84.4855 19.848C84.2935 19.784 84.0855 19.752 83.8615 19.752C83.5468 19.752 83.2802 19.7893 83.0615 19.864C82.8428 19.9387 82.6562 20.0213 82.5015 20.112C82.3468 20.1973 82.2188 20.2773 82.1175 20.352C82.0162 20.4213 81.9308 20.456 81.8615 20.456C81.6962 20.456 81.5735 20.384 81.4935 20.24L81.0455 19.512ZM82.5815 29.008C82.5815 28.8533 82.6082 28.7093 82.6615 28.576C82.7202 28.4373 82.7975 28.3173 82.8935 28.216C82.9948 28.1147 83.1122 28.0347 83.2455 27.976C83.3842 27.9173 83.5308 27.888 83.6855 27.888C83.8402 27.888 83.9842 27.9173 84.1175 27.976C84.2562 28.0347 84.3762 28.1147 84.4775 28.216C84.5788 28.3173 84.6588 28.4373 84.7175 28.576C84.7762 28.7093 84.8055 28.8533 84.8055 29.008C84.8055 29.168 84.7762 29.3147 84.7175 29.448C84.6588 29.5813 84.5788 29.6987 84.4775 29.8C84.3762 29.9013 84.2562 29.9787 84.1175 30.032C83.9842 30.0907 83.8402 30.12 83.6855 30.12C83.5308 30.12 83.3842 30.0907 83.2455 30.032C83.1122 29.9787 82.9948 29.9013 82.8935 29.8C82.7975 29.6987 82.7202 29.5813 82.6615 29.448C82.6082 29.3147 82.5815 29.168 82.5815 29.008Z" fill="#1A1C1E"/>
<path d="M314 30.75C313.833 30.75 313.696 30.6958 313.588 30.5875C313.479 30.4792 313.425 30.3417 313.425 30.175V24.575H307.825C307.658 24.575 307.521 24.5208 307.413 24.4125C307.304 24.3042 307.25 24.1667 307.25 24C307.25 23.8333 307.304 23.6958 307.413 23.5875C307.521 23.4792 307.658 23.425 307.825 23.425H313.425V17.825C313.425 17.6583 313.479 17.5208 313.588 17.4125C313.696 17.3042 313.833 17.25 314 17.25C314.167 17.25 314.304 17.3042 314.413 17.4125C314.521 17.5208 314.575 17.6583 314.575 17.825V23.425H320.175C320.342 23.425 320.479 23.4792 320.588 23.5875C320.696 23.6958 320.75 23.8333 320.75 24C320.75 24.1667 320.696 24.3042 320.588 24.4125C320.479 24.5208 320.342 24.575 320.175 24.575H314.575V30.175C314.575 30.3417 314.521 30.4792 314.413 30.5875C314.304 30.6958 314.167 30.75 314 30.75Z" fill="#1A1C1E"/>
</g>
<path d="M326 47.5H0V48.5H326V47.5Z" fill="#C7C6CA" mask="url(#path-1-inside-1_3146_40733)"/>
<defs>
<clipPath id="clip0_3146_40733">
<path d="M0 0H326V48H0V0Z" fill="white"/>
</clipPath>
</defs>
</svg>
