<svg width="25" height="24" viewBox="0 0 25 24" fill="none" xmlns="http://www.w3.org/2000/svg">
<g id="Frame">
<path id="Vector" d="M12.25 21.4496C11.0834 21.4496 9.98338 21.2288 8.95005 20.7871C7.91672 20.3454 7.02088 19.7454 6.26255 18.9871C5.50422 18.2288 4.90005 17.3329 4.45005 16.2996C4.00005 15.2663 3.77505 14.1663 3.77505 12.9996C3.77505 11.8163 4.00005 10.7121 4.45005 9.68711C4.90005 8.66211 5.50422 7.76211 6.26255 6.98711C7.02088 6.21211 7.91672 5.60378 8.95005 5.16211C9.98338 4.72044 11.0834 4.49961 12.25 4.49961C13.4167 4.49961 14.5167 4.72044 15.55 5.16211C16.5834 5.60378 17.4834 6.21211 18.25 6.98711C19.0167 7.76211 19.6209 8.66211 20.0625 9.68711C20.5042 10.7121 20.725 11.8163 20.725 12.9996C20.725 14.1663 20.5042 15.2663 20.0625 16.2996C19.6209 17.3329 19.0167 18.2288 18.25 18.9871C17.4834 19.7454 16.5834 20.3454 15.55 20.7871C14.5167 21.2288 13.4167 21.4496 12.25 21.4496ZM11.75 8.57461V12.9746C11.75 13.0579 11.7667 13.1454 11.8 13.2371C11.8334 13.3288 11.8834 13.4079 11.95 13.4746L15.025 16.5496C15.125 16.6496 15.25 16.6996 15.4 16.6996C15.55 16.6996 15.6834 16.6413 15.8 16.5246C15.9 16.4079 15.95 16.2746 15.95 16.1246C15.95 15.9746 15.9 15.8413 15.8 15.7246L12.875 12.7996V8.54961C12.875 8.39961 12.8209 8.27044 12.7125 8.16211C12.6042 8.05378 12.4667 7.99961 12.3 7.99961C12.1334 7.99961 12 8.05378 11.9 8.16211C11.8 8.27044 11.75 8.40794 11.75 8.57461ZM3.27505 6.94961C3.15838 7.04961 3.02505 7.09961 2.87505 7.09961C2.72505 7.09961 2.59172 7.04128 2.47505 6.92461C2.35838 6.80794 2.30005 6.67044 2.30005 6.51211C2.30005 6.35378 2.35838 6.22461 2.47505 6.12461L5.45005 3.24961C5.56672 3.14961 5.70005 3.09961 5.85005 3.09961C6.00005 3.09961 6.12505 3.15794 6.22505 3.27461C6.35838 3.39128 6.42505 3.52461 6.42505 3.67461C6.42505 3.82461 6.35838 3.95794 6.22505 4.07461L3.27505 6.94961ZM21.225 6.92461L18.25 4.04961C18.15 3.94961 18.0959 3.82461 18.0875 3.67461C18.0792 3.52461 18.1334 3.39128 18.25 3.27461C18.3667 3.15794 18.5 3.09961 18.65 3.09961C18.8 3.09961 18.9417 3.15794 19.0751 3.27461L22.025 6.14961C22.125 6.24961 22.1792 6.37461 22.1875 6.52461C22.1959 6.67461 22.1417 6.79961 22.025 6.89961C21.9084 7.01628 21.775 7.07461 21.625 7.07461C21.475 7.07461 21.3417 7.02461 21.225 6.92461ZM12.25 20.3246C14.2834 20.3246 16.0167 19.6121 17.45 18.1871C18.8834 16.7621 19.6 15.0246 19.6 12.9746C19.6 10.9413 18.8834 9.20794 17.45 7.77461C16.0167 6.34128 14.2834 5.62461 12.25 5.62461C10.2167 5.62461 8.48338 6.34128 7.05005 7.77461C5.61672 9.20794 4.90005 10.9413 4.90005 12.9746C4.90005 15.0246 5.61672 16.7621 7.05005 18.1871C8.48338 19.6121 10.2167 20.3246 12.25 20.3246Z" fill="black"/>
</g>
</svg>
