<svg width="25" height="24" viewBox="0 0 25 24" fill="none" xmlns="http://www.w3.org/2000/svg">
<g id="Frame">
<path id="Vector" d="M12.25 16.85C14.0334 15.4167 15.3834 14.0417 16.3 12.725C17.2167 11.4083 17.675 10.1583 17.675 8.975C17.675 7.95833 17.4917 7.09583 17.125 6.3875C16.7584 5.67917 16.3 5.1 15.75 4.65C15.2 4.2 14.6084 3.875 13.975 3.675C13.3417 3.475 12.7667 3.375 12.25 3.375C11.7334 3.375 11.1584 3.475 10.525 3.675C9.89172 3.875 9.30005 4.2 8.75005 4.65C8.20005 5.1 7.74172 5.67917 7.37505 6.3875C7.00838 7.09583 6.82505 7.95833 6.82505 8.975C6.82505 10.1583 7.28338 11.4083 8.20005 12.725C9.11672 14.0417 10.4667 15.4167 12.25 16.85ZM12.25 18.025C12.15 18.025 12.05 18.0167 11.95 18C11.85 17.9833 11.7667 17.9417 11.7 17.875C9.66672 16.275 8.15422 14.7458 7.16255 13.2875C6.17088 11.8292 5.67505 10.3917 5.67505 8.975C5.67505 7.85833 5.87505 6.88333 6.27505 6.05C6.67505 5.21667 7.18755 4.51667 7.81255 3.95C8.43755 3.38333 9.14172 2.95833 9.92505 2.675C10.7084 2.39167 11.4834 2.25 12.25 2.25C13.0167 2.25 13.7917 2.39167 14.575 2.675C15.3584 2.95833 16.0625 3.38333 16.6875 3.95C17.3125 4.51667 17.825 5.21667 18.225 6.05C18.625 6.88333 18.825 7.85833 18.825 8.975C18.825 10.3917 18.3292 11.8292 17.3375 13.2875C16.3459 14.7458 14.8334 16.275 12.8 17.875C12.7334 17.9417 12.65 17.9833 12.55 18C12.45 18.0167 12.35 18.025 12.25 18.025ZM12.25 10.375C12.6834 10.375 13.0542 10.2208 13.3625 9.9125C13.6709 9.60417 13.825 9.23333 13.825 8.8C13.825 8.36667 13.6709 8 13.3625 7.7C13.0542 7.4 12.6834 7.25 12.25 7.25C11.8167 7.25 11.4459 7.40417 11.1375 7.7125C10.8292 8.02083 10.675 8.39167 10.675 8.825C10.675 9.25833 10.8292 9.625 11.1375 9.925C11.4459 10.225 11.8167 10.375 12.25 10.375ZM6.25005 21.75C6.08338 21.75 5.94588 21.6958 5.83755 21.5875C5.72922 21.4792 5.67505 21.3417 5.67505 21.175C5.67505 21.0083 5.72922 20.875 5.83755 20.775C5.94588 20.675 6.08338 20.625 6.25005 20.625H18.25C18.4167 20.625 18.5542 20.6792 18.6625 20.7875C18.7709 20.8958 18.825 21.0333 18.825 21.2C18.825 21.35 18.7709 21.4792 18.6625 21.5875C18.5542 21.6958 18.4167 21.75 18.25 21.75H6.25005Z" fill="#101114"/>
</g>
</svg>
