<svg width="33" height="32" viewBox="0 0 33 32" fill="none" xmlns="http://www.w3.org/2000/svg">
<g id="Frame">
<path id="Vector" d="M12.2166 22.9992C12.0832 22.8214 12.011 22.6326 11.9999 22.4326C11.9888 22.2326 12.061 22.0548 12.2166 21.8992L18.1499 15.9659L12.2166 10.0326C12.061 9.89922 11.9888 9.72144 11.9999 9.49922C12.011 9.277 12.0832 9.08811 12.2166 8.93255C12.3943 8.777 12.5777 8.69922 12.7666 8.69922C12.9554 8.69922 13.1277 8.777 13.2832 8.93255L19.6499 15.2992C19.761 15.4103 19.8388 15.5159 19.8832 15.6159C19.9277 15.7159 19.9499 15.8326 19.9499 15.9659C19.9499 16.0992 19.9277 16.2214 19.8832 16.3326C19.8388 16.4437 19.761 16.5548 19.6499 16.6659L13.3166 22.9992C13.161 23.1548 12.9832 23.227 12.7832 23.2159C12.5832 23.2048 12.3943 23.1326 12.2166 22.9992Z" fill="#101114"/>
</g>
</svg>
