<svg width="25" height="24" viewBox="0 0 25 24" fill="none" xmlns="http://www.w3.org/2000/svg">
<g id="Frame">
<path id="Vector" d="M19.3 7.925C19.4667 7.925 19.6 7.87083 19.7 7.7625C19.8 7.65417 19.85 7.51667 19.85 7.35V4.775H22.425C22.5917 4.775 22.7292 4.72083 22.8375 4.6125C22.9458 4.50417 23 4.36667 23 4.2C23 4.03333 22.9458 3.9 22.8375 3.8C22.7292 3.7 22.5917 3.65 22.425 3.65H19.85V1.075C19.85 0.908333 19.7958 0.770833 19.6875 0.6625C19.5792 0.554167 19.4417 0.5 19.275 0.5C19.125 0.5 18.9958 0.554167 18.8875 0.6625C18.7792 0.770833 18.725 0.908333 18.725 1.075V3.65H16.15C15.9833 3.65 15.8458 3.70417 15.7375 3.8125C15.6292 3.92083 15.575 4.05833 15.575 4.225C15.575 4.375 15.6292 4.50417 15.7375 4.6125C15.8458 4.72083 15.9833 4.775 16.15 4.775H18.725V7.35C18.725 7.51667 18.7792 7.65417 18.8875 7.7625C18.9958 7.87083 19.1333 7.925 19.3 7.925ZM12.5 11.575C12.9333 11.575 13.3042 11.4208 13.6125 11.1125C13.9208 10.8042 14.075 10.4333 14.075 10C14.075 9.56667 13.9208 9.19583 13.6125 8.8875C13.3042 8.57917 12.9333 8.425 12.5 8.425C12.0667 8.425 11.6958 8.57917 11.3875 8.8875C11.0792 9.19583 10.925 9.56667 10.925 10C10.925 10.4333 11.0792 10.8042 11.3875 11.1125C11.6958 11.4208 12.0667 11.575 12.5 11.575ZM12.5 21.525C12.4 21.525 12.3042 21.5083 12.2125 21.475C12.1208 21.4417 12.0417 21.3917 11.975 21.325C9.54167 19.175 7.72917 17.1708 6.5375 15.3125C5.34583 13.4542 4.75 11.75 4.75 10.2C4.75 7.78333 5.52917 5.85417 7.0875 4.4125C8.64583 2.97083 10.45 2.25 12.5 2.25C12.75 2.25 12.9958 2.2625 13.2375 2.2875C13.4792 2.3125 13.7083 2.34167 13.925 2.375V3.55C13.7083 3.5 13.4792 3.45833 13.2375 3.425C12.9958 3.39167 12.75 3.375 12.5 3.375C10.6333 3.375 9.0625 4.0125 7.7875 5.2875C6.5125 6.5625 5.875 8.2 5.875 10.2C5.875 11.4667 6.44167 12.9792 7.575 14.7375C8.70833 16.4958 10.35 18.35 12.5 20.3C14.6833 18.35 16.3333 16.4958 17.45 14.7375C18.5667 12.9792 19.125 11.4667 19.125 10.2C19.125 10.1 19.1208 9.99583 19.1125 9.8875C19.1042 9.77917 19.0917 9.675 19.075 9.575H20.225C20.2417 9.675 20.25 9.77917 20.25 9.8875C20.25 9.99583 20.25 10.1 20.25 10.2C20.25 11.75 19.6542 13.4542 18.4625 15.3125C17.2708 17.1708 15.4583 19.175 13.025 21.325C12.9583 21.3917 12.8792 21.4417 12.7875 21.475C12.6958 21.5083 12.6 21.525 12.5 21.525Z" fill="#101114"/>
</g>
</svg>
