<svg width="25" height="24" viewBox="0 0 25 24" fill="none" xmlns="http://www.w3.org/2000/svg">
<g id="Icon set">
<path id="Vector" d="M12.5 21.5C11.1974 21.5 9.96825 21.2503 8.8125 20.7509C7.65673 20.2516 6.64872 19.5718 5.78845 18.7115C4.9282 17.8512 4.2484 16.8432 3.74905 15.6875C3.24968 14.5317 3 13.3025 3 12C3 10.6872 3.24968 9.45543 3.74905 8.3048C4.2484 7.15417 4.9282 6.14872 5.78845 5.28845C6.64872 4.4282 7.65673 3.7484 8.8125 3.24905C9.96825 2.74968 11.1974 2.5 12.5 2.5C13.8128 2.5 15.0445 2.74968 16.1952 3.24905C17.3458 3.7484 18.3512 4.4282 19.2115 5.28845C20.0718 6.14872 20.7516 7.15417 21.2509 8.3048C21.7503 9.45543 22 10.6872 22 12C22 13.3025 21.7503 14.5317 21.2509 15.6875C20.7516 16.8432 20.0718 17.8512 19.2115 18.7115C18.3512 19.5718 17.3458 20.2516 16.1952 20.7509C15.0445 21.2503 13.8128 21.5 12.5 21.5ZM12.5 19.9788C13.0102 19.3019 13.4397 18.6192 13.7885 17.9307C14.1372 17.2423 14.4211 16.4897 14.6404 15.673H10.3596C10.5916 16.5153 10.8788 17.2807 11.2211 17.9692C11.5634 18.6577 11.9897 19.3275 12.5 19.9788ZM10.5635 19.7038C10.1801 19.1538 9.83591 18.5285 9.53078 17.8279C9.22564 17.1272 8.98846 16.4089 8.81922 15.673H5.42688C5.95509 16.7115 6.66343 17.584 7.5519 18.2904C8.44038 18.9968 9.44424 19.4679 10.5635 19.7038ZM14.4365 19.7038C15.5557 19.4679 16.5596 18.9968 17.4481 18.2904C18.3365 17.584 19.0449 16.7115 19.5731 15.673H16.1807C15.9794 16.4153 15.7262 17.1368 15.4211 17.8375C15.116 18.5381 14.7878 19.1602 14.4365 19.7038ZM4.79805 14.1731H8.51538C8.45256 13.8013 8.40705 13.4369 8.37885 13.0798C8.35065 12.7227 8.33655 12.3628 8.33655 12C8.33655 11.6372 8.35065 11.2772 8.37885 10.9202C8.40705 10.5631 8.45256 10.1987 8.51538 9.82688H4.79805C4.7019 10.1666 4.62818 10.5198 4.5769 10.8865C4.52562 11.2532 4.49998 11.6243 4.49998 12C4.49998 12.3756 4.52562 12.7468 4.5769 13.1135C4.62818 13.4801 4.7019 13.8333 4.79805 14.1731ZM10.0154 14.1731H14.9846C15.0474 13.8013 15.0929 13.4401 15.1212 13.0894C15.1494 12.7388 15.1635 12.3756 15.1635 12C15.1635 11.6243 15.1494 11.2612 15.1212 10.9106C15.0929 10.5599 15.0474 10.1987 14.9846 9.82688H10.0154C9.95253 10.1987 9.90702 10.5599 9.8788 10.9106C9.8506 11.2612 9.8365 11.6243 9.8365 12C9.8365 12.3756 9.8506 12.7388 9.8788 13.0894C9.90702 13.4401 9.95253 13.8013 10.0154 14.1731ZM16.4846 14.1731H20.2019C20.2981 13.8333 20.3718 13.4801 20.4231 13.1135C20.4743 12.7468 20.5 12.3756 20.5 12C20.5 11.6243 20.4743 11.2532 20.4231 10.8865C20.3718 10.5198 20.2981 10.1666 20.2019 9.82688H16.4846C16.5474 10.1987 16.5929 10.5631 16.6211 10.9202C16.6493 11.2772 16.6634 11.6372 16.6634 12C16.6634 12.3628 16.6493 12.7227 16.6211 13.0798C16.5929 13.4369 16.5474 13.8013 16.4846 14.1731ZM16.1807 8.32693H19.5731C19.0384 7.27563 18.3349 6.40318 17.4625 5.70958C16.59 5.01599 15.5814 4.54163 14.4365 4.2865C14.8198 4.86855 15.1608 5.50509 15.4596 6.19613C15.7583 6.88716 15.9987 7.59743 16.1807 8.32693ZM10.3596 8.32693H14.6404C14.4083 7.49103 14.1163 6.72083 13.7644 6.01633C13.4125 5.31184 12.991 4.64678 12.5 4.02113C12.0089 4.64678 11.5875 5.31184 11.2356 6.01633C10.8836 6.72083 10.5916 7.49103 10.3596 8.32693ZM5.42688 8.32693H8.81922C9.00128 7.59743 9.24167 6.88716 9.5404 6.19613C9.83912 5.50509 10.1801 4.86855 10.5635 4.2865C9.41219 4.54163 8.40193 5.0176 7.53268 5.7144C6.66344 6.4112 5.96151 7.28204 5.42688 8.32693Z" fill="#101114"/>
</g>
</svg>
