<svg width="25" height="24" viewBox="0 0 25 24" fill="none" xmlns="http://www.w3.org/2000/svg">
<g clip-path="url(#clip0_3146_40929)">
<path d="M24.4995 12.0003C24.4995 10.5325 24.2355 9.12639 23.7531 7.82645L12.4995 7.30469L1.2459 7.82641C0.763559 9.12639 0.499512 10.5325 0.499512 12.0003C0.499512 13.4682 0.763559 14.8743 1.2459 16.1742L12.4995 16.696L23.7531 16.1743C24.2355 14.8743 24.4995 13.4682 24.4995 12.0003Z" fill="#D80027"/>
<path d="M12.5004 23.9999C17.66 23.9999 22.0585 20.7434 23.754 16.1738H1.24683C2.94234 20.7434 7.34086 23.9999 12.5004 23.9999Z" fill="#0DAD27"/>
<path d="M1.24683 7.82611H23.7541C22.0585 3.2565 17.66 0 12.5004 0C7.34086 0 2.94234 3.2565 1.24683 7.82611Z" fill="#338AF3"/>
<path d="M12.7605 15.3914C10.8875 15.3914 9.36915 13.873 9.36915 12.0001C9.36915 10.1272 10.8875 8.6088 12.7605 8.6088C13.3444 8.6088 13.8939 8.75645 14.3737 9.01642C13.621 8.28044 12.5918 7.82617 11.4561 7.82617C9.1509 7.82617 7.28223 9.69489 7.28223 12.0001C7.28223 14.3052 9.15094 16.174 11.4561 16.174C12.5919 16.174 13.6211 15.7197 14.3737 14.9837C13.8939 15.2438 13.3444 15.3914 12.7605 15.3914Z" fill="#F0F0F0"/>
<path d="M15.3693 9.65039L15.8185 10.9137L17.0295 10.338L16.4538 11.549L17.7171 11.9982L16.4538 12.4475L17.0295 13.6584L15.8185 13.0827L15.3693 14.346L14.9202 13.0827L13.7091 13.6584L14.2849 12.4475L13.0215 11.9982L14.2849 11.549L13.7091 10.338L14.9202 10.9137L15.3693 9.65039Z" fill="#F0F0F0"/>
</g>
<defs>
<clipPath id="clip0_3146_40929">
<rect width="24" height="24" fill="white" transform="translate(0.5)"/>
</clipPath>
</defs>
</svg>
