<svg width="25" height="24" viewBox="0 0 25 24" fill="none" xmlns="http://www.w3.org/2000/svg">
<g clip-path="url(#clip0_3146_40939)">
<path d="M12.5 24C19.1274 24 24.5 18.6274 24.5 12C24.5 5.37258 19.1274 0 12.5 0C5.87258 0 0.5 5.37258 0.5 12C0.5 18.6274 5.87258 24 12.5 24Z" fill="#D80027"/>
<path d="M12.0087 9.80664L12.9933 11.1634L14.5879 10.6464L13.6017 12.002L14.5862 13.3588L12.9922 12.8398L12.0061 14.1954L12.0071 12.5191L10.4131 12.0001L12.0077 11.4831L12.0087 9.80664Z" fill="#F0F0F0"/>
<path d="M9.32174 15.3914C7.4488 15.3914 5.93043 13.873 5.93043 12.0001C5.93043 10.1272 7.4488 8.6088 9.32174 8.6088C9.90571 8.6088 10.4552 8.7565 10.9349 9.01642C10.1823 8.28039 9.15308 7.82617 8.0174 7.82617C5.71218 7.82617 3.84351 9.69489 3.84351 12.0001C3.84351 14.3052 5.71222 16.174 8.0174 16.174C9.15318 16.174 10.1824 15.7197 10.9349 14.9837C10.4552 15.2437 9.90571 15.3914 9.32174 15.3914Z" fill="#F0F0F0"/>
</g>
<defs>
<clipPath id="clip0_3146_40939">
<rect width="24" height="24" fill="white" transform="translate(0.5)"/>
</clipPath>
</defs>
</svg>
