<svg width="25" height="24" viewBox="0 0 25 24" fill="none" xmlns="http://www.w3.org/2000/svg">
<g id="Icon set">
<path id="Vector" d="M5.75 18.8846C5.5375 18.8846 5.35938 18.8127 5.21563 18.6689C5.07187 18.5251 5 18.3469 5 18.1343C5 17.9217 5.07187 17.7436 5.21563 17.6C5.35938 17.4564 5.5375 17.3846 5.75 17.3846H6.8077V9.92305C6.8077 8.57818 7.22276 7.38908 8.05287 6.35575C8.88301 5.32242 9.94872 4.66153 11.25 4.37308V3.75C11.25 3.40278 11.3714 3.10765 11.6143 2.8646C11.8571 2.62153 12.1519 2.5 12.4988 2.5C12.8457 2.5 13.141 2.62153 13.3846 2.8646C13.6282 3.10765 13.75 3.40278 13.75 3.75V4.37308C15.0512 4.66153 16.1169 5.32242 16.9471 6.35575C17.7772 7.38908 18.1922 8.57818 18.1922 9.92305V17.3846H19.25C19.4625 17.3846 19.6406 17.4565 19.7843 17.6003C19.9281 17.7441 20 17.9223 20 18.1349C20 18.3475 19.9281 18.5256 19.7843 18.6692C19.6406 18.8128 19.4625 18.8846 19.25 18.8846H5.75ZM12.4983 21.6923C12.0007 21.6923 11.5753 21.5153 11.2221 21.1613C10.8689 20.8073 10.6923 20.3817 10.6923 19.8846H14.3077C14.3077 20.3833 14.1305 20.8093 13.7761 21.1625C13.4218 21.5157 12.9959 21.6923 12.4983 21.6923ZM8.30765 17.3846H16.6923V9.92305C16.6923 8.76535 16.283 7.77721 15.4644 6.95863C14.6458 6.14003 13.6577 5.73073 12.5 5.73073C11.3423 5.73073 10.3541 6.14003 9.53555 6.95863C8.71695 7.77721 8.30765 8.76535 8.30765 9.92305V17.3846Z" fill="#101114"/>
</g>
</svg>
