<svg width="25" height="24" viewBox="0 0 25 24" fill="none" xmlns="http://www.w3.org/2000/svg">
<g id="Icon set">
<path id="Vector" d="M20.7899 6.63C21.4799 7.57 21.9399 8.67 22.1399 9.82C22.3499 11.07 22.2499 12.34 21.8299 13.54C21.4317 14.7122 20.7437 15.7647 19.8299 16.6C19.1612 17.2384 18.3992 17.7712 17.5699 18.18C17.9799 19.25 17.4399 20.45 16.3699 20.86C16.1299 20.95 15.8799 21 15.6299 21C15.0936 20.9978 14.5788 20.7885 14.1931 20.4159C13.8074 20.0432 13.5806 19.5359 13.5599 19H10.4899C10.3799 20.14 9.35994 21 8.21994 20.87C7.15994 20.77 6.35994 19.89 6.33994 18.83C6.34994 18.64 6.37994 18.44 6.43994 18.26C4.85161 17.7314 3.45828 16.7386 2.43994 15.41C2.10994 14.97 2.20994 14.34 2.66994 14C2.84994 13.86 3.06994 13.78 3.29994 13.78C4.01994 13.78 4.29994 13.53 4.46994 13.15C4.70994 12.43 4.84994 11.68 4.85994 10.92C4.88994 10.39 4.94994 9.87 5.02994 9.35C5.38104 7.6189 6.34731 6.07358 7.74994 5C9.40994 3.7 11.4399 3 13.5399 3C14.9699 3 16.3799 3.35 17.6499 4C18.8916 4.6133 19.9684 5.51513 20.7899 6.63ZM16.9699 17.31C18.7499 16.5 20.1499 15.04 20.8399 13.21C22.4599 8.27 18.2499 4.05 13.5399 4.05C13.1899 4.05 12.8299 4.07 12.4799 4.12C9.60994 4.5 6.64994 6.5 6.05994 9.5C5.67994 11.5 6.24994 14.79 3.29994 14.79C4.24994 16 5.56994 16.93 7.05994 17.37C7.90994 16.61 9.21994 16.69 9.98994 17.55C10.0999 17.67 10.1899 17.8 10.2499 17.94H13.7999C14.3199 16.92 15.5799 16.5 16.5999 17.04C16.7499 17.12 16.8499 17.21 16.9699 17.31ZM11.2199 10.31C10.6399 10.34 10.1299 9.9 10.0999 9.31C10.0699 8.73 10.5199 8.23 11.0999 8.19C11.6799 8.16 12.1899 8.61 12.2199 9.25C12.2254 9.38219 12.2046 9.51416 12.1587 9.63824C12.1127 9.76231 12.0426 9.87603 11.9524 9.97278C11.8621 10.0695 11.7536 10.1474 11.633 10.2019C11.5124 10.2563 11.3822 10.2863 11.2499 10.29L11.2199 10.31ZM15.9099 10.31C15.3299 10.34 14.8199 9.9 14.7899 9.31C14.7499 8.73 15.2099 8.23 15.7899 8.19C16.3699 8.16 16.8799 8.61 16.9099 9.25C16.9299 9.8 16.4999 10.27 15.9099 10.29V10.31ZM9.95994 12.07C9.89994 11.79 10.0899 11.5 10.3699 11.45C10.6499 11.4 10.9299 11.58 10.9899 11.86C11.1602 12.3988 11.5079 12.8642 11.9764 13.1801C12.4449 13.4961 13.0066 13.6441 13.5699 13.6C14.7099 13.66 15.7499 12.96 16.1399 11.88C16.2799 11.62 16.5999 11.5 16.8499 11.65C17.0299 11.75 17.1399 11.92 17.1399 12.12C16.9499 12.83 16.5099 13.45 15.9099 13.88C15.2199 14.36 14.4099 14.63 13.5699 14.64H13.4599C11.8299 14.71 10.3599 13.64 9.92994 12.06L9.95994 12.07Z" fill="#191C21"/>
</g>
</svg>
