<svg width="64" height="64" viewBox="0 0 64 64" fill="none" xmlns="http://www.w3.org/2000/svg">
<rect x="11.5417" width="40" height="40" rx="20" fill="#26D367"/>
<path d="M39.7667 11.7291C38.6971 10.6486 37.4231 9.792 36.0189 9.20911C34.6148 8.62623 33.1087 8.32876 31.5884 8.33405C25.2183 8.33405 20.0267 13.5257 20.0267 19.8957C20.0267 21.9374 20.5633 23.9207 21.5667 25.6707L19.9333 31.6674L26.0584 30.0574C27.75 30.9791 29.6517 31.4691 31.5884 31.4691C37.9584 31.4691 43.15 26.2774 43.15 19.9074C43.15 16.8157 41.9484 13.9107 39.7667 11.7291ZM31.5884 29.5091C29.8617 29.5091 28.17 29.0424 26.6884 28.1674L26.3383 27.9574L22.6983 28.9141L23.6667 25.3674L23.4334 25.0057C22.4741 23.4739 21.9647 21.7032 21.9633 19.8957C21.9633 14.5991 26.28 10.2824 31.5767 10.2824C34.1433 10.2824 36.5584 11.2857 38.3667 13.1057C39.2621 13.997 39.9717 15.0572 40.4543 16.2247C40.937 17.3923 41.1831 18.644 41.1784 19.9074C41.2017 25.2041 36.885 29.5091 31.5884 29.5091ZM36.8617 22.3224C36.57 22.1824 35.1467 21.4824 34.89 21.3774C34.6217 21.2841 34.435 21.2374 34.2367 21.5174C34.0384 21.8091 33.49 22.4624 33.3267 22.6491C33.1634 22.8474 32.9883 22.8707 32.6967 22.7191C32.405 22.5791 31.4717 22.2641 30.375 21.2841C29.5117 20.5141 28.94 19.5691 28.765 19.2774C28.6017 18.9857 28.7417 18.8341 28.8933 18.6824C29.0217 18.5541 29.185 18.3441 29.325 18.1807C29.465 18.0174 29.5234 17.8891 29.6167 17.7024C29.71 17.5041 29.6634 17.3407 29.5934 17.2007C29.5233 17.0607 28.94 15.6374 28.7067 15.0541C28.4733 14.4941 28.2284 14.5641 28.0534 14.5524H27.4933C27.295 14.5524 26.9917 14.6224 26.7233 14.9141C26.4667 15.2057 25.72 15.9057 25.72 17.3291C25.72 18.7524 26.7584 20.1291 26.8984 20.3157C27.0384 20.5141 28.94 23.4307 31.8334 24.6791C32.5217 24.9824 33.0583 25.1574 33.4783 25.2857C34.1667 25.5074 34.7967 25.4724 35.2984 25.4024C35.8584 25.3207 37.0133 24.7024 37.2467 24.0257C37.4917 23.3491 37.4917 22.7774 37.41 22.6491C37.3284 22.5207 37.1534 22.4624 36.8617 22.3224Z" fill="white"/>
<path d="M14.3217 48.969L11.1927 59H9.97469L7.43369 51.349C7.41035 51.2743 7.38702 51.195 7.36369 51.111C7.34502 51.027 7.32402 50.9383 7.30069 50.845C7.27735 50.9383 7.25402 51.027 7.23069 51.111C7.20735 51.195 7.18402 51.2743 7.16069 51.349L4.60569 59H3.38769L0.258687 48.969H1.38569C1.50702 48.969 1.60735 48.9993 1.68669 49.06C1.77069 49.1207 1.82435 49.1977 1.84769 49.291L3.91969 56.263C3.95235 56.389 3.98269 56.5243 4.01069 56.669C4.04335 56.8137 4.07369 56.9677 4.10169 57.131C4.13435 56.9677 4.16702 56.8137 4.19969 56.669C4.23702 56.5197 4.27669 56.3843 4.31869 56.263L6.67769 49.291C6.70569 49.2117 6.75935 49.1393 6.83869 49.074C6.92269 49.004 7.02302 48.969 7.13969 48.969H7.53169C7.65302 48.969 7.75102 48.9993 7.82569 49.06C7.90035 49.1207 7.95635 49.1977 7.99369 49.291L10.3457 56.263C10.3877 56.3843 10.425 56.515 10.4577 56.655C10.495 56.795 10.53 56.942 10.5627 57.096C10.586 56.942 10.6117 56.795 10.6397 56.655C10.6677 56.515 10.698 56.3843 10.7307 56.263L12.8097 49.291C12.833 49.207 12.8844 49.1323 12.9637 49.067C13.0477 49.0017 13.148 48.969 13.2647 48.969H14.3217ZM16.7055 52.854C17.0088 52.532 17.3448 52.2753 17.7135 52.084C18.0822 51.8927 18.5068 51.797 18.9875 51.797C19.3748 51.797 19.7155 51.8623 20.0095 51.993C20.3082 52.119 20.5555 52.301 20.7515 52.539C20.9522 52.7723 21.1038 53.0547 21.2065 53.386C21.3092 53.7173 21.3605 54.0837 21.3605 54.485V59H20.1075V54.485C20.1075 53.9483 19.9838 53.533 19.7365 53.239C19.4938 52.9403 19.1228 52.791 18.6235 52.791C18.2548 52.791 17.9095 52.8797 17.5875 53.057C17.2702 53.2343 16.9762 53.4747 16.7055 53.778V59H15.4525V48.689H16.7055V52.854ZM27.1022 55.808C26.5282 55.8267 26.0382 55.8733 25.6322 55.948C25.2308 56.018 24.9018 56.1113 24.6452 56.228C24.3932 56.3447 24.2088 56.4823 24.0922 56.641C23.9802 56.7997 23.9242 56.977 23.9242 57.173C23.9242 57.3597 23.9545 57.5207 24.0152 57.656C24.0758 57.7913 24.1575 57.9033 24.2602 57.992C24.3675 58.076 24.4912 58.139 24.6312 58.181C24.7758 58.2183 24.9298 58.237 25.0932 58.237C25.3125 58.237 25.5132 58.216 25.6952 58.174C25.8772 58.1273 26.0475 58.062 26.2062 57.978C26.3695 57.894 26.5235 57.7937 26.6682 57.677C26.8175 57.5603 26.9622 57.4273 27.1022 57.278V55.808ZM23.0772 52.91C23.4692 52.532 23.8915 52.2497 24.3442 52.063C24.7968 51.8763 25.2985 51.783 25.8492 51.783C26.2458 51.783 26.5982 51.8483 26.9062 51.979C27.2142 52.1097 27.4732 52.2917 27.6832 52.525C27.8932 52.7583 28.0518 53.0407 28.1592 53.372C28.2665 53.7033 28.3202 54.0673 28.3202 54.464V59H27.7672C27.6458 59 27.5525 58.9813 27.4872 58.944C27.4218 58.902 27.3705 58.8227 27.3332 58.706L27.1932 58.034C27.0065 58.2067 26.8245 58.3607 26.6472 58.496C26.4698 58.6267 26.2832 58.7387 26.0872 58.832C25.8912 58.9207 25.6812 58.9883 25.4572 59.035C25.2378 59.0863 24.9928 59.112 24.7222 59.112C24.4468 59.112 24.1878 59.0747 23.9452 59C23.7025 58.9207 23.4902 58.804 23.3082 58.65C23.1308 58.496 22.9885 58.3023 22.8812 58.069C22.7785 57.831 22.7272 57.551 22.7272 57.229C22.7272 56.949 22.8042 56.6807 22.9582 56.424C23.1122 56.1627 23.3618 55.9317 23.7072 55.731C24.0525 55.5303 24.5028 55.367 25.0582 55.241C25.6135 55.1103 26.2948 55.0357 27.1022 55.017V54.464C27.1022 53.9133 26.9832 53.498 26.7452 53.218C26.5072 52.9333 26.1595 52.791 25.7022 52.791C25.3942 52.791 25.1352 52.8307 24.9252 52.91C24.7198 52.9847 24.5402 53.071 24.3862 53.169C24.2368 53.2623 24.1062 53.3487 23.9942 53.428C23.8868 53.5027 23.7795 53.54 23.6722 53.54C23.5882 53.54 23.5158 53.519 23.4552 53.477C23.3945 53.4303 23.3432 53.3743 23.3012 53.309L23.0772 52.91ZM32.2994 59.112C31.7394 59.112 31.3078 58.9557 31.0044 58.643C30.7058 58.3303 30.5564 57.88 30.5564 57.292V52.952H29.7024C29.6278 52.952 29.5648 52.931 29.5134 52.889C29.4621 52.8423 29.4364 52.7723 29.4364 52.679V52.182L30.5984 52.035L30.8854 49.844C30.8994 49.774 30.9298 49.718 30.9764 49.676C31.0278 49.6293 31.0931 49.606 31.1724 49.606H31.8024V52.049H33.8534V52.952H31.8024V57.208C31.8024 57.5067 31.8748 57.7283 32.0194 57.873C32.1641 58.0177 32.3508 58.09 32.5794 58.09C32.7101 58.09 32.8221 58.0737 32.9154 58.041C33.0134 58.0037 33.0974 57.964 33.1674 57.922C33.2374 57.88 33.2958 57.8427 33.3424 57.81C33.3938 57.7727 33.4381 57.754 33.4754 57.754C33.5408 57.754 33.5991 57.7937 33.6504 57.873L34.0144 58.468C33.7998 58.6687 33.5408 58.8273 33.2374 58.944C32.9341 59.056 32.6214 59.112 32.2994 59.112ZM39.27 53.078C39.214 53.1807 39.1277 53.232 39.011 53.232C38.941 53.232 38.8617 53.2063 38.773 53.155C38.6843 53.1037 38.5747 53.0477 38.444 52.987C38.318 52.9217 38.1663 52.8633 37.989 52.812C37.8117 52.756 37.6017 52.728 37.359 52.728C37.149 52.728 36.96 52.756 36.792 52.812C36.624 52.8633 36.4793 52.9357 36.358 53.029C36.2413 53.1223 36.1503 53.232 36.085 53.358C36.0243 53.4793 35.994 53.6123 35.994 53.757C35.994 53.939 36.0453 54.0907 36.148 54.212C36.2553 54.3333 36.3953 54.4383 36.568 54.527C36.7407 54.6157 36.9367 54.695 37.156 54.765C37.3753 54.8303 37.5993 54.9027 37.828 54.982C38.0613 55.0567 38.2877 55.1407 38.507 55.234C38.7263 55.3273 38.9223 55.444 39.095 55.584C39.2677 55.724 39.4053 55.8967 39.508 56.102C39.6153 56.3027 39.669 56.5453 39.669 56.83C39.669 57.1567 39.6107 57.46 39.494 57.74C39.3773 58.0153 39.2047 58.2557 38.976 58.461C38.7473 58.6617 38.4673 58.8203 38.136 58.937C37.8047 59.0537 37.422 59.112 36.988 59.112C36.4933 59.112 36.0453 59.0327 35.644 58.874C35.2427 58.7107 34.902 58.503 34.622 58.251L34.916 57.775C34.9533 57.7143 34.9977 57.6677 35.049 57.635C35.1003 57.6023 35.1657 57.586 35.245 57.586C35.329 57.586 35.4177 57.6187 35.511 57.684C35.6043 57.7493 35.7163 57.8217 35.847 57.901C35.9823 57.9803 36.1457 58.0527 36.337 58.118C36.5283 58.1833 36.7663 58.216 37.051 58.216C37.2937 58.216 37.506 58.1857 37.688 58.125C37.87 58.0597 38.0217 57.9733 38.143 57.866C38.2643 57.7587 38.353 57.635 38.409 57.495C38.4697 57.355 38.5 57.2057 38.5 57.047C38.5 56.851 38.4463 56.69 38.339 56.564C38.2363 56.4333 38.0987 56.3237 37.926 56.235C37.7533 56.1417 37.555 56.0623 37.331 55.997C37.1117 55.927 36.8853 55.8547 36.652 55.78C36.4233 55.7053 36.197 55.6213 35.973 55.528C35.7537 55.43 35.5577 55.3087 35.385 55.164C35.2123 55.0193 35.0723 54.842 34.965 54.632C34.8623 54.4173 34.811 54.1583 34.811 53.855C34.811 53.5843 34.867 53.3253 34.979 53.078C35.091 52.826 35.2543 52.6067 35.469 52.42C35.6837 52.2287 35.9473 52.077 36.26 51.965C36.5727 51.853 36.9297 51.797 37.331 51.797C37.7977 51.797 38.2153 51.8717 38.584 52.021C38.9573 52.1657 39.2793 52.3663 39.55 52.623L39.27 53.078ZM45.0397 55.808C44.4657 55.8267 43.9757 55.8733 43.5697 55.948C43.1683 56.018 42.8393 56.1113 42.5827 56.228C42.3307 56.3447 42.1463 56.4823 42.0297 56.641C41.9177 56.7997 41.8617 56.977 41.8617 57.173C41.8617 57.3597 41.892 57.5207 41.9527 57.656C42.0133 57.7913 42.095 57.9033 42.1977 57.992C42.305 58.076 42.4287 58.139 42.5687 58.181C42.7133 58.2183 42.8673 58.237 43.0307 58.237C43.25 58.237 43.4507 58.216 43.6327 58.174C43.8147 58.1273 43.985 58.062 44.1437 57.978C44.307 57.894 44.461 57.7937 44.6057 57.677C44.755 57.5603 44.8997 57.4273 45.0397 57.278V55.808ZM41.0147 52.91C41.4067 52.532 41.829 52.2497 42.2817 52.063C42.7343 51.8763 43.236 51.783 43.7867 51.783C44.1833 51.783 44.5357 51.8483 44.8437 51.979C45.1517 52.1097 45.4107 52.2917 45.6207 52.525C45.8307 52.7583 45.9893 53.0407 46.0967 53.372C46.204 53.7033 46.2577 54.0673 46.2577 54.464V59H45.7047C45.5833 59 45.49 58.9813 45.4247 58.944C45.3593 58.902 45.308 58.8227 45.2707 58.706L45.1307 58.034C44.944 58.2067 44.762 58.3607 44.5847 58.496C44.4073 58.6267 44.2207 58.7387 44.0247 58.832C43.8287 58.9207 43.6187 58.9883 43.3947 59.035C43.1753 59.0863 42.9303 59.112 42.6597 59.112C42.3843 59.112 42.1253 59.0747 41.8827 59C41.64 58.9207 41.4277 58.804 41.2457 58.65C41.0683 58.496 40.926 58.3023 40.8187 58.069C40.716 57.831 40.6647 57.551 40.6647 57.229C40.6647 56.949 40.7417 56.6807 40.8957 56.424C41.0497 56.1627 41.2993 55.9317 41.6447 55.731C41.99 55.5303 42.4403 55.367 42.9957 55.241C43.551 55.1103 44.2323 55.0357 45.0397 55.017V54.464C45.0397 53.9133 44.9207 53.498 44.6827 53.218C44.4447 52.9333 44.097 52.791 43.6397 52.791C43.3317 52.791 43.0727 52.8307 42.8627 52.91C42.6573 52.9847 42.4777 53.071 42.3237 53.169C42.1743 53.2623 42.0437 53.3487 41.9317 53.428C41.8243 53.5027 41.717 53.54 41.6097 53.54C41.5257 53.54 41.4533 53.519 41.3927 53.477C41.332 53.4303 41.2807 53.3743 41.2387 53.309L41.0147 52.91ZM49.4086 57.292C49.6373 57.6 49.887 57.817 50.1576 57.943C50.4283 58.069 50.7316 58.132 51.0676 58.132C51.7303 58.132 52.239 57.8963 52.5936 57.425C52.9483 56.9537 53.1256 56.2817 53.1256 55.409C53.1256 54.947 53.0836 54.5503 52.9996 54.219C52.9203 53.8877 52.8036 53.617 52.6496 53.407C52.4956 53.1923 52.3066 53.036 52.0826 52.938C51.8586 52.84 51.6043 52.791 51.3196 52.791C50.9136 52.791 50.5566 52.8843 50.2486 53.071C49.9453 53.2577 49.6653 53.5213 49.4086 53.862V57.292ZM49.3456 53.008C49.6443 52.6393 49.9896 52.343 50.3816 52.119C50.7736 51.895 51.2216 51.783 51.7256 51.783C52.1363 51.783 52.5073 51.8623 52.8386 52.021C53.17 52.175 53.4523 52.406 53.6856 52.714C53.919 53.0173 54.0986 53.3953 54.2246 53.848C54.3506 54.3007 54.4136 54.821 54.4136 55.409C54.4136 55.9317 54.3436 56.4193 54.2036 56.872C54.0636 57.32 53.8606 57.7097 53.5946 58.041C53.3333 58.3677 53.0113 58.6267 52.6286 58.818C52.2506 59.0047 51.8236 59.098 51.3476 59.098C50.9136 59.098 50.5403 59.0257 50.2276 58.881C49.9196 58.7317 49.6466 58.5263 49.4086 58.265V61.401H48.1556V51.909H48.9046C49.082 51.909 49.1916 51.9953 49.2336 52.168L49.3456 53.008ZM57.2563 57.292C57.485 57.6 57.7346 57.817 58.0053 57.943C58.276 58.069 58.5793 58.132 58.9153 58.132C59.578 58.132 60.0866 57.8963 60.4413 57.425C60.796 56.9537 60.9733 56.2817 60.9733 55.409C60.9733 54.947 60.9313 54.5503 60.8473 54.219C60.768 53.8877 60.6513 53.617 60.4973 53.407C60.3433 53.1923 60.1543 53.036 59.9303 52.938C59.7063 52.84 59.452 52.791 59.1673 52.791C58.7613 52.791 58.4043 52.8843 58.0963 53.071C57.793 53.2577 57.513 53.5213 57.2563 53.862V57.292ZM57.1933 53.008C57.492 52.6393 57.8373 52.343 58.2293 52.119C58.6213 51.895 59.0693 51.783 59.5733 51.783C59.984 51.783 60.355 51.8623 60.6863 52.021C61.0176 52.175 61.3 52.406 61.5333 52.714C61.7666 53.0173 61.9463 53.3953 62.0723 53.848C62.1983 54.3007 62.2613 54.821 62.2613 55.409C62.2613 55.9317 62.1913 56.4193 62.0513 56.872C61.9113 57.32 61.7083 57.7097 61.4423 58.041C61.181 58.3677 60.859 58.6267 60.4763 58.818C60.0983 59.0047 59.6713 59.098 59.1953 59.098C58.7613 59.098 58.388 59.0257 58.0753 58.881C57.7673 58.7317 57.4943 58.5263 57.2563 58.265V61.401H56.0033V51.909H56.7523C56.9296 51.909 57.0393 51.9953 57.0813 52.168L57.1933 53.008Z" fill="#46474A"/>
</svg>
