<svg width="18" height="18" viewBox="0 0 18 18" fill="none" xmlns="http://www.w3.org/2000/svg">
<g id="Icon set">
<path id="Vector" d="M7.13943 11.7121C5.85867 11.7121 4.77406 11.2679 3.88561 10.3794C2.99715 9.49095 2.55292 8.40634 2.55292 7.12558C2.55292 5.84481 2.99715 4.7602 3.88561 3.87174C4.77406 2.98329 5.85867 2.53906 7.13943 2.53906C8.42019 2.53906 9.50481 2.98329 10.3933 3.87174C11.2817 4.7602 11.726 5.84481 11.726 7.12558C11.726 7.66115 11.6361 8.17269 11.4562 8.66019C11.2764 9.14769 11.0365 9.57173 10.7365 9.9323L15.0519 14.2477C15.1558 14.3515 15.2089 14.4821 15.2113 14.6393C15.2137 14.7965 15.1606 14.9294 15.0519 15.0381C14.9433 15.1467 14.8115 15.201 14.6567 15.201C14.5019 15.201 14.3702 15.1467 14.2616 15.0381L9.94616 10.7227C9.57116 11.0323 9.13991 11.2746 8.65241 11.4496C8.16491 11.6246 7.66058 11.7121 7.13943 11.7121ZM7.13943 10.5871C8.10578 10.5871 8.92429 10.2518 9.59497 9.58111C10.2656 8.91044 10.601 8.09193 10.601 7.12558C10.601 6.15923 10.2656 5.34071 9.59497 4.67004C8.92429 3.99936 8.10578 3.66402 7.13943 3.66402C6.17308 3.66402 5.35457 3.99936 4.68389 4.67004C4.01323 5.34071 3.6779 6.15923 3.6779 7.12558C3.6779 8.09193 4.01323 8.91044 4.68389 9.58111C5.35457 10.2518 6.17308 10.5871 7.13943 10.5871Z" fill="#1A1C1E"/>
</g>
</svg>
