<svg width="41" height="40" viewBox="0 0 41 40" fill="none" xmlns="http://www.w3.org/2000/svg">
<rect x="0.208313" width="40" height="40" rx="20" fill="url(#paint0_linear_3146_40706)"/>
<path d="M25.4617 9.76023C26.8143 9.76427 28.1103 10.3034 29.0667 11.2598C30.0231 12.2162 30.5622 13.5122 30.5662 14.8648V25.0727C30.5622 26.4253 30.0231 27.7213 29.0667 28.6777C28.1103 29.6341 26.8143 30.1732 25.4617 30.1773H15.2537C13.9012 30.1732 12.6052 29.6341 11.6488 28.6777C10.6923 27.7213 10.1533 26.4253 10.1492 25.0727V14.8648C10.1533 13.5122 10.6923 12.2162 11.6488 11.2598C12.6052 10.3034 13.9012 9.76427 15.2537 9.76023H25.4617ZM25.4617 7.71875H15.2537C11.3234 7.71875 8.10773 10.9344 8.10773 14.8648V25.0727C8.10773 29.0031 11.3234 32.2188 15.2537 32.2188H25.4617C29.3921 32.2188 32.6077 29.0031 32.6077 25.0727V14.8648C32.6077 10.9344 29.3921 7.71875 25.4617 7.71875Z" fill="white"/>
<path d="M26.993 14.8652C26.6901 14.8652 26.3941 14.7754 26.1422 14.6072C25.8904 14.4389 25.6942 14.1998 25.5783 13.92C25.4624 13.6402 25.4321 13.3323 25.4911 13.0353C25.5502 12.7382 25.6961 12.4654 25.9102 12.2512C26.1244 12.0371 26.3972 11.8912 26.6942 11.8322C26.9913 11.7731 27.2991 11.8034 27.5789 11.9193C27.8587 12.0352 28.0979 12.2315 28.2662 12.4833C28.4344 12.7351 28.5242 13.0311 28.5242 13.334C28.5246 13.5352 28.4853 13.7345 28.4085 13.9205C28.3317 14.1065 28.219 14.2754 28.0767 14.4177C27.9344 14.56 27.7654 14.6728 27.5795 14.7496C27.3935 14.8264 27.1942 14.8657 26.993 14.8652ZM20.3577 15.8857C21.1654 15.8857 21.9549 16.1252 22.6264 16.5739C23.2979 17.0226 23.8213 17.6604 24.1304 18.4065C24.4395 19.1527 24.5203 19.9737 24.3628 20.7659C24.2052 21.558 23.8163 22.2856 23.2452 22.8567C22.6741 23.4278 21.9465 23.8167 21.1544 23.9743C20.3623 24.1318 19.5412 24.051 18.795 23.7419C18.0489 23.4328 17.4111 22.9094 16.9624 22.2379C16.5137 21.5664 16.2742 20.7769 16.2742 19.9692C16.2754 18.8866 16.706 17.8486 17.4715 17.083C18.2371 16.3175 19.2751 15.8869 20.3577 15.8857ZM20.3577 13.8442C19.1463 13.8442 17.9621 14.2034 16.9549 14.8765C15.9476 15.5495 15.1626 16.5061 14.699 17.6253C14.2354 18.7445 14.1141 19.976 14.3504 21.1641C14.5868 22.3523 15.1701 23.4437 16.0267 24.3002C16.8833 25.1568 17.9747 25.7402 19.1628 25.9765C20.3509 26.2129 21.5825 26.0916 22.7017 25.628C23.8209 25.1644 24.7775 24.3793 25.4505 23.3721C26.1235 22.3648 26.4827 21.1806 26.4827 19.9692C26.4827 18.3448 25.8374 16.7869 24.6888 15.6382C23.5401 14.4895 21.9822 13.8442 20.3577 13.8442Z" fill="white"/>
<defs>
<linearGradient id="paint0_linear_3146_40706" x1="8.32952" y1="4.36364" x2="30.875" y2="36.3636" gradientUnits="userSpaceOnUse">
<stop stop-color="#8C48DB"/>
<stop offset="0.270833" stop-color="#CC4498"/>
<stop offset="0.515625" stop-color="#F7416A"/>
<stop offset="0.807292" stop-color="#FE7C4A"/>
<stop offset="0.990131" stop-color="#FFB135"/>
</linearGradient>
</defs>
</svg>
