<svg width="25" height="24" viewBox="0 0 25 24" fill="none" xmlns="http://www.w3.org/2000/svg">
<g id="RU" clip-path="url(#clip0_3685_6650)">
<path id="Vector" d="M12.5 24C19.1274 24 24.5 18.6274 24.5 12C24.5 5.37258 19.1274 0 12.5 0C5.87258 0 0.5 5.37258 0.5 12C0.5 18.6274 5.87258 24 12.5 24Z" fill="#F0F0F0"/>
<path id="Vector_2" d="M23.7539 16.174C24.2362 14.874 24.5002 13.4679 24.5002 12.0001C24.5002 10.5322 24.2362 9.12616 23.7539 7.82617H1.24663C0.764291 9.12616 0.500244 10.5322 0.500244 12.0001C0.500244 13.4679 0.764291 14.874 1.24663 16.174L12.5002 17.2174L23.7539 16.174Z" fill="#0052B4"/>
<path id="Vector_3" d="M12.5004 23.9999C17.66 23.9999 22.0585 20.7434 23.754 16.1738H1.24683C2.94234 20.7434 7.34086 23.9999 12.5004 23.9999Z" fill="#D80027"/>
</g>
<defs>
<clipPath id="clip0_3685_6650">
<rect width="24" height="24" fill="white" transform="translate(0.5)"/>
</clipPath>
</defs>
</svg>
