<svg width="41" height="40" viewBox="0 0 41 40" fill="none" xmlns="http://www.w3.org/2000/svg">
<g id="telegram">
<rect x="0.375" width="40" height="40" rx="20" fill="#27A1FC"/>
<path id="Vector" d="M31.9045 9.42815C31.6556 9.21718 31.3541 9.07761 31.0321 9.02428C30.7101 8.97095 30.3798 9.00585 30.0761 9.12527L9.3683 17.2581C9.00509 17.3964 8.69744 17.6504 8.49271 17.9808C8.28799 18.3112 8.19755 18.6997 8.23532 19.0865C8.26901 19.4732 8.42716 19.8386 8.68603 20.1278C8.94491 20.417 9.29057 20.6145 9.67118 20.6907L14.9322 21.7339V28.3074C14.9321 28.663 15.0375 29.0107 15.2352 29.3063C15.433 29.6019 15.714 29.8321 16.0428 29.9676C16.2604 30.0552 16.4925 30.1009 16.7271 30.1023C16.9628 30.1031 17.1963 30.0569 17.414 29.9664C17.6316 29.8758 17.8291 29.7428 17.9947 29.575L20.9112 26.6697L25.3198 30.551C25.6452 30.838 26.0637 30.9974 26.4976 30.9997C26.6885 31.0036 26.8784 30.9732 27.0585 30.9099C27.3545 30.8163 27.621 30.6469 27.8315 30.4187C28.042 30.1905 28.1893 29.9113 28.2588 29.6087L32.4766 11.1893C32.5503 10.8715 32.536 10.5396 32.4352 10.2293C32.3344 9.91895 32.151 9.64199 31.9045 9.42815ZM15.6165 20.04L10.0301 18.9295L25.69 12.771L15.6165 20.04ZM16.7271 28.3074V22.9903L19.5539 25.4806L16.7271 28.3074ZM26.5088 29.2048L17.2655 21.0721L30.5808 11.4585L26.5088 29.2048Z" fill="white"/>
</g>
</svg>
