<svg width="41" height="40" viewBox="0 0 41 40" fill="none" xmlns="http://www.w3.org/2000/svg">
<rect x="0.541687" width="40" height="40" rx="20" fill="#26D367"/>
<path d="M28.7667 11.7291C27.6971 10.6486 26.4231 9.792 25.0189 9.20911C23.6148 8.62623 22.1087 8.32876 20.5884 8.33405C14.2183 8.33405 9.02668 13.5257 9.02668 19.8957C9.02668 21.9374 9.56335 23.9207 10.5667 25.6707L8.93335 31.6674L15.0584 30.0574C16.75 30.9791 18.6517 31.4691 20.5884 31.4691C26.9584 31.4691 32.15 26.2774 32.15 19.9074C32.15 16.8157 30.9484 13.9107 28.7667 11.7291ZM20.5884 29.5091C18.8617 29.5091 17.17 29.0424 15.6884 28.1674L15.3383 27.9574L11.6983 28.9141L12.6667 25.3674L12.4334 25.0057C11.4741 23.4739 10.9647 21.7032 10.9633 19.8957C10.9633 14.5991 15.28 10.2824 20.5767 10.2824C23.1433 10.2824 25.5584 11.2857 27.3667 13.1057C28.2621 13.997 28.9717 15.0572 29.4543 16.2247C29.937 17.3923 30.1831 18.644 30.1784 19.9074C30.2017 25.2041 25.885 29.5091 20.5884 29.5091ZM25.8617 22.3224C25.57 22.1824 24.1467 21.4824 23.89 21.3774C23.6217 21.2841 23.435 21.2374 23.2367 21.5174C23.0384 21.8091 22.49 22.4624 22.3267 22.6491C22.1634 22.8474 21.9883 22.8707 21.6967 22.7191C21.405 22.5791 20.4717 22.2641 19.375 21.2841C18.5117 20.5141 17.94 19.5691 17.765 19.2774C17.6017 18.9857 17.7417 18.8341 17.8933 18.6824C18.0217 18.5541 18.185 18.3441 18.325 18.1807C18.465 18.0174 18.5234 17.8891 18.6167 17.7024C18.71 17.5041 18.6634 17.3407 18.5934 17.2007C18.5233 17.0607 17.94 15.6374 17.7067 15.0541C17.4733 14.4941 17.2284 14.5641 17.0534 14.5524H16.4933C16.295 14.5524 15.9917 14.6224 15.7233 14.9141C15.4667 15.2057 14.72 15.9057 14.72 17.3291C14.72 18.7524 15.7584 20.1291 15.8984 20.3157C16.0384 20.5141 17.94 23.4307 20.8334 24.6791C21.5217 24.9824 22.0583 25.1574 22.4783 25.2857C23.1667 25.5074 23.7967 25.4724 24.2984 25.4024C24.8584 25.3207 26.0133 24.7024 26.2467 24.0257C26.4917 23.3491 26.4917 22.7774 26.41 22.6491C26.3284 22.5207 26.1534 22.4624 25.8617 22.3224Z" fill="white"/>
</svg>
