<svg width="300" height="300" viewBox="0 0 300 300" fill="none" xmlns="http://www.w3.org/2000/svg">
<path d="M44.5557 205.697C47.6997 204.077 51.3957 203.867 54.8817 204.443C56.7537 204.755 58.7037 205.313 59.9817 206.723C61.2597 208.133 61.4937 210.605 60.0297 211.811C59.1597 212.531 57.9477 212.639 56.8197 212.627C54.0897 212.597 51.0597 212.117 48.8817 213.755C47.6337 214.697 46.8057 216.251 45.3237 216.713C43.8417 217.175 42.2217 216.305 41.4537 214.991C40.744 213.624 40.5872 212.037 41.0157 210.557C41.1914 209.529 41.6023 208.556 42.2164 207.713C42.8305 206.87 43.6311 206.18 44.5557 205.697Z" fill="#00A823"/>
<path d="M37.3618 191.814C39.2818 194.556 43.0138 193.644 44.7478 191.976C46.4818 190.308 47.2078 187.872 47.8738 185.562C49.3918 180.276 50.9278 174.762 49.7938 169.362C49.5234 167.731 48.807 166.207 47.7238 164.958C47.1764 164.34 46.4764 163.878 45.694 163.617C44.9115 163.356 44.0741 163.305 43.2658 163.47C41.3818 163.968 40.2178 165.81 39.3718 167.568C36.8798 172.742 35.574 178.408 35.5498 184.152C35.5498 186.822 35.8558 189.624 37.3498 191.832" fill="#00A823"/>
<path d="M32.0879 195.75C34.1759 193.272 34.5719 189.666 33.6419 186.564C32.7119 183.462 30.6419 180.828 28.2059 178.674C25.3637 176.146 22.0561 174.195 18.4679 172.932C17.0793 172.369 15.5846 172.115 14.0879 172.188C13.3404 172.23 12.6146 172.455 11.9736 172.842C11.3326 173.229 10.7958 173.766 10.4099 174.408C9.38393 176.364 10.3679 178.734 11.4299 180.672C13.3034 184.081 15.442 187.337 17.8259 190.41C19.7459 192.882 21.9419 195.318 24.8639 196.41C27.7859 197.502 30.8219 197.4 32.3999 195.396" fill="#00A823"/>
<path d="M37.236 233.177C37.3358 232.77 37.3941 232.354 37.41 231.935C37.494 231.023 37.608 229.889 37.74 228.533C37.9075 226.857 38.1619 225.191 38.502 223.541C38.9463 221.535 39.5481 219.567 40.302 217.655C41.0467 215.747 42.0567 213.954 43.302 212.327C44.3187 211.005 45.6184 209.926 47.106 209.171C48.1196 208.679 49.2052 208.35 50.322 208.199C50.7411 208.182 51.1574 208.122 51.564 208.019C51.1453 207.973 50.7227 207.973 50.304 208.019C49.1476 208.107 48.016 208.4 46.962 208.883C45.3988 209.623 44.0273 210.713 42.954 212.069C41.6542 213.718 40.6049 215.55 39.84 217.505C39.0668 219.449 38.4646 221.457 38.04 223.505C37.7171 225.175 37.4947 226.862 37.374 228.557C37.266 230.003 37.23 231.173 37.206 231.983C37.173 232.381 37.183 232.782 37.236 233.177Z" fill="#263238"/>
<path d="M37.4701 230.562C37.4927 230.362 37.4927 230.161 37.4701 229.962V228.306C37.4701 226.872 37.4701 224.796 37.5421 222.234C37.6681 217.104 38.1421 211.584 38.9641 203.802C39.7681 196.488 40.8541 187.968 42.0001 182.436C42.2401 181.176 42.4921 180.036 42.7201 179.052C42.9481 178.068 43.1341 177.198 43.3201 176.502C43.5061 175.806 43.6081 175.302 43.7101 174.9C43.7695 174.705 43.8037 174.503 43.8121 174.3C43.7201 174.47 43.6515 174.651 43.6081 174.84C43.4821 175.254 43.3261 175.782 43.1281 176.424C42.9301 177.066 42.6961 177.96 42.4501 178.956C42.2041 179.952 41.9161 181.074 41.6461 182.328C40.2333 188.867 39.1678 195.476 38.4541 202.128C37.6021 209.928 37.2181 217.026 37.1821 222.162C37.1821 224.736 37.1821 226.818 37.2721 228.252C37.3141 228.924 37.3501 229.452 37.3741 229.902C37.376 230.125 37.4083 230.347 37.4701 230.562Z" fill="#263238"/>
<path d="M37.5001 216.87C37.5459 216.295 37.5459 215.717 37.5001 215.142C37.4024 213.574 37.2262 212.012 36.9721 210.462C36.596 208.163 36.0891 205.887 35.4541 203.646C34.7054 200.895 33.7466 198.205 32.5861 195.6C30.5999 190.781 27.7535 186.363 24.1861 182.562C23.568 181.912 22.9108 181.301 22.2181 180.732C21.9121 180.48 21.6481 180.222 21.3721 180.024L20.6101 179.496C20.166 179.141 19.6945 178.822 19.2001 178.542C19.1161 178.65 21.2581 179.916 23.9641 182.79C27.4001 186.626 30.1575 191.018 32.1181 195.78C33.2493 198.378 34.2074 201.048 34.9861 203.772C35.7301 206.28 36.2281 208.572 36.6001 210.522C36.9721 212.472 37.1641 214.056 37.2901 215.16C37.3199 215.734 37.3901 216.306 37.5001 216.87Z" fill="#263238"/>
<path d="M24.27 241.025L25.638 259.823H49.788L51.162 241.025H24.27Z" fill="#263238"/>
<path d="M54.042 233.615H21.936V241.025H54.042V233.615Z" fill="#263238"/>
<path d="M21.936 259.104V261.156H23.442H53.514V259.104H21.936Z" fill="#455A64"/>
<path d="M24.9239 264.773L23.4419 261.155H52.3619L50.6339 264.773H24.9239Z" fill="#455A64"/>
<path d="M50.7117 247.199C50.6817 247.26 50.6434 247.317 50.5977 247.367C50.5017 247.499 50.3877 247.655 50.2377 247.847L48.8337 249.647L48.7677 249.731L48.7077 249.647L45.2517 244.847H45.4497L42.0477 249.647L41.9397 249.797L41.8197 249.659L37.7877 244.859H38.0217C37.9497 244.943 37.8717 245.039 37.7997 245.135L34.1997 249.659L34.0797 249.809L33.9717 249.653L30.5637 244.853H30.7617C29.0877 246.767 27.6597 248.387 26.5617 249.653L26.4897 249.737L26.4357 249.641C25.8777 248.717 25.4397 247.973 25.1217 247.439C24.9837 247.199 24.8697 247.007 24.7857 246.839C24.7401 246.775 24.7037 246.704 24.6777 246.629C24.6777 246.629 24.7317 246.689 24.8217 246.815L25.1937 247.379L26.5737 249.545H26.4417L30.5637 244.709L30.6717 244.589L30.7617 244.721L34.1997 249.521H33.9597L37.5597 244.991L37.7817 244.715L37.9017 244.571L38.0157 244.709C39.4317 246.395 40.7877 248.021 42.0417 249.509H41.8137L45.2517 244.709L45.3537 244.571L45.4497 244.709L48.8337 249.545H48.7137L50.1777 247.799L50.5677 247.343C50.6597 247.219 50.7077 247.171 50.7117 247.199Z" fill="#E0E0E0"/>
<path d="M51.4978 240.9C51.4978 240.984 45.4438 241.05 37.9858 241.05C30.5278 241.05 24.4678 240.984 24.4678 240.9C24.4678 240.816 30.5158 240.75 37.9858 240.75C45.4558 240.75 51.4978 240.816 51.4978 240.9Z" fill="#455A64"/>
<path d="M52.7158 261.36C52.7158 261.444 46.1158 261.51 38.0278 261.51C29.9398 261.51 23.3398 261.444 23.3398 261.36C23.3398 261.276 29.9398 261.21 38.0278 261.21C46.1158 261.21 52.7158 261.276 52.7158 261.36Z" fill="#263238"/>
<path d="M217.86 185.466H273.978C276.385 185.466 278.694 186.422 280.397 188.125C282.099 189.827 283.056 192.136 283.056 194.544V265.116H208.8V194.544C208.8 192.139 209.754 189.833 211.452 188.131C213.151 186.429 215.455 185.471 217.86 185.466Z" fill="#455A64"/>
<path d="M276.804 185.874C276.894 185.874 276.96 203.604 276.96 225.474C276.96 247.344 276.894 265.074 276.804 265.074C276.714 265.074 276.648 247.344 276.648 225.474C276.648 203.604 276.72 185.874 276.804 185.874Z" fill="#263238"/>
<path d="M240.216 99.0003C247.045 108.777 250.961 120.291 251.508 132.204C251.856 140.184 250.782 148.686 254.568 155.718C260.004 165.81 271.758 165.468 275.358 176.346C276.924 181.08 274.038 191.49 273.258 196.416C272.376 202.008 275.796 206.706 274.914 212.304C274.104 217.434 270.264 221.094 265.656 223.482C261.552 225.606 257.76 225.666 253.494 223.896C245.358 220.53 238.59 216.978 232.8 210.354C224.664 201.054 222.204 188.154 220.8 175.896C217.736 148.788 218.356 121.389 222.642 94.4463" fill="#263238"/>
<path d="M257.61 225.043C257.695 225.015 257.781 224.993 257.868 224.977C258.042 224.935 258.306 224.893 258.642 224.791C261.173 224.102 263.441 222.676 265.158 220.693C265.804 219.937 266.297 219.063 266.61 218.119C266.91 217.045 267.081 215.939 267.12 214.825C267.164 212.255 266.902 209.689 266.34 207.181C265.818 204.457 265.14 201.553 264.936 198.403C264.837 196.795 264.952 195.181 265.278 193.603C265.654 191.964 266.164 190.358 266.802 188.803C267.456 187.207 268.028 185.578 268.518 183.925C269.027 182.234 269.17 180.455 268.938 178.705C268.659 176.963 267.992 175.307 266.988 173.857C266.007 172.446 264.865 171.153 263.586 170.005C261.108 167.689 258.426 165.805 256.134 163.633C252.045 159.849 248.746 155.294 246.426 150.229C245.527 148.29 244.781 146.284 244.194 144.229C243.906 143.335 243.738 142.471 243.534 141.691C243.33 140.911 243.24 140.179 243.108 139.531C242.922 138.217 242.778 137.203 242.742 136.531C242.742 136.195 242.694 135.931 242.682 135.739C242.67 135.547 242.682 135.469 242.682 135.469C242.682 135.469 242.682 135.559 242.724 135.739C242.766 135.919 242.778 136.189 242.82 136.525C242.874 137.215 243.036 138.229 243.24 139.525C243.378 140.173 243.528 140.893 243.69 141.679C243.852 142.465 244.074 143.305 244.374 144.199C244.976 146.233 245.733 148.219 246.636 150.139C248.972 155.158 252.268 159.67 256.338 163.423C258.618 165.547 261.306 167.449 263.808 169.777C265.104 170.942 266.262 172.253 267.258 173.683C268.289 175.172 268.971 176.874 269.256 178.663C269.496 180.455 269.35 182.277 268.83 184.009C268.362 185.713 267.708 187.327 267.102 188.911C266.469 190.448 265.959 192.033 265.578 193.651C265.254 195.207 265.139 196.799 265.236 198.385C265.398 201.493 266.094 204.385 266.61 207.127C267.162 209.656 267.412 212.242 267.354 214.831C267.304 215.964 267.122 217.087 266.814 218.179C266.481 219.139 265.97 220.029 265.308 220.801C264.25 222.028 262.962 223.037 261.516 223.771C260.615 224.249 259.658 224.612 258.666 224.851C258.32 224.942 257.966 225.006 257.61 225.043Z" fill="#455A64"/>
<path d="M145.896 246.48L174.696 232.806C174.696 232.806 185.91 178.356 188.034 174.27C190.158 170.184 199.014 166.65 199.014 166.65L197.532 240.378L194.892 257.4L154.284 261.246L145.896 246.48Z" fill="#A8C8FF"/>
<path d="M121.326 259.381C121.164 259.381 120.366 259.873 121.032 261.139C121.698 262.405 126.582 266.587 128.016 265.129C129.45 263.671 127.26 261.895 127.26 261.895L121.326 259.381Z" fill="#FFBE9D"/>
<path d="M127.464 261.948C127.464 261.948 133.356 262.692 135.618 263.556C138.084 264.492 141.084 263.85 143.1 262.488C144.246 261.726 145.315 260.854 146.292 259.884L153.804 259.764C154.884 258.5 155.592 256.961 155.851 255.318C156.109 253.676 155.908 251.993 155.268 250.458C154.866 249.39 154.286 248.398 153.552 247.524C152.658 246.558 151.248 245.778 148.812 245.358L139.89 247.284C139.89 247.284 126.09 246.294 123.606 247.458C123.606 247.458 120.516 249.288 119.562 250.056C119.202 250.35 118.104 253.866 120.354 255.696C120.354 255.696 118.398 257.25 119.46 258.648L119.964 259.248C119.964 259.248 118.65 260.952 119.328 261.696C120.006 262.44 125.928 265.896 128.034 265.08C130.14 264.264 128.4 262.29 127.464 261.93" fill="#FFBE9D"/>
<path d="M121.836 252.654C122.085 252.728 122.33 252.816 122.568 252.918C123.03 253.092 123.708 253.344 124.56 253.614C124.98 253.752 125.448 253.89 125.958 254.022C126.468 254.154 127.014 254.268 127.584 254.454C128.204 254.624 128.765 254.963 129.204 255.432C129.446 255.693 129.614 256.013 129.69 256.36C129.766 256.707 129.747 257.069 129.636 257.406C129.495 257.746 129.238 258.025 128.91 258.192C128.602 258.343 128.268 258.437 127.926 258.468C127.298 258.505 126.668 258.471 126.048 258.366C125.01 258.198 123.989 257.933 123 257.574C122.154 257.274 121.488 256.974 121.026 256.794C120.782 256.706 120.546 256.593 120.324 256.458C120.575 256.525 120.822 256.607 121.062 256.704C121.53 256.872 122.208 257.13 123.054 257.406C124.031 257.738 125.035 257.985 126.054 258.144C126.649 258.238 127.253 258.266 127.854 258.228C128.165 258.201 128.468 258.115 128.748 257.976C129.02 257.834 129.233 257.6 129.348 257.316C129.445 257.025 129.464 256.713 129.403 256.412C129.342 256.111 129.203 255.831 129 255.6C128.591 255.163 128.071 254.845 127.494 254.682C126.942 254.496 126.39 254.376 125.886 254.232C125.382 254.088 124.908 253.938 124.488 253.794C123.636 253.5 122.97 253.194 122.514 253.02C122.277 252.92 122.05 252.797 121.836 252.654Z" fill="#EB996E"/>
<path d="M122.364 248.4C122.613 248.47 122.855 248.558 123.09 248.664C123.558 248.844 124.23 249.102 125.07 249.378C125.91 249.654 126.924 249.978 128.07 250.236C128.699 250.335 129.296 250.577 129.816 250.944C130.092 251.173 130.273 251.496 130.326 251.85C130.379 252.208 130.327 252.572 130.176 252.9C130.024 253.213 129.808 253.491 129.543 253.716C129.277 253.941 128.968 254.109 128.634 254.208C128.029 254.405 127.385 254.457 126.756 254.358C125.733 254.154 124.729 253.861 123.756 253.482L121.77 252.786C121.524 252.709 121.283 252.615 121.05 252.504C121.305 252.547 121.556 252.611 121.8 252.696L123.81 253.296C124.788 253.644 125.791 253.917 126.81 254.112C127.404 254.197 128.01 254.144 128.58 253.956C128.883 253.864 129.164 253.709 129.405 253.503C129.645 253.296 129.841 253.042 129.978 252.756C130.12 252.484 130.168 252.172 130.115 251.87C130.062 251.567 129.91 251.29 129.684 251.082C129.193 250.74 128.631 250.512 128.04 250.416C126.894 250.128 125.88 249.816 125.04 249.504C124.2 249.192 123.54 248.904 123.084 248.712C122.836 248.628 122.595 248.524 122.364 248.4Z" fill="#EB996E"/>
<path d="M125.202 249.6C125.079 249.208 124.989 248.807 124.932 248.4C124.797 248.01 124.698 247.609 124.638 247.2C124.924 247.512 125.11 247.903 125.172 248.322C125.322 248.733 125.333 249.182 125.202 249.6Z" fill="#EB996E"/>
<path d="M145.98 249.792L140.73 247.8C140.73 247.8 126.156 240.996 125.91 241.368C125.664 241.74 124.872 241.692 125.046 243.468C125.22 245.244 133.71 248.832 133.98 249.468C134.25 250.104 133.8 253.2 136.938 255.426C140.076 257.652 142.338 257.706 142.338 257.706" fill="#FFBE9D"/>
<path d="M142.338 257.652H142.2L141.84 257.616C141.378 257.543 140.923 257.433 140.478 257.286C138.842 256.729 137.33 255.859 136.026 254.724C135.143 253.897 134.518 252.832 134.226 251.658C134.076 251.013 133.971 250.357 133.914 249.696C133.904 249.621 133.886 249.546 133.86 249.474C133.826 249.416 133.779 249.367 133.722 249.33C133.585 249.231 133.443 249.139 133.296 249.054C133.002 248.88 132.696 248.712 132.372 248.544C131.112 247.866 129.762 247.188 128.406 246.408C127.711 246.017 127.036 245.59 126.384 245.13C126.047 244.893 125.73 244.628 125.436 244.338C125.28 244.189 125.145 244.02 125.034 243.834C124.975 243.732 124.934 243.621 124.914 243.504C124.902 243.397 124.902 243.288 124.914 243.18C124.866 242.746 124.943 242.307 125.136 241.914C125.255 241.729 125.413 241.572 125.598 241.452C125.674 241.403 125.742 241.345 125.802 241.278C125.802 241.278 125.802 241.278 125.85 241.224C125.879 241.202 125.916 241.191 125.952 241.194C125.986 241.19 126.02 241.19 126.054 241.194L126.216 241.236C127.002 241.476 127.728 241.794 128.454 242.094C129.894 242.694 131.268 243.294 132.576 243.894C135.198 245.094 137.538 246.162 139.506 247.086C139.998 247.308 140.46 247.542 140.904 247.734L142.188 248.238L144.246 249.054L145.542 249.576L145.872 249.72C145.95 249.72 145.986 249.768 145.986 249.774C145.986 249.78 145.944 249.774 145.866 249.738L145.524 249.624L144.21 249.138L142.134 248.4L140.838 247.914C140.382 247.728 139.92 247.5 139.428 247.278L132.48 244.14C131.166 243.54 129.792 242.94 128.352 242.34C127.632 242.046 126.9 241.74 126.144 241.494L126.012 241.464H125.964C125.964 241.464 125.964 241.428 125.964 241.404C126.132 241.512 126.006 241.44 126.042 241.464C125.971 241.553 125.886 241.63 125.79 241.692C125.63 241.79 125.495 241.924 125.394 242.082C125.225 242.435 125.159 242.828 125.202 243.216C125.198 243.404 125.242 243.59 125.328 243.756C125.429 243.923 125.55 244.076 125.688 244.212C125.972 244.492 126.279 244.747 126.606 244.974C127.254 245.442 127.932 245.85 128.604 246.24C129.954 247.02 131.292 247.704 132.558 248.382C132.876 248.556 133.158 248.724 133.488 248.91C133.643 248.998 133.793 249.095 133.938 249.198C134.026 249.257 134.096 249.338 134.142 249.432C134.173 249.52 134.193 249.61 134.202 249.702C134.259 250.356 134.357 251.005 134.496 251.646C134.771 252.789 135.366 253.83 136.212 254.646C137.491 255.778 138.97 256.659 140.574 257.244C141.011 257.398 141.458 257.521 141.912 257.61C142.068 257.646 142.188 257.658 142.272 257.67L142.338 257.652Z" fill="#EB996E"/>
<path d="M126.264 258.336C126.458 258.359 126.646 258.414 126.822 258.498C127.315 258.696 127.778 258.963 128.196 259.29C128.488 259.518 128.753 259.778 128.988 260.064C129.136 260.225 129.249 260.415 129.323 260.621C129.396 260.827 129.427 261.046 129.414 261.264C129.366 261.512 129.25 261.742 129.078 261.928C128.906 262.113 128.686 262.247 128.442 262.314C127.941 262.451 127.41 262.434 126.918 262.266C125.249 261.772 123.63 261.123 122.082 260.328C121.616 260.085 121.163 259.816 120.726 259.524C120.558 259.428 120.403 259.311 120.264 259.176C120.443 259.246 120.614 259.335 120.774 259.44C121.098 259.626 121.566 259.884 122.16 260.172C123.711 260.913 125.315 261.535 126.96 262.032C127.409 262.187 127.893 262.206 128.352 262.086C128.554 262.033 128.737 261.925 128.882 261.775C129.027 261.625 129.128 261.438 129.174 261.234C129.187 261.041 129.162 260.847 129.101 260.664C129.039 260.481 128.941 260.312 128.814 260.166C128.594 259.886 128.345 259.631 128.07 259.404C127.516 258.973 126.909 258.614 126.264 258.336Z" fill="#EB996E"/>
<g opacity="0.3">
<path d="M194.688 257.4C189.972 241.494 185.814 221.01 181.098 205.104C179.37 219.786 181.53 239.172 184.23 253.704C184.548 255.408 184.692 257.076 186.03 258.198L194.688 257.4Z" fill="black"/>
</g>
<path d="M186.966 246.48C186.9 246.48 186.702 245.442 186.06 243.852C185.683 242.926 185.231 242.031 184.71 241.176C184.06 240.139 183.317 239.164 182.49 238.26C181.652 237.367 180.732 236.553 179.742 235.83C178.931 235.243 178.072 234.726 177.174 234.282C175.638 233.526 174.606 233.25 174.624 233.19C174.874 233.22 175.12 233.278 175.356 233.364C175.641 233.436 175.919 233.528 176.19 233.64C176.558 233.769 176.918 233.917 177.27 234.084C178.194 234.508 179.078 235.014 179.91 235.596C180.925 236.319 181.868 237.139 182.724 238.044C183.563 238.97 184.311 239.975 184.956 241.044C185.475 241.918 185.914 242.835 186.27 243.786C186.432 244.188 186.528 244.566 186.63 244.896C186.723 245.177 186.795 245.464 186.846 245.754C186.909 245.992 186.95 246.235 186.966 246.48Z" fill="#263238"/>
<path d="M195.954 165.907C195.954 165.907 180.876 199.597 180.876 205.801C180.876 212.005 192.174 254.959 192.174 254.959C192.066 256.669 191.628 265.231 191.628 265.231L254.982 265.453L255.948 251.833L251.004 238.855L255.942 202.165C255.942 202.165 259.266 180.865 259.542 174.907C259.914 167.455 234.666 158.815 235.356 157.783L231 151.927L206.034 172.201L201.096 157.945L195.18 163.531L195.954 165.907Z" fill="#A8C8FF"/>
<path d="M237.444 174.871C230.586 186.469 218.04 207.601 218.04 207.601L195.552 233.245C195.552 233.245 194.082 246.271 197.022 250.267C199.962 254.263 205.008 256.993 205.008 256.993C205.008 256.993 210.942 256.993 218.484 250.687C226.026 244.381 246.828 218.323 246.828 218.323L253.974 209.701C253.974 209.701 262.494 188.773 260.904 178.123C260.304 174.013 258.54 172.309 256.212 170.425C250.35 165.703 241.278 168.385 237.444 174.871Z" fill="#A8C8FF"/>
<path d="M256.62 202.44C256.59 202.523 256.554 202.603 256.512 202.68C256.434 202.848 256.32 203.07 256.182 203.364C255.882 203.964 255.426 204.834 254.802 205.938C253.56 208.152 251.628 211.278 249.108 215.052C247.842 216.936 246.432 218.982 244.878 221.154C243.324 223.326 241.56 225.564 240.108 228.18C238.656 230.796 237.336 233.652 235.746 236.508C234.113 239.468 232.198 242.263 230.028 244.854C227.858 247.457 225.305 249.715 222.456 251.55C219.786 253.254 216.804 254.408 213.684 254.946C210.86 255.448 207.96 255.325 205.188 254.586C203.934 254.248 202.725 253.758 201.588 253.128C200.53 252.57 199.536 251.898 198.624 251.124C197.787 250.431 197.038 249.64 196.392 248.766C195.81 247.991 195.315 247.154 194.916 246.27C194.299 244.849 193.895 243.345 193.716 241.806C193.613 240.836 193.579 239.86 193.614 238.884C193.614 238.56 193.65 238.284 193.662 238.122C193.656 238.037 193.656 237.95 193.662 237.864C193.668 237.95 193.668 238.037 193.662 238.122C193.662 238.308 193.662 238.56 193.662 238.884C193.65 239.855 193.703 240.825 193.818 241.788C194.019 243.311 194.44 244.796 195.066 246.198C195.469 247.065 195.964 247.885 196.542 248.646C197.185 249.504 197.931 250.28 198.762 250.956C199.666 251.715 200.65 252.373 201.696 252.918C202.817 253.532 204.008 254.009 205.242 254.34C207.985 255.057 210.852 255.167 213.642 254.664C216.721 254.124 219.662 252.978 222.294 251.292C225.117 249.47 227.648 247.231 229.8 244.65C231.957 242.076 233.86 239.299 235.482 236.358C237.072 233.52 238.356 230.64 239.862 228.036C241.333 225.605 242.935 223.255 244.662 220.998C246.222 218.838 247.662 216.798 248.916 214.926C251.46 211.176 253.416 208.068 254.688 205.878C255.33 204.78 255.804 203.922 256.116 203.334L256.482 202.662C256.519 202.583 256.566 202.509 256.62 202.44Z" fill="#263238"/>
<path d="M194.4 232.099C194.4 232.141 194.082 232.339 193.668 232.801C193.117 233.386 192.777 234.138 192.703 234.938C192.63 235.739 192.826 236.541 193.26 237.217C193.578 237.745 193.86 238.003 193.86 238.039C193.86 238.075 193.482 237.871 193.086 237.343C192.569 236.643 192.328 235.777 192.408 234.91C192.489 234.043 192.886 233.237 193.524 232.645C193.757 232.381 194.061 232.191 194.4 232.099Z" fill="#263238"/>
<path d="M198.558 238.903C198.679 238.919 198.797 238.947 198.912 238.987L199.332 239.101L199.932 239.209C201.179 239.373 202.446 239.254 203.64 238.861C205.417 238.266 207.051 237.31 208.44 236.053C210.091 234.468 211.588 232.73 212.91 230.863C214.253 228.98 215.801 227.251 217.524 225.709C218.34 225.025 219.138 224.419 219.804 223.765C220.438 223.183 220.949 222.479 221.304 221.695C221.542 221.122 221.636 220.499 221.576 219.882C221.517 219.264 221.306 218.671 220.962 218.155C220.672 217.799 220.299 217.521 219.876 217.345C219.995 217.367 220.112 217.401 220.224 217.447C220.547 217.592 220.833 217.809 221.058 218.083C221.438 218.611 221.679 219.226 221.759 219.872C221.839 220.518 221.755 221.174 221.514 221.779C221.157 222.597 220.638 223.336 219.99 223.951C219.312 224.623 218.508 225.247 217.71 225.931C216.015 227.471 214.491 229.189 213.162 231.055C211.824 232.938 210.305 234.687 208.626 236.275C207.208 237.539 205.54 238.492 203.73 239.071C202.502 239.455 201.201 239.544 199.932 239.329L199.332 239.191C199.164 239.143 199.026 239.083 198.918 239.047C198.793 239.013 198.672 238.965 198.558 238.903Z" fill="#263238"/>
<path d="M240.498 171.307C240.422 171.432 240.338 171.552 240.246 171.667C240.048 171.919 239.796 172.267 239.478 172.669C238.794 173.521 237.852 174.793 236.7 176.377C233.764 180.539 231.093 184.881 228.702 189.379C225.87 194.635 223.53 199.513 221.736 202.993C220.848 204.739 220.116 206.143 219.582 207.103L219 208.201C218.935 208.332 218.856 208.457 218.766 208.573C218.811 208.433 218.87 208.299 218.94 208.171L219.504 207.037L221.562 202.891C223.302 199.381 225.618 194.491 228.45 189.223C230.843 184.711 233.55 180.372 236.55 176.239C237.75 174.673 238.692 173.413 239.406 172.585L240.222 171.619C240.302 171.505 240.395 171.4 240.498 171.307Z" fill="#263238"/>
<g opacity="0.3">
<path d="M193.68 237.864C196.602 239.448 199.818 239.28 203.082 238.644C206.378 237.986 209.345 236.209 211.482 233.616C210.988 236.504 209.636 239.177 207.6 241.284C205.524 243.318 202.512 244.494 199.656 243.972C196.8 243.45 193.908 240.762 193.656 237.864" fill="black"/>
</g>
<g opacity="0.3">
<path d="M221.34 220.549C223.195 223.408 223.842 226.886 223.14 230.221C225.618 226.429 226.2 221.629 225.54 217.147C224.88 212.665 223.05 208.435 221.022 204.385C221.022 204.385 218.79 208.165 218.766 208.585C218.658 210.769 219.462 214.873 219.882 217.015C220.443 217.553 220.86 218.221 221.098 218.961C221.336 219.7 221.386 220.487 221.244 221.251" fill="black"/>
</g>
<g opacity="0.3">
<path d="M203.592 253.56C209.556 258.21 218.406 258.426 224.928 254.61C231.21 250.932 235.08 244.308 238.668 237.978C244.23 228.174 251.01 216.048 254.982 205.5C254.982 205.5 243.852 220.686 240.498 227.232C238.262 231.657 235.724 235.923 232.902 240C229.709 244.594 225.392 248.292 220.362 250.743C215.333 253.193 209.76 254.314 204.174 253.998" fill="black"/>
</g>
<path d="M191.628 265.2C191.619 265.139 191.619 265.076 191.628 265.014C191.628 264.87 191.628 264.69 191.628 264.468C191.628 263.958 191.67 263.268 191.706 262.386C191.79 260.586 191.904 258.006 192.048 254.928V255C190.974 251.4 189.714 247.032 188.406 242.316C186.678 236.064 185.22 230.376 184.236 226.242C183.75 224.178 183.366 222.498 183.126 221.334C183.012 220.776 182.922 220.326 182.856 219.996C182.821 219.84 182.795 219.682 182.778 219.522C182.839 219.67 182.885 219.822 182.916 219.978L183.246 221.31C183.54 222.51 183.948 224.154 184.446 226.188C185.484 230.31 186.978 235.986 188.706 242.232C190.008 246.948 191.25 251.316 192.306 254.922V254.964C192.12 258.042 191.964 260.604 191.85 262.428C191.79 263.298 191.742 263.994 191.706 264.504C191.706 264.72 191.67 264.9 191.658 265.044C191.655 265.098 191.645 265.15 191.628 265.2Z" fill="#263238"/>
<path d="M255 170.076C255 170.124 254.352 169.896 253.314 169.638C251.96 169.297 250.575 169.096 249.18 169.038C247.785 169 246.389 169.108 245.016 169.362C243.96 169.56 243.318 169.74 243.306 169.692C243.439 169.606 243.585 169.542 243.738 169.5C244.142 169.361 244.552 169.243 244.968 169.146C246.344 168.825 247.756 168.684 249.168 168.726C250.591 168.769 252.003 168.995 253.368 169.398C253.777 169.517 254.178 169.661 254.568 169.83C254.868 169.98 255 170.052 255 170.076Z" fill="#263238"/>
<path d="M234.942 159C234.898 159.109 234.844 159.214 234.78 159.312L234.27 160.17C233.82 160.914 233.154 161.97 232.308 163.284C230.61 165.882 228.18 169.428 225.306 173.196C222.996 176.238 220.758 178.968 218.928 181.104L218.796 181.254L218.718 181.074C217.842 179.166 217.122 177.582 216.6 176.436C216.366 175.908 216.18 175.476 216.03 175.146C215.956 174.998 215.898 174.844 215.856 174.684C215.952 174.819 216.035 174.964 216.102 175.116C216.264 175.44 216.468 175.86 216.732 176.376C217.278 177.51 218.034 179.076 218.94 180.972L218.736 180.942C220.536 178.782 222.75 176.046 225.06 173.01C227.928 169.242 230.376 165.726 232.122 163.158L234.168 160.104L234.726 159.276C234.785 159.175 234.858 159.082 234.942 159Z" fill="#263238"/>
<path d="M249.528 255.763C249.438 255.763 249.714 252.637 250.128 248.803C250.542 244.969 250.968 241.873 251.052 241.885C251.136 241.897 250.86 245.005 250.452 248.839C250.044 252.673 249.6 255.769 249.528 255.763Z" fill="#263238"/>
<path d="M206.1 254.94C206.441 256.669 206.679 258.416 206.814 260.172C207.057 261.916 207.191 263.674 207.216 265.434C206.879 263.705 206.64 261.959 206.502 260.202C206.266 258.458 206.132 256.701 206.1 254.94Z" fill="#263238"/>
<path d="M238.146 186.415C238.117 186.296 238.06 186.185 237.979 186.093C237.899 186 237.797 185.929 237.683 185.883C237.569 185.838 237.446 185.821 237.324 185.833C237.202 185.845 237.085 185.886 236.982 185.953L236.94 185.989C236.846 186.073 236.775 186.18 236.735 186.299C236.695 186.419 236.687 186.547 236.711 186.67C236.735 186.794 236.791 186.909 236.873 187.005C236.956 187.1 237.062 187.173 237.18 187.215C237.299 187.257 237.427 187.267 237.551 187.245C237.675 187.223 237.791 187.169 237.888 187.088C237.985 187.007 238.059 186.903 238.103 186.785C238.147 186.667 238.16 186.539 238.14 186.415H238.146Z" fill="white"/>
<path d="M231.888 171.163C231.859 171.044 231.802 170.933 231.721 170.841C231.641 170.748 231.539 170.677 231.425 170.631C231.311 170.586 231.188 170.569 231.066 170.581C230.944 170.593 230.827 170.634 230.724 170.701L230.688 170.737C230.594 170.821 230.523 170.928 230.483 171.047C230.443 171.167 230.435 171.295 230.459 171.418C230.483 171.542 230.539 171.657 230.622 171.753C230.704 171.848 230.81 171.921 230.928 171.963C231.047 172.005 231.175 172.015 231.299 171.993C231.423 171.971 231.539 171.917 231.636 171.836C231.733 171.756 231.807 171.651 231.851 171.533C231.895 171.415 231.908 171.287 231.888 171.163Z" fill="white"/>
<path d="M217.53 183.444C217.501 183.325 217.444 183.215 217.363 183.122C217.283 183.03 217.181 182.958 217.067 182.913C216.953 182.867 216.83 182.85 216.708 182.862C216.586 182.874 216.469 182.915 216.366 182.982H216.33C216.236 183.066 216.165 183.172 216.125 183.292C216.084 183.411 216.076 183.539 216.1 183.662C216.123 183.786 216.179 183.901 216.261 183.997C216.343 184.092 216.448 184.165 216.567 184.208C216.685 184.25 216.812 184.261 216.937 184.24C217.061 184.218 217.177 184.165 217.274 184.085C217.371 184.005 217.446 183.901 217.491 183.783C217.536 183.666 217.549 183.539 217.53 183.414V183.444Z" fill="white"/>
<path d="M202.008 177.276C201.98 177.157 201.923 177.047 201.844 176.954C201.764 176.862 201.663 176.79 201.549 176.745C201.436 176.699 201.313 176.682 201.191 176.694C201.069 176.706 200.953 176.748 200.85 176.814L200.808 176.85C200.714 176.934 200.643 177.041 200.603 177.161C200.563 177.28 200.555 177.408 200.579 177.532C200.603 177.656 200.659 177.771 200.742 177.866C200.824 177.962 200.93 178.034 201.049 178.076C201.167 178.119 201.295 178.129 201.419 178.107C201.543 178.085 201.659 178.031 201.756 177.95C201.853 177.869 201.927 177.765 201.971 177.646C202.016 177.528 202.028 177.401 202.008 177.276Z" fill="white"/>
<path d="M199.266 171.198C199.237 171.079 199.18 170.968 199.099 170.876C199.019 170.784 198.917 170.712 198.803 170.666C198.689 170.621 198.566 170.604 198.444 170.616C198.322 170.628 198.205 170.669 198.102 170.736L198.06 170.772C197.963 170.856 197.89 170.964 197.848 171.084C197.806 171.205 197.796 171.335 197.82 171.461C197.843 171.587 197.9 171.704 197.983 171.801C198.066 171.899 198.174 171.972 198.294 172.015C198.415 172.058 198.545 172.068 198.671 172.045C198.797 172.022 198.914 171.967 199.012 171.884C199.11 171.801 199.184 171.695 199.228 171.574C199.271 171.454 199.282 171.324 199.26 171.198H199.266Z" fill="white"/>
<path d="M200.46 164.178C200.431 164.059 200.374 163.949 200.293 163.856C200.213 163.764 200.112 163.692 199.998 163.647C199.884 163.602 199.76 163.584 199.638 163.597C199.516 163.609 199.399 163.65 199.296 163.716L199.254 163.746C199.16 163.83 199.09 163.937 199.049 164.056C199.009 164.175 199 164.303 199.024 164.427C199.048 164.55 199.103 164.665 199.185 164.761C199.267 164.857 199.372 164.929 199.491 164.972C199.609 165.015 199.737 165.026 199.861 165.004C199.985 164.983 200.101 164.929 200.198 164.849C200.295 164.769 200.37 164.665 200.415 164.548C200.46 164.43 200.473 164.303 200.454 164.178H200.46Z" fill="white"/>
<path d="M191.862 173.839C191.833 173.72 191.776 173.609 191.695 173.517C191.615 173.424 191.513 173.352 191.399 173.307C191.285 173.262 191.162 173.245 191.04 173.257C190.918 173.269 190.801 173.31 190.698 173.377L190.656 173.407C190.562 173.49 190.491 173.597 190.451 173.716C190.411 173.835 190.402 173.963 190.426 174.087C190.45 174.21 190.505 174.326 190.587 174.421C190.669 174.517 190.774 174.59 190.893 174.632C191.011 174.675 191.139 174.686 191.263 174.664C191.387 174.643 191.503 174.59 191.6 174.51C191.697 174.429 191.772 174.326 191.817 174.208C191.862 174.09 191.875 173.963 191.856 173.839H191.862Z" fill="white"/>
<path d="M211.8 176.622C211.772 176.503 211.715 176.393 211.636 176.3C211.556 176.208 211.455 176.136 211.341 176.09C211.228 176.045 211.105 176.028 210.983 176.04C210.861 176.052 210.745 176.093 210.642 176.16L210.6 176.196C210.506 176.28 210.435 176.387 210.395 176.506C210.355 176.626 210.347 176.754 210.371 176.878C210.395 177.001 210.451 177.117 210.534 177.212C210.616 177.307 210.722 177.38 210.841 177.422C210.959 177.464 211.087 177.475 211.211 177.453C211.335 177.43 211.451 177.376 211.548 177.296C211.645 177.215 211.719 177.11 211.763 176.992C211.808 176.874 211.82 176.747 211.8 176.622Z" fill="white"/>
<path d="M194.916 189.144C194.887 189.025 194.83 188.915 194.749 188.822C194.669 188.73 194.567 188.658 194.453 188.613C194.339 188.568 194.216 188.55 194.094 188.562C193.972 188.574 193.855 188.616 193.752 188.682H193.71C193.616 188.766 193.545 188.873 193.505 188.992C193.464 189.111 193.456 189.239 193.479 189.362C193.503 189.486 193.559 189.601 193.641 189.697C193.723 189.793 193.828 189.865 193.946 189.908C194.065 189.95 194.192 189.962 194.316 189.94C194.44 189.919 194.557 189.865 194.654 189.785C194.751 189.705 194.826 189.601 194.871 189.484C194.915 189.366 194.929 189.239 194.91 189.114L194.916 189.144Z" fill="white"/>
<path d="M179.484 225.156C179.455 225.037 179.398 224.927 179.317 224.834C179.237 224.742 179.135 224.67 179.021 224.624C178.907 224.579 178.784 224.562 178.662 224.574C178.54 224.586 178.423 224.627 178.32 224.694L178.284 224.724C178.19 224.808 178.119 224.914 178.079 225.034C178.039 225.153 178.03 225.28 178.054 225.404C178.078 225.528 178.133 225.643 178.215 225.739C178.297 225.834 178.402 225.907 178.521 225.95C178.639 225.992 178.767 226.003 178.891 225.982C179.015 225.96 179.131 225.907 179.228 225.827C179.325 225.747 179.4 225.643 179.445 225.525C179.49 225.408 179.503 225.28 179.484 225.156Z" fill="white"/>
<path d="M184.992 204.385C184.963 204.265 184.906 204.155 184.825 204.063C184.745 203.97 184.643 203.898 184.529 203.853C184.415 203.808 184.292 203.79 184.17 203.803C184.048 203.815 183.931 203.856 183.828 203.923L183.786 203.959C183.692 204.042 183.621 204.149 183.581 204.269C183.541 204.388 183.533 204.516 183.557 204.64C183.581 204.764 183.637 204.879 183.72 204.974C183.802 205.07 183.908 205.142 184.027 205.184C184.145 205.227 184.273 205.237 184.397 205.215C184.521 205.193 184.637 205.139 184.734 205.058C184.831 204.977 184.905 204.873 184.949 204.755C184.994 204.636 185.006 204.509 184.986 204.385H184.992Z" fill="white"/>
<path d="M225.6 167.917C225.571 167.798 225.514 167.687 225.433 167.595C225.353 167.502 225.251 167.43 225.137 167.385C225.023 167.34 224.9 167.323 224.778 167.335C224.656 167.347 224.539 167.388 224.436 167.455L224.394 167.485C224.3 167.568 224.229 167.675 224.189 167.794C224.148 167.914 224.14 168.041 224.164 168.165C224.187 168.288 224.243 168.404 224.325 168.499C224.407 168.595 224.512 168.668 224.63 168.71C224.749 168.753 224.876 168.764 225 168.743C225.125 168.721 225.241 168.668 225.338 168.588C225.435 168.508 225.51 168.404 225.555 168.286C225.6 168.168 225.613 168.041 225.594 167.917H225.6Z" fill="white"/>
<path d="M244.944 209.268C244.915 209.149 244.858 209.039 244.777 208.946C244.697 208.854 244.595 208.782 244.481 208.737C244.367 208.692 244.244 208.674 244.122 208.686C244 208.698 243.883 208.74 243.78 208.806L243.738 208.842C243.641 208.926 243.568 209.034 243.526 209.155C243.484 209.276 243.474 209.405 243.498 209.531C243.522 209.657 243.578 209.774 243.661 209.872C243.745 209.969 243.852 210.043 243.972 210.086C244.093 210.128 244.223 210.139 244.349 210.116C244.475 210.093 244.592 210.037 244.69 209.954C244.788 209.872 244.862 209.765 244.906 209.644C244.949 209.524 244.96 209.394 244.938 209.268H244.944Z" fill="white"/>
<path d="M252.486 173.683C252.458 173.564 252.401 173.453 252.321 173.361C252.242 173.268 252.141 173.196 252.027 173.151C251.913 173.106 251.791 173.088 251.669 173.1C251.547 173.113 251.43 173.154 251.328 173.221L251.286 173.251C251.192 173.334 251.121 173.441 251.081 173.56C251.04 173.679 251.032 173.807 251.056 173.931C251.079 174.054 251.135 174.17 251.217 174.265C251.299 174.361 251.404 174.434 251.523 174.476C251.641 174.519 251.769 174.53 251.893 174.508C252.017 174.487 252.133 174.434 252.23 174.354C252.327 174.273 252.402 174.17 252.447 174.052C252.492 173.934 252.505 173.807 252.486 173.683Z" fill="white"/>
<path d="M249.528 196.986C249.499 196.867 249.442 196.757 249.361 196.664C249.281 196.572 249.179 196.5 249.065 196.455C248.951 196.409 248.828 196.392 248.706 196.404C248.584 196.416 248.467 196.457 248.364 196.524L248.322 196.56C248.225 196.644 248.152 196.752 248.11 196.873C248.068 196.993 248.058 197.123 248.082 197.249C248.106 197.375 248.162 197.492 248.245 197.589C248.328 197.687 248.436 197.76 248.556 197.803C248.677 197.846 248.807 197.857 248.933 197.834C249.059 197.811 249.176 197.755 249.274 197.672C249.372 197.59 249.446 197.483 249.49 197.362C249.533 197.242 249.544 197.112 249.522 196.986H249.528Z" fill="white"/>
<path d="M232.602 213.816C232.573 213.697 232.516 213.587 232.435 213.494C232.355 213.402 232.253 213.33 232.139 213.285C232.025 213.239 231.902 213.222 231.78 213.234C231.658 213.246 231.541 213.287 231.438 213.354L231.396 213.39C231.302 213.474 231.231 213.581 231.191 213.701C231.151 213.82 231.143 213.948 231.167 214.072C231.191 214.195 231.247 214.311 231.33 214.406C231.412 214.502 231.518 214.574 231.636 214.616C231.755 214.658 231.883 214.669 232.007 214.647C232.131 214.624 232.247 214.57 232.344 214.49C232.441 214.409 232.515 214.304 232.559 214.186C232.603 214.068 232.616 213.941 232.596 213.816H232.602Z" fill="white"/>
<path d="M233.316 199.801C233.287 199.681 233.23 199.571 233.149 199.479C233.069 199.386 232.967 199.314 232.854 199.269C232.74 199.224 232.616 199.206 232.494 199.219C232.372 199.231 232.255 199.272 232.152 199.339L232.11 199.375C232.013 199.458 231.94 199.566 231.898 199.687C231.856 199.808 231.846 199.938 231.87 200.063C231.894 200.189 231.95 200.307 232.033 200.404C232.117 200.501 232.224 200.575 232.345 200.618C232.465 200.661 232.595 200.671 232.721 200.648C232.847 200.625 232.965 200.569 233.062 200.487C233.16 200.404 233.234 200.297 233.278 200.177C233.321 200.056 233.333 199.927 233.31 199.801H233.316Z" fill="white"/>
<path d="M243.522 173.803C243.494 173.684 243.438 173.573 243.358 173.481C243.278 173.388 243.177 173.316 243.063 173.271C242.95 173.226 242.827 173.208 242.705 173.221C242.584 173.233 242.467 173.274 242.364 173.341L242.322 173.377C242.228 173.461 242.158 173.568 242.117 173.687C242.077 173.807 242.069 173.935 242.093 174.058C242.117 174.182 242.173 174.297 242.256 174.393C242.338 174.488 242.444 174.561 242.563 174.603C242.682 174.645 242.809 174.655 242.933 174.633C243.057 174.611 243.174 174.557 243.27 174.476C243.367 174.395 243.441 174.291 243.486 174.173C243.53 174.055 243.542 173.927 243.522 173.803Z" fill="white"/>
<path d="M229.8 160.23C229.772 160.112 229.715 160.001 229.635 159.909C229.555 159.816 229.455 159.744 229.341 159.699C229.227 159.653 229.105 159.636 228.983 159.648C228.861 159.66 228.744 159.702 228.642 159.769L228.6 159.798C228.506 159.882 228.435 159.989 228.395 160.108C228.354 160.227 228.346 160.355 228.37 160.479C228.393 160.602 228.449 160.717 228.531 160.813C228.613 160.909 228.718 160.981 228.837 161.024C228.955 161.067 229.082 161.078 229.207 161.056C229.331 161.035 229.447 160.981 229.544 160.901C229.641 160.821 229.716 160.717 229.761 160.6C229.806 160.482 229.819 160.355 229.8 160.23Z" fill="white"/>
<path d="M229.278 182.113C229.25 181.993 229.194 181.882 229.113 181.788C229.033 181.695 228.931 181.623 228.817 181.577C228.703 181.532 228.579 181.515 228.456 181.528C228.334 181.54 228.217 181.583 228.114 181.651L228.078 181.681C227.984 181.764 227.913 181.871 227.873 181.99C227.832 182.11 227.824 182.237 227.848 182.361C227.871 182.485 227.927 182.6 228.009 182.695C228.091 182.791 228.196 182.864 228.315 182.906C228.433 182.949 228.561 182.96 228.685 182.939C228.809 182.917 228.925 182.864 229.022 182.784C229.119 182.704 229.194 182.6 229.239 182.482C229.284 182.365 229.297 182.237 229.278 182.113Z" fill="white"/>
<path d="M211.734 248.862C211.704 248.747 211.648 248.64 211.57 248.55C211.492 248.46 211.394 248.39 211.283 248.345C211.173 248.3 211.054 248.282 210.935 248.291C210.817 248.301 210.702 248.338 210.6 248.4L210.558 248.43C210.464 248.514 210.393 248.62 210.353 248.74C210.312 248.859 210.304 248.986 210.328 249.11C210.351 249.234 210.407 249.349 210.489 249.445C210.571 249.54 210.676 249.613 210.795 249.656C210.913 249.698 211.04 249.709 211.165 249.688C211.289 249.666 211.405 249.613 211.502 249.533C211.599 249.453 211.674 249.349 211.719 249.231C211.764 249.114 211.777 248.986 211.758 248.862H211.734Z" fill="white"/>
<path d="M191.604 237.883C191.575 237.763 191.518 237.653 191.437 237.561C191.357 237.468 191.255 237.396 191.141 237.351C191.027 237.306 190.904 237.289 190.782 237.301C190.66 237.313 190.543 237.354 190.44 237.421L190.398 237.457C190.304 237.54 190.233 237.647 190.193 237.767C190.153 237.886 190.145 238.014 190.169 238.138C190.193 238.262 190.249 238.377 190.331 238.472C190.414 238.568 190.52 238.64 190.638 238.682C190.757 238.725 190.885 238.735 191.009 238.713C191.133 238.691 191.249 238.637 191.346 238.556C191.443 238.475 191.517 238.371 191.561 238.253C191.605 238.135 191.618 238.007 191.598 237.883H191.604Z" fill="white"/>
<path d="M175.326 243.264C175.297 243.145 175.24 243.035 175.159 242.942C175.079 242.85 174.977 242.778 174.863 242.733C174.749 242.688 174.626 242.67 174.504 242.682C174.382 242.695 174.265 242.736 174.162 242.802L174.126 242.832C174.032 242.916 173.961 243.023 173.921 243.142C173.88 243.261 173.872 243.389 173.895 243.512C173.919 243.636 173.975 243.751 174.057 243.847C174.139 243.943 174.244 244.015 174.362 244.058C174.481 244.101 174.608 244.112 174.732 244.09C174.856 244.069 174.973 244.015 175.07 243.935C175.167 243.855 175.242 243.751 175.287 243.634C175.332 243.516 175.345 243.389 175.326 243.264Z" fill="white"/>
<path d="M173.586 252.534C173.557 252.415 173.5 252.304 173.419 252.212C173.339 252.119 173.237 252.048 173.124 252.002C173.01 251.957 172.886 251.94 172.764 251.952C172.642 251.964 172.525 252.005 172.422 252.072L172.38 252.102C172.286 252.186 172.215 252.292 172.175 252.411C172.135 252.531 172.126 252.658 172.15 252.782C172.174 252.906 172.229 253.021 172.311 253.117C172.393 253.212 172.498 253.285 172.617 253.328C172.735 253.37 172.863 253.381 172.987 253.36C173.111 253.338 173.227 253.285 173.324 253.205C173.421 253.125 173.496 253.021 173.541 252.903C173.586 252.786 173.599 252.658 173.58 252.534H173.586Z" fill="white"/>
<path d="M188.844 255.636C188.815 255.517 188.758 255.407 188.677 255.315C188.597 255.222 188.495 255.15 188.381 255.105C188.267 255.06 188.144 255.042 188.022 255.055C187.9 255.067 187.783 255.108 187.68 255.174L187.644 255.21C187.55 255.294 187.479 255.401 187.439 255.521C187.399 255.64 187.391 255.768 187.415 255.892C187.439 256.016 187.495 256.131 187.578 256.226C187.66 256.322 187.766 256.394 187.884 256.436C188.003 256.479 188.131 256.489 188.255 256.467C188.379 256.445 188.495 256.391 188.592 256.31C188.689 256.229 188.763 256.125 188.807 256.007C188.852 255.888 188.864 255.761 188.844 255.636Z" fill="white"/>
<path d="M183.744 234.877C183.715 234.758 183.658 234.647 183.577 234.555C183.497 234.462 183.395 234.39 183.281 234.345C183.167 234.3 183.044 234.283 182.922 234.295C182.8 234.307 182.683 234.348 182.58 234.415L182.538 234.451C182.441 234.534 182.368 234.642 182.326 234.763C182.284 234.884 182.274 235.014 182.298 235.14C182.322 235.265 182.378 235.383 182.461 235.48C182.544 235.577 182.652 235.651 182.772 235.694C182.893 235.737 183.023 235.747 183.149 235.724C183.275 235.701 183.392 235.646 183.49 235.563C183.588 235.48 183.662 235.373 183.706 235.253C183.749 235.132 183.76 235.003 183.738 234.877H183.744Z" fill="white"/>
<path d="M202.464 240.157C202.436 240.037 202.38 239.926 202.299 239.832C202.219 239.739 202.117 239.667 202.003 239.621C201.889 239.576 201.765 239.559 201.642 239.572C201.52 239.584 201.403 239.627 201.3 239.695L201.264 239.725C201.17 239.808 201.099 239.915 201.059 240.034C201.019 240.154 201.01 240.281 201.034 240.405C201.058 240.528 201.113 240.644 201.195 240.739C201.277 240.835 201.382 240.908 201.501 240.95C201.619 240.993 201.747 241.004 201.871 240.983C201.995 240.961 202.111 240.908 202.208 240.828C202.305 240.748 202.38 240.644 202.425 240.526C202.47 240.408 202.483 240.281 202.464 240.157Z" fill="white"/>
<path d="M246.966 234.847C246.939 234.727 246.883 234.615 246.804 234.522C246.724 234.429 246.623 234.356 246.509 234.311C246.395 234.265 246.271 234.248 246.149 234.261C246.027 234.274 245.91 234.316 245.808 234.385L245.766 234.415C245.672 234.498 245.601 234.605 245.561 234.724C245.52 234.843 245.512 234.971 245.536 235.095C245.559 235.218 245.615 235.334 245.697 235.429C245.779 235.525 245.884 235.598 246.003 235.64C246.121 235.683 246.249 235.694 246.373 235.672C246.497 235.651 246.613 235.597 246.71 235.517C246.807 235.437 246.882 235.334 246.927 235.216C246.972 235.098 246.985 234.971 246.966 234.847Z" fill="white"/>
<path d="M219.432 261.228C219.403 261.109 219.346 260.999 219.265 260.906C219.185 260.814 219.083 260.742 218.969 260.697C218.855 260.652 218.732 260.634 218.61 260.646C218.488 260.658 218.371 260.7 218.268 260.766L218.226 260.802C218.132 260.886 218.061 260.993 218.021 261.113C217.981 261.232 217.973 261.36 217.997 261.484C218.021 261.607 218.077 261.723 218.16 261.818C218.242 261.914 218.348 261.986 218.467 262.028C218.585 262.07 218.713 262.081 218.837 262.059C218.961 262.037 219.077 261.982 219.174 261.902C219.271 261.821 219.345 261.716 219.389 261.598C219.434 261.48 219.446 261.353 219.426 261.228H219.432Z" fill="white"/>
<path d="M231.174 246.54C231.146 246.421 231.089 246.311 231.01 246.218C230.93 246.126 230.829 246.054 230.715 246.008C230.602 245.963 230.479 245.946 230.357 245.958C230.235 245.97 230.119 246.011 230.016 246.078L229.974 246.114C229.88 246.198 229.809 246.305 229.769 246.424C229.729 246.544 229.721 246.672 229.745 246.796C229.769 246.919 229.825 247.035 229.908 247.13C229.99 247.225 230.096 247.298 230.215 247.34C230.333 247.382 230.461 247.393 230.585 247.371C230.709 247.348 230.825 247.294 230.922 247.213C231.019 247.133 231.093 247.028 231.137 246.91C231.182 246.792 231.194 246.665 231.174 246.54Z" fill="white"/>
<path d="M238.152 258.487C238.125 258.367 238.07 258.256 237.992 258.162C237.913 258.068 237.814 257.995 237.701 257.947C237.588 257.9 237.466 257.88 237.344 257.889C237.222 257.898 237.104 257.937 237 258.001L236.964 258.037C236.87 258.121 236.799 258.228 236.759 258.347C236.719 258.467 236.711 258.594 236.735 258.718C236.759 258.842 236.815 258.957 236.897 259.053C236.98 259.148 237.086 259.22 237.204 259.263C237.323 259.305 237.451 259.315 237.575 259.293C237.699 259.271 237.815 259.217 237.912 259.136C238.009 259.055 238.083 258.951 238.127 258.833C238.171 258.715 238.184 258.587 238.164 258.463L238.152 258.487Z" fill="white"/>
<path d="M218.742 195.93C218.713 195.811 218.656 195.701 218.575 195.608C218.495 195.516 218.393 195.444 218.279 195.399C218.165 195.354 218.042 195.336 217.92 195.348C217.798 195.361 217.681 195.402 217.578 195.468L217.536 195.504C217.442 195.588 217.371 195.695 217.331 195.815C217.291 195.934 217.283 196.062 217.307 196.186C217.331 196.31 217.387 196.425 217.47 196.52C217.552 196.616 217.658 196.688 217.777 196.73C217.895 196.773 218.023 196.783 218.147 196.761C218.271 196.739 218.387 196.685 218.484 196.604C218.581 196.523 218.655 196.419 218.699 196.3C218.744 196.182 218.756 196.055 218.736 195.93H218.742Z" fill="white"/>
<path d="M234.54 226.428C234.511 226.309 234.454 226.199 234.373 226.106C234.293 226.014 234.191 225.942 234.077 225.897C233.963 225.852 233.84 225.834 233.718 225.847C233.596 225.859 233.479 225.9 233.376 225.966L233.334 225.996C233.24 226.08 233.169 226.187 233.129 226.306C233.088 226.425 233.08 226.553 233.103 226.677C233.127 226.8 233.183 226.915 233.265 227.011C233.347 227.107 233.452 227.179 233.57 227.222C233.689 227.265 233.816 227.276 233.94 227.254C234.064 227.233 234.181 227.179 234.278 227.099C234.375 227.019 234.45 226.915 234.495 226.798C234.54 226.68 234.553 226.553 234.534 226.428H234.54Z" fill="white"/>
<path d="M229.416 237.978C229.387 237.859 229.33 237.749 229.249 237.656C229.169 237.564 229.067 237.492 228.953 237.447C228.839 237.402 228.716 237.384 228.594 237.396C228.472 237.408 228.355 237.45 228.252 237.516L228.21 237.546C228.116 237.63 228.045 237.737 228.005 237.856C227.964 237.975 227.956 238.103 227.979 238.226C228.003 238.35 228.059 238.465 228.141 238.561C228.223 238.657 228.328 238.729 228.446 238.772C228.565 238.814 228.692 238.826 228.816 238.804C228.94 238.783 229.057 238.729 229.154 238.649C229.251 238.569 229.326 238.465 229.371 238.348C229.415 238.23 229.429 238.103 229.41 237.978H229.416Z" fill="white"/>
<path d="M246.258 247.255C246.229 247.136 246.172 247.025 246.091 246.933C246.011 246.84 245.91 246.768 245.796 246.723C245.682 246.678 245.558 246.661 245.436 246.673C245.314 246.685 245.197 246.726 245.094 246.793L245.052 246.829C244.958 246.913 244.888 247.02 244.847 247.139C244.807 247.259 244.799 247.386 244.823 247.51C244.847 247.634 244.903 247.749 244.986 247.845C245.068 247.94 245.174 248.012 245.293 248.055C245.411 248.097 245.539 248.107 245.663 248.085C245.787 248.063 245.904 248.009 246 247.928C246.097 247.847 246.171 247.743 246.216 247.625C246.26 247.507 246.272 247.379 246.252 247.255H246.258Z" fill="white"/>
<path d="M200.172 260.652C200.144 260.532 200.088 260.421 200.008 260.327C199.927 260.234 199.826 260.162 199.711 260.116C199.597 260.071 199.473 260.054 199.351 260.067C199.228 260.079 199.111 260.122 199.008 260.19L198.966 260.22C198.872 260.304 198.801 260.41 198.761 260.529C198.721 260.649 198.712 260.776 198.736 260.9C198.76 261.024 198.815 261.139 198.897 261.235C198.979 261.33 199.084 261.403 199.203 261.445C199.321 261.488 199.449 261.499 199.573 261.478C199.697 261.456 199.813 261.403 199.91 261.323C200.007 261.243 200.082 261.139 200.127 261.021C200.172 260.904 200.185 260.776 200.166 260.652H200.172Z" fill="white"/>
<path d="M161.772 257.142C161.743 257.023 161.686 256.913 161.606 256.82C161.525 256.728 161.424 256.656 161.31 256.611C161.196 256.566 161.073 256.548 160.951 256.56C160.829 256.572 160.711 256.614 160.608 256.68L160.566 256.716C160.47 256.8 160.396 256.908 160.354 257.029C160.312 257.15 160.302 257.279 160.326 257.405C160.35 257.531 160.406 257.648 160.489 257.746C160.573 257.843 160.68 257.917 160.801 257.96C160.921 258.002 161.051 258.013 161.177 257.99C161.303 257.967 161.421 257.911 161.518 257.828C161.616 257.746 161.69 257.639 161.734 257.519C161.777 257.398 161.789 257.268 161.766 257.142H161.772Z" fill="white"/>
<path d="M195.6 250.837C195.571 250.718 195.514 250.607 195.433 250.515C195.353 250.422 195.251 250.35 195.137 250.305C195.023 250.26 194.9 250.243 194.778 250.255C194.656 250.267 194.539 250.308 194.436 250.375L194.394 250.411C194.297 250.494 194.224 250.602 194.182 250.723C194.14 250.844 194.13 250.974 194.154 251.1C194.177 251.225 194.234 251.343 194.317 251.44C194.4 251.537 194.508 251.611 194.628 251.654C194.749 251.697 194.879 251.707 195.005 251.684C195.131 251.661 195.248 251.606 195.346 251.523C195.444 251.44 195.518 251.333 195.562 251.213C195.605 251.092 195.616 250.963 195.594 250.837H195.6Z" fill="white"/>
<path d="M163.2 243.978C163.172 243.858 163.115 243.747 163.035 243.654C162.955 243.56 162.853 243.488 162.739 243.442C162.624 243.397 162.501 243.38 162.378 243.393C162.256 243.406 162.138 243.448 162.036 243.516L162 243.546C161.906 243.63 161.835 243.736 161.795 243.856C161.754 243.975 161.746 244.103 161.77 244.226C161.793 244.35 161.849 244.465 161.931 244.561C162.013 244.656 162.118 244.729 162.236 244.772C162.355 244.814 162.482 244.825 162.606 244.804C162.73 244.782 162.847 244.729 162.944 244.649C163.041 244.569 163.116 244.465 163.161 244.347C163.206 244.23 163.219 244.102 163.2 243.978Z" fill="white"/>
<path d="M217.32 222.198C217.291 222.079 217.234 221.968 217.153 221.876C217.073 221.784 216.971 221.712 216.857 221.666C216.743 221.621 216.62 221.604 216.498 221.616C216.376 221.628 216.259 221.669 216.156 221.736L216.114 221.766C216.02 221.85 215.949 221.956 215.909 222.076C215.869 222.195 215.86 222.322 215.884 222.446C215.908 222.57 215.963 222.685 216.045 222.781C216.127 222.876 216.232 222.949 216.351 222.992C216.469 223.034 216.597 223.045 216.721 223.024C216.845 223.002 216.961 222.949 217.058 222.869C217.155 222.789 217.23 222.685 217.275 222.567C217.32 222.45 217.333 222.322 217.314 222.198H217.32Z" fill="white"/>
<path d="M205.992 189.144C205.963 189.025 205.906 188.915 205.825 188.822C205.745 188.73 205.643 188.658 205.529 188.613C205.415 188.568 205.292 188.55 205.17 188.562C205.048 188.574 204.931 188.616 204.828 188.682H204.786C204.692 188.766 204.621 188.873 204.581 188.992C204.54 189.111 204.532 189.239 204.556 189.362C204.579 189.486 204.635 189.601 204.717 189.697C204.799 189.793 204.904 189.865 205.023 189.908C205.141 189.95 205.269 189.962 205.393 189.94C205.517 189.919 205.633 189.865 205.73 189.785C205.827 189.705 205.902 189.601 205.947 189.484C205.992 189.366 206.005 189.239 205.986 189.114L205.992 189.144Z" fill="white"/>
<path d="M203.16 217.801C203.131 217.681 203.074 217.571 202.993 217.479C202.913 217.386 202.811 217.314 202.697 217.269C202.583 217.224 202.46 217.206 202.338 217.219C202.216 217.231 202.099 217.272 201.996 217.339L201.96 217.375C201.866 217.458 201.795 217.565 201.755 217.685C201.715 217.804 201.707 217.932 201.731 218.056C201.755 218.18 201.811 218.295 201.893 218.39C201.976 218.486 202.082 218.558 202.2 218.6C202.319 218.643 202.447 218.653 202.571 218.631C202.695 218.609 202.811 218.555 202.908 218.474C203.005 218.393 203.079 218.289 203.123 218.171C203.167 218.053 203.18 217.925 203.16 217.801Z" fill="white"/>
<path d="M198.552 208.459C198.523 208.34 198.466 208.229 198.385 208.137C198.305 208.044 198.203 207.972 198.089 207.927C197.975 207.882 197.852 207.865 197.73 207.877C197.608 207.889 197.491 207.93 197.388 207.997H197.352C197.258 208.08 197.187 208.187 197.147 208.306C197.106 208.426 197.098 208.553 197.122 208.677C197.145 208.8 197.201 208.916 197.283 209.011C197.365 209.107 197.47 209.18 197.588 209.222C197.707 209.265 197.834 209.276 197.958 209.255C198.083 209.233 198.199 209.18 198.296 209.1C198.393 209.02 198.468 208.916 198.513 208.798C198.558 208.68 198.571 208.553 198.552 208.429V208.459Z" fill="white"/>
<path d="M218.934 237.846C218.905 237.727 218.848 237.617 218.767 237.524C218.687 237.432 218.585 237.36 218.471 237.315C218.357 237.27 218.234 237.252 218.112 237.264C217.99 237.277 217.873 237.318 217.77 237.384L217.728 237.42C217.631 237.504 217.558 237.612 217.516 237.733C217.474 237.854 217.464 237.984 217.488 238.109C217.511 238.235 217.568 238.353 217.651 238.45C217.734 238.547 217.842 238.621 217.962 238.664C218.083 238.706 218.213 238.717 218.339 238.694C218.465 238.671 218.582 238.615 218.68 238.533C218.778 238.45 218.852 238.343 218.896 238.223C218.939 238.102 218.95 237.973 218.928 237.846H218.934Z" fill="white"/>
<path d="M204.564 232.081C204.538 231.959 204.484 231.846 204.404 231.75C204.325 231.655 204.223 231.58 204.109 231.533C203.994 231.486 203.87 231.467 203.746 231.479C203.622 231.491 203.504 231.533 203.4 231.601L203.358 231.637C203.264 231.721 203.193 231.828 203.153 231.947C203.113 232.067 203.105 232.194 203.129 232.318C203.153 232.442 203.209 232.557 203.291 232.653C203.374 232.748 203.48 232.82 203.598 232.863C203.717 232.905 203.845 232.915 203.969 232.893C204.093 232.871 204.209 232.817 204.306 232.736C204.403 232.655 204.477 232.551 204.521 232.433C204.565 232.315 204.578 232.187 204.558 232.063L204.564 232.081Z" fill="white"/>
<path d="M210.714 200.431C210.686 200.312 210.629 200.201 210.549 200.109C210.47 200.016 210.369 199.944 210.255 199.899C210.141 199.854 210.019 199.836 209.897 199.848C209.775 199.861 209.658 199.902 209.556 199.969L209.514 199.999C209.42 200.082 209.349 200.189 209.309 200.308C209.269 200.427 209.26 200.555 209.284 200.679C209.308 200.802 209.363 200.918 209.445 201.013C209.527 201.109 209.632 201.182 209.751 201.224C209.869 201.267 209.997 201.278 210.121 201.257C210.245 201.235 210.361 201.182 210.458 201.102C210.555 201.022 210.63 200.918 210.675 200.8C210.72 200.682 210.733 200.555 210.714 200.431Z" fill="white"/>
<path d="M188.844 222.841C188.815 222.721 188.758 222.611 188.677 222.519C188.597 222.426 188.495 222.354 188.381 222.309C188.267 222.264 188.144 222.247 188.022 222.259C187.9 222.271 187.783 222.312 187.68 222.379L187.644 222.415C187.55 222.498 187.479 222.605 187.439 222.725C187.399 222.844 187.391 222.972 187.415 223.096C187.439 223.22 187.495 223.335 187.578 223.43C187.66 223.526 187.766 223.598 187.884 223.641C188.003 223.683 188.131 223.693 188.255 223.671C188.379 223.649 188.495 223.595 188.592 223.514C188.689 223.433 188.763 223.329 188.807 223.211C188.852 223.093 188.864 222.965 188.844 222.841Z" fill="white"/>
<path d="M222.6 212.556C222.571 212.437 222.514 212.327 222.433 212.234C222.353 212.142 222.251 212.07 222.137 212.025C222.023 211.98 221.9 211.962 221.778 211.974C221.656 211.987 221.539 212.028 221.436 212.094L221.394 212.124C221.3 212.208 221.229 212.315 221.189 212.434C221.148 212.553 221.14 212.681 221.164 212.804C221.187 212.928 221.243 213.043 221.325 213.139C221.407 213.235 221.512 213.307 221.63 213.35C221.749 213.393 221.876 213.404 222 213.382C222.125 213.361 222.241 213.307 222.338 213.227C222.435 213.147 222.51 213.043 222.555 212.926C222.6 212.808 222.613 212.681 222.594 212.556H222.6Z" fill="white"/>
<path d="M253.914 185.7C253.885 185.581 253.828 185.47 253.747 185.378C253.667 185.286 253.565 185.214 253.451 185.168C253.337 185.123 253.214 185.106 253.092 185.118C252.97 185.13 252.853 185.171 252.75 185.238L252.708 185.274C252.614 185.358 252.543 185.465 252.503 185.584C252.463 185.704 252.455 185.832 252.479 185.955C252.503 186.079 252.559 186.194 252.642 186.29C252.724 186.385 252.83 186.458 252.948 186.5C253.067 186.542 253.195 186.553 253.319 186.53C253.443 186.508 253.559 186.454 253.656 186.373C253.753 186.293 253.827 186.188 253.871 186.07C253.915 185.952 253.928 185.824 253.908 185.7H253.914Z" fill="white"/>
<path d="M241.2 165.366C241.171 165.247 241.114 165.136 241.033 165.044C240.953 164.952 240.851 164.88 240.737 164.834C240.623 164.789 240.5 164.772 240.378 164.784C240.256 164.796 240.139 164.837 240.036 164.904L239.994 164.94C239.9 165.024 239.83 165.131 239.789 165.25C239.749 165.37 239.741 165.498 239.765 165.621C239.789 165.745 239.845 165.86 239.928 165.956C240.01 166.051 240.116 166.124 240.235 166.166C240.353 166.208 240.481 166.219 240.605 166.196C240.729 166.174 240.845 166.12 240.942 166.039C241.039 165.959 241.113 165.854 241.157 165.736C241.202 165.618 241.214 165.49 241.194 165.366H241.2Z" fill="white"/>
<path d="M216.564 167.917C216.535 167.798 216.478 167.687 216.397 167.595C216.317 167.502 216.216 167.43 216.102 167.385C215.988 167.34 215.864 167.323 215.742 167.335C215.62 167.347 215.503 167.388 215.4 167.455L215.358 167.485C215.264 167.568 215.194 167.675 215.153 167.794C215.113 167.914 215.104 168.041 215.128 168.165C215.152 168.288 215.207 168.404 215.289 168.499C215.371 168.595 215.476 168.668 215.595 168.71C215.713 168.753 215.841 168.764 215.965 168.743C216.089 168.721 216.205 168.668 216.302 168.588C216.399 168.508 216.474 168.404 216.519 168.286C216.564 168.168 216.577 168.041 216.558 167.917H216.564Z" fill="white"/>
<path d="M191.43 94.9268C186.708 97.9268 184.83 104.233 185.718 107.959C186.174 109.837 187.026 111.727 186.654 113.617C186.336 115.255 185.154 116.569 184.254 117.985C182.771 120.368 182.09 123.164 182.31 125.963C182.53 128.761 183.64 131.416 185.477 133.539C187.314 135.661 189.782 137.14 192.52 137.76C195.258 138.379 198.122 138.106 200.694 136.981" fill="#263238"/>
<path d="M188.634 119.52C177.138 94.2364 204.486 81.5344 219.402 85.7464C233.424 89.7064 239.406 96.6844 241.716 106.062C244.026 115.44 243.912 125.61 240.234 134.544C238.434 138.948 235.158 143.424 230.424 143.976" fill="#263238"/>
<path d="M202.104 181.267C201.906 169.183 201.762 152.593 201.762 152.659C201.762 152.725 191.4 150.937 189.222 137.401C188.154 130.663 188.496 119.617 189.06 110.587C189.576 102.457 194.958 92.4848 203.058 93.3428L228.348 99.7328C229.535 99.8575 230.633 100.424 231.422 101.32C232.211 102.216 232.634 103.375 232.608 104.569L230.964 156.871" fill="#FFBE9D"/>
<path d="M193.584 118.848C193.574 119.298 193.741 119.734 194.048 120.062C194.355 120.391 194.779 120.586 195.228 120.606C195.448 120.627 195.669 120.603 195.879 120.537C196.09 120.47 196.285 120.362 196.452 120.219C196.62 120.075 196.758 119.9 196.856 119.703C196.955 119.506 197.014 119.291 197.028 119.07C197.036 118.621 196.869 118.185 196.563 117.856C196.256 117.527 195.833 117.33 195.384 117.306C195.164 117.287 194.942 117.311 194.732 117.379C194.522 117.446 194.327 117.555 194.159 117.698C193.991 117.842 193.854 118.018 193.755 118.215C193.656 118.413 193.598 118.628 193.584 118.848Z" fill="#263238"/>
<path d="M211.536 118.848C211.528 119.297 211.695 119.731 212.002 120.058C212.309 120.385 212.732 120.58 213.18 120.6C213.4 120.62 213.621 120.597 213.831 120.53C214.042 120.464 214.237 120.355 214.404 120.212C214.572 120.069 214.71 119.894 214.809 119.696C214.907 119.499 214.966 119.284 214.98 119.064C214.99 118.614 214.823 118.179 214.516 117.85C214.209 117.521 213.785 117.326 213.336 117.306C213.116 117.285 212.894 117.309 212.683 117.376C212.472 117.443 212.277 117.552 212.109 117.696C211.941 117.84 211.804 118.016 211.706 118.214C211.607 118.412 211.549 118.627 211.536 118.848Z" fill="#263238"/>
<path d="M191.712 115.693C191.922 115.927 193.272 114.997 195.138 115.093C197.004 115.189 198.342 116.137 198.558 115.915C198.66 115.819 198.45 115.405 197.868 114.949C197.08 114.36 196.128 114.03 195.144 114.007C194.172 113.973 193.214 114.248 192.408 114.793C191.82 115.201 191.61 115.585 191.712 115.693Z" fill="#263238"/>
<path d="M209.46 116.136C209.676 116.364 210.99 115.38 212.856 115.38C214.722 115.38 216.102 116.304 216.3 116.076C216.402 115.974 216.18 115.566 215.58 115.134C214.77 114.574 213.805 114.281 212.82 114.294C211.849 114.294 210.902 114.606 210.12 115.182C209.544 115.626 209.352 116.034 209.46 116.136Z" fill="#263238"/>
<path d="M203.052 130.536C203.052 130.428 201.9 130.23 200.016 129.984C199.536 129.936 199.086 129.84 199.008 129.516C198.966 129.023 199.077 128.528 199.326 128.1C199.77 126.948 200.244 125.736 200.736 124.464C202.698 119.292 204.114 115.032 203.904 114.954C203.694 114.876 201.936 119.01 199.98 124.188L198.624 127.848C198.324 128.424 198.237 129.087 198.378 129.72C198.448 129.888 198.555 130.038 198.691 130.159C198.827 130.279 198.989 130.367 199.164 130.416C199.428 130.49 199.7 130.529 199.974 130.53C201.87 130.632 203.046 130.638 203.052 130.536Z" fill="#263238"/>
<path d="M201.762 152.658C208.141 152.756 214.422 151.082 219.906 147.822C219.906 147.822 215.322 157.242 201.762 155.976V152.658Z" fill="#EB996E"/>
<path d="M208.998 113.478C209.178 113.988 211.05 113.742 213.24 114.012C215.43 114.282 217.206 114.87 217.5 114.414C217.632 114.198 217.32 113.718 216.606 113.214C215.651 112.611 214.571 112.234 213.448 112.11C212.326 111.987 211.19 112.12 210.126 112.5C209.322 112.836 208.914 113.238 208.998 113.478Z" fill="#263238"/>
<path d="M192.144 111C192.474 111.426 193.764 111 195.312 110.964C196.86 110.928 198.174 111.252 198.474 110.808C198.606 110.592 198.402 110.166 197.826 109.764C197.061 109.27 196.162 109.027 195.252 109.068C194.343 109.086 193.461 109.383 192.726 109.92C192.18 110.346 192 110.784 192.144 111Z" fill="#263238"/>
<path d="M230.286 122.4C230.484 122.304 237.54 119.184 237.624 127.296C237.708 135.408 229.542 133.818 229.524 133.584C229.506 133.35 230.286 122.4 230.286 122.4Z" fill="#FFBE9D"/>
<path d="M231.972 130.476C232.008 130.476 232.116 130.572 232.356 130.68C232.695 130.815 233.073 130.815 233.412 130.68C234.264 130.356 234.972 128.988 234.996 127.524C235.014 126.829 234.873 126.14 234.582 125.508C234.505 125.255 234.366 125.025 234.179 124.838C233.992 124.65 233.761 124.512 233.508 124.434C233.346 124.392 233.174 124.409 233.022 124.482C232.871 124.554 232.75 124.677 232.68 124.83C232.572 125.058 232.626 125.22 232.584 125.232C232.542 125.244 232.404 125.1 232.47 124.764C232.513 124.564 232.623 124.383 232.782 124.254C232.892 124.169 233.017 124.106 233.151 124.069C233.285 124.032 233.424 124.021 233.562 124.038C233.896 124.101 234.207 124.248 234.468 124.465C234.728 124.683 234.929 124.963 235.05 125.28C235.404 125.979 235.581 126.753 235.566 127.536C235.53 129.168 234.708 130.71 233.538 131.058C233.321 131.124 233.092 131.14 232.868 131.106C232.644 131.071 232.43 130.988 232.242 130.86C231.99 130.674 231.948 130.488 231.972 130.476Z" fill="#EB996E"/>
<path d="M200.358 89.3281C195.846 91.6621 193.986 100.89 195.852 105.618C197.718 110.346 202.752 112.65 207.714 113.736C212.676 114.822 217.542 114.936 222.438 113.592C222.774 116.88 224.748 120.258 227.94 121.128C232.17 122.274 236.43 118.404 237.372 114.126C238.314 109.848 236.898 105.444 235.506 101.286" fill="#263238"/>
<path d="M236.148 118.758C236.148 118.758 235.944 118.998 235.518 119.358C234.923 119.862 234.3 120.333 233.652 120.768C232.684 121.436 231.62 121.952 230.496 122.298C229.093 122.741 227.584 122.718 226.194 122.232C224.826 121.681 223.68 120.691 222.936 119.418C222.333 118.401 221.936 117.276 221.766 116.106C221.648 115.328 221.605 114.541 221.64 113.754C221.627 113.467 221.662 113.179 221.742 112.902C221.832 112.902 221.742 114.132 222.09 116.046C222.296 117.159 222.703 118.224 223.29 119.19C224.003 120.363 225.073 121.276 226.344 121.794C227.644 122.243 229.053 122.273 230.37 121.878C231.46 121.563 232.5 121.097 233.46 120.492C235.128 119.448 236.1 118.692 236.148 118.758Z" fill="#263238"/>
<path d="M203.604 135.745C203.843 136.448 204.182 137.113 204.612 137.719C204.828 138.022 205.106 138.276 205.428 138.463C205.75 138.651 206.108 138.767 206.478 138.805C206.874 138.802 207.263 138.702 207.611 138.512C207.958 138.323 208.254 138.05 208.47 137.719C208.889 137.04 209.082 136.246 209.022 135.451C208.992 134.737 208.662 133.885 207.954 133.801C207.657 133.79 207.361 133.856 207.096 133.993L203.364 135.505" fill="#EB996E"/>
<path d="M205.092 138.81C205.092 138.696 205.932 139.026 207.084 138.564C207.737 138.312 208.274 137.827 208.59 137.202C208.769 136.821 208.866 136.407 208.874 135.986C208.882 135.566 208.802 135.148 208.638 134.76C208.552 134.563 208.443 134.375 208.314 134.202C208.164 134.046 208.188 134.052 208.032 134.076C207.876 134.1 207.63 134.232 207.432 134.31L206.832 134.562C206.034 134.886 205.308 135.162 204.702 135.396C203.502 135.852 202.704 136.092 202.668 135.996C202.632 135.9 203.34 135.516 204.516 134.952C205.116 134.67 205.806 134.352 206.592 133.986L207.192 133.716C207.414 133.626 207.576 133.53 207.876 133.434C208.055 133.375 208.249 133.375 208.428 133.434C208.592 133.504 208.735 133.616 208.842 133.758C209.243 134.279 209.485 134.904 209.539 135.558C209.593 136.213 209.458 136.869 209.148 137.448C208.949 137.816 208.679 138.141 208.354 138.403C208.028 138.666 207.654 138.861 207.252 138.978C206.731 139.15 206.172 139.172 205.638 139.044C205.254 138.978 205.08 138.852 205.092 138.81Z" fill="#263238"/>
<path d="M239.4 116.839C238.572 116.779 231.87 117.649 232.398 130.099C232.89 141.733 241.05 139.171 243.654 134.791C246.102 130.645 247.53 117.409 239.4 116.839Z" fill="#455A64"/>
<path d="M243.522 118.309C243.503 118.202 243.493 118.093 243.492 117.985C243.492 117.739 243.492 117.427 243.456 117.031C243.456 116.173 243.396 114.973 243.354 113.485C243.294 110.431 243.21 106.177 243.108 101.275L243.258 101.419H239.808L239.964 101.263C239.964 102.187 240.012 103.165 240.042 104.161C240.156 108.829 240.264 113.161 240.354 116.827V116.935H240.252C238.836 117.261 237.577 118.072 236.694 119.227C236.025 120.122 235.542 121.142 235.272 122.227C235.092 122.925 234.97 123.638 234.906 124.357C234.906 124.603 234.876 124.795 234.87 124.921C234.864 125.047 234.87 125.119 234.87 125.119C234.862 125.053 234.862 124.986 234.87 124.921C234.87 124.795 234.87 124.603 234.87 124.351C234.899 123.623 235 122.899 235.17 122.191C235.42 121.074 235.896 120.021 236.568 119.095C237.474 117.892 238.77 117.044 240.234 116.695L240.132 116.827C240.03 113.185 239.904 108.835 239.772 104.161C239.742 103.171 239.718 102.193 239.694 101.263V101.101H243.456V101.251C243.51 106.159 243.558 110.407 243.594 113.467C243.594 114.955 243.594 116.155 243.594 117.013C243.594 117.409 243.594 117.721 243.594 117.961C243.586 118.079 243.562 118.196 243.522 118.309Z" fill="#455A64"/>
<path d="M239.4 101.268C239.4 101.268 235.896 93.0721 227.55 89.0221C224.358 87.4323 221.005 86.1892 217.548 85.3141C217.548 85.3141 222.42 84.1621 230.298 87.6661C233.898 89.2621 237.498 91.3321 239.898 94.4461C241.41 96.4201 243.306 100.278 243.3 101.268H239.4Z" fill="#455A64"/>
<path d="M217.8 200.551C217.8 200.551 217.848 200.491 217.95 200.389C218.052 200.287 218.208 200.131 218.4 199.921C218.976 199.312 219.517 198.67 220.02 198.001C220.821 196.928 221.553 195.806 222.21 194.641C222.99 193.279 223.806 191.671 224.688 189.877C226.458 186.277 228.504 181.945 230.628 176.965C231.684 174.475 232.764 171.829 233.844 169.039L234.648 166.927C234.902 166.187 235.225 165.474 235.614 164.797C236.03 164.094 236.632 163.521 237.354 163.141C237.722 162.938 238.135 162.833 238.554 162.835C238.783 162.85 239.003 162.929 239.19 163.063C239.367 163.206 239.506 163.392 239.592 163.603V163.645V163.693C239.541 163.978 239.431 164.25 239.268 164.491C239.087 164.741 238.82 164.916 238.518 164.983C237.942 165.062 237.355 164.955 236.844 164.677C236.308 164.426 235.871 164.004 235.602 163.477C235.334 162.949 235.249 162.347 235.362 161.767C235.485 161.17 235.836 160.644 236.34 160.303C236.838 159.955 237.438 159.784 238.044 159.817C238.358 159.819 238.666 159.899 238.941 160.051C239.216 160.203 239.448 160.422 239.616 160.687C239.701 160.838 239.741 161.011 239.73 161.184C239.719 161.358 239.659 161.524 239.556 161.665C239.358 161.915 239.094 162.107 238.794 162.217C238.291 162.408 237.74 162.432 237.222 162.285C236.704 162.138 236.248 161.828 235.92 161.401C235.601 160.965 235.462 160.424 235.53 159.889C235.583 159.367 235.792 158.873 236.13 158.473C236.474 158.068 236.954 157.803 237.48 157.729C237.746 157.694 238.016 157.721 238.269 157.809C238.522 157.896 238.751 158.041 238.938 158.233C239.13 158.439 239.233 158.713 239.226 158.995C239.223 159.135 239.19 159.273 239.13 159.4C239.07 159.527 238.985 159.641 238.878 159.733C238.682 159.909 238.448 160.036 238.194 160.105C237.939 160.174 237.672 160.182 237.414 160.129C237.165 160.063 236.931 159.946 236.73 159.785C236.528 159.624 236.363 159.422 236.244 159.193C236.012 158.762 235.863 158.292 235.806 157.807C235.637 156.863 235.748 155.891 236.124 155.011C236.335 154.561 236.698 154.201 237.15 153.997C237.612 153.825 238.123 153.843 238.572 154.045C238.808 154.13 239.015 154.278 239.171 154.474C239.326 154.67 239.425 154.906 239.454 155.155C239.466 155.409 239.399 155.66 239.263 155.875C239.127 156.09 238.927 156.257 238.692 156.355C238.479 156.464 238.242 156.521 238.002 156.521C237.762 156.521 237.526 156.464 237.312 156.355C236.906 156.12 236.601 155.744 236.454 155.299C236.319 154.876 236.292 154.426 236.376 153.991C236.423 153.566 236.516 153.147 236.652 152.743C236.788 152.326 237.04 151.958 237.378 151.681C237.711 151.414 238.098 151.223 238.512 151.123C238.728 151.061 238.957 151.061 239.172 151.123C239.379 151.194 239.566 151.313 239.718 151.471C239.871 151.621 239.991 151.8 240.072 151.999C240.159 152.212 240.159 152.451 240.072 152.665C239.976 152.862 239.821 153.025 239.629 153.132C239.437 153.24 239.217 153.286 238.998 153.265C238.592 153.259 238.198 153.127 237.87 152.887C237.249 152.428 236.821 151.754 236.67 150.997C236.513 150.249 236.63 149.469 237 148.801C237.163 148.48 237.394 148.199 237.678 147.979C237.958 147.766 238.286 147.624 238.632 147.565C238.979 147.494 239.339 147.545 239.652 147.709C239.807 147.793 239.939 147.914 240.035 148.062C240.132 148.209 240.19 148.379 240.204 148.555C240.202 148.886 240.091 149.207 239.886 149.467C239.682 149.728 239.397 149.913 239.076 149.995C238.775 150.059 238.462 150.036 238.174 149.93C237.885 149.824 237.632 149.638 237.444 149.395C237.084 148.961 236.873 148.422 236.844 147.859C236.896 146.877 237.099 145.91 237.444 144.991C237.69 144.127 237.912 143.335 238.116 142.627C238.518 141.217 238.83 140.119 239.052 139.363C239.154 138.997 239.238 138.715 239.298 138.517C239.358 138.319 239.394 138.229 239.394 138.229C239.394 138.229 239.394 138.331 239.328 138.523C239.262 138.715 239.202 139.015 239.112 139.381C238.908 140.143 238.608 141.247 238.23 142.657L237.588 145.027C237.384 145.897 236.988 146.827 237.03 147.847C237.074 148.374 237.284 148.874 237.63 149.275C237.796 149.49 238.019 149.654 238.273 149.75C238.528 149.845 238.804 149.868 239.07 149.815C239.34 149.745 239.58 149.591 239.755 149.375C239.93 149.159 240.03 148.892 240.042 148.615C240.03 148.474 239.983 148.338 239.905 148.22C239.828 148.101 239.722 148.004 239.598 147.937C239.327 147.802 239.019 147.762 238.722 147.823C238.408 147.876 238.111 148.006 237.858 148.201C237.607 148.405 237.402 148.66 237.258 148.951C236.961 149.566 236.883 150.264 237.036 150.931C237.18 151.627 237.578 152.245 238.152 152.665C238.44 152.871 238.783 152.986 239.136 152.995C239.302 153.014 239.471 152.983 239.619 152.905C239.767 152.827 239.887 152.705 239.964 152.557C240.001 152.39 239.991 152.216 239.935 152.055C239.879 151.894 239.779 151.752 239.646 151.645C239.523 151.52 239.373 151.423 239.208 151.363C239.037 151.318 238.857 151.318 238.686 151.363C238.308 151.445 237.957 151.622 237.667 151.877C237.376 152.132 237.155 152.456 237.024 152.821C236.893 153.21 236.807 153.612 236.766 154.021C236.685 154.42 236.71 154.834 236.838 155.221C236.958 155.598 237.215 155.917 237.558 156.115C237.732 156.202 237.925 156.247 238.119 156.247C238.314 156.247 238.506 156.202 238.68 156.115C238.86 156.045 239.013 155.922 239.121 155.762C239.228 155.602 239.284 155.413 239.28 155.221C239.254 155.027 239.174 154.844 239.05 154.693C238.926 154.541 238.763 154.427 238.578 154.363C238.198 154.197 237.769 154.182 237.378 154.321C236.995 154.499 236.687 154.807 236.508 155.191C236.164 156.019 236.066 156.93 236.226 157.813C236.279 158.26 236.416 158.693 236.628 159.091C236.726 159.281 236.862 159.45 237.029 159.585C237.195 159.72 237.388 159.82 237.594 159.877C237.805 159.922 238.024 159.917 238.232 159.861C238.441 159.806 238.634 159.702 238.794 159.559C238.869 159.492 238.93 159.411 238.973 159.32C239.016 159.229 239.041 159.131 239.045 159.03C239.049 158.93 239.032 158.83 238.996 158.736C238.96 158.642 238.906 158.557 238.836 158.485C238.68 158.33 238.491 158.214 238.283 158.144C238.075 158.074 237.854 158.053 237.636 158.083C237.185 158.149 236.775 158.379 236.484 158.731C236.17 159.068 235.977 159.502 235.938 159.962C235.899 160.422 236.015 160.882 236.268 161.269C236.557 161.638 236.955 161.906 237.406 162.033C237.857 162.161 238.337 162.141 238.776 161.977C239.011 161.88 239.218 161.725 239.376 161.527C239.444 161.433 239.483 161.323 239.489 161.208C239.496 161.093 239.469 160.979 239.412 160.879C239.268 160.662 239.073 160.485 238.843 160.363C238.614 160.24 238.358 160.176 238.098 160.177C237.568 160.135 237.04 160.283 236.608 160.594C236.177 160.905 235.869 161.358 235.74 161.875C235.643 162.376 235.713 162.895 235.941 163.352C236.169 163.808 236.541 164.177 237 164.401C237.446 164.654 237.962 164.755 238.47 164.689C238.699 164.617 238.901 164.479 239.051 164.292C239.201 164.105 239.291 163.877 239.31 163.639V163.729C239.252 163.563 239.147 163.418 239.007 163.311C238.867 163.204 238.7 163.141 238.524 163.129C238.152 163.127 237.786 163.222 237.462 163.405C236.786 163.758 236.223 164.295 235.836 164.953C235.456 165.61 235.14 166.304 234.894 167.023L234.078 169.141C232.998 171.925 231.906 174.541 230.838 177.061C228.702 182.041 226.638 186.385 224.838 189.961C223.944 191.761 223.116 193.351 222.318 194.713C221.646 195.874 220.898 196.991 220.08 198.055C219.412 198.966 218.648 199.803 217.8 200.551Z" fill="white"/>
<path d="M246.654 111C246.581 110.238 246.397 109.49 246.108 108.78C245.236 106.872 243.707 105.341 241.8 104.466C240.491 103.875 239.083 103.531 237.648 103.452C235.997 103.367 234.342 103.492 232.722 103.824C229.284 104.46 225.672 105.942 221.628 106.554C219.657 106.815 217.66 106.815 215.688 106.554C213.858 106.279 212.066 105.791 210.348 105.102C207.432 103.928 204.78 102.181 202.548 99.9662C201.046 98.485 199.776 96.7859 198.78 94.9262C198.612 94.6428 198.464 94.3481 198.336 94.0442L198.048 93.3782C197.976 93.2162 197.922 93.0782 197.874 92.9702C197.851 92.9248 197.835 92.8763 197.826 92.8262C197.858 92.8667 197.884 92.911 197.904 92.9582L198.102 93.3542L198.42 94.0022C198.557 94.3021 198.713 94.5927 198.888 94.8722C199.917 96.6923 201.202 98.3553 202.704 99.8102C206.247 103.28 210.8 105.534 215.706 106.248C217.65 106.506 219.619 106.506 221.562 106.248C225.552 105.648 229.17 104.172 232.65 103.548C234.293 103.22 235.97 103.103 237.642 103.2C239.107 103.289 240.542 103.653 241.872 104.274C243.812 105.183 245.351 106.771 246.198 108.738C246.409 109.274 246.548 109.834 246.612 110.406V110.85C246.634 110.898 246.648 110.948 246.654 111Z" fill="#455A64"/>
<path d="M237.6 98.0705C237.458 98.1053 237.314 98.1293 237.168 98.1425C236.886 98.1845 236.466 98.2445 235.932 98.3405C234.864 98.5145 233.334 98.8565 231.45 99.3245C229.246 99.9186 227.002 100.354 224.736 100.626C221.951 100.912 219.142 100.849 216.372 100.44C213.602 100.039 210.889 99.3095 208.29 98.2685C206.16 97.4251 204.119 96.3698 202.2 95.1185C201.396 94.5725 200.676 94.0685 200.064 93.5885C199.452 93.1085 198.936 92.6945 198.54 92.3225L197.628 91.4645C197.424 91.2665 197.316 91.1585 197.328 91.1465C197.45 91.2257 197.565 91.3161 197.67 91.4165L198.618 92.2265C199.026 92.5865 199.572 92.9705 200.172 93.4265C200.772 93.8825 201.516 94.3805 202.32 94.9085C206.597 97.6067 211.392 99.3788 216.396 100.11C219.144 100.513 221.93 100.581 224.694 100.314C226.947 100.069 229.18 99.6685 231.378 99.1145C233.268 98.6765 234.816 98.3645 235.896 98.2205C236.436 98.1485 236.856 98.1065 237.144 98.0885C237.295 98.0667 237.448 98.0607 237.6 98.0705Z" fill="#455A64"/>
<path d="M238.488 138.271C238.408 138.255 238.329 138.231 238.254 138.199C238.045 138.111 237.844 138.004 237.654 137.881C236.929 137.404 236.326 136.763 235.896 136.009C235.281 134.881 234.912 133.636 234.816 132.355C234.678 130.806 234.678 129.248 234.816 127.699C234.946 126.15 235.203 124.615 235.584 123.109C235.857 121.865 236.307 120.666 236.922 119.551C237.365 118.794 237.982 118.154 238.722 117.685C238.911 117.56 239.112 117.456 239.322 117.373C239.472 117.319 239.556 117.295 239.556 117.307C239.556 117.319 239.25 117.445 238.764 117.787C238.086 118.283 237.525 118.922 237.12 119.659C236.543 120.769 236.123 121.955 235.872 123.181C235.508 124.675 235.259 126.196 235.128 127.729C235.002 129.258 235.002 130.795 235.128 132.325C235.205 133.58 235.54 134.805 236.112 135.925C236.508 136.667 237.066 137.311 237.744 137.809C238.2 138.127 238.506 138.241 238.488 138.271Z" fill="#263238"/>
<path d="M211.502 136.417L205.344 137.625C204.417 137.807 203.813 138.705 203.995 139.632L204.04 139.862C204.222 140.788 205.12 141.392 206.047 141.211L212.206 140.002C213.132 139.82 213.736 138.922 213.554 137.995L213.509 137.765C213.328 136.839 212.429 136.235 211.502 136.417Z" fill="#455A64"/>
<path d="M212.682 137.328L241.152 128.4C241.49 128.294 241.857 128.326 242.171 128.489C242.486 128.652 242.723 128.933 242.832 129.27C242.887 129.443 242.906 129.626 242.889 129.807C242.872 129.988 242.818 130.163 242.731 130.323C242.644 130.483 242.526 130.623 242.384 130.736C242.241 130.849 242.077 130.932 241.902 130.98L212.79 138.84L212.682 137.328Z" fill="#455A64"/>
<path d="M233.724 133.404C234.029 133.27 234.344 133.16 234.666 133.074L237.27 132.282C238.362 131.946 239.706 131.586 241.122 131.124C241.472 130.994 241.789 130.789 242.052 130.524C242.311 130.26 242.456 129.905 242.454 129.534C242.453 129.353 242.394 129.176 242.286 129.029C242.178 128.883 242.027 128.774 241.854 128.718C241.459 128.618 241.043 128.63 240.654 128.754L232.116 131.502L229.518 132.306C229.221 132.429 228.914 132.527 228.6 132.6C228.9 132.454 229.211 132.332 229.53 132.234L232.098 131.334C234.276 130.596 237.264 129.57 240.624 128.496C241.071 128.367 241.545 128.367 241.992 128.496C242.22 128.579 242.418 128.728 242.559 128.926C242.701 129.123 242.779 129.358 242.784 129.6C242.785 130.05 242.608 130.481 242.292 130.8C241.976 131.078 241.604 131.282 241.2 131.4C239.73 131.862 238.416 132.186 237.306 132.498L234.702 133.2C234.383 133.299 234.056 133.367 233.724 133.404Z" fill="#263238"/>
<path d="M187.2 111.601C188.172 115.021 184.698 117.955 183.474 121.297C182.274 124.525 183.294 128.143 184.752 131.263C186.21 134.383 188.13 137.335 188.874 140.689C190.716 148.969 183.228 157.891 184.674 166.249C185.19 169.297 186.42 172.477 187.482 175.375C188.508 178.107 188.508 181.12 187.482 183.853C185.862 188.653 183.114 190.903 181.182 195.571C180.192 197.971 180.27 200.635 180.318 203.215C180.366 205.795 180.354 208.495 179.202 210.811C178.05 213.127 175.422 214.915 172.926 214.243C174.273 215.752 176.08 216.775 178.067 217.153C180.054 217.532 182.111 217.245 183.918 216.337C187.2 214.585 189.036 211.033 190.608 207.661C198.216 191.335 202.242 189.955 202.008 171.943C202.008 170.785 201.78 152.743 201.78 152.743C200.203 152.319 198.692 151.683 197.286 150.853C188.79 144.985 188.478 134.533 188.544 126.427" fill="#263238"/>
<path d="M204.18 166.248V173.046C204.18 173.046 198.954 199.716 197.382 214.53C195.81 229.344 195.552 233.256 195.552 233.256C195.552 233.256 199.302 239.106 207.144 229.17C214.986 219.234 216.384 217.668 219.522 217.494C219.522 217.494 215.688 175.836 215.862 174.294C216.057 173.201 216.537 172.178 217.254 171.33L204.18 166.248Z" fill="#FFBE9D"/>
<path d="M214.464 150.913C214.464 150.913 205.926 162.241 205.23 163.801C204.534 165.361 204.18 166.237 204.18 166.237L217.254 171.295L229.98 157.351L234.684 144.973L233.286 130.333C233.286 130.333 230.502 130.159 229.98 132.601C229.66 134.147 229.541 135.728 229.626 137.305L225.726 134.167L219.432 132.253C219.432 132.253 217.95 134.689 220.392 135.913C222.834 137.137 223.53 137.113 223.53 137.113L225.726 140.947L224.766 145.243L220.314 141.043C219.883 140.636 219.323 140.392 218.731 140.355C218.139 140.318 217.553 140.489 217.074 140.839L214.194 142.927L211.5 141.727L206.274 146.401L204.18 148.315C204.18 148.315 205.578 150.931 208.38 149.713L211.17 148.513L214.464 150.913Z" fill="#FFBE9D"/>
<path d="M204.18 168.546C204.172 168.424 204.172 168.302 204.18 168.18C204.18 167.94 204.21 167.58 204.264 167.118C204.334 166.541 204.444 165.97 204.594 165.408C204.781 164.633 205.088 163.891 205.506 163.212C207.462 160.212 210.54 156.012 214.38 150.846V151.002L211.068 148.566H211.182L209.46 149.328C208.869 149.616 208.255 149.855 207.624 150.042C206.938 150.206 206.215 150.123 205.584 149.808C204.942 149.478 204.409 148.969 204.048 148.344L204 148.26L204.078 148.188C206.322 146.076 208.824 143.946 211.392 141.666L211.47 141.6L211.554 141.648L213.876 143.022H213.726L216.438 141.222C216.912 140.916 217.338 140.622 217.848 140.31C218.126 140.172 218.436 140.113 218.745 140.139C219.054 140.166 219.35 140.277 219.6 140.46L224.886 144.93L224.64 145.014C224.928 143.724 225.24 142.326 225.552 140.916V141.024L223.356 137.19L223.494 137.268C223.121 137.217 222.756 137.118 222.408 136.974C222.066 136.848 221.724 136.704 221.382 136.554C221.04 136.404 220.704 136.236 220.368 136.074C220.194 135.99 220.026 135.876 219.858 135.78C219.694 135.663 219.541 135.53 219.402 135.384C219.2 135.17 219.044 134.918 218.941 134.643C218.838 134.368 218.79 134.075 218.802 133.782C218.821 133.208 218.98 132.648 219.264 132.15L219.324 132.048L219.444 132.084L225.732 134.004H225.762L229.662 137.142L229.416 137.274C229.332 135.72 229.443 134.162 229.746 132.636C229.81 132.242 229.956 131.867 230.175 131.534C230.395 131.201 230.682 130.918 231.018 130.704C231.689 130.308 232.46 130.114 233.238 130.146H233.4V130.278C233.892 135.48 234.354 140.388 234.78 144.918V144.948C233.04 149.508 231.456 153.648 230.052 157.314L220.2 168.186L217.524 171.084C217.218 171.402 216.984 171.654 216.822 171.828L216.576 172.074C216.576 172.074 216.648 171.978 216.798 171.804L217.476 171.042L220.116 168.108L229.92 157.308V157.338L234.6 144.954V145.014C234.162 140.484 233.694 135.582 233.19 130.374L233.328 130.512C232.612 130.483 231.904 130.662 231.288 131.028C230.986 131.22 230.728 131.475 230.532 131.775C230.337 132.075 230.208 132.414 230.154 132.768C229.853 134.266 229.744 135.796 229.83 137.322V137.67L229.56 137.454L225.6 134.298H225.654L219.366 132.384L219.54 132.312C219.287 132.764 219.145 133.27 219.126 133.788C219.115 134.042 219.155 134.295 219.244 134.533C219.332 134.771 219.468 134.989 219.642 135.174C219.766 135.301 219.901 135.417 220.044 135.522C220.206 135.612 220.35 135.708 220.518 135.792C220.854 135.954 221.184 136.122 221.52 136.266C222.152 136.574 222.819 136.806 223.506 136.956H223.602L223.638 137.016L225.834 140.85L225.864 140.904V140.964C225.546 142.374 225.264 143.772 224.946 145.062L224.892 145.314L224.694 145.146L219.426 140.688C219.221 140.536 218.979 140.443 218.725 140.419C218.47 140.396 218.215 140.443 217.986 140.556C217.542 140.82 217.062 141.156 216.606 141.45L213.888 143.25L213.816 143.298L213.738 143.256L211.416 141.876H211.584C209.016 144.144 206.508 146.274 204.258 148.374L204.288 148.218C204.619 148.797 205.111 149.268 205.704 149.574C206.282 149.868 206.946 149.945 207.576 149.79C208.194 149.609 208.796 149.378 209.376 149.1L211.098 148.344H211.164L211.218 148.38L214.524 150.828L214.614 150.894L214.548 150.984C210.69 156.15 207.582 160.314 205.602 163.284C205.185 163.951 204.872 164.677 204.672 165.438C204.519 165.994 204.401 166.559 204.318 167.13C204.252 167.592 204.222 167.952 204.204 168.186C204.186 168.42 204.18 168.546 204.18 168.546Z" fill="#EB996E"/>
<path d="M220.356 153.535C220.296 153.535 220.524 152.611 220.62 151.135C220.683 150.274 220.544 149.411 220.212 148.615C219.711 147.682 218.998 146.88 218.13 146.275C216.58 145.086 214.963 143.986 213.288 142.981L211.758 142.081C211.561 141.984 211.376 141.865 211.206 141.727C211.417 141.778 211.62 141.861 211.806 141.973C212.19 142.147 212.736 142.423 213.396 142.789C215.113 143.747 216.758 144.829 218.316 146.029C219.224 146.662 219.961 147.509 220.464 148.495C220.809 149.333 220.937 150.245 220.836 151.147C220.785 151.741 220.687 152.331 220.542 152.911C220.51 153.126 220.447 153.336 220.356 153.535Z" fill="#EB996E"/>
<path d="M229.506 148.098C229.544 147.57 229.619 147.045 229.728 146.526C229.915 145.275 230.005 144.011 229.998 142.746C229.982 141.478 229.87 140.212 229.662 138.96C229.546 138.446 229.464 137.925 229.416 137.4C229.637 137.884 229.792 138.394 229.878 138.918C230.432 141.436 230.454 144.042 229.944 146.568C229.867 147.096 229.719 147.61 229.506 148.098Z" fill="#EB996E"/>
<path d="M171.24 103.638L165 92.6161C168.864 86.3394 170.241 78.8443 168.86 71.604C167.479 64.3637 163.44 57.9017 157.536 53.4883C151.633 49.0749 144.292 47.0292 136.957 47.7532C129.621 48.4773 122.822 51.9188 117.896 57.4012C112.969 62.8837 110.271 70.0106 110.332 77.3813C110.393 84.7519 113.209 91.8331 118.226 97.2331C123.243 102.633 130.098 105.961 137.444 106.564C144.791 107.166 152.096 104.999 157.926 100.488L171.24 103.638Z" fill="white"/>
<path d="M171.24 103.638L157.884 100.578H157.77L157.842 100.482L157.95 100.59C156.079 102.042 154.043 103.269 151.884 104.244C149.314 105.394 146.592 106.17 143.802 106.548C142.256 106.763 140.694 106.841 139.134 106.782C138.336 106.74 137.514 106.716 136.692 106.65L134.202 106.272C126.781 104.803 120.199 100.558 115.8 94.4037C113.344 91.0034 111.646 87.116 110.82 83.0037C109.968 78.6615 110.087 74.1845 111.168 69.8937C112.28 65.4087 114.446 61.2537 117.486 57.7737L118.686 56.4477C119.082 56.0037 119.556 55.6377 119.982 55.2477C120.407 54.8252 120.854 54.4246 121.32 54.0477L122.736 52.9917C123.202 52.6463 123.691 52.3336 124.2 52.0557L125.694 51.1497L127.26 50.3997C127.77 50.1303 128.297 49.8958 128.838 49.6977C133.031 48.0414 137.541 47.3463 142.038 47.6637C146.293 47.9619 150.43 49.1908 154.158 51.2637C160.859 54.9927 165.869 61.1562 168.15 68.4777C169.066 71.5932 169.499 74.8308 169.434 78.0777C169.356 80.8907 168.871 83.6776 167.994 86.3517C167.261 88.5767 166.269 90.7075 165.036 92.6997V92.6217L171.222 103.68C170.958 103.218 168.954 99.7437 164.904 92.6937V92.6577V92.6217C166.117 90.634 167.093 88.5117 167.814 86.2977C168.669 83.6362 169.14 80.8662 169.212 78.0717C169.264 74.8539 168.825 71.647 167.91 68.5617C165.632 61.313 160.657 55.2155 154.014 51.5277C150.32 49.4874 146.224 48.2811 142.014 47.9937C137.56 47.6799 133.092 48.3709 128.94 50.0157C128.405 50.2118 127.884 50.4443 127.38 50.7117L125.832 51.4617L124.35 52.3617C123.843 52.643 123.36 52.964 122.904 53.3217L121.5 54.3657C121.026 54.7017 120.624 55.1397 120.18 55.5177C119.736 55.8957 119.292 56.2857 118.896 56.7177L117.696 58.0257C114.689 61.4724 112.545 65.5859 111.444 70.0257C110.373 74.273 110.252 78.7043 111.09 83.0037C111.908 87.0693 113.586 90.9131 116.01 94.2777C120.378 100.363 126.892 104.564 134.238 106.032L136.704 106.41C137.52 106.482 138.336 106.5 139.104 106.548C140.651 106.61 142.201 106.538 143.736 106.332C148.866 105.652 153.724 103.628 157.818 100.464L158.286 100.104L157.926 100.578L157.878 100.452L171.24 103.638Z" fill="#263238"/>
<path d="M133.482 77.1773C133.482 77.652 133.341 78.116 133.078 78.5107C132.814 78.9054 132.439 79.213 132.001 79.3947C131.562 79.5763 131.079 79.6238 130.614 79.5312C130.148 79.4386 129.721 79.21 129.385 78.8744C129.049 78.5388 128.821 78.1111 128.728 77.6456C128.636 77.18 128.683 76.6974 128.865 76.2589C129.046 75.8204 129.354 75.4455 129.749 75.1818C130.143 74.9181 130.607 74.7773 131.082 74.7773C131.719 74.7773 132.329 75.0302 132.779 75.4803C133.229 75.9304 133.482 76.5408 133.482 77.1773Z" fill="#263238"/>
<path d="M143.058 77.1773C143.058 77.652 142.917 78.116 142.653 78.5107C142.39 78.9054 142.015 79.213 141.576 79.3947C141.138 79.5763 140.655 79.6238 140.19 79.5312C139.724 79.4386 139.296 79.21 138.961 78.8744C138.625 78.5388 138.397 78.1111 138.304 77.6456C138.211 77.18 138.259 76.6974 138.44 76.2589C138.622 75.8204 138.93 75.4455 139.324 75.1818C139.719 74.9181 140.183 74.7773 140.658 74.7773C141.294 74.7773 141.905 75.0302 142.355 75.4803C142.805 75.9304 143.058 76.5408 143.058 77.1773Z" fill="#263238"/>
<path d="M152.616 75.9777C152.855 76.3886 152.966 76.8611 152.936 77.3354C152.906 77.8096 152.735 78.2643 152.447 78.6417C152.158 79.0191 151.764 79.3022 151.314 79.4553C150.864 79.6084 150.379 79.6244 149.92 79.5015C149.461 79.3785 149.048 79.122 148.735 78.7646C148.422 78.4071 148.222 77.9647 148.161 77.4935C148.099 77.0223 148.179 76.5435 148.39 76.1177C148.601 75.6919 148.934 75.3383 149.346 75.1017C149.896 74.7859 150.549 74.7008 151.162 74.865C151.774 75.0291 152.297 75.4292 152.616 75.9777Z" fill="#263238"/>
<path d="M212.13 265.434C213.538 263.292 215.437 261.517 217.669 260.256C219.901 258.995 222.402 258.286 224.964 258.186C233.73 257.886 238.11 265.434 238.11 265.434H212.13Z" fill="#455A64"/>
<path d="M228.93 265.201C228.814 264.771 228.728 264.334 228.672 263.893C228.2 261.811 226.959 259.985 225.198 258.781C224.81 258.563 224.435 258.323 224.076 258.061C224.529 258.13 224.961 258.298 225.342 258.553C226.298 259.111 227.118 259.876 227.74 260.791C228.363 261.707 228.774 262.75 228.942 263.845C229.036 264.292 229.032 264.755 228.93 265.201Z" fill="#263238"/>
<path d="M206.706 265.116V265.056C206.691 264.173 206.33 263.332 205.7 262.713C205.071 262.094 204.223 261.748 203.34 261.75H128.736C127.843 261.75 126.987 262.105 126.356 262.736C125.724 263.367 125.37 264.223 125.37 265.116H206.706Z" fill="#455A64"/>
<path d="M63.8818 134.4C63.8818 135.972 65.0818 229.668 65.0818 229.668L134.682 246.414H140.4L136.74 115.614H131.508L63.8818 134.4Z" fill="#263238"/>
<path d="M78.5998 225.774L57.0298 265.302H76.7458C73.2178 264.954 107.946 265.302 107.946 265.302L76.7458 257.028L86.5078 234.858L85.6738 225.774H78.5998Z" fill="#263238"/>
<path d="M79.0796 233.07L76.7456 159.39L97.9376 157.362L100.548 236.028L92.9816 236.412L79.0796 233.07Z" fill="#263238"/>
<path d="M103.512 238.944C103.512 238.944 103.512 238.83 103.512 238.602C103.512 238.374 103.512 238.032 103.512 237.594C103.512 236.694 103.512 235.38 103.512 233.682C103.512 230.256 103.482 225.282 103.464 219.024C103.464 206.502 103.434 188.88 103.41 168.444L103.56 168.594H78.51L78.666 168.438V171.834C78.666 191.766 78.666 210.312 78.636 225.768V225.798C72.144 237.696 66.762 247.572 62.994 254.472C61.11 257.916 59.628 260.616 58.614 262.464C58.11 263.376 57.72 264.072 57.456 264.558C57.192 265.044 57.042 265.266 57.042 265.266C57.042 265.266 57.168 265.014 57.42 264.54C57.672 264.066 58.056 263.34 58.542 262.422C59.544 260.568 61.002 257.856 62.862 254.4L78.402 225.672V225.738C78.402 210.282 78.402 191.736 78.402 171.804V168.252H103.71V168.402C103.71 188.838 103.668 206.46 103.656 218.982C103.656 225.234 103.62 230.214 103.608 233.64C103.608 235.338 103.608 236.64 103.608 237.552C103.608 237.99 103.608 238.326 103.608 238.56C103.608 238.794 103.512 238.944 103.512 238.944Z" fill="#455A64"/>
<path d="M86.5079 234.859C86.5859 234.889 83.5859 241.831 79.8059 250.351C76.0259 258.871 72.8939 265.759 72.8159 265.723C72.7379 265.687 75.7379 258.751 79.5179 250.225C83.2979 241.699 86.4299 234.823 86.5079 234.859Z" fill="#455A64"/>
<path d="M134.652 246.438C134.652 246.438 134.652 246.324 134.652 246.102C134.652 245.88 134.652 245.538 134.652 245.112C134.652 244.23 134.622 242.952 134.604 241.308C134.604 238.008 134.502 233.232 134.388 227.328C134.166 215.52 133.632 199.218 132.978 181.212C132.324 163.206 131.826 146.886 131.658 135.078C131.568 129.174 131.526 124.392 131.544 121.092C131.544 119.448 131.544 118.17 131.544 117.288C131.544 116.862 131.544 116.538 131.544 116.298C131.544 116.058 131.544 115.962 131.544 115.962C131.544 115.962 131.544 116.076 131.544 116.298C131.544 116.52 131.544 116.862 131.544 117.288C131.544 118.17 131.544 119.448 131.592 121.092C131.592 124.392 131.688 129.168 131.808 135.072C132.066 146.88 132.6 163.2 133.254 181.2C133.908 199.2 134.406 215.514 134.574 227.322C134.664 233.226 134.7 238.008 134.688 241.308C134.688 242.952 134.688 244.23 134.688 245.112C134.688 245.538 134.688 245.868 134.688 246.102C134.688 246.336 134.652 246.438 134.652 246.438Z" fill="#455A64"/>
<path d="M99.7136 167.898C99.8036 167.898 99.8696 183.57 99.8696 202.896C99.8696 222.222 99.8036 237.894 99.7136 237.894C99.6236 237.894 99.5576 222.228 99.5576 202.896C99.5576 183.564 99.6296 167.898 99.7136 167.898Z" fill="#455A64"/>
<path d="M62.2198 259.134C62.1063 259.004 62.0058 258.863 61.9198 258.714C61.8178 258.57 61.7038 258.396 61.5718 258.198C61.413 257.963 61.2688 257.718 61.1398 257.466C60.2601 255.879 59.6192 254.17 59.2378 252.396C58.6843 249.759 58.5587 247.051 58.8658 244.374C59.2413 241.097 60.1196 237.897 61.4698 234.888C62.1842 233.334 63.0979 231.88 64.1878 230.562C64.436 230.235 64.7024 229.923 64.9858 229.626C65.2618 229.326 65.5258 229.026 65.8018 228.738C66.4018 228.192 66.9238 227.634 67.5178 227.16C68.6124 226.229 69.7779 225.384 71.0038 224.634C71.6038 224.31 72.1498 223.968 72.7138 223.698C73.2778 223.428 73.8118 223.14 74.3518 222.948C76.0194 222.233 77.7817 221.765 79.5838 221.556C80.0709 221.489 80.5622 221.459 81.0538 221.466C81.2255 221.451 81.3981 221.451 81.5698 221.466C81.4011 221.495 81.2308 221.513 81.0598 221.52C80.5714 221.542 80.0846 221.592 79.6018 221.67C77.8204 221.923 76.0822 222.42 74.4358 223.146C73.9018 223.344 73.3858 223.644 72.8218 223.902C72.2578 224.16 71.7178 224.502 71.1358 224.85C69.9286 225.602 68.7812 226.447 67.7038 227.376C67.1038 227.844 66.5818 228.402 66.0118 228.942C65.7418 229.224 65.4778 229.542 65.2078 229.818C64.9318 230.114 64.6714 230.424 64.4278 230.748C63.3552 232.048 62.4557 233.482 61.7518 235.014C60.4146 237.992 59.5386 241.156 59.1538 244.398C58.8353 247.045 58.9365 249.726 59.4538 252.342C59.8164 254.103 60.4222 255.805 61.2538 257.4C61.3732 257.657 61.5095 257.905 61.6618 258.144L61.9798 258.678C62.0699 258.824 62.15 258.977 62.2198 259.134Z" fill="#455A64"/>
</svg>
