<svg width="41" height="40" viewBox="0 0 41 40" fill="none" xmlns="http://www.w3.org/2000/svg">
<g id="Frame">
<path id="Vector" d="M22.8464 28.75L14.9297 20.8333C14.7908 20.6944 14.6936 20.5556 14.638 20.4167C14.5825 20.2778 14.5547 20.125 14.5547 19.9583C14.5547 19.7917 14.5825 19.6458 14.638 19.5208C14.6936 19.3958 14.7908 19.2639 14.9297 19.125L22.888 11.1667C23.0825 10.9722 23.3116 10.875 23.5755 10.875C23.8394 10.875 24.0686 10.9722 24.263 11.1667C24.4297 11.3611 24.513 11.5972 24.513 11.875C24.513 12.1528 24.4158 12.3889 24.2214 12.5833L16.8047 19.9583L24.263 27.4167C24.4297 27.6111 24.513 27.8264 24.513 28.0625C24.513 28.2986 24.4297 28.5278 24.263 28.75C24.0686 28.9444 23.8325 29.0417 23.5547 29.0417C23.2769 29.0417 23.0408 28.9444 22.8464 28.75Z" fill="white"/>
</g>
</svg>
