<svg width="32" height="32" viewBox="0 0 32 32" fill="none" xmlns="http://www.w3.org/2000/svg">
<g id="Frame">
<path id="Vector" d="M17.6333 22.9992L11.3 16.6659C11.1889 16.5548 11.1111 16.4437 11.0667 16.3326C11.0222 16.2214 11 16.0992 11 15.9659C11 15.8326 11.0222 15.7159 11.0667 15.6159C11.1111 15.5159 11.1889 15.4103 11.3 15.2992L17.6667 8.93255C17.8222 8.777 18.0056 8.69922 18.2167 8.69922C18.4278 8.69922 18.6111 8.777 18.7667 8.93255C18.9 9.08811 18.9667 9.277 18.9667 9.49922C18.9667 9.72144 18.8889 9.91033 18.7333 10.0659L12.8 15.9659L18.7667 21.9326C18.9 22.0881 18.9667 22.2603 18.9667 22.4492C18.9667 22.6381 18.9 22.8214 18.7667 22.9992C18.6111 23.1548 18.4222 23.2326 18.2 23.2326C17.9778 23.2326 17.7889 23.1548 17.6333 22.9992Z" fill="#101114"/>
</g>
</svg>
