<svg width="25" height="24" viewBox="0 0 25 24" fill="none" xmlns="http://www.w3.org/2000/svg">
<g id="Frame">
<path id="Vector" d="M9.34995 17.4494C9.21662 17.2828 9.14579 17.0994 9.13745 16.8994C9.12912 16.6994 9.19995 16.5244 9.34995 16.3744L13.75 11.9744L9.32495 7.54942C9.19162 7.41609 9.12912 7.23692 9.13745 7.01192C9.14579 6.78692 9.21662 6.60776 9.34995 6.47442C9.51662 6.30776 9.69579 6.22859 9.88745 6.23692C10.0791 6.24526 10.25 6.32442 10.4 6.47442L15.375 11.4494C15.4583 11.5328 15.5166 11.6161 15.55 11.6994C15.5833 11.7828 15.6 11.8744 15.6 11.9744C15.6 12.0744 15.5833 12.1661 15.55 12.2494C15.5166 12.3328 15.4583 12.4161 15.375 12.4994L10.425 17.4494C10.275 17.5994 10.1 17.6703 9.89995 17.6619C9.69995 17.6536 9.51662 17.5828 9.34995 17.4494Z" fill="white"/>
</g>
</svg>
