<svg width="25" height="24" viewBox="0 0 25 24" fill="none" xmlns="http://www.w3.org/2000/svg">
<g id="Frame">
<path id="Vector" d="M1.875 19.7996V3.72461C1.875 3.09128 2.10417 2.53711 2.5625 2.06211C3.02083 1.58711 3.575 1.34961 4.225 1.34961H20.775C21.4083 1.34961 21.9625 1.58711 22.4375 2.06211C22.9125 2.53711 23.15 3.09128 23.15 3.72461V16.2746C23.15 16.9079 22.9125 17.4579 22.4375 17.9246C21.9625 18.3913 21.4083 18.6246 20.775 18.6246H5.875L3.875 20.6246C3.49167 21.0079 3.0625 21.0954 2.5875 20.8871C2.1125 20.6788 1.875 20.3163 1.875 19.7996ZM4.225 17.4746L5.425 16.2746H20.775V3.72461H4.225V17.4746ZM4.225 3.72461V16.2746V17.4746V3.72461Z" fill="white"/>
</g>
</svg>
