<svg width="18" height="18" viewBox="0 0 18 18" fill="none" xmlns="http://www.w3.org/2000/svg">
<g id="Icon set">
<path id="Vector" d="M9.32078 12.7667C10.1174 12.7667 10.7927 12.4896 11.3467 11.9356C11.9008 11.3815 12.1778 10.7062 12.1778 9.90965C12.1778 9.11306 11.9008 8.43775 11.3467 7.8837C10.7927 7.32966 10.1174 7.05263 9.32078 7.05263C8.52419 7.05263 7.84888 7.32966 7.29483 7.8837C6.74079 8.43775 6.46377 9.11306 6.46377 9.90965C6.46377 10.7062 6.74079 11.3815 7.29483 11.9356C7.84888 12.4896 8.52419 12.7667 9.32078 12.7667ZM9.32078 11.7253C8.80811 11.7253 8.37733 11.5509 8.02843 11.202C7.67953 10.8531 7.50508 10.4223 7.50508 9.90965C7.50508 9.39698 7.67953 8.9662 8.02843 8.6173C8.37733 8.2684 8.80811 8.09395 9.32078 8.09395C9.83344 8.09395 10.2642 8.2684 10.6131 8.6173C10.962 8.9662 11.1365 9.39698 11.1365 9.90965C11.1365 10.4223 10.962 10.8531 10.6131 11.202C10.2642 11.5509 9.83344 11.7253 9.32078 11.7253ZM3.98055 15.1164C3.62987 15.1164 3.33304 14.9949 3.09006 14.7519C2.84708 14.5089 2.72559 14.2121 2.72559 13.8614V5.95788C2.72559 5.6072 2.84708 5.31037 3.09006 5.06739C3.33304 4.82441 3.62987 4.70292 3.98055 4.70292H6.10061L7.00846 3.71898C7.12239 3.59349 7.26012 3.49469 7.42167 3.4226C7.58321 3.3505 7.75342 3.31445 7.93231 3.31445H10.7092C10.8881 3.31445 11.0583 3.3505 11.2199 3.4226C11.3814 3.49469 11.5192 3.59349 11.6331 3.71898L12.5409 4.70292H14.661C15.0117 4.70292 15.3085 4.82441 15.5515 5.06739C15.7945 5.31037 15.916 5.6072 15.916 5.95788V13.8614C15.916 14.2121 15.7945 14.5089 15.5515 14.7519C15.3085 14.9949 15.0117 15.1164 14.661 15.1164H3.98055ZM3.98055 14.075H14.661C14.7233 14.075 14.7745 14.055 14.8146 14.015C14.8546 13.9749 14.8746 13.9237 14.8746 13.8614V5.95788C14.8746 5.89558 14.8546 5.84439 14.8146 5.80434C14.7745 5.76428 14.7233 5.74425 14.661 5.74425H12.0763L10.8027 4.35578H7.83885L6.56521 5.74425H3.98055C3.91824 5.74425 3.86706 5.76428 3.827 5.80434C3.78695 5.84439 3.76692 5.89558 3.76692 5.95788V13.8614C3.76692 13.9237 3.78695 13.9749 3.827 14.015C3.86706 14.055 3.91824 14.075 3.98055 14.075Z" fill="#2F3033"/>
</g>
</svg>
