<svg width="211" height="60" viewBox="0 0 211 60" fill="none" xmlns="http://www.w3.org/2000/svg">
<path fill-rule="evenodd" clip-rule="evenodd" d="M177.685 56.5405C180.958 58.2937 184.932 59.1703 189.607 59.1703C191.711 59.1703 193.931 58.8197 196.269 58.1184C198.665 57.4171 200.886 56.4821 202.931 55.3133C202.931 55.3133 204.471 54.3073 205.9 52.878L199.23 44.7789C198.699 45.3155 198.333 45.6374 197.496 46.1965C196.659 46.7557 195.013 47.5699 193.727 48.0374C192.5 48.5049 191.214 48.7387 189.87 48.7387C188 48.7387 186.305 48.3296 184.785 47.5114C183.808 46.9852 182.964 46.3019 182.253 45.4614L210.295 36.5538C209.243 30.5345 206.934 25.9469 203.37 22.7911C199.863 19.5768 195.363 17.9697 189.87 17.9697C185.779 17.9697 182.068 18.9048 178.737 20.7749C175.406 22.5865 172.747 25.041 170.76 28.1384C168.773 31.2357 167.779 34.713 167.779 38.57C167.779 42.6024 168.627 46.1673 170.321 49.2647C172.016 52.362 174.471 54.7873 177.685 56.5405ZM196.713 32.9686L179.892 38.6438C179.882 38.39 179.876 38.1317 179.876 37.8688C179.876 35.7649 180.227 33.9532 180.928 32.4338C181.688 30.8559 182.74 29.6578 184.084 28.8397C185.487 27.9631 187.094 27.5248 188.906 27.5248C191.302 27.5248 193.084 28.1092 194.253 29.278C195.411 30.326 196.231 31.5562 196.713 32.9686Z" fill="#00509B"/>
<path d="M145.848 19.8114H158.121V58.1192H145.848V19.8114ZM145.585 6.22393C145.585 4.41227 146.287 2.92203 147.689 1.75322C149.15 0.584407 150.699 0 152.335 0C153.972 0 155.462 0.584407 156.806 1.75322C158.209 2.92203 158.91 4.41227 158.91 6.22393C158.91 8.03558 158.209 9.52582 156.806 10.6946C155.462 11.805 153.972 12.3602 152.335 12.3602C150.699 12.3602 149.15 11.805 147.689 10.6946C146.287 9.52582 145.585 8.03558 145.585 6.22393Z" fill="#00509B"/>
<path d="M117.063 31.9964L124.339 19.8115H136.524L121.359 40.8501L117.063 31.9964ZM138.628 58.1193H123.813L94.2715 19.8115H109.349L138.628 58.1193ZM115.485 45.8468L106.895 58.1193H94.7098L109.875 37.6067L115.485 45.8468Z" fill="#00509B"/>
<path d="M60.167 60C56.644 60 53.6883 58.9252 51.2999 56.7756C48.9114 54.5663 47.6575 51.73 47.5381 48.2668V18.9785H60.0774V43.6093C60.1968 45.3409 60.6447 46.7441 61.4209 47.8189C62.1971 48.834 63.5108 49.3416 65.3618 49.3416C67.2129 49.3416 68.7952 48.7146 70.1089 47.4607C71.4822 46.2067 72.5272 44.505 73.2437 42.3554C74.0199 40.1461 74.4081 37.6681 74.4081 34.9214V18.9785H86.9474V58.1191H75.5724L74.5872 50.9538L74.7663 51.7599C73.8707 53.3721 72.7361 54.8051 71.3628 56.0591C69.9894 57.313 68.3474 58.2684 66.4366 58.9252C64.5856 59.6417 62.4957 60 60.167 60Z" fill="#00509B"/>
<path d="M37.7513 54.5524C35.9829 55.955 33.757 57.0832 31.0739 57.9369C28.4517 58.7907 25.8599 59.2175 23.2987 59.2175C18.7251 59.2175 14.7308 58.3943 11.3159 56.7478C7.96188 55.0403 5.33967 52.6315 3.44924 49.5215C1.6198 46.3504 0.705078 42.5391 0.705078 38.0874C0.705078 33.6358 1.71127 29.8549 3.72366 26.7449C5.73605 23.5739 8.35825 21.1651 11.5903 19.5186C14.8833 17.8721 18.3287 17.0488 21.9266 17.0488C25.5245 17.0488 28.6346 17.5367 31.2568 18.5124C33.94 19.4881 36.2268 20.7687 38.1172 22.3542L31.8971 30.5867C31.0434 29.9159 29.8542 29.2451 28.3297 28.5743C26.8661 27.8426 25.1282 27.4767 23.1158 27.4767C21.3473 27.4767 19.7313 27.934 18.2677 28.8487C16.8042 29.7635 15.6455 31.0136 14.7918 32.5991C13.9381 34.1846 13.5112 36.0141 13.5112 38.0874C13.5112 40.0388 13.9685 41.8378 14.8833 43.4843C15.798 45.1308 17.0481 46.4419 18.6336 47.4176C20.2801 48.3323 22.201 48.7897 24.3964 48.7897C25.799 48.7897 27.0796 48.6067 28.2382 48.2409C29.4578 47.814 30.4945 47.2347 31.3483 46.5029L37.7513 54.5524Z" fill="#00509B"/>
</svg>
