<svg width="20" height="20" viewBox="0 0 20 20" fill="none" xmlns="http://www.w3.org/2000/svg">
<path d="M16.4879 9.77526C16.3206 9.77526 16.1724 9.71537 16.0434 9.59558C15.9143 9.47579 15.8394 9.32735 15.8187 9.15029C15.6382 7.80519 15.0717 6.65641 14.1192 5.70395C13.1668 4.75149 12.018 4.18499 10.6729 4.00443C10.4958 3.9836 10.3474 3.91068 10.2276 3.78568C10.1078 3.66068 10.0479 3.50965 10.0479 3.33258C10.0479 3.15549 10.1099 3.00713 10.2338 2.88747C10.3577 2.76782 10.5041 2.71921 10.6729 2.74164C12.3695 2.9254 13.8158 3.61531 15.0118 4.81135C16.2079 6.00739 16.8978 7.4537 17.0815 9.15029C17.104 9.31908 17.0551 9.46544 16.9348 9.58937C16.8146 9.7133 16.6656 9.77526 16.4879 9.77526ZM13.0401 9.77526C12.9043 9.77526 12.784 9.72879 12.6793 9.63585C12.5746 9.5429 12.4961 9.41897 12.4437 9.26406C12.3166 8.81319 12.0834 8.41549 11.7442 8.07093C11.405 7.72639 11.01 7.49322 10.5591 7.37141C10.4042 7.31917 10.2803 7.24081 10.1873 7.13633C10.0944 7.03185 10.0479 6.90648 10.0479 6.7602C10.0479 6.55124 10.1197 6.38266 10.2634 6.25445C10.4071 6.12626 10.5703 6.08459 10.753 6.12945C11.4827 6.29894 12.1115 6.64767 12.6393 7.17564C13.167 7.70361 13.5185 8.33512 13.6937 9.07016C13.7386 9.25284 13.6931 9.41603 13.5573 9.55972C13.4214 9.70342 13.249 9.77526 13.0401 9.77526ZM16.2001 17.083C14.6296 17.083 13.0519 16.7178 11.467 15.9876C9.88203 15.2574 8.42584 14.2272 7.0984 12.8971C5.77094 11.5669 4.74209 10.1107 4.01186 8.52849C3.28162 6.94623 2.9165 5.36985 2.9165 3.79935C2.9165 3.54706 2.99984 3.33681 3.1665 3.16862C3.33317 3.00042 3.5415 2.91633 3.7915 2.91633H6.50942C6.71989 2.91633 6.90552 2.98497 7.06632 3.12226C7.22711 3.25956 7.3294 3.42916 7.37319 3.63108L7.85075 6.08297C7.88388 6.31054 7.87693 6.50606 7.82992 6.66951C7.78292 6.83297 7.69852 6.97026 7.57671 7.08137L5.65205 8.95476C5.96188 9.52207 6.31578 10.0587 6.71375 10.5645C7.11173 11.0704 7.54255 11.5536 8.00621 12.0141C8.46349 12.4713 8.94961 12.896 9.46457 13.2881C9.97953 13.6802 10.5356 14.0451 11.1328 14.3827L13.003 12.4965C13.1334 12.3608 13.2912 12.2657 13.4766 12.2112C13.6619 12.1567 13.8545 12.1434 14.0543 12.1711L16.3684 12.6423C16.5789 12.6978 16.7506 12.8052 16.8836 12.9644C17.0166 13.1236 17.0831 13.3041 17.0831 13.5061V16.208C17.0831 16.458 16.999 16.6663 16.8308 16.833C16.6626 16.9996 16.4524 17.083 16.2001 17.083ZM5.06071 7.7721L6.5479 6.34901C6.57461 6.32764 6.59197 6.29826 6.59998 6.26087C6.608 6.22347 6.60666 6.18874 6.59598 6.1567L6.2338 4.29451C6.22311 4.25178 6.20442 4.21973 6.17771 4.19837C6.151 4.17699 6.11628 4.16631 6.07355 4.16631H4.29148C4.25944 4.16631 4.23273 4.17699 4.21136 4.19837C4.18998 4.21973 4.1793 4.24644 4.1793 4.27849C4.22203 4.84794 4.31525 5.42647 4.45894 6.01408C4.60265 6.60169 4.80324 7.1877 5.06071 7.7721ZM12.3107 14.974C12.8631 15.2315 13.4392 15.4283 14.0391 15.5646C14.639 15.7008 15.1996 15.7817 15.721 15.8073C15.753 15.8073 15.7797 15.7966 15.8011 15.7753C15.8225 15.7539 15.8332 15.7272 15.8332 15.6951V13.942C15.8332 13.8992 15.8225 13.8645 15.8011 13.8378C15.7797 13.8111 15.7477 13.7924 15.7049 13.7817L13.9549 13.4259C13.9229 13.4152 13.8949 13.4139 13.8708 13.4219C13.8468 13.4299 13.8214 13.4473 13.7947 13.474L12.3107 14.974Z" fill="#05529D"/>
</svg>
