<svg width="351" height="234" viewBox="0 0 351 234" fill="none" xmlns="http://www.w3.org/2000/svg">
<path d="M341.997 215.838C341.997 215.908 270.737 215.959 182.864 215.959C94.9905 215.959 23.7305 215.908 23.7305 215.838C23.7305 215.768 94.9765 215.717 182.887 215.717C270.798 215.717 341.997 215.773 341.997 215.838Z" fill="#263238"/>
<path d="M151.023 196.299C151.519 196.415 151.986 196.629 152.396 196.93C152.807 197.231 153.153 197.611 153.412 198.049C153.93 198.927 154.238 199.912 154.313 200.928C154.518 202.883 153.846 205.049 153.025 206.827C151.112 205.777 150.225 203.415 149.819 202.188C149.212 200.247 149.292 196.369 151.023 196.299Z" fill="#A8C8FF"/>
<path d="M155.583 209.566C155.354 209.045 155.266 208.472 155.329 207.906C155.393 207.34 155.604 206.8 155.942 206.342C156.289 205.891 156.723 205.513 157.217 205.231C157.711 204.949 158.257 204.768 158.821 204.699C159.077 204.639 159.343 204.636 159.601 204.69C159.858 204.744 160.1 204.854 160.31 205.012C160.479 205.191 160.597 205.411 160.654 205.65C160.71 205.889 160.703 206.139 160.632 206.374C160.478 206.842 160.204 207.262 159.839 207.592C158.639 208.768 157.263 209.692 155.583 209.566Z" fill="#A8C8FF"/>
<path d="M154.813 215.861C154.788 215.729 154.777 215.594 154.78 215.46C154.78 215.171 154.757 214.802 154.743 214.359C154.663 213.139 154.782 211.914 155.093 210.733C155.425 209.547 156.07 208.472 156.959 207.62C157.23 207.368 157.529 207.148 157.851 206.967C157.937 206.915 158.028 206.87 158.121 206.831C158.182 206.803 158.215 206.789 158.219 206.794C157.792 207.053 157.392 207.355 157.025 207.695C156.178 208.554 155.561 209.613 155.233 210.775C154.926 211.943 154.797 213.151 154.85 214.359C154.85 214.825 154.85 215.199 154.85 215.46C154.851 215.595 154.838 215.729 154.813 215.861Z" fill="#263238"/>
<path d="M151.233 199.267C151.258 199.319 151.277 199.374 151.289 199.43C151.327 199.556 151.369 199.719 151.425 199.897C151.541 200.321 151.705 200.933 151.891 201.693C152.279 203.21 152.783 205.31 153.291 207.648C153.8 209.986 154.201 212.105 154.477 213.649C154.612 214.419 154.719 215.049 154.785 215.474C154.817 215.679 154.841 215.847 154.859 215.973C154.864 216.032 154.864 216.092 154.859 216.151C154.837 216.095 154.821 216.037 154.813 215.978C154.785 215.852 154.752 215.689 154.71 215.483C154.626 215.04 154.505 214.419 154.36 213.668C154.061 212.133 153.637 210.009 153.137 207.676C152.638 205.343 152.143 203.238 151.784 201.717C151.607 200.965 151.462 200.354 151.359 199.911L151.247 199.444C151.236 199.386 151.231 199.326 151.233 199.267Z" fill="#263238"/>
<path d="M153.063 211.335C152.614 210.222 151.907 209.232 150.999 208.446C150.092 207.661 149.011 207.102 147.845 206.818C147.253 206.678 146.515 206.664 146.161 207.163C145.806 207.662 146.067 208.353 146.403 208.862C147.128 209.91 148.147 210.72 149.331 211.19C150.515 211.66 151.812 211.769 153.058 211.503" fill="#A8C8FF"/>
<path d="M148.503 208.572C148.63 208.582 148.755 208.606 148.876 208.642C149.022 208.675 149.165 208.716 149.306 208.764C149.474 208.824 149.665 208.871 149.866 208.964C150.089 209.052 150.307 209.151 150.519 209.263C150.765 209.386 151.003 209.523 151.233 209.674C151.763 210.02 152.251 210.425 152.689 210.882C153.12 211.346 153.496 211.858 153.809 212.408C153.943 212.648 154.063 212.896 154.168 213.15C154.264 213.37 154.348 213.594 154.42 213.822C154.48 214.011 154.53 214.202 154.57 214.396C154.609 214.54 154.637 214.687 154.654 214.835C154.681 214.959 154.695 215.086 154.696 215.213C154.663 215.213 154.602 214.676 154.322 213.855C154.247 213.631 154.16 213.411 154.061 213.197C153.953 212.949 153.83 212.707 153.692 212.474C153.381 211.936 153.01 211.435 152.586 210.98C152.164 210.533 151.694 210.133 151.186 209.786C150.961 209.633 150.727 209.493 150.486 209.366C150.267 209.24 150.048 209.146 149.852 209.058C149.026 208.712 148.494 208.6 148.503 208.572Z" fill="#263238"/>
<path d="M299.633 210.933C299.81 210.252 299.362 209.566 298.858 209.067C298.354 208.567 297.752 208.133 297.491 207.471C297.066 206.407 297.636 205.03 296.912 204.143C296.488 203.621 295.727 203.443 295.349 202.888C295.174 202.579 295.059 202.241 295.008 201.889C294.605 200.122 293.735 198.496 292.488 197.181C292.407 198.755 292.748 200.323 293.478 201.721C293.82 202.258 294.071 202.848 294.22 203.467C294.378 204.479 293.814 205.52 294.061 206.514C294.346 207.648 295.62 208.409 295.68 209.575C295.732 210.565 294.868 211.442 294.934 212.422C294.987 212.841 295.137 213.242 295.372 213.593C295.712 214.247 296.229 214.791 296.864 215.165C297.498 215.539 298.225 215.727 298.961 215.707L301.047 215.782L299.633 210.933Z" fill="#A8C8FF"/>
<g opacity="0.3">
<path d="M299.633 210.933C299.81 210.252 299.362 209.566 298.858 209.067C298.354 208.567 297.752 208.133 297.491 207.471C297.066 206.407 297.636 205.03 296.912 204.143C296.488 203.621 295.727 203.443 295.349 202.888C295.174 202.579 295.059 202.241 295.008 201.889C294.605 200.122 293.735 198.496 292.488 197.181C292.407 198.755 292.748 200.323 293.478 201.721C293.82 202.258 294.071 202.848 294.22 203.467C294.378 204.479 293.814 205.52 294.061 206.514C294.346 207.648 295.62 208.409 295.68 209.575C295.732 210.565 294.868 211.442 294.934 212.422C294.987 212.841 295.137 213.242 295.372 213.593C295.712 214.247 296.229 214.791 296.864 215.165C297.498 215.539 298.225 215.727 298.961 215.707L301.047 215.782L299.633 210.933Z" fill="black"/>
</g>
<path d="M301.467 215.829C301.657 215.862 301.851 215.862 302.041 215.829C302.272 215.795 302.498 215.739 302.718 215.661C303.02 215.552 303.303 215.395 303.553 215.194C303.706 215.07 303.825 214.91 303.899 214.727C303.96 214.526 303.993 214.317 303.997 214.107C304 213.88 304.017 213.654 304.048 213.43C304.086 213.193 304.172 212.966 304.3 212.763C304.637 212.332 304.902 211.85 305.084 211.335C305.186 210.729 305.166 210.109 305.028 209.51C304.877 208.863 304.895 208.188 305.079 207.55C305.303 206.901 305.756 206.309 305.985 205.576C306.213 204.843 306.106 204.036 306.157 203.243C306.171 202.843 306.263 202.45 306.428 202.085C306.596 201.717 306.829 201.371 307.011 200.984C307.329 200.17 307.511 199.309 307.548 198.436C307.599 197.997 307.651 197.554 307.697 197.106C307.728 196.654 307.806 196.207 307.931 195.771C308.069 195.332 308.236 194.901 308.43 194.483C308.527 194.264 308.608 194.038 308.673 193.807C308.71 193.564 308.724 193.34 308.738 193.093C308.761 192.611 308.742 192.129 308.682 191.651C308.626 191.184 308.537 190.689 308.486 190.209V190.125V190.031L308.402 190.073C307.96 190.294 307.575 190.613 307.277 191.007C306.989 191.395 306.758 191.822 306.591 192.276C306.292 193.164 306.074 194.078 305.943 195.006C305.809 195.89 305.518 196.744 305.084 197.526C304.855 197.895 304.58 198.235 304.337 198.595C304.078 198.948 303.902 199.354 303.819 199.785C303.698 200.667 304.183 201.441 304.081 202.221C304.036 202.605 303.906 202.974 303.703 203.303C303.511 203.635 303.292 203.943 303.077 204.237C302.862 204.539 302.676 204.861 302.522 205.198C302.373 205.528 302.286 205.882 302.265 206.243C302.214 206.943 302.312 207.611 302.265 208.241C302.208 208.84 302.034 209.422 301.752 209.953C301.5 210.467 301.22 210.929 300.987 211.353C300.869 211.57 300.763 211.793 300.669 212.021C300.585 212.233 300.524 212.453 300.487 212.679C300.429 213.073 300.429 213.474 300.487 213.869C300.544 214.419 300.751 214.944 301.085 215.385C301.137 215.449 301.193 215.51 301.253 215.567C301.295 215.611 301.342 215.65 301.393 215.684L301.509 215.768C301.362 215.648 301.228 215.514 301.108 215.367C300.784 214.926 300.587 214.404 300.539 213.859C300.493 213.469 300.502 213.075 300.567 212.688C300.608 212.468 300.67 212.252 300.753 212.044C300.848 211.821 300.953 211.603 301.071 211.391C301.304 210.924 301.589 210.485 301.845 209.967C302.135 209.428 302.316 208.836 302.377 208.227C302.433 207.583 302.335 206.911 302.377 206.225C302.4 205.876 302.485 205.535 302.629 205.217C302.783 204.889 302.967 204.576 303.18 204.283C303.39 203.975 303.614 203.667 303.81 203.327C304.023 202.985 304.158 202.601 304.207 202.202C304.309 201.367 303.829 200.587 303.95 199.771C304.032 199.359 304.204 198.97 304.454 198.632C304.687 198.277 304.967 197.941 305.201 197.559C305.647 196.765 305.944 195.897 306.078 194.997C306.212 194.077 306.428 193.171 306.722 192.29C306.887 191.848 307.113 191.432 307.394 191.053C307.676 190.672 308.044 190.362 308.467 190.148L308.374 190.092V190.176C308.425 190.666 308.514 191.142 308.57 191.618C308.625 192.082 308.643 192.551 308.621 193.018C308.615 193.251 308.595 193.483 308.561 193.713C308.5 193.937 308.422 194.155 308.327 194.367C308.131 194.789 307.963 195.224 307.823 195.669C307.698 196.11 307.62 196.564 307.59 197.022C307.539 197.489 307.487 197.918 307.441 198.357C307.404 199.215 307.228 200.061 306.918 200.863C306.745 201.241 306.512 201.591 306.335 201.973C306.166 202.351 306.072 202.759 306.059 203.173C306.013 203.975 306.115 204.764 305.901 205.473C305.686 206.183 305.229 206.775 305 207.447C304.813 208.101 304.796 208.792 304.953 209.454C305.092 210.041 305.115 210.65 305.023 211.246C304.842 211.75 304.582 212.223 304.253 212.646C304.122 212.858 304.035 213.095 303.997 213.341C303.968 213.567 303.952 213.795 303.95 214.023C303.95 214.228 303.92 214.432 303.861 214.629C303.791 214.8 303.681 214.95 303.539 215.068C303.295 215.267 303.019 215.425 302.723 215.535C302.506 215.616 302.283 215.675 302.055 215.712C301.916 215.741 301.773 215.755 301.631 215.754L301.467 215.829Z" fill="#263238"/>
<path d="M308.033 191.277C308.032 191.299 308.032 191.321 308.033 191.343L307.986 191.529C307.944 191.693 307.898 191.94 307.818 192.253C307.739 192.565 307.548 192.906 307.384 193.34C307.194 193.822 307.028 194.315 306.89 194.815C306.731 195.375 306.591 195.991 306.423 196.649C306.298 197.357 306.073 198.043 305.756 198.688C305.588 199.024 305.392 199.369 305.242 199.743C305.091 200.126 304.989 200.528 304.939 200.937C304.829 201.785 304.673 202.626 304.472 203.457C304.057 205.165 303.656 206.794 303.296 208.273C302.937 209.753 302.587 211.073 302.307 212.203C302.027 213.332 301.808 214.214 301.654 214.853C301.579 215.157 301.523 215.399 301.481 215.572L301.439 215.763C301.437 215.785 301.437 215.807 301.439 215.829C301.439 215.829 301.439 215.805 301.462 215.763L301.518 215.581C301.565 215.404 301.63 215.166 301.714 214.863C301.878 214.228 302.116 213.332 302.41 212.226C302.704 211.12 303.04 209.776 303.422 208.306C303.805 206.836 304.192 205.198 304.612 203.49C304.812 202.654 304.968 201.808 305.079 200.956C305.129 200.557 305.226 200.165 305.368 199.789C305.518 199.425 305.704 199.085 305.877 198.739C306.193 198.086 306.416 197.392 306.54 196.677C306.684 196.014 306.82 195.398 306.969 194.843C307.118 194.287 307.286 193.793 307.436 193.363C307.585 192.934 307.772 192.584 307.846 192.262C307.921 191.94 307.958 191.702 307.991 191.534L308.033 191.333C308.033 191.301 308.033 191.277 308.033 191.277Z" fill="#263238"/>
<path d="M301.836 215.833C303.199 215.026 303.586 212.567 303.021 211.092C302.457 209.617 301.458 208.264 301.304 206.687C301.187 205.473 301.584 204.232 301.304 203.047C300.926 201.451 299.367 200.214 299.381 198.571C299.381 197.638 299.918 196.779 299.876 195.86C299.825 194.731 298.943 193.835 298.42 192.841C297.599 191.315 297.547 189.518 297.263 187.81C296.978 186.102 296.329 184.273 294.817 183.433C294.598 184.884 294.215 185.878 294.351 187.838C294.397 188.547 295.214 189.896 295.326 191.441C295.391 192.374 295.438 193.307 295.494 194.213C295.505 195.116 295.653 196.013 295.933 196.873C296.18 197.517 296.577 198.105 296.759 198.767C297.104 200.023 296.651 201.381 296.931 202.65C297.165 203.723 297.911 204.647 298.061 205.739C298.275 207.27 297.286 208.861 297.79 210.322C298.042 211.05 298.639 211.633 298.807 212.38C298.943 212.963 298.807 213.575 298.915 214.158C299.106 215.091 300.903 215.829 301.859 215.773" fill="#A8C8FF"/>
<path d="M295.19 184.875C295.19 184.875 295.19 184.903 295.19 184.954L295.223 185.192C295.251 185.402 295.288 185.71 295.358 186.126C295.428 186.541 295.638 186.975 295.825 187.526C296.012 188.076 296.17 188.692 296.324 189.392C296.478 190.092 296.609 190.862 296.744 191.693C296.853 192.59 297.088 193.467 297.444 194.297C297.631 194.736 297.846 195.17 298.009 195.632C298.165 196.11 298.26 196.605 298.294 197.106C298.371 198.169 298.505 199.227 298.695 200.275C299.11 202.422 299.507 204.475 299.871 206.342C300.235 208.208 300.594 209.865 300.884 211.274C301.173 212.684 301.411 213.804 301.579 214.597C301.658 214.98 301.724 215.283 301.77 215.498L301.826 215.731L301.85 215.81C301.852 215.784 301.852 215.757 301.85 215.731L301.808 215.493C301.766 215.278 301.71 214.97 301.64 214.583C301.481 213.79 301.257 212.656 300.986 211.256C300.716 209.856 300.347 208.134 299.978 206.267C299.61 204.4 299.227 202.361 298.812 200.2C298.624 199.155 298.49 198.1 298.41 197.041C298.375 196.53 298.276 196.025 298.116 195.538C297.948 195.072 297.734 194.628 297.542 194.199C297.19 193.377 296.953 192.51 296.838 191.623C296.698 190.792 296.562 190.018 296.399 189.318C296.258 188.687 296.085 188.064 295.881 187.451C295.708 186.91 295.494 186.462 295.414 186.051C295.335 185.64 295.293 185.346 295.251 185.141C295.251 185.043 295.218 184.968 295.209 184.908C295.204 184.896 295.197 184.886 295.19 184.875Z" fill="#263238"/>
<path d="M262.094 154.248H54.8618V174.959H262.094V154.248Z" fill="#A8C8FF"/>
<g opacity="0.4">
<path d="M262.094 154.248H54.8618V174.959H262.094V154.248Z" fill="black"/>
</g>
<path d="M217.197 177.571H156.026V196.751H217.197V177.571Z" fill="#455A64"/>
<path d="M113.279 168.896V194.25H134.167L142.539 182.117H295.051V168.896H113.279Z" fill="#263238"/>
<path d="M111.977 88.6108C111.954 88.2031 111.772 87.8206 111.47 87.5458C111.168 87.2709 110.77 87.1254 110.362 87.1407C102.107 87.4814 62.9163 89.2781 54.857 93.1514C48.6877 96.1194 41.9303 107.198 37.1657 114.66C33.7497 120.008 26.2037 131.88 24.6777 137.951C23.385 143.085 22.6057 153.762 22.6943 159.059L24.8503 187.087H60.3683L63.9243 177.828C65.0591 174.879 67.061 172.343 69.666 170.554C72.2711 168.766 75.357 167.808 78.517 167.809H113.811V121.296L111.977 88.6108Z" fill="#00509B"/>
<path d="M50.648 96.2549C45.7573 100.922 40.848 108.855 37.166 114.66C34.002 119.612 27.3007 130.154 25.112 136.51C25.07 136.626 25.0373 136.738 25 136.855C26.0827 136.556 27.7487 135.945 28.2667 134.918C29.046 133.364 30.0447 128.04 42.3927 107.94C46.1447 101.813 49.8033 98.2289 50.648 96.2549Z" fill="#455A64"/>
<path d="M93.7308 94.1778C84.6494 94.6958 64.9608 96.0445 58.6701 98.1818C50.4754 100.982 41.2774 122.677 40.8434 123.629L34.6461 139.496C34.6114 139.6 34.6018 139.71 34.6181 139.818C34.6344 139.926 34.6762 140.029 34.74 140.118C34.8038 140.207 34.8878 140.279 34.985 140.329C35.0823 140.379 35.1901 140.406 35.2994 140.406H51.3201C51.9269 140.406 52.5288 140.299 53.0981 140.088L95.2334 124.38C96.1638 124.033 96.9658 123.41 97.5321 122.594C98.0984 121.779 98.402 120.809 98.4021 119.816V98.5972C98.4024 97.9952 98.2799 97.3994 98.0419 96.8465C97.804 96.2935 97.4558 95.7949 97.0185 95.3812C96.5812 94.9675 96.064 94.6474 95.4987 94.4404C94.9334 94.2335 94.3318 94.1442 93.7308 94.1778Z" fill="#263238"/>
<path d="M36.4331 138.848C36.4331 138.848 42.3691 125.534 44.3664 121.17C47.3811 114.581 54.4231 101.104 59.1784 99.6524C63.5511 98.3411 76.1231 96.7451 93.8191 95.7324H93.9871C94.7471 95.7349 95.4752 96.0382 96.0121 96.576C96.5491 97.1139 96.8512 97.8424 96.8524 98.6024V120.302C96.8507 120.837 96.6865 121.359 96.3814 121.798C96.0764 122.237 95.645 122.573 95.1444 122.762L64.0131 126.602C62.7652 126.756 61.5657 127.18 60.498 127.844C59.4302 128.508 58.5198 129.397 57.8298 130.448L52.4351 138.675C52.1184 138.792 51.7834 138.852 51.4458 138.852L36.4331 138.848Z" fill="#455A64"/>
<path d="M62.8838 126.841L52.2998 138.629L58.1565 99.4894L59.6218 98.9854L56.7378 127.979C56.7242 128.125 56.7482 128.272 56.8075 128.405C56.8669 128.539 56.9595 128.655 57.0766 128.743C57.1937 128.83 57.3313 128.886 57.4762 128.905C57.6212 128.925 57.7687 128.906 57.9045 128.852L62.8838 126.841Z" fill="#263238"/>
<path d="M21.9992 161.78C21.9619 161.271 22.1345 160.847 22.3959 160.847L28.0705 160.324C28.5372 160.277 28.9712 161.159 29.0272 162.191L29.2839 166.545C29.3259 167.245 29.1159 167.837 28.8172 167.889L23.0305 168.887C22.7692 168.934 22.5172 168.547 22.4799 168.033L21.9992 161.78Z" fill="#EBEBEB"/>
<path d="M62.884 182.122H21.9946V198.516H62.884V182.122Z" fill="#263238"/>
<path d="M90.1786 215.638C102.525 215.164 112.15 204.771 111.675 192.424C111.201 180.077 100.808 170.453 88.461 170.927C76.1144 171.402 66.49 181.795 66.9643 194.142C67.4386 206.488 77.832 216.113 90.1786 215.638Z" fill="#263238"/>
<path d="M66.9673 192.896C66.9698 192.917 66.9698 192.937 66.9673 192.957C66.889 198.885 69.1671 204.602 73.3012 208.852C77.4353 213.102 83.0872 215.537 89.0153 215.622C94.9435 215.707 100.663 213.436 104.918 209.307C109.172 205.178 111.614 199.529 111.707 193.601C111.707 193.601 111.707 193.564 111.707 193.545L66.9673 192.896Z" fill="#263238"/>
<path d="M73.6267 193.051C73.5809 196.157 74.4574 199.208 76.1454 201.816C77.8334 204.425 80.257 206.474 83.1098 207.705C85.9625 208.936 89.1163 209.293 92.1721 208.732C95.2279 208.17 98.0486 206.715 100.277 204.55C102.506 202.385 104.043 199.608 104.693 196.57C105.343 193.532 105.078 190.369 103.931 187.482C102.783 184.594 100.806 182.112 98.2473 180.349C95.6891 178.585 92.6654 177.62 89.5587 177.576C85.3942 177.516 81.3763 179.113 78.3887 182.014C75.401 184.916 73.6881 188.886 73.6267 193.051Z" fill="#FAFAFA"/>
<path d="M89.5585 177.576C85.3939 177.516 81.3761 179.113 78.3884 182.014C75.4008 184.916 73.6879 188.886 73.6265 193.051L105.038 193.517C105.099 189.351 103.502 185.33 100.6 182.341C97.6966 179.351 93.725 177.637 89.5585 177.576Z" fill="#E0E0E0"/>
<path d="M79.7681 193.14C79.7406 195.032 80.2748 196.889 81.3031 198.478C82.3315 200.066 83.8078 201.314 85.5453 202.063C87.2828 202.812 89.2036 203.03 91.0646 202.687C92.9256 202.345 94.6432 201.458 96.0004 200.14C97.3575 198.821 98.2931 197.13 98.6888 195.279C99.0846 193.429 98.9227 191.503 98.2237 189.745C97.5247 187.986 96.32 186.475 94.7618 185.401C93.2037 184.327 91.3621 183.74 89.4701 183.713C86.9336 183.677 84.4866 184.65 82.6672 186.417C80.8478 188.185 79.805 190.603 79.7681 193.14Z" fill="#263238"/>
<path d="M45.9393 108.389H44.1146C42.0579 108.389 40.3906 110.056 40.3906 112.113V126.92C40.3906 128.977 42.0579 130.644 44.1146 130.644H45.9393C47.996 130.644 49.6633 128.977 49.6633 126.92V112.113C49.6633 110.056 47.996 108.389 45.9393 108.389Z" fill="#263238"/>
<path d="M36.5546 144.4H36.0879V120.866C36.0891 119.744 36.5355 118.668 37.329 117.875C38.1225 117.081 39.1984 116.635 40.3206 116.634H41.4406V117.1H40.3206C39.3221 117.102 38.365 117.499 37.659 118.205C36.953 118.911 36.5558 119.868 36.5546 120.866V144.4Z" fill="#263238"/>
<path d="M39.7327 144.429L38.4354 122.426C38.4172 122.049 38.475 121.673 38.6055 121.32C38.736 120.967 38.9364 120.643 39.1948 120.369C39.4531 120.095 39.7641 119.876 40.1092 119.725C40.4542 119.574 40.8261 119.494 41.2027 119.49V119.957C40.8887 119.957 40.5779 120.021 40.2896 120.146C40.0012 120.27 39.7414 120.452 39.5259 120.681C39.3105 120.909 39.144 121.18 39.0367 121.475C38.9295 121.77 38.8836 122.084 38.9021 122.398L40.1994 144.406L39.7327 144.429Z" fill="#263238"/>
<path d="M41.2028 142.282H34.9121V149.567H41.2028V142.282Z" fill="#263238"/>
<path d="M38.8786 128.455H36.3213V128.922H38.8786V128.455Z" fill="#263238"/>
<path d="M60.2333 94.8081L60.7887 94.7335L62.4267 94.5421L68.7733 93.8095L92.4333 91.1168C93.6933 90.9815 94.9767 90.8135 96.3067 90.6968C96.9861 90.645 97.6695 90.689 98.3367 90.8275C99.0151 90.9861 99.6695 91.2341 100.283 91.5648C101.548 92.2687 102.573 93.3348 103.227 94.6261C103.566 95.2862 103.794 95.9971 103.904 96.7308C103.963 97.1014 103.995 97.4756 104.002 97.8508V98.9755C104.002 105 104.002 111.468 104.002 118.323C104.002 132.034 104.002 147.285 104.002 163.59V163.711H79.4227C78.0195 163.665 76.615 163.732 75.2227 163.912C72.3506 164.325 69.6409 165.498 67.3733 167.308C65.1058 169.119 63.3627 171.502 62.324 174.211C62.1224 174.709 61.9525 175.219 61.8153 175.737C61.6637 176.251 61.5436 176.773 61.456 177.301L61.3347 178.094L61.2787 178.491L61.2553 178.887L61.218 179.685V180.087V180.133C61.3207 180.031 61.0733 180.292 61.092 180.264H29.9233V180.133C29.9233 173.101 29.9233 166.32 29.9233 159.843C29.9233 156.604 29.9233 153.442 29.9233 150.355V145.791C29.9233 145.04 29.9233 144.298 29.9233 143.556C29.9386 142.818 29.9915 142.081 30.082 141.349C30.4379 138.525 31.3347 135.797 32.7233 133.313C34.0082 130.895 35.2527 128.562 36.4567 126.313L43.074 113.913L48.4453 103.847C48.8373 103.116 49.2138 102.409 49.5747 101.724C49.7613 101.388 49.9247 101.047 50.1207 100.73C50.3139 100.42 50.5242 100.121 50.7507 99.8341C51.56 98.8249 52.5128 97.9398 53.5787 97.2068C55.0468 96.2102 56.688 95.4964 58.418 95.1021C59.0119 94.9597 59.6156 94.8614 60.224 94.8081L59.7573 94.8781C59.454 94.9248 59.006 95.0041 58.418 95.1395C56.6982 95.5461 55.0685 96.2676 53.6113 97.2675C52.5544 98.0014 51.611 98.8867 50.8113 99.8948C50.5854 100.177 50.3781 100.473 50.1907 100.781C49.9993 101.089 49.836 101.435 49.6493 101.775L48.5247 103.903L43.2 113.979C41.2027 117.74 39 121.889 36.62 126.387L32.8867 133.387C31.5109 135.853 30.625 138.561 30.278 141.363C30.1891 142.089 30.1377 142.82 30.124 143.551C30.124 144.284 30.124 145.035 30.124 145.782V150.346C30.124 153.429 30.124 156.592 30.124 159.833C30.124 166.311 30.124 173.091 30.124 180.124L30.0073 180.012H61.0547C61.0873 179.989 60.8307 180.236 60.938 180.124V180.073V179.671L60.98 178.859V178.458L61.0407 178.057L61.162 177.249C61.2507 176.714 61.3722 176.184 61.526 175.663C61.6656 175.136 61.8386 174.618 62.044 174.113C63.0993 171.365 64.8686 168.947 67.1695 167.109C69.4704 165.272 72.2197 164.081 75.134 163.66C76.5265 163.483 77.9309 163.416 79.334 163.459H103.801L103.68 163.576C103.68 147.289 103.68 132.039 103.68 118.309C103.68 111.454 103.68 104.986 103.68 98.9615C103.71 98.2213 103.679 97.4798 103.587 96.7448C103.48 96.0276 103.258 95.3325 102.929 94.6868C102.295 93.4245 101.295 92.3834 100.059 91.7001C99.4629 91.374 98.8255 91.1306 98.164 90.9768C97.5125 90.8393 96.8449 90.7938 96.1807 90.8415C94.86 90.9535 93.5673 91.1215 92.312 91.2568L68.6567 93.8748L62.3053 94.5701L60.6673 94.7428L60.2333 94.8081Z" fill="#263238"/>
<path d="M96.5541 146.385C96.5541 146.385 96.6848 146.385 96.9181 146.329C97.2612 146.268 97.5883 146.138 97.8794 145.946C98.3385 145.645 98.6823 145.198 98.8548 144.677C98.9602 144.352 99.003 144.01 98.9808 143.669C98.9707 143.291 98.8733 142.92 98.6961 142.586C98.4931 142.204 98.1911 141.883 97.8216 141.657C97.4522 141.431 97.029 141.309 96.5961 141.303H93.5161H86.4601C85.8726 141.304 85.3059 141.52 84.8679 141.912C84.4299 142.303 84.1512 142.842 84.0848 143.426C84.0115 143.98 84.1143 144.543 84.3788 145.036C84.6411 145.502 85.0518 145.867 85.5454 146.072C86.0336 146.242 86.5522 146.305 87.0668 146.259H88.5601H91.2434L95.1308 146.296H96.1901C96.3121 146.293 96.434 146.303 96.5541 146.324C96.4333 146.339 96.3118 146.347 96.1901 146.347H95.1308L91.2434 146.385H88.5601H87.0668C86.8054 146.385 86.5534 146.385 86.2781 146.385C85.9981 146.364 85.7228 146.301 85.4614 146.198C84.9217 145.974 84.4718 145.577 84.1828 145.069C83.893 144.534 83.7787 143.922 83.8561 143.319C83.9282 142.678 84.2334 142.086 84.7136 141.656C85.1938 141.226 85.8154 140.987 86.4601 140.985H93.5161H96.5961C97.2693 140.999 97.9108 141.274 98.3847 141.752C98.8586 142.23 99.1276 142.874 99.1348 143.547C99.1496 143.904 99.0974 144.26 98.9808 144.597C98.7888 145.139 98.4186 145.6 97.9308 145.904C97.6264 146.094 97.2837 146.213 96.9274 146.254C96.8088 146.313 96.6834 146.357 96.5541 146.385Z" fill="#263238"/>
<path d="M95.7001 140.523C94.3704 140.64 93.035 140.679 91.7008 140.639C90.365 140.679 89.028 140.64 87.6968 140.523C89.0278 140.402 90.3649 140.362 91.7008 140.401C93.0351 140.362 94.3706 140.403 95.7001 140.523Z" fill="white"/>
<path d="M64.746 198.651L61.0127 198.38C61.988 185.01 63.416 177.012 65.3807 173.927C69.1514 168 72.8987 166.927 77.0474 166.222C80.9114 165.564 84.808 165.718 88.5787 165.872L89.512 165.91C97.296 166.213 113.601 165.942 113.779 165.942L113.839 169.676C113.676 169.676 97.268 169.951 89.3814 169.643L88.448 169.606C84.8687 169.466 81.1727 169.312 77.6914 169.909C73.9814 170.539 71.5127 171.262 68.5354 175.938C67.6347 177.334 65.9454 182.182 64.746 198.651Z" fill="#263238"/>
<path d="M299.624 46.3496H115.767V168.766H299.624V46.3496Z" fill="#ECF1FF"/>
<path d="M297.421 166.343C297.421 165.555 297.384 120.657 297.323 49.1167L297.421 49.21L117.755 49.238L117.876 49.1167C117.876 90.7853 117.876 130.447 117.876 166.343L117.764 166.231L297.431 166.343L117.764 166.455H117.633V166.343C117.633 130.447 117.633 90.7853 117.633 49.1167V49H117.769L297.435 49.0233H297.533V49.1213C297.459 120.657 297.421 165.559 297.421 166.343Z" fill="#263238"/>
<path d="M169.018 79.6233V110.204L246.727 93.1147L246.699 62.8887L169.018 79.6233Z" fill="#ECF1FF"/>
<path d="M255.636 79.6234L283.155 73.1787L282.068 70.248L255.636 79.6234Z" fill="#5C92E1"/>
<path d="M132.413 100.217L151.546 95.7368L150.79 93.7021L132.413 100.217Z" fill="#5C92E1"/>
<path d="M197.918 146.319L225.438 139.869L224.355 136.943L197.918 146.319Z" fill="#5C92E1"/>
<path d="M234.398 64.9648C234.398 65.0301 219.707 68.5441 201.559 72.8095C183.41 77.0748 168.677 80.4861 168.659 80.4208C168.64 80.3555 183.345 76.8415 201.503 72.5761C219.661 68.3108 234.384 64.8995 234.398 64.9648Z" fill="#5C92E1"/>
<path d="M168.813 107.133C168.813 107.199 162.513 108.533 154.71 110.101C146.907 111.669 140.575 112.901 140.561 112.836C140.547 112.771 146.861 111.436 154.663 109.863C162.466 108.291 168.799 107.068 168.813 107.133Z" fill="#5C92E1"/>
<path d="M169.06 104.366C169.039 104.285 169.029 104.202 169.032 104.118C169.032 103.927 169.032 103.694 169.009 103.414C169.009 102.765 169.009 101.888 168.971 100.819C168.971 98.5928 168.934 95.5828 168.915 92.2555C168.897 88.9282 168.85 85.9135 168.827 83.6922C168.827 82.6235 168.799 81.7462 168.789 81.0975V80.3882C168.777 80.3077 168.777 80.226 168.789 80.1455C168.811 80.2246 168.822 80.3062 168.822 80.3882C168.822 80.5795 168.85 80.8082 168.869 81.0928C168.906 81.7042 168.943 82.5908 168.981 83.6875C169.06 85.8762 169.121 88.9048 169.144 92.2508C169.167 95.5968 169.144 98.6255 169.144 100.814C169.144 101.888 169.116 102.765 169.107 103.414C169.107 103.694 169.107 103.927 169.083 104.118C169.083 104.201 169.075 104.284 169.06 104.366Z" fill="#5C92E1"/>
<path d="M89.6331 104.319C89.6331 104.319 89.5771 104.375 89.4604 104.464L88.9471 104.833C88.4804 105.155 87.8411 105.603 87.0291 106.158C85.4004 107.259 83.1324 108.762 80.6031 110.381C78.0737 112.001 75.7637 113.433 74.0697 114.455C73.2297 114.964 72.5437 115.389 72.0677 115.65L71.5171 115.958C71.4543 115.999 71.387 116.031 71.3164 116.056C71.3164 116.056 71.3724 116 71.4891 115.921L72.0164 115.566L73.9811 114.311L80.4631 110.176L86.9217 106.013L88.8864 104.758L89.4277 104.422C89.4923 104.38 89.5611 104.346 89.6331 104.319Z" fill="#FAFAFA"/>
<path d="M81.658 106.429C81.658 106.429 81.602 106.485 81.4853 106.573L80.972 106.942C80.5053 107.259 79.866 107.712 79.0493 108.263C77.4206 109.369 75.1526 110.867 72.628 112.463C70.1033 114.059 67.7886 115.519 66.0946 116.541C65.2546 117.05 64.5686 117.475 64.0926 117.731L63.542 118.044C63.4803 118.085 63.4126 118.117 63.3413 118.137C63.3936 118.086 63.4515 118.041 63.514 118.002L64.0413 117.652L66.0013 116.392L72.488 112.262L78.9466 108.099L80.9113 106.839L81.448 106.508C81.5142 106.472 81.5848 106.446 81.658 106.429Z" fill="#FAFAFA"/>
<path d="M42.3693 120.013C42.2978 119.885 42.2489 119.746 42.2246 119.602C42.15 119.336 42.0473 118.944 41.9306 118.459C41.6238 117.19 41.4672 115.89 41.464 114.585C41.4574 113.267 41.7611 111.966 42.3506 110.787C42.5351 110.434 42.7572 110.102 43.0133 109.797C43.0996 109.681 43.2036 109.579 43.3213 109.494C43.0234 109.937 42.7492 110.395 42.5 110.866C41.9682 112.039 41.696 113.312 41.702 114.599C41.7161 115.889 41.8552 117.173 42.1173 118.435C42.234 118.955 42.3182 119.482 42.3693 120.013Z" fill="#FAFAFA"/>
<path d="M23.3667 153.099C23.3498 152.933 23.3498 152.766 23.3667 152.6C23.3667 152.264 23.3667 151.779 23.3947 151.2C23.432 150.001 23.5207 148.344 23.6653 146.533C23.81 144.723 23.9827 143.061 24.132 141.867C24.2067 141.269 24.272 140.789 24.3233 140.467C24.3409 140.294 24.3769 140.123 24.4307 139.958C24.4541 140.131 24.4541 140.307 24.4307 140.481L24.3093 141.881C24.2067 143.131 24.0667 144.751 23.9127 146.547C23.7587 148.344 23.6653 149.959 23.5767 151.214C23.5347 151.774 23.4973 152.245 23.4693 152.614C23.4551 152.779 23.4206 152.942 23.3667 153.099Z" fill="#FAFAFA"/>
<path d="M74.5088 162.157C74.5088 162.209 73.6081 162.335 72.2128 162.787C71.396 163.052 70.5991 163.375 69.8281 163.753C67.9388 164.692 66.2296 165.955 64.7788 167.487C64.1863 168.108 63.6389 168.771 63.1408 169.47C62.2961 170.669 61.8994 171.495 61.8574 171.472C61.9268 171.268 62.0143 171.072 62.1188 170.884C62.2232 170.656 62.3416 170.435 62.4734 170.221C62.6228 169.969 62.7861 169.675 63.0008 169.372C63.4839 168.65 64.0238 167.968 64.6154 167.333C65.3487 166.556 66.1464 165.842 67.0001 165.2C67.8617 164.574 68.7768 164.026 69.7348 163.562C70.5173 163.186 71.3288 162.874 72.1614 162.629C72.5114 162.512 72.8428 162.447 73.1274 162.377C73.3722 162.317 73.6199 162.27 73.8694 162.237C74.0795 162.19 74.2936 162.163 74.5088 162.157Z" fill="#FAFAFA"/>
<path d="M120.466 133.985C120.46 133.918 120.46 133.851 120.466 133.784C120.466 133.641 120.466 133.445 120.466 133.196C120.466 132.664 120.466 131.903 120.433 130.933C120.405 128.954 120.368 126.112 120.317 122.607C120.191 115.565 120.018 105.863 119.827 95.1442C119.635 84.4248 119.472 74.7042 119.407 67.6762C119.374 64.1622 119.365 61.3155 119.369 59.3508C119.369 58.3755 119.369 57.6148 119.369 57.0875V56.4995C119.369 56.3642 119.369 56.2988 119.369 56.2988C119.376 56.3656 119.376 56.4328 119.369 56.4995C119.369 56.6395 119.369 56.8355 119.369 57.0875C119.369 57.6148 119.369 58.3755 119.402 59.3508C119.43 61.3295 119.467 64.1668 119.519 67.6715C119.645 74.7135 119.817 84.4155 120.009 95.1395C120.2 105.863 120.368 115.575 120.429 122.603C120.461 126.121 120.475 128.963 120.471 130.928C120.471 131.903 120.471 132.664 120.471 133.196C120.471 133.443 120.471 133.639 120.471 133.784C120.473 133.851 120.471 133.918 120.466 133.985Z" fill="#FAFAFA"/>
<path d="M255.487 215.612C267.833 215.118 277.441 204.71 276.947 192.364C276.453 180.018 266.045 170.41 253.699 170.904C241.353 171.398 231.745 181.806 232.239 194.152C232.732 206.498 243.141 216.106 255.487 215.612Z" fill="#263238"/>
<path d="M232.214 192.896C232.214 192.896 232.214 192.938 232.214 192.957C232.128 198.889 234.403 204.612 238.537 208.868C242.672 213.123 248.327 215.561 254.259 215.646C260.191 215.732 265.914 213.457 270.169 209.323C274.425 205.189 276.863 199.533 276.948 193.601V193.545L232.214 192.896Z" fill="#263238"/>
<path d="M238.873 193.051C238.828 196.156 239.705 199.205 241.393 201.812C243.081 204.419 245.504 206.467 248.356 207.697C251.207 208.927 254.36 209.284 257.414 208.722C260.469 208.16 263.288 206.706 265.516 204.542C267.744 202.378 269.28 199.602 269.93 196.565C270.58 193.529 270.316 190.367 269.169 187.481C268.023 184.594 266.046 182.113 263.489 180.35C260.933 178.587 257.911 177.621 254.805 177.576C250.641 177.516 246.623 179.113 243.635 182.014C240.648 184.916 238.935 188.886 238.873 193.051Z" fill="#FAFAFA"/>
<path d="M254.805 177.576C252.743 177.546 250.695 177.922 248.778 178.683C246.861 179.445 245.113 180.576 243.634 182.013C242.154 183.45 240.972 185.164 240.155 187.058C239.339 188.952 238.903 190.988 238.873 193.051L270.28 193.517C270.311 191.454 269.936 189.405 269.175 187.487C268.414 185.569 267.283 183.82 265.846 182.34C264.409 180.859 262.694 179.677 260.8 178.859C258.905 178.042 256.868 177.606 254.805 177.576Z" fill="#E0E0E0"/>
<path d="M245.033 193.14C245.006 195.032 245.54 196.889 246.568 198.478C247.597 200.066 249.073 201.314 250.81 202.063C252.548 202.812 254.469 203.03 256.33 202.687C258.191 202.345 259.908 201.458 261.265 200.14C262.623 198.821 263.558 197.13 263.954 195.279C264.35 193.429 264.188 191.503 263.489 189.745C262.79 187.986 261.585 186.475 260.027 185.401C258.469 184.327 256.627 183.74 254.735 183.713C252.199 183.677 249.752 184.65 247.932 186.417C246.113 188.185 245.07 190.603 245.033 193.14Z" fill="#263238"/>
<path d="M225.172 199.407C225.172 199.407 221.765 167.674 254.646 167.674C284.98 167.674 284.308 194.964 284.018 199.188H279.263C279.263 199.188 281.685 172.289 254.646 172.289C227.608 172.289 229.96 199.734 229.96 199.734C229.96 199.734 227.962 199.636 225.172 199.407Z" fill="#455A64"/>
<path d="M242.784 170.959C242.703 171.001 242.617 171.032 242.527 171.052C242.355 171.113 242.098 171.174 241.781 171.286C240.868 171.576 239.975 171.924 239.107 172.326C236.232 173.645 233.686 175.584 231.65 178.005C229.615 180.426 228.142 183.268 227.337 186.326C227.091 187.247 226.902 188.182 226.773 189.126C226.721 189.462 226.703 189.724 226.675 189.901C226.667 189.992 226.651 190.083 226.628 190.172C226.617 190.082 226.617 189.991 226.628 189.901C226.628 189.719 226.628 189.434 226.684 189.117C226.777 188.157 226.942 187.205 227.179 186.27C227.944 183.165 229.411 180.277 231.467 177.828C233.524 175.379 236.115 173.435 239.041 172.144C239.921 171.752 240.829 171.424 241.757 171.164C242.084 171.071 242.345 171.02 242.518 170.978C242.606 170.962 242.695 170.955 242.784 170.959Z" fill="#FAFAFA"/>
<path d="M323.55 203.251L327.526 209.234L329.313 214.871C329.343 214.968 329.392 215.058 329.458 215.134C329.524 215.211 329.605 215.273 329.696 215.317C329.787 215.361 329.887 215.386 329.988 215.389C330.089 215.393 330.19 215.375 330.284 215.338C330.397 215.3 330.5 215.233 330.581 215.145C330.663 215.057 330.721 214.95 330.75 214.834C331.114 213.359 332.426 207.927 332.113 207.503C331.8 207.078 328.333 200.918 328.333 200.918L323.55 203.251Z" fill="#455A64"/>
<g opacity="0.6">
<path d="M330.284 215.334L331.834 207.093L331.997 207.349C332.139 207.571 332.197 207.836 332.16 208.096C332.062 208.791 331.745 210.709 330.76 214.816C330.732 214.935 330.674 215.044 330.593 215.135C330.511 215.225 330.408 215.294 330.294 215.334H330.284Z" fill="white"/>
</g>
<g opacity="0.6">
<path d="M329.346 205.921C329.311 206.023 329.312 206.134 329.349 206.235C329.387 206.336 329.458 206.422 329.551 206.476C329.652 206.52 329.766 206.524 329.869 206.486C329.972 206.449 330.057 206.374 330.107 206.275C330.149 206.167 330.15 206.047 330.109 205.938C330.067 205.829 329.987 205.74 329.883 205.687C329.773 205.652 329.654 205.661 329.551 205.712C329.448 205.764 329.369 205.854 329.332 205.963" fill="white"/>
</g>
<path d="M329.99 211.806C329.725 211.706 329.443 211.66 329.159 211.67C328.881 211.722 328.615 211.827 328.375 211.978C328.375 211.978 328.408 211.871 328.539 211.759C328.713 211.62 328.924 211.534 329.145 211.512C329.367 211.486 329.591 211.526 329.789 211.628C329.939 211.708 330.004 211.792 329.99 211.806Z" fill="#263238"/>
<path d="M330.074 212.893C329.837 212.902 329.602 212.928 329.369 212.972C329.149 213.055 328.935 213.155 328.73 213.271C328.692 213.247 328.903 212.935 329.327 212.804C329.45 212.757 329.581 212.741 329.711 212.757C329.841 212.772 329.966 212.819 330.074 212.893Z" fill="#263238"/>
<path d="M330.139 210.252C329.773 210.241 329.406 210.258 329.043 210.303C328.69 210.395 328.345 210.516 328.011 210.663C328.273 210.376 328.629 210.194 329.015 210.149C329.39 210.052 329.788 210.088 330.139 210.252Z" fill="#263238"/>
<path d="M329.08 208.334C329.08 208.38 328.66 208.45 328.217 208.712C327.773 208.973 327.489 209.295 327.451 209.267C327.593 208.964 327.835 208.72 328.137 208.576C328.412 208.385 328.747 208.299 329.08 208.334Z" fill="#263238"/>
<path d="M327.955 206.547C327.628 206.628 327.314 206.754 327.022 206.92C326.766 207.126 326.539 207.365 326.345 207.629C326.345 207.629 326.345 207.508 326.434 207.335C326.556 207.117 326.727 206.93 326.933 206.789C327.14 206.648 327.376 206.557 327.624 206.523C327.839 206.505 327.955 206.528 327.955 206.547Z" fill="#263238"/>
<path d="M326.84 206.575C326.777 206.51 326.726 206.434 326.691 206.351C326.575 206.127 326.506 205.883 326.49 205.632C326.462 205.451 326.493 205.266 326.579 205.105C326.612 205.054 326.661 205.014 326.717 204.992C326.774 204.969 326.836 204.965 326.896 204.979C327.009 205.016 327.105 205.092 327.167 205.193C327.282 205.406 327.32 205.653 327.273 205.89C327.226 206.128 327.098 206.342 326.91 206.495C326.721 206.642 326.494 206.73 326.255 206.747C326.017 206.765 325.778 206.711 325.571 206.593C325.518 206.565 325.473 206.525 325.438 206.476C325.404 206.428 325.38 206.372 325.37 206.313C325.363 206.252 325.376 206.191 325.407 206.138C325.438 206.085 325.486 206.043 325.543 206.019C325.713 205.957 325.896 205.941 326.075 205.973C326.323 206 326.565 206.071 326.789 206.183C326.872 206.218 326.948 206.269 327.013 206.332C326.715 206.206 326.4 206.123 326.079 206.085C325.922 206.063 325.762 206.081 325.613 206.136C325.581 206.148 325.555 206.17 325.537 206.199C325.519 206.227 325.511 206.261 325.515 206.295C325.525 206.332 325.544 206.368 325.569 206.398C325.593 206.429 325.624 206.454 325.659 206.472C325.842 206.568 326.049 206.61 326.255 206.593C326.46 206.575 326.657 206.499 326.821 206.374C326.975 206.241 327.081 206.061 327.123 205.862C327.165 205.664 327.141 205.457 327.055 205.273C327.015 205.2 326.95 205.143 326.873 205.114C326.84 205.105 326.805 205.107 326.774 205.118C326.742 205.13 326.714 205.151 326.695 205.179C326.616 205.321 326.587 205.485 326.611 205.646C326.637 205.966 326.714 206.279 326.84 206.575Z" fill="#263238"/>
<path d="M319.77 206.672L319.303 212.678C319.303 212.678 325.262 214.717 325.286 215.837L313.619 215.809L313.946 206.425L319.77 206.672Z" fill="#455A64"/>
<g opacity="0.6">
<path d="M315.724 212.03C315.61 212.058 315.511 212.127 315.446 212.225C315.381 212.323 315.355 212.441 315.374 212.557C315.401 212.671 315.47 212.771 315.566 212.836C315.663 212.902 315.781 212.929 315.897 212.912C316.017 212.88 316.121 212.805 316.189 212.7C316.257 212.596 316.285 212.47 316.265 212.347C316.229 212.229 316.147 212.13 316.037 212.073C315.928 212.015 315.8 212.003 315.682 212.039" fill="white"/>
</g>
<g opacity="0.6">
<path d="M313.633 215.809L313.666 214.876L324.945 215.296C325.064 215.359 325.165 215.45 325.24 215.562C325.315 215.673 325.361 215.802 325.375 215.935L313.633 215.809Z" fill="white"/>
</g>
<path d="M319.504 212.627C319.504 212.683 319.215 212.697 318.925 212.87C318.636 213.042 318.459 213.276 318.431 213.252C318.403 213.229 318.477 212.898 318.827 212.697C319.177 212.496 319.518 212.576 319.504 212.627Z" fill="#263238"/>
<path d="M320.708 213.182C320.708 213.238 320.47 213.322 320.265 213.556C320.059 213.789 319.999 214.022 319.938 214.022C319.877 214.022 319.859 213.696 320.12 213.411C320.381 213.126 320.708 213.126 320.708 213.182Z" fill="#263238"/>
<path d="M321.347 214.667C321.296 214.667 321.226 214.387 321.384 214.079C321.543 213.771 321.814 213.659 321.851 213.71C321.888 213.762 321.702 213.92 321.576 214.177C321.45 214.434 321.403 214.667 321.347 214.667Z" fill="#263238"/>
<path d="M319.457 211.245C319.429 211.297 319.173 211.208 318.851 211.217C318.529 211.227 318.272 211.315 318.244 211.269C318.216 211.222 318.463 211.021 318.846 211.017C319.229 211.012 319.485 211.203 319.457 211.245Z" fill="#263238"/>
<g opacity="0.3">
<path d="M319.676 207.863L319.597 208.932L313.862 208.652L313.894 207.686L319.676 207.863Z" fill="black"/>
</g>
<path d="M319.527 210.033C319.334 210.078 319.133 210.07 318.944 210.01C318.734 209.962 318.531 209.89 318.337 209.795C318.223 209.74 318.114 209.676 318.011 209.604C317.945 209.565 317.887 209.516 317.838 209.459C317.805 209.415 317.787 209.362 317.787 209.307C317.787 209.253 317.805 209.199 317.838 209.156C317.869 209.117 317.908 209.086 317.952 209.065C317.997 209.044 318.045 209.033 318.095 209.034C318.167 209.038 318.239 209.05 318.309 209.072C318.433 209.108 318.553 209.155 318.669 209.212C318.863 209.309 319.041 209.437 319.196 209.59C319.457 209.851 319.541 210.056 319.518 210.056C319.495 210.056 319.369 209.893 319.103 209.674C318.945 209.549 318.772 209.444 318.589 209.361C318.483 209.311 318.372 209.272 318.258 209.244C318.137 209.207 318.034 209.202 317.997 209.244C317.959 209.286 317.997 209.272 317.997 209.31C318.03 209.352 318.071 209.388 318.118 209.417C318.215 209.485 318.317 209.547 318.421 209.604C318.599 209.701 318.784 209.782 318.977 209.846C319.164 209.896 319.348 209.959 319.527 210.033Z" fill="#263238"/>
<path d="M319.448 210.112C319.345 209.941 319.299 209.742 319.317 209.543C319.317 209.197 319.409 208.857 319.583 208.558C319.616 208.48 319.669 208.412 319.738 208.362C319.806 208.312 319.887 208.281 319.971 208.273C320.022 208.278 320.072 208.297 320.113 208.327C320.155 208.358 320.188 208.399 320.209 208.446C320.233 208.517 320.25 208.591 320.26 208.665C320.28 208.841 320.265 209.019 320.215 209.189C320.165 209.359 320.082 209.517 319.971 209.655C319.728 209.944 319.504 210.005 319.504 209.986C319.504 209.967 319.691 209.855 319.877 209.571C319.982 209.406 320.052 209.222 320.083 209.029C320.099 208.916 320.099 208.802 320.083 208.689C320.083 208.563 320.031 208.465 319.98 208.474C319.929 208.483 319.821 208.558 319.77 208.656C319.708 208.755 319.655 208.86 319.611 208.969C319.539 209.154 319.494 209.349 319.476 209.547C319.429 209.888 319.481 210.103 319.448 210.112Z" fill="#263238"/>
<path d="M324.035 157.267C324.035 157.267 326.177 161.658 326.737 164.789C326.896 165.676 320.605 210.691 320.605 210.691L313.167 210.411L316.652 168.523L315.411 160.123L324.035 157.267Z" fill="#263238"/>
<path d="M305.966 159.987C305.914 163.028 306.07 166.068 306.432 169.087C306.983 173.502 308.243 178.528 308.654 181.337C309.559 187.553 311.342 188.729 311.342 188.729L325.612 206.99L331.212 201.955L318.612 181.827C318.612 181.827 315.262 159.493 315.378 160.095C315.495 160.697 305.966 159.987 305.966 159.987Z" fill="#263238"/>
<path d="M311.641 189C311.681 189.067 311.726 189.131 311.776 189.191L312.182 189.714L313.68 191.646C314.945 193.293 316.667 195.552 318.575 198.049C320.484 200.545 322.22 202.813 323.508 204.428C324.147 205.235 324.675 205.884 325.048 206.327L325.477 206.831C325.525 206.893 325.578 206.951 325.636 207.004C325.598 206.936 325.552 206.872 325.501 206.813L325.095 206.285L323.597 204.358L318.701 197.951C316.797 195.445 315.057 193.186 313.769 191.576C313.129 190.764 312.602 190.12 312.233 189.677L311.799 189.168C311.752 189.107 311.699 189.05 311.641 189Z" fill="#455A64"/>
<path d="M310.049 163.408C310.041 163.659 309.972 163.904 309.848 164.122C309.349 165.224 308.432 166.084 307.3 166.512C307.073 166.615 306.827 166.667 306.577 166.666C307.327 166.348 308.024 165.919 308.644 165.392C309.212 164.807 309.686 164.138 310.049 163.408Z" fill="#455A64"/>
<path d="M325.449 160.859C325.108 161.015 324.729 161.068 324.358 161.014C323.987 160.959 323.64 160.799 323.358 160.551C323.391 160.491 323.825 160.691 324.394 160.771C324.964 160.85 325.435 160.794 325.449 160.859Z" fill="#455A64"/>
<path d="M317.418 167.066C317.441 167.165 317.459 167.265 317.469 167.365C317.497 167.58 317.53 167.864 317.576 168.224C317.66 168.994 317.782 170.09 317.936 171.425C318.225 174.169 318.622 177.958 319.079 182.317V182.266L321.146 185.57L328.328 197.129C329.229 198.599 329.962 199.794 330.48 200.648L331.04 201.6C331.112 201.709 331.173 201.824 331.222 201.945C331.139 201.843 331.065 201.736 330.998 201.623L330.382 200.69L328.165 197.213C326.298 194.25 323.746 190.185 320.922 185.696L318.86 182.387V182.359C318.44 178.014 318.066 174.206 317.8 171.458L317.511 168.247C317.483 167.888 317.46 167.603 317.446 167.384C317.424 167.279 317.414 167.173 317.418 167.066Z" fill="#455A64"/>
<path d="M315.248 127.839L319.7 129.267L320.036 138.708C320.036 138.708 322.444 149.8 322.966 151.2C323.58 152.878 324.034 154.609 324.324 156.371C324.324 156.371 323.466 162.634 317.208 163.371C310.95 164.108 305.126 160.515 305.126 160.515C305.126 160.515 303.04 151.182 301.127 142.81C299.307 134.844 300.786 130.093 300.786 130.093L307.641 127.629L315.248 127.839Z" fill="#455A64"/>
<path d="M318.556 133.094L314.465 133.589L314.592 134.641L318.683 134.145L318.556 133.094Z" fill="#FAFAFA"/>
<path d="M319.541 121.8C319.502 121.57 319.379 121.363 319.195 121.22C319.011 121.076 318.78 121.007 318.547 121.025C318.651 120.947 318.734 120.843 318.787 120.725C318.841 120.606 318.864 120.475 318.854 120.345C318.845 120.215 318.802 120.09 318.732 119.98C318.661 119.871 318.564 119.781 318.449 119.719C318.667 119.386 318.754 118.984 318.693 118.591C318.632 118.198 318.427 117.841 318.118 117.591L313.418 124.073C313.78 124.36 314.196 124.571 314.641 124.693C315.086 124.815 315.551 124.845 316.008 124.782C316.926 124.647 317.806 124.33 318.598 123.849C318.817 123.755 318.998 123.591 319.112 123.382C319.2 123.163 319.074 122.845 318.832 122.841C319.059 122.787 319.257 122.651 319.388 122.458C319.52 122.266 319.574 122.031 319.541 121.8Z" fill="#263238"/>
<path d="M307.87 118.258C307.783 118.236 307.691 118.242 307.606 118.275C307.522 118.307 307.45 118.365 307.399 118.439C307.349 118.514 307.322 118.602 307.323 118.692C307.323 118.782 307.352 118.87 307.403 118.944C307.263 118.925 307.121 118.944 306.991 118.999C306.861 119.055 306.748 119.145 306.665 119.259C306.582 119.373 306.531 119.508 306.518 119.649C306.505 119.79 306.53 119.931 306.591 120.059C306.261 120.04 305.933 120.13 305.658 120.316C305.519 120.41 305.41 120.543 305.344 120.697C305.278 120.852 305.257 121.022 305.285 121.188C305.324 121.348 305.424 121.486 305.563 121.574C305.703 121.661 305.871 121.69 306.031 121.655C305.949 121.799 305.91 121.963 305.918 122.128C305.927 122.294 305.982 122.453 306.078 122.588C306.129 122.651 306.193 122.702 306.265 122.737C306.338 122.773 306.417 122.793 306.497 122.795C306.578 122.797 306.658 122.782 306.732 122.75C306.807 122.719 306.873 122.671 306.927 122.611C306.838 122.732 306.792 122.88 306.796 123.03C306.8 123.181 306.855 123.325 306.951 123.441C307.048 123.557 307.18 123.637 307.327 123.668C307.474 123.7 307.628 123.681 307.763 123.615C307.726 123.765 307.738 123.922 307.796 124.065C307.854 124.208 307.955 124.329 308.086 124.411C308.217 124.493 308.37 124.531 308.524 124.52C308.678 124.51 308.825 124.451 308.943 124.352L307.87 118.258Z" fill="#263238"/>
<path d="M308.159 117.017L307.954 128.492C307.939 129.396 308.268 130.273 308.874 130.944C309.481 131.616 310.319 132.032 311.221 132.109C311.707 132.151 312.197 132.094 312.66 131.94C313.123 131.786 313.55 131.539 313.914 131.214C314.278 130.888 314.571 130.492 314.776 130.048C314.98 129.605 315.092 129.125 315.103 128.637C315.103 127.545 315.141 126.649 315.141 126.649C315.141 126.649 317.941 126.462 318.216 123.709C318.379 122.113 318.421 118.473 318.431 115.677C318.434 114.767 318.096 113.888 317.482 113.216C316.868 112.543 316.024 112.126 315.117 112.047L313.451 111.902C312.766 111.881 312.083 111.997 311.443 112.244C310.803 112.492 310.219 112.865 309.725 113.342C309.232 113.818 308.839 114.389 308.57 115.021C308.301 115.652 308.162 116.33 308.159 117.017Z" fill="#FFBE9D"/>
<path d="M315.131 126.648C313.855 126.527 312.639 126.041 311.631 125.248C311.631 125.248 312.341 127.334 315.117 127.329L315.131 126.648Z" fill="#EB996E"/>
<path d="M317.651 118.481C317.6 118.528 317.32 118.281 316.895 118.243C316.471 118.206 316.144 118.393 316.102 118.337C316.06 118.281 316.139 118.22 316.284 118.136C316.477 118.024 316.701 117.975 316.923 117.996C317.145 118.016 317.354 118.106 317.521 118.253C317.642 118.36 317.679 118.458 317.651 118.481Z" fill="#263238"/>
<path d="M313.167 118.664C313.158 118.767 313.11 118.862 313.033 118.93C312.955 118.998 312.854 119.033 312.751 119.028C312.701 119.028 312.651 119.018 312.604 118.999C312.558 118.979 312.516 118.95 312.481 118.914C312.445 118.878 312.418 118.835 312.399 118.788C312.381 118.741 312.372 118.691 312.373 118.641C312.382 118.538 312.43 118.443 312.507 118.375C312.585 118.307 312.686 118.272 312.789 118.277C312.839 118.277 312.889 118.287 312.935 118.307C312.982 118.326 313.024 118.355 313.059 118.391C313.094 118.427 313.122 118.47 313.14 118.517C313.159 118.564 313.168 118.614 313.167 118.664Z" fill="#263238"/>
<path d="M317.273 119.037C317.265 119.14 317.217 119.235 317.139 119.303C317.062 119.371 316.961 119.406 316.858 119.401C316.808 119.4 316.758 119.389 316.712 119.369C316.666 119.348 316.625 119.319 316.59 119.283C316.555 119.246 316.528 119.203 316.51 119.156C316.492 119.11 316.483 119.06 316.484 119.009C316.492 118.906 316.539 118.81 316.617 118.742C316.695 118.674 316.797 118.639 316.9 118.645C316.95 118.645 317.001 118.655 317.047 118.675C317.094 118.695 317.136 118.724 317.171 118.761C317.206 118.798 317.233 118.841 317.25 118.889C317.268 118.936 317.276 118.987 317.273 119.037Z" fill="#263238"/>
<path d="M313.526 118.118C313.475 118.165 313.195 117.918 312.77 117.88C312.345 117.843 312.014 118.03 311.972 117.974C311.93 117.918 312.009 117.857 312.154 117.773C312.347 117.661 312.57 117.612 312.793 117.632C313.015 117.652 313.225 117.741 313.395 117.885C313.517 117.997 313.554 118.095 313.526 118.118Z" fill="#263238"/>
<path d="M314.786 121.398C315.021 121.347 315.26 121.325 315.5 121.333C315.612 121.333 315.715 121.333 315.738 121.249C315.759 121.138 315.744 121.024 315.696 120.922C315.617 120.647 315.533 120.367 315.449 120.068C315.212 119.343 315.036 118.6 314.921 117.847C315.213 118.55 315.449 119.276 315.626 120.017C315.705 120.32 315.785 120.605 315.859 120.875C315.909 121.014 315.909 121.166 315.859 121.305C315.84 121.341 315.813 121.374 315.78 121.399C315.747 121.424 315.709 121.441 315.668 121.449C315.606 121.456 315.544 121.456 315.481 121.449C315.248 121.461 315.015 121.444 314.786 121.398Z" fill="#263238"/>
<path d="M313.512 121.58C313.582 121.58 313.544 122.047 313.908 122.406C314.272 122.766 314.767 122.761 314.767 122.822C314.767 122.882 314.646 122.906 314.44 122.892C314.17 122.87 313.916 122.755 313.722 122.565C313.535 122.385 313.426 122.138 313.418 121.879C313.418 121.683 313.484 121.576 313.512 121.58Z" fill="#263238"/>
<path d="M313.759 116.746C313.703 116.858 313.292 116.746 312.784 116.783C312.275 116.82 311.851 116.9 311.809 116.783C311.767 116.666 311.865 116.629 312.037 116.531C312.265 116.411 312.517 116.347 312.774 116.344C313.032 116.337 313.288 116.39 313.521 116.498C313.694 116.596 313.778 116.694 313.759 116.746Z" fill="#263238"/>
<path d="M317.703 117.259C317.619 117.352 317.334 117.226 316.984 117.189C316.634 117.152 316.331 117.189 316.27 117.091C316.209 116.993 316.298 116.946 316.438 116.867C316.622 116.773 316.83 116.736 317.035 116.76C317.24 116.784 317.433 116.868 317.591 117.002C317.707 117.133 317.74 117.217 317.703 117.259Z" fill="#263238"/>
<path d="M308.906 119.168C308.859 119.144 307.039 118.44 306.951 120.334C306.862 122.229 308.766 121.944 308.775 121.888C308.785 121.832 308.906 119.168 308.906 119.168Z" fill="#FFBE9D"/>
<path d="M308.239 121.137C308.239 121.137 308.201 121.16 308.145 121.184C308.066 121.214 307.978 121.214 307.898 121.184C307.78 121.099 307.687 120.985 307.628 120.853C307.569 120.721 307.546 120.576 307.562 120.432C307.568 120.27 307.608 120.111 307.679 119.966C307.702 119.908 307.738 119.857 307.784 119.816C307.83 119.775 307.885 119.744 307.945 119.728C307.983 119.72 308.023 119.725 308.057 119.744C308.091 119.763 308.118 119.794 308.131 119.83C308.131 119.886 308.131 119.924 308.131 119.924C308.131 119.924 308.173 119.896 308.164 119.816C308.156 119.769 308.131 119.726 308.094 119.695C308.045 119.652 307.981 119.63 307.917 119.634C307.838 119.646 307.764 119.677 307.701 119.725C307.638 119.774 307.589 119.837 307.557 119.91C307.466 120.069 307.416 120.249 307.413 120.432C307.394 120.6 307.425 120.77 307.502 120.92C307.579 121.07 307.699 121.194 307.847 121.277C307.896 121.293 307.949 121.299 308.002 121.293C308.054 121.288 308.105 121.271 308.15 121.244C308.229 121.184 308.243 121.142 308.239 121.137Z" fill="#EB996E"/>
<path d="M307.861 118.999C308.041 119.003 308.218 119.056 308.371 119.152C308.523 119.248 308.647 119.384 308.729 119.545C308.827 119.825 308.827 120.133 308.925 120.413C309.023 120.693 309.279 120.964 309.573 120.917C309.674 120.896 309.767 120.849 309.843 120.78C309.92 120.711 309.976 120.623 310.007 120.525C310.066 120.327 310.085 120.12 310.063 119.914C310.031 119.023 309.923 118.131 309.965 117.245C309.975 116.346 310.248 115.47 310.749 114.725C311.008 114.356 311.361 114.064 311.772 113.88C312.183 113.696 312.636 113.627 313.083 113.679C313.666 113.777 314.175 114.146 314.749 114.267C315.092 114.343 315.447 114.341 315.789 114.26C316.131 114.179 316.45 114.022 316.723 113.801C316.793 113.745 317.105 113.577 317.105 113.577C317.113 113.366 317.061 113.157 316.956 112.975C315.897 111.803 313.839 111.318 312.289 111.575C311.496 111.697 310.74 111.99 310.072 112.434C309.404 112.878 308.84 113.462 308.421 114.146C307.637 115.523 307.655 117.529 307.889 119.009" fill="#263238"/>
<path d="M318.767 115.206C318.599 115.472 318.365 115.69 318.088 115.837C317.81 115.984 317.499 116.056 317.185 116.046C316.556 116.017 315.939 115.87 315.365 115.612C314.455 115.299 313.517 115.076 312.565 114.945C312.471 114.945 312.359 114.945 312.317 114.847C312.275 114.749 312.378 114.618 312.481 114.548C313.363 113.979 315.383 113.759 316.433 113.806C316.96 113.817 317.474 113.963 317.929 114.229C318.383 114.495 318.761 114.873 319.028 115.327" fill="#263238"/>
<path d="M318.491 115.266C317.945 114.578 317.151 114.129 316.279 114.016C314.605 113.875 312.925 114.199 311.423 114.951C309.922 115.704 308.656 116.856 307.767 118.281C307.598 117.477 307.514 116.657 307.515 115.836C307.562 115.271 308.196 111.958 311.715 111.211C311.729 111.202 317.086 109.666 318.491 115.266Z" fill="#455A64"/>
<path d="M308.136 117.567C309.377 116.027 310.939 114.775 312.714 113.899C314.796 112.95 316.992 112.274 319.247 111.888C319.826 111.751 320.427 111.74 321.011 111.855C321.301 111.919 321.568 112.063 321.78 112.271C321.992 112.479 322.141 112.742 322.21 113.031C322.327 113.759 320.96 114.753 320.344 115.131C319.725 115.469 319.088 115.773 318.435 116.041C318.435 116.041 318.57 114.721 316.47 114.259C313.6 113.629 308.136 117.567 308.136 117.567Z" fill="#455A64"/>
<path d="M321.38 111.948C321.181 111.906 320.98 111.875 320.778 111.855C320.22 111.834 319.662 111.872 319.112 111.967C317.291 112.274 315.508 112.78 313.797 113.474C312.073 114.137 310.49 115.119 309.13 116.368C308.724 116.749 308.367 117.178 308.066 117.646C307.861 117.982 307.781 118.188 307.763 118.178C307.744 118.169 307.763 118.122 307.8 118.024C307.851 117.878 307.914 117.736 307.987 117.6C308.261 117.101 308.607 116.645 309.013 116.246C310.357 114.938 311.955 113.918 313.708 113.25C315.435 112.545 317.242 112.056 319.089 111.794C319.652 111.715 320.222 111.704 320.787 111.762C320.948 111.774 321.105 111.812 321.254 111.874C321.338 111.916 321.385 111.939 321.38 111.948Z" fill="#263238"/>
<path d="M314.567 112.681C315.252 112.39 315.98 112.212 316.723 112.154C316.56 112.002 316.38 111.87 316.186 111.762C315.608 111.807 315.041 111.944 314.506 112.168L314.567 112.681Z" fill="#FAFAFA"/>
<path d="M318.808 116.2C318.895 116.079 318.948 115.937 318.962 115.789C318.975 115.641 318.949 115.492 318.886 115.357C318.823 115.223 318.725 115.107 318.602 115.023C318.479 114.939 318.336 114.889 318.188 114.879C318.286 114.84 318.375 114.781 318.449 114.706C318.523 114.63 318.58 114.541 318.618 114.442C318.656 114.343 318.673 114.238 318.668 114.132C318.663 114.027 318.636 113.924 318.589 113.829C318.479 113.646 318.311 113.504 318.112 113.426C317.912 113.349 317.693 113.339 317.488 113.4C317.285 113.467 317.1 113.582 316.95 113.734C316.8 113.887 316.688 114.073 316.624 114.277C316.537 114.148 316.419 114.044 316.28 113.973C316.141 113.903 315.987 113.87 315.832 113.877C315.676 113.883 315.525 113.929 315.393 114.011C315.26 114.092 315.151 114.207 315.075 114.342C315.034 114.226 314.949 114.129 314.839 114.072C314.729 114.015 314.602 114.001 314.482 114.034C314.246 114.112 314.029 114.242 313.848 114.412C313.665 114.585 313.431 114.692 313.18 114.716L313.017 114.786C313.151 115.001 313.358 115.159 313.601 115.231C313.843 115.303 314.104 115.284 314.333 115.178C314.331 115.337 314.381 115.492 314.475 115.62C314.569 115.749 314.702 115.843 314.855 115.889C315.007 115.935 315.17 115.93 315.319 115.875C315.468 115.82 315.596 115.718 315.682 115.584C315.711 115.701 315.769 115.81 315.85 115.9C315.932 115.989 316.035 116.057 316.149 116.097C316.264 116.137 316.386 116.148 316.506 116.128C316.626 116.108 316.739 116.059 316.834 115.985C316.887 116.121 316.97 116.244 317.078 116.342C317.186 116.44 317.316 116.512 317.457 116.551C317.597 116.59 317.745 116.595 317.888 116.567C318.032 116.538 318.166 116.476 318.281 116.386C318.4 116.575 318.477 116.788 318.508 117.009C318.539 117.23 318.522 117.456 318.458 117.67C318.612 117.636 318.753 117.559 318.866 117.448C318.978 117.338 319.057 117.198 319.093 117.044C319.13 116.891 319.123 116.73 319.072 116.581C319.022 116.432 318.93 116.3 318.808 116.2Z" fill="#263238"/>
<path d="M310.917 115.733C310.266 116.022 309.641 116.367 309.051 116.765C308.457 117.17 307.982 117.726 307.674 118.375L308.607 119.266C308.864 119.35 309.074 119.439 309.27 119.266C309.371 119.178 309.449 119.066 309.496 118.941C309.543 118.816 309.559 118.68 309.54 118.547C309.664 118.574 309.793 118.566 309.913 118.524C310.032 118.482 310.138 118.409 310.218 118.311C310.299 118.213 310.351 118.095 310.369 117.97C310.387 117.844 310.37 117.716 310.32 117.6C310.412 117.578 310.497 117.532 310.566 117.466C310.635 117.401 310.685 117.318 310.712 117.227C310.736 117.135 310.736 117.039 310.713 116.948C310.689 116.856 310.642 116.772 310.577 116.704C310.682 116.698 310.783 116.661 310.868 116.598C310.953 116.535 311.017 116.448 311.053 116.349C311.09 116.25 311.096 116.142 311.072 116.04C311.048 115.937 310.994 115.843 310.917 115.771V115.733Z" fill="#263238"/>
<path d="M319.7 129.267C319.7 129.267 322.458 130.923 323.288 132.398C324.119 133.873 328.534 144.634 328.352 146.398C328.17 148.162 324.026 149.249 324.026 149.249L319.7 143.649L321.678 142.469L319.7 138.656V129.267Z" fill="#455A64"/>
<path d="M324.035 149.235C324.035 149.235 314.011 151.242 310.371 146.902L311.426 143.238C311.426 143.238 318.048 144.806 320.12 144.134L324.035 149.235Z" fill="#FFBE9D"/>
<path d="M325.071 140.331C325.108 140.406 323.895 140.914 322.63 141.88C321.366 142.846 320.568 143.892 320.502 143.84C320.616 143.579 320.774 143.339 320.969 143.131C321.41 142.596 321.909 142.112 322.458 141.689C323.01 141.269 323.606 140.911 324.236 140.62C324.496 140.478 324.778 140.38 325.071 140.331Z" fill="#263238"/>
<path d="M321.856 142.333C321.498 141.767 321.197 141.169 320.955 140.545C320.635 139.959 320.361 139.349 320.134 138.721C320.574 139.233 320.926 139.815 321.174 140.443C321.489 141.038 321.718 141.674 321.856 142.333Z" fill="#263238"/>
<path d="M320.036 137.802C320.009 137.276 319.928 136.753 319.793 136.244C319.708 135.721 319.572 135.209 319.387 134.713C319.5 135.762 319.717 136.797 320.036 137.802Z" fill="#263238"/>
<path d="M302.041 130.667C302.233 130.867 304.986 132.692 305.905 135.8C306.825 138.908 307.837 142.151 307.837 142.151L311.426 142.618L309.401 150.897C308.03 150.685 306.721 150.182 305.563 149.42C304.404 148.658 303.423 147.656 302.685 146.482C301.084 143.691 299.788 140.736 298.821 137.667C298.821 137.667 299.125 127.615 302.041 130.667Z" fill="#455A64"/>
<path d="M310.194 142.454C310.194 142.454 308.672 139.048 308.467 139.001C308.262 138.954 305.326 137.923 305.326 137.923C305.237 138.162 305.237 138.426 305.326 138.665L304.267 138.8C304.267 138.8 304.426 139.449 304.785 139.538L304.402 139.878C304.594 140.131 304.84 140.338 305.121 140.485C305.229 140.538 305.348 140.566 305.469 140.566C305.589 140.566 305.708 140.538 305.816 140.485C305.816 140.485 305.686 140.728 306.283 141.11C306.88 141.493 307.921 142.044 307.921 142.044L310.194 142.454Z" fill="#FFBE9D"/>
<path d="M307.926 142.062C307.926 142.062 306.885 141.493 306.288 141.129C305.77 140.802 305.784 140.578 305.821 140.513C305.714 140.561 305.598 140.586 305.481 140.586C305.363 140.586 305.247 140.561 305.14 140.513C304.858 140.363 304.611 140.154 304.416 139.901L304.766 139.533C304.416 139.43 304.262 138.819 304.258 138.791L305.312 138.655C305.228 138.417 305.228 138.156 305.312 137.918C305.34 137.918 308.257 138.954 308.458 138.996C308.658 139.038 310.124 142.314 310.189 142.454L307.926 142.062ZM305.331 138.66L304.272 138.795C304.272 138.87 304.454 139.439 304.785 139.523L304.398 139.864C304.586 140.114 304.829 140.318 305.107 140.461C305.215 140.514 305.333 140.541 305.452 140.541C305.572 140.541 305.69 140.514 305.798 140.461V140.489C305.798 140.489 305.677 140.732 306.265 141.105C306.853 141.479 307.865 142.039 307.902 142.039L310.156 142.435C309.624 141.255 308.593 139.033 308.439 139.001C308.285 138.968 305.462 137.979 305.303 137.923C305.22 138.163 305.23 138.426 305.331 138.66Z" fill="#EB996E"/>
<path d="M305.42 138.675C306.04 138.976 306.683 139.227 307.343 139.426C307.613 139.524 307.879 139.594 308.089 139.697C308.277 139.786 308.431 139.933 308.528 140.117C308.705 140.434 308.771 140.663 308.799 140.653C308.787 140.446 308.73 140.243 308.631 140.061C308.532 139.85 308.369 139.677 308.164 139.566C307.915 139.454 307.659 139.358 307.399 139.277C306.754 139.029 306.093 138.827 305.42 138.675Z" fill="#EB996E"/>
<path d="M304.734 139.533C304.897 139.631 305.078 139.696 305.266 139.725C305.602 139.818 306.078 139.893 306.582 140.028C307.011 140.135 307.416 140.325 307.772 140.588C308.043 140.798 308.159 140.98 308.183 140.966C308.117 140.781 308.001 140.62 307.847 140.499C307.494 140.197 307.075 139.981 306.624 139.869C306.106 139.729 305.625 139.673 305.289 139.613C305.108 139.566 304.921 139.539 304.734 139.533Z" fill="#EB996E"/>
<path d="M307.427 141.092C307.254 140.858 307.004 140.693 306.722 140.625C306.455 140.505 306.157 140.477 305.873 140.546C305.873 140.597 306.246 140.62 306.671 140.774C307.095 140.928 307.399 141.129 307.427 141.092Z" fill="#EB996E"/>
<path d="M311.118 143.5L320.167 138.936L321.823 142.31C321.823 142.31 313.484 150.574 309.578 150.467" fill="#FFBE9D"/>
<path d="M305.621 133.933C305.634 134.161 305.675 134.386 305.742 134.605C305.84 135.011 305.98 135.571 306.148 136.187C306.316 136.803 306.475 137.363 306.615 137.764C306.666 137.984 306.744 138.197 306.848 138.399C306.832 138.172 306.791 137.949 306.727 137.731C306.629 137.325 306.489 136.765 306.321 136.145C306.153 135.524 305.994 134.973 305.854 134.577C305.801 134.354 305.723 134.138 305.621 133.933Z" fill="#263238"/>
<path d="M306.013 145.165C306.041 145.165 306.12 144.75 306.33 144.101C306.449 143.725 306.632 143.371 306.871 143.056C307.158 142.682 307.571 142.425 308.033 142.333C308.516 142.31 309 142.366 309.466 142.496L310.651 142.734C310.8 142.754 310.946 142.791 311.085 142.846C311.184 142.89 311.263 142.97 311.305 143.07C311.323 143.113 311.333 143.159 311.333 143.205C311.333 143.252 311.323 143.298 311.305 143.341C311.305 143.341 311.431 143.266 311.379 143.051C311.361 142.99 311.331 142.933 311.29 142.884C311.249 142.835 311.198 142.795 311.141 142.767C310.993 142.698 310.836 142.649 310.675 142.622L309.494 142.351C309.011 142.208 308.508 142.148 308.005 142.174C307.497 142.274 307.045 142.562 306.741 142.981C306.498 143.313 306.318 143.686 306.209 144.083C306.132 144.347 306.071 144.615 306.027 144.885C306.008 144.978 306.003 145.072 306.013 145.165Z" fill="#263238"/>
<path d="M304.767 143.346C305.014 142.909 305.345 142.525 305.742 142.217C306.181 141.955 306.651 141.751 307.142 141.61C306.986 141.585 306.826 141.598 306.675 141.647C306.311 141.723 305.967 141.872 305.663 142.086C305.355 142.3 305.101 142.583 304.921 142.912C304.832 143.041 304.779 143.19 304.767 143.346Z" fill="#263238"/>
<path d="M298.821 137.666C298.821 137.666 298.821 137.727 298.868 137.843C298.915 137.96 298.966 138.137 299.036 138.338C299.19 138.805 299.4 139.402 299.661 140.153C299.923 140.905 300.24 141.838 300.688 142.818C301.136 143.798 301.663 144.853 302.303 145.921C302.9 146.933 303.661 147.839 304.557 148.6C305.286 149.223 306.104 149.734 306.983 150.117C307.579 150.373 308.207 150.547 308.85 150.635C309.023 150.661 309.198 150.678 309.373 150.686C309.494 150.686 309.555 150.686 309.555 150.686C309.555 150.686 309.307 150.658 308.859 150.579C308.232 150.466 307.62 150.276 307.039 150.014C305.12 149.127 303.518 147.673 302.452 145.847C301.817 144.787 301.304 143.719 300.833 142.762C300.361 141.805 300.058 140.895 299.773 140.121C299.489 139.346 299.269 138.744 299.101 138.319L298.905 137.853C298.884 137.788 298.856 137.725 298.821 137.666Z" fill="#263238"/>
<path d="M301.416 130.862C301.416 130.909 302.107 131.161 302.895 131.632C303.684 132.104 304.249 132.594 304.295 132.566C303.532 131.726 302.534 131.136 301.43 130.872L301.416 130.862Z" fill="#263238"/>
<path d="M308.281 152.852C308.429 152.942 308.586 153.02 308.747 153.085C308.901 153.16 309.088 153.244 309.307 153.328C309.527 153.412 309.774 153.524 310.063 153.612C310.723 153.847 311.397 154.044 312.079 154.2C312.918 154.385 313.768 154.519 314.623 154.602C315.48 154.672 316.34 154.688 317.199 154.648C317.899 154.616 318.597 154.542 319.289 154.429C319.583 154.387 319.849 154.326 320.078 154.28C320.307 154.233 320.512 154.182 320.671 154.14C320.841 154.102 321.007 154.052 321.17 153.99C320.997 154.008 320.826 154.037 320.657 154.079C320.498 154.112 320.297 154.154 320.064 154.191C319.831 154.228 319.565 154.284 319.271 154.317C318.581 154.416 317.886 154.478 317.189 154.504C316.338 154.532 315.486 154.51 314.637 154.438C313.789 154.359 312.946 154.232 312.112 154.056C311.433 153.907 310.761 153.723 310.101 153.505C309.811 153.421 309.564 153.323 309.34 153.244C309.116 153.164 308.929 153.09 308.775 153.029C308.615 152.959 308.449 152.899 308.281 152.852Z" fill="#263238"/>
<path d="M315.63 157.551C316.258 157.47 316.874 157.313 317.464 157.084C318.071 156.91 318.654 156.662 319.2 156.347C319.2 156.305 318.398 156.603 317.413 156.93C316.428 157.257 315.621 157.509 315.63 157.551Z" fill="#263238"/>
<g opacity="0.3">
<path d="M322.537 149.482C320.469 149.891 318.345 149.922 316.265 149.575C315.51 149.347 314.72 149.252 313.932 149.295C313.307 149.447 312.704 149.676 312.135 149.977C311.062 150.418 309.895 150.587 308.74 150.467C307.586 150.347 306.478 149.943 305.518 149.291C305.856 149.936 306.343 150.49 306.939 150.909C307.535 151.327 308.222 151.596 308.943 151.694C310.387 151.877 311.853 151.747 313.241 151.311C314.068 151.042 314.923 150.869 315.789 150.798C316.891 150.77 317.969 151.129 319.056 151.148C320.331 151.185 321.584 150.807 322.626 150.07L322.537 149.482Z" fill="black"/>
</g>
<g opacity="0.3">
<path d="M318.953 156.669C318.49 157.448 317.849 158.107 317.084 158.593C316.319 159.08 315.45 159.38 314.548 159.469C314.158 159.518 313.763 159.486 313.386 159.376C313.197 159.32 313.022 159.227 312.871 159.101C312.72 158.975 312.597 158.819 312.509 158.643C312.927 158.375 313.39 158.183 313.876 158.078L318.902 156.702" fill="black"/>
</g>
<path d="M321.688 142.445C321.565 142.596 321.429 142.735 321.282 142.861C321.011 143.122 320.619 143.495 320.157 143.971C319.695 144.447 319.144 145.035 318.472 145.619C317.8 146.202 317.035 146.804 316.228 147.429C315.468 148.024 314.672 148.569 313.843 149.063C313.164 149.467 312.444 149.801 311.696 150.057C311.192 150.228 310.674 150.355 310.147 150.435C309.956 150.468 309.762 150.479 309.568 150.467C310.27 150.319 310.962 150.129 311.64 149.898C312.368 149.621 313.067 149.278 313.731 148.871C314.539 148.371 315.318 147.826 316.064 147.238C316.872 146.613 317.642 146.02 318.309 145.451C318.976 144.881 319.536 144.317 320.022 143.85C320.507 143.383 320.918 143.029 321.207 142.791C321.352 142.656 321.514 142.54 321.688 142.445Z" fill="#EB996E"/>
<path fill-rule="evenodd" clip-rule="evenodd" d="M235.739 87.8856C236.996 88.257 238.432 88.275 240.049 87.9397C240.776 87.7888 241.519 87.5084 242.276 87.0983C243.055 86.684 243.755 86.2014 244.378 85.6507C244.378 85.6507 244.839 85.1925 245.23 84.5959L242.344 82.2743C242.198 82.4979 242.095 82.6354 241.846 82.8887C241.596 83.1421 241.086 83.5416 240.675 83.7955C240.284 84.0451 239.856 84.2181 239.391 84.3145C238.745 84.4487 238.13 84.4288 237.546 84.2549C237.17 84.1431 236.829 83.9674 236.523 83.7278L245.579 78.6373C244.783 76.6317 243.656 75.2113 242.198 74.376C240.755 73.5163 239.084 73.2834 237.185 73.6774C235.771 73.9708 234.555 74.5602 233.537 75.4456C232.516 76.3108 231.772 77.3501 231.308 78.5634C230.843 79.7767 230.749 81.05 231.025 82.3834C231.314 83.7775 231.863 84.9491 232.671 85.8984C233.479 86.8476 234.502 87.51 235.739 87.8856ZM240.626 78.3719L235.218 81.5402C235.196 81.4532 235.176 81.3643 235.157 81.2734C235.006 80.5461 234.998 79.8946 235.131 79.319C235.28 78.7191 235.558 78.2294 235.964 77.8502C236.386 77.4466 236.91 77.1798 237.537 77.0498C238.365 76.878 239.023 76.9522 239.511 77.2724C239.987 77.5517 240.358 77.9182 240.626 78.3719Z" fill="#00509B"/>
<path d="M222.098 77.4707L226.341 76.5906L229.088 89.834L224.846 90.7141L222.098 77.4707ZM221.033 72.7923C220.903 72.166 221.038 71.6005 221.439 71.0958C221.861 70.587 222.354 70.2739 222.92 70.1565C223.486 70.0392 224.043 70.1343 224.591 70.442C225.16 70.7455 225.509 71.2104 225.639 71.8367C225.769 72.463 225.634 73.0285 225.233 73.5331C224.847 74.0134 224.372 74.3122 223.806 74.4296C223.241 74.5469 222.665 74.4661 222.081 74.187C221.512 73.8835 221.163 73.4186 221.033 72.7923Z" fill="#00509B"/>
<path d="M213.021 83.7477L214.662 79.0135L218.875 78.1396L215.141 86.5005L213.021 83.7477ZM222.349 91.2321L217.228 92.2946L204.268 81.1699L209.48 80.0886L222.349 91.2321ZM213.469 88.6491L211.379 93.508L207.166 94.3819L210.938 86.2028L213.469 88.6491Z" fill="#00509B"/>
<path d="M195.36 97.5092C194.142 97.7619 193.043 97.6023 192.063 97.0304C191.079 96.4379 190.442 95.5474 190.152 94.3586L188.052 84.2334L192.387 83.3341L194.153 91.8492C194.319 92.4393 194.574 92.8923 194.92 93.2082C195.261 93.5034 195.751 93.5847 196.391 93.4519C197.031 93.3192 197.533 92.9889 197.897 92.4612C198.282 91.9292 198.521 91.266 198.615 90.4714C198.725 89.652 198.681 88.7675 198.484 87.8179L197.341 82.3063L201.676 81.407L204.483 94.9383L200.551 95.7541L199.696 93.3476L199.816 93.6135C199.622 94.235 199.332 94.8118 198.948 95.3438C198.563 95.8758 198.064 96.3239 197.45 96.688C196.862 97.0684 196.165 97.3422 195.36 97.5092Z" fill="#00509B"/>
<path d="M187.22 97.2333C186.709 97.845 186.02 98.3946 185.154 98.8822C184.309 99.3654 183.443 99.6989 182.558 99.8825C180.977 100.211 179.537 100.212 178.238 99.8881C176.956 99.5384 175.877 98.8937 175 97.9541C174.14 96.9891 173.551 95.737 173.232 94.1981C172.912 92.6591 172.989 91.2798 173.462 90.0603C173.93 88.8198 174.664 87.799 175.663 86.9979C176.683 86.1926 177.815 85.6609 179.059 85.4028C180.303 85.1448 181.413 85.0904 182.39 85.2396C183.387 85.3845 184.27 85.6632 185.037 86.0758L183.477 89.3679C183.134 89.1973 182.675 89.0506 182.099 88.9281C181.541 88.7801 180.914 88.7782 180.218 88.9225C179.607 89.0494 179.081 89.3234 178.641 89.7446C178.2 90.1658 177.889 90.681 177.708 91.2904C177.526 91.8998 177.51 92.5628 177.659 93.2796C177.799 93.9542 178.086 94.5434 178.52 95.047C178.954 95.5506 179.481 95.9142 180.099 96.1378C180.734 96.3359 181.43 96.3563 182.189 96.1988C182.674 96.0982 183.104 95.9431 183.478 95.7335C183.869 95.4985 184.186 95.2239 184.429 94.9097L187.22 97.2333Z" fill="#00509B"/>
</svg>
