<svg width="17" height="16" viewBox="0 0 17 16" fill="none" xmlns="http://www.w3.org/2000/svg">
<g id="Frame">
<path id="Vector" d="M4.84984 14C4.58317 14 4.34984 13.9 4.14984 13.7C3.94984 13.5 3.84984 13.2667 3.84984 13V3.5H3.6665C3.52206 3.5 3.40262 3.45278 3.30817 3.35833C3.21373 3.26389 3.1665 3.14444 3.1665 3C3.1665 2.85556 3.21373 2.73611 3.30817 2.64167C3.40262 2.54722 3.52206 2.5 3.6665 2.5H6.29984C6.29984 2.35556 6.34706 2.23611 6.4415 2.14167C6.53595 2.04722 6.65539 2 6.79984 2H10.1998C10.3443 2 10.4637 2.04722 10.5582 2.14167C10.6526 2.23611 10.6998 2.35556 10.6998 2.5H13.3332C13.4776 2.5 13.5971 2.54722 13.6915 2.64167C13.7859 2.73611 13.8332 2.85556 13.8332 3C13.8332 3.14444 13.7859 3.26389 13.6915 3.35833C13.5971 3.45278 13.4776 3.5 13.3332 3.5H13.1498V13C13.1498 13.2667 13.0498 13.5 12.8498 13.7C12.6498 13.9 12.4165 14 12.1498 14H4.84984ZM4.84984 3.5V13H12.1498V3.5H4.84984ZM6.6165 11.0667C6.6165 11.2111 6.66373 11.3306 6.75817 11.425C6.85261 11.5194 6.97206 11.5667 7.1165 11.5667C7.26095 11.5667 7.38039 11.5194 7.47484 11.425C7.56928 11.3306 7.6165 11.2111 7.6165 11.0667V5.41667C7.6165 5.27222 7.56928 5.15278 7.47484 5.05833C7.38039 4.96389 7.26095 4.91667 7.1165 4.91667C6.97206 4.91667 6.85261 4.96389 6.75817 5.05833C6.66373 5.15278 6.6165 5.27222 6.6165 5.41667V11.0667ZM9.38317 11.0667C9.38317 11.2111 9.43039 11.3306 9.52484 11.425C9.61928 11.5194 9.73873 11.5667 9.88317 11.5667C10.0276 11.5667 10.1471 11.5194 10.2415 11.425C10.3359 11.3306 10.3832 11.2111 10.3832 11.0667V5.41667C10.3832 5.27222 10.3359 5.15278 10.2415 5.05833C10.1471 4.96389 10.0276 4.91667 9.88317 4.91667C9.73873 4.91667 9.61928 4.96389 9.52484 5.05833C9.43039 5.15278 9.38317 5.27222 9.38317 5.41667V11.0667ZM4.84984 3.5V13V3.5Z" fill="white"/>
</g>
</svg>
