<svg width="17" height="16" viewBox="0 0 17 16" fill="none" xmlns="http://www.w3.org/2000/svg">
<g id="Icon set">
<path id="Vector" d="M15.0836 4.20513V11.7948C15.0836 12.1316 14.967 12.4166 14.7336 12.65C14.5003 12.8833 14.2152 13 13.8785 13H3.62213C3.28537 13 3.00033 12.8833 2.76699 12.65C2.53366 12.4166 2.41699 12.1316 2.41699 11.7948V4.20513C2.41699 3.86838 2.53366 3.58333 2.76699 3.35C3.00033 3.11667 3.28537 3 3.62213 3H13.8785C14.2152 3 14.5003 3.11667 14.7336 3.35C14.967 3.58333 15.0836 3.86838 15.0836 4.20513ZM3.41698 5.60257H14.0836V4.20513C14.0836 4.15385 14.0623 4.10683 14.0195 4.06408C13.9768 4.02135 13.9298 3.99998 13.8785 3.99998H3.62213C3.57084 3.99998 3.52382 4.02135 3.48108 4.06408C3.43834 4.10683 3.41698 4.15385 3.41698 4.20513V5.60257ZM3.41698 7.73073V11.7948C3.41698 11.8461 3.43834 11.8931 3.48108 11.9359C3.52382 11.9786 3.57084 12 3.62213 12H13.8785C13.9298 12 13.9768 11.9786 14.0195 11.9359C14.0623 11.8931 14.0836 11.8461 14.0836 11.7948V7.73073H3.41698Z" fill="#FDFBFF"/>
</g>
</svg>
