<svg width="17" height="16" viewBox="0 0 17 16" fill="none" xmlns="http://www.w3.org/2000/svg">
<g id="Icon set">
<mask id="mask0_3522_12904" style="mask-type:alpha" maskUnits="userSpaceOnUse" x="0" y="0" width="17" height="16">
<rect id="Bounding box" x="0.75" width="16" height="16" fill="#D9D9D9"/>
</mask>
<g mask="url(#mask0_3522_12904)">
<path id="package_2" d="M8.24967 13.0466V8.28764L4.08299 5.87482V10.5184C4.08299 10.5526 4.09154 10.5847 4.10864 10.6146C4.12573 10.6445 4.15137 10.6701 4.18556 10.6915L8.24967 13.0466ZM9.24964 13.0466L13.3138 10.6915C13.3479 10.6701 13.3736 10.6445 13.3907 10.6146C13.4078 10.5847 13.4163 10.5526 13.4163 10.5184V5.87482L9.24964 8.28764V13.0466ZM8.14709 14.1376L3.68557 11.5697C3.49583 11.4603 3.34797 11.3141 3.24199 11.1312C3.136 10.9483 3.08301 10.7475 3.08301 10.5287V5.47227C3.08301 5.25347 3.136 5.05262 3.24199 4.86972C3.34797 4.68681 3.49583 4.54065 3.68557 4.43125L8.14709 1.86332C8.33684 1.75392 8.53769 1.69922 8.74966 1.69922C8.96162 1.69922 9.16248 1.75392 9.35223 1.86332L13.8137 4.43125C14.0035 4.54065 14.1513 4.68681 14.2573 4.86972C14.3633 5.05262 14.4163 5.25347 14.4163 5.47227V10.5287C14.4163 10.7475 14.3633 10.9483 14.2573 11.1312C14.1513 11.3141 14.0035 11.4603 13.8137 11.5697L9.35223 14.1376C9.16248 14.247 8.96162 14.3017 8.74966 14.3017C8.53769 14.3017 8.33684 14.247 8.14709 14.1376ZM11.3202 5.93382L12.8663 5.04664L8.85223 2.72484C8.81804 2.70347 8.78385 2.69279 8.74966 2.69279C8.71547 2.69279 8.68128 2.70347 8.64709 2.72484L7.19964 3.55817L11.3202 5.93382ZM8.74966 7.42612L10.2997 6.52869L6.18299 4.14919L4.63297 5.04664L8.74966 7.42612Z" fill="#FDFBFF"/>
</g>
</g>
</svg>
