<svg width="41" height="40" viewBox="0 0 41 40" fill="none" xmlns="http://www.w3.org/2000/svg">
<path d="M23.1667 28.75L15.25 20.8333C15.1111 20.6944 15.0139 20.5556 14.9583 20.4167C14.9028 20.2778 14.875 20.125 14.875 19.9583C14.875 19.7917 14.9028 19.6458 14.9583 19.5208C15.0139 19.3958 15.1111 19.2639 15.25 19.125L23.2083 11.1667C23.4028 10.9722 23.6319 10.875 23.8958 10.875C24.1597 10.875 24.3889 10.9722 24.5833 11.1667C24.75 11.3611 24.8333 11.5972 24.8333 11.875C24.8333 12.1528 24.7361 12.3889 24.5417 12.5833L17.125 19.9583L24.5833 27.4167C24.75 27.6111 24.8333 27.8264 24.8333 28.0625C24.8333 28.2986 24.75 28.5278 24.5833 28.75C24.3889 28.9444 24.1528 29.0417 23.875 29.0417C23.5972 29.0417 23.3611 28.9444 23.1667 28.75Z" fill="black"/>
</svg>
