<svg width="21" height="20" viewBox="0 0 21 20" fill="none" xmlns="http://www.w3.org/2000/svg">
<path d="M12.7501 18.9587H7.75008C3.22508 18.9587 1.29175 17.0253 1.29175 12.5003V7.50033C1.29175 2.97533 3.22508 1.04199 7.75008 1.04199H11.9167C12.2584 1.04199 12.5417 1.32533 12.5417 1.66699C12.5417 2.00866 12.2584 2.29199 11.9167 2.29199H7.75008C3.90841 2.29199 2.54175 3.65866 2.54175 7.50033V12.5003C2.54175 16.342 3.90841 17.7087 7.75008 17.7087H12.7501C16.5917 17.7087 17.9584 16.342 17.9584 12.5003V8.33366C17.9584 7.99199 18.2417 7.70866 18.5834 7.70866C18.9251 7.70866 19.2084 7.99199 19.2084 8.33366V12.5003C19.2084 17.0253 17.2751 18.9587 12.7501 18.9587Z" fill="#2F3033"/>
<path d="M18.5834 8.95841H15.2501C12.4001 8.95841 11.2917 7.85007 11.2917 5.00007V1.66674C11.2917 1.41674 11.4417 1.18341 11.6751 1.09174C11.9084 0.991739 12.1751 1.05007 12.3584 1.22507L19.0251 7.89174C19.2001 8.06674 19.2584 8.34174 19.1584 8.57507C19.0584 8.8084 18.8334 8.95841 18.5834 8.95841ZM12.5417 3.17507V5.00007C12.5417 7.15007 13.1001 7.70841 15.2501 7.70841H17.0751L12.5417 3.17507Z" fill="#2F3033"/>
<path d="M11.0833 11.458H6.08325C5.74159 11.458 5.45825 11.1747 5.45825 10.833C5.45825 10.4913 5.74159 10.208 6.08325 10.208H11.0833C11.4249 10.208 11.7083 10.4913 11.7083 10.833C11.7083 11.1747 11.4249 11.458 11.0833 11.458Z" fill="#2F3033"/>
<path d="M9.41659 14.792H6.08325C5.74159 14.792 5.45825 14.5087 5.45825 14.167C5.45825 13.8253 5.74159 13.542 6.08325 13.542H9.41659C9.75825 13.542 10.0416 13.8253 10.0416 14.167C10.0416 14.5087 9.75825 14.792 9.41659 14.792Z" fill="#2F3033"/>
</svg>
