<svg width="49" height="48" viewBox="0 0 49 48" fill="none" xmlns="http://www.w3.org/2000/svg">
<g clip-path="url(#clip0_3070_6188)">
<path fill-rule="evenodd" clip-rule="evenodd" d="M24.49 14C18.97 14 14.5 18.48 14.5 24C14.5 29.52 18.97 34 24.49 34C30.02 34 34.5 29.52 34.5 24C34.5 18.48 30.02 14 24.49 14ZM24.5 32C20.08 32 16.5 28.42 16.5 24C16.5 19.58 20.08 16 24.5 16C28.92 16 32.5 19.58 32.5 24C32.5 28.42 28.92 32 24.5 32ZM23.5 25.07L28.99 28.36L30.01 26.64L25.5 23.93V18.42H23.5V25.07Z" fill="#252629"/>
</g>
<defs>
<clipPath id="clip0_3070_6188">
<rect x="4.5" y="4" width="40" height="40" rx="20" fill="white"/>
</clipPath>
</defs>
</svg>
