<svg width="20" height="21" viewBox="0 0 20 21" fill="none" xmlns="http://www.w3.org/2000/svg">
<g id="vuesax/bold/tick-circle">
<g id="tick-circle">
<path id="Vector" d="M9.99935 2.27344C5.40768 2.27344 1.66602 6.0151 1.66602 10.6068C1.66602 15.1984 5.40768 18.9401 9.99935 18.9401C14.591 18.9401 18.3327 15.1984 18.3327 10.6068C18.3327 6.0151 14.591 2.27344 9.99935 2.27344ZM13.9827 8.6901L9.25768 13.4151C9.14102 13.5318 8.98268 13.5984 8.81602 13.5984C8.64935 13.5984 8.49102 13.5318 8.37435 13.4151L6.01602 11.0568C5.77435 10.8151 5.77435 10.4151 6.01602 10.1734C6.25768 9.93177 6.65768 9.93177 6.89935 10.1734L8.81602 12.0901L13.0993 7.80677C13.341 7.5651 13.741 7.5651 13.9827 7.80677C14.2243 8.04844 14.2243 8.4401 13.9827 8.6901Z" fill="#36C43D"/>
</g>
</g>
</svg>
