<svg width="19" height="18" viewBox="0 0 19 18" fill="none" xmlns="http://www.w3.org/2000/svg">
<path d="M11.6233 8.99998L5.9738 3.35046C5.82477 3.20142 5.75217 3.02402 5.756 2.81826C5.75985 2.61248 5.8363 2.43508 5.98533 2.28606C6.13437 2.13702 6.31177 2.0625 6.51753 2.0625C6.7233 2.0625 6.9007 2.13702 7.04974 2.28606L12.7916 8.03942C12.9271 8.17499 13.0276 8.32691 13.093 8.49518C13.1584 8.66345 13.1911 8.83172 13.1911 8.99998C13.1911 9.16824 13.1584 9.33651 13.093 9.50479C13.0276 9.67305 12.9271 9.82497 12.7916 9.96054L7.0382 15.7139C6.88917 15.8629 6.71368 15.9355 6.51176 15.9317C6.30985 15.9279 6.13437 15.8514 5.98533 15.7024C5.8363 15.5533 5.76178 15.3759 5.76178 15.1702C5.76178 14.9644 5.8363 14.787 5.98533 14.638L11.6233 8.99998Z" fill="#909094"/>
</svg>
