<svg width="21" height="20" viewBox="0 0 21 20" fill="none" xmlns="http://www.w3.org/2000/svg">
<path d="M17.7501 5.60839C17.7334 5.60839 17.7084 5.60839 17.6834 5.60839C13.2751 5.16673 8.87505 5.00006 4.51672 5.44173L2.81672 5.60839C2.46672 5.64173 2.15839 5.39173 2.12505 5.04173C2.09172 4.69173 2.34172 4.39173 2.68339 4.35839L4.38339 4.19173C8.81672 3.74173 13.3084 3.91673 17.8084 4.35839C18.1501 4.39173 18.4001 4.70006 18.3667 5.04173C18.3417 5.36673 18.0667 5.60839 17.7501 5.60839Z" fill="#2F3033"/>
<path d="M7.33338 4.76699C7.30005 4.76699 7.26672 4.76699 7.22505 4.75866C6.89172 4.70033 6.65838 4.37533 6.71672 4.04199L6.90005 2.95033C7.03338 2.15033 7.21671 1.04199 9.15838 1.04199H11.3417C13.2917 1.04199 13.475 2.19199 13.6 2.95866L13.7834 4.04199C13.8417 4.38366 13.6084 4.70866 13.275 4.75866C12.9334 4.81699 12.6084 4.58366 12.5584 4.25033L12.375 3.16699C12.2584 2.44199 12.2334 2.30033 11.35 2.30033H9.16672C8.28338 2.30033 8.26672 2.41699 8.14172 3.15866L7.95005 4.24199C7.90005 4.55033 7.63338 4.76699 7.33338 4.76699Z" fill="#2F3033"/>
<path d="M12.925 18.9586H7.575C4.66666 18.9586 4.55 17.3503 4.45833 16.0503L3.91666 7.65864C3.89166 7.31697 4.15833 7.01697 4.5 6.99197C4.85 6.97531 5.14166 7.23364 5.16666 7.57531L5.70833 15.967C5.8 17.2336 5.83333 17.7086 7.575 17.7086H12.925C14.675 17.7086 14.7083 17.2336 14.7917 15.967L15.3333 7.57531C15.3583 7.23364 15.6583 6.97531 16 6.99197C16.3417 7.01697 16.6083 7.30864 16.5833 7.65864L16.0417 16.0503C15.95 17.3503 15.8333 18.9586 12.925 18.9586Z" fill="#2F3033"/>
<path d="M11.6334 14.375H8.8584C8.51673 14.375 8.2334 14.0917 8.2334 13.75C8.2334 13.4083 8.51673 13.125 8.8584 13.125H11.6334C11.9751 13.125 12.2584 13.4083 12.2584 13.75C12.2584 14.0917 11.9751 14.375 11.6334 14.375Z" fill="#2F3033"/>
<path d="M12.3334 11.042H8.16675C7.82508 11.042 7.54175 10.7587 7.54175 10.417C7.54175 10.0753 7.82508 9.79199 8.16675 9.79199H12.3334C12.6751 9.79199 12.9584 10.0753 12.9584 10.417C12.9584 10.7587 12.6751 11.042 12.3334 11.042Z" fill="#2F3033"/>
</svg>
